%TF.GenerationSoftware,KiCad,Pcbnew,8.0.3*%
%TF.CreationDate,2024-08-18T16:24:04+10:00*%
%TF.ProjectId,tetris_03,74657472-6973-45f3-9033-2e6b69636164,rev?*%
%TF.SameCoordinates,Original*%
%TF.FileFunction,Profile,NP*%
%FSLAX46Y46*%
G04 Gerber Fmt 4.6, Leading zero omitted, Abs format (unit mm)*
G04 Created by KiCad (PCBNEW 8.0.3) date 2024-08-18 16:24:04*
%MOMM*%
%LPD*%
G01*
G04 APERTURE LIST*
%TA.AperFunction,Profile*%
%ADD10C,0.109140*%
%TD*%
G04 APERTURE END LIST*
D10*
X139561518Y-32112978D02*
X140423449Y-32155194D01*
X141257018Y-32225563D01*
X142062242Y-32324095D01*
X142839136Y-32450797D01*
X143587716Y-32605676D01*
X144307999Y-32788741D01*
X145000000Y-33000000D01*
X145663735Y-33239460D01*
X146299221Y-33507130D01*
X146906472Y-33803018D01*
X147485507Y-34127132D01*
X148036339Y-34479480D01*
X148558985Y-34860069D01*
X149053462Y-35268908D01*
X149519785Y-35706005D01*
X149957970Y-36171367D01*
X150368034Y-36665003D01*
X150749991Y-37186921D01*
X151103859Y-37737129D01*
X151429653Y-38315634D01*
X151727389Y-38922445D01*
X151997083Y-39557569D01*
X152238751Y-40221016D01*
X152452410Y-40912792D01*
X152638074Y-41632905D01*
X152795761Y-42381364D01*
X152925485Y-43158177D01*
X153027264Y-43963352D01*
X153101113Y-44796896D01*
X153147047Y-45658817D01*
X153165084Y-46549125D01*
X153165084Y-61479562D01*
X153150890Y-62369870D01*
X153108318Y-63231792D01*
X153037385Y-64065336D01*
X152938106Y-64870510D01*
X152810497Y-65647323D01*
X152654575Y-66395783D01*
X152470355Y-67115896D01*
X152257853Y-67807672D01*
X152017085Y-68471118D01*
X151748068Y-69106243D01*
X151450817Y-69713054D01*
X151125349Y-70291559D01*
X150771678Y-70841767D01*
X150389822Y-71363684D01*
X149979796Y-71857320D01*
X149541616Y-72322683D01*
X149075298Y-72759780D01*
X148580859Y-73168618D01*
X148058313Y-73549208D01*
X147507678Y-73901555D01*
X146928969Y-74225669D01*
X146322202Y-74521557D01*
X145687393Y-74789227D01*
X145024559Y-75028688D01*
X144333714Y-75239946D01*
X143614875Y-75423011D01*
X142868059Y-75577891D01*
X142093280Y-75704592D01*
X141290556Y-75803124D01*
X140459902Y-75873493D01*
X139601333Y-75915709D01*
X138714867Y-75929780D01*
X132079115Y-75929780D01*
X132046634Y-75929018D01*
X132014696Y-75926753D01*
X131983334Y-75923017D01*
X131952580Y-75917843D01*
X131922465Y-75911261D01*
X131893021Y-75903305D01*
X131864281Y-75894006D01*
X131836276Y-75883395D01*
X131809039Y-75871506D01*
X131782601Y-75858370D01*
X131756995Y-75844019D01*
X131732252Y-75828484D01*
X131708404Y-75811799D01*
X131685483Y-75793994D01*
X131663522Y-75775102D01*
X131642552Y-75755156D01*
X131622605Y-75734186D01*
X131603713Y-75712224D01*
X131585909Y-75689304D01*
X131569223Y-75665456D01*
X131553689Y-75640713D01*
X131539338Y-75615106D01*
X131526202Y-75588668D01*
X131514312Y-75561431D01*
X131503702Y-75533426D01*
X131494403Y-75504686D01*
X131486446Y-75475243D01*
X131479865Y-75445128D01*
X131474690Y-75414373D01*
X131470955Y-75383011D01*
X131468690Y-75351074D01*
X131467928Y-75318592D01*
X131467166Y-75286111D01*
X131464901Y-75254173D01*
X131461165Y-75222811D01*
X131455991Y-75192057D01*
X131449409Y-75161942D01*
X131441453Y-75132498D01*
X131432153Y-75103758D01*
X131421543Y-75075753D01*
X131409654Y-75048516D01*
X131396517Y-75022078D01*
X131382166Y-74996472D01*
X131366631Y-74971729D01*
X131349946Y-74947881D01*
X131332141Y-74924960D01*
X131313249Y-74902999D01*
X131293303Y-74882029D01*
X131272332Y-74862082D01*
X131250371Y-74843190D01*
X131227450Y-74825386D01*
X131203602Y-74808700D01*
X131178859Y-74793166D01*
X131153253Y-74778815D01*
X131126815Y-74765679D01*
X131099578Y-74753789D01*
X131071573Y-74743179D01*
X131042833Y-74733880D01*
X131013390Y-74725923D01*
X130983275Y-74719342D01*
X130952521Y-74714167D01*
X130921159Y-74710432D01*
X130889221Y-74708167D01*
X130856740Y-74707405D01*
X125923584Y-74707405D01*
X125891103Y-74708167D01*
X125859165Y-74710432D01*
X125827803Y-74714167D01*
X125797048Y-74719342D01*
X125766933Y-74725923D01*
X125737490Y-74733880D01*
X125708749Y-74743179D01*
X125680745Y-74753789D01*
X125653507Y-74765679D01*
X125627070Y-74778815D01*
X125601463Y-74793166D01*
X125576720Y-74808700D01*
X125552872Y-74825386D01*
X125529951Y-74843190D01*
X125507990Y-74862082D01*
X125487020Y-74882029D01*
X125467073Y-74902999D01*
X125448181Y-74924960D01*
X125430376Y-74947881D01*
X125413691Y-74971729D01*
X125398156Y-74996472D01*
X125383805Y-75022078D01*
X125370669Y-75048516D01*
X125358779Y-75075753D01*
X125348169Y-75103758D01*
X125338870Y-75132498D01*
X125330913Y-75161942D01*
X125324332Y-75192057D01*
X125319157Y-75222811D01*
X125315422Y-75254173D01*
X125313157Y-75286111D01*
X125311633Y-75351074D01*
X125309368Y-75383011D01*
X125305632Y-75414373D01*
X125300457Y-75445128D01*
X125293876Y-75475243D01*
X125285920Y-75504686D01*
X125276620Y-75533426D01*
X125266010Y-75561431D01*
X125254121Y-75588668D01*
X125240984Y-75615106D01*
X125226633Y-75640713D01*
X125211098Y-75665456D01*
X125194413Y-75689304D01*
X125176608Y-75712224D01*
X125157716Y-75734186D01*
X125137769Y-75755156D01*
X125116799Y-75775102D01*
X125094838Y-75793994D01*
X125071917Y-75811799D01*
X125048069Y-75828484D01*
X125023326Y-75844019D01*
X124997720Y-75858370D01*
X124971282Y-75871506D01*
X124944045Y-75883395D01*
X124916040Y-75894006D01*
X124887300Y-75903305D01*
X124857857Y-75911261D01*
X124827742Y-75917843D01*
X124796988Y-75923017D01*
X124765626Y-75926753D01*
X124733688Y-75929018D01*
X124701207Y-75929780D01*
X118065458Y-75929780D01*
X117175150Y-75915586D01*
X116313228Y-75873014D01*
X115479684Y-75802080D01*
X114674510Y-75702801D01*
X113897697Y-75575193D01*
X113149238Y-75419270D01*
X112429124Y-75235050D01*
X111737348Y-75022548D01*
X111073902Y-74781781D01*
X110438778Y-74512764D01*
X109831967Y-74215513D01*
X109253461Y-73890044D01*
X108703254Y-73536374D01*
X108181336Y-73154517D01*
X107687700Y-72744491D01*
X107222337Y-72306312D01*
X106785241Y-71839994D01*
X106376402Y-71345554D01*
X105995812Y-70823009D01*
X105643465Y-70272374D01*
X105319351Y-69693665D01*
X105023463Y-69086898D01*
X104755793Y-68452089D01*
X104516332Y-67789254D01*
X104305073Y-67098410D01*
X104122008Y-66379571D01*
X103967129Y-65632755D01*
X103840428Y-64857976D01*
X103741896Y-64055252D01*
X103671526Y-63224597D01*
X103629310Y-62366029D01*
X103615240Y-61479562D01*
X103615240Y-46549125D01*
X103629310Y-45658817D01*
X103671526Y-44796896D01*
X103741896Y-43963352D01*
X103840428Y-43158177D01*
X103967129Y-42381364D01*
X104122008Y-41632905D01*
X104305073Y-40912792D01*
X104516332Y-40221016D01*
X104755793Y-39557569D01*
X105023463Y-38922445D01*
X105319351Y-38315634D01*
X105643465Y-37737129D01*
X105995812Y-37186921D01*
X106376402Y-36665003D01*
X106785241Y-36171367D01*
X107222337Y-35706005D01*
X107687700Y-35268908D01*
X108181336Y-34860069D01*
X108703254Y-34479480D01*
X109253461Y-34127132D01*
X109831967Y-33803018D01*
X110438778Y-33507130D01*
X111073902Y-33239460D01*
X111737348Y-33000000D01*
X112429124Y-32788741D01*
X113149238Y-32605676D01*
X113897697Y-32450797D01*
X114674510Y-32324095D01*
X115479684Y-32225563D01*
X116313228Y-32155194D01*
X117175150Y-32112978D01*
X118065458Y-32098907D01*
X138671210Y-32098907D01*
X139561518Y-32112978D01*
M02*
