%TF.GenerationSoftware,KiCad,Pcbnew,8.0.3*%
%TF.CreationDate,2024-08-18T16:24:04+10:00*%
%TF.ProjectId,tetris_03,74657472-6973-45f3-9033-2e6b69636164,rev?*%
%TF.SameCoordinates,Original*%
%TF.FileFunction,Copper,L2,Bot*%
%TF.FilePolarity,Positive*%
%FSLAX46Y46*%
G04 Gerber Fmt 4.6, Leading zero omitted, Abs format (unit mm)*
G04 Created by KiCad (PCBNEW 8.0.3) date 2024-08-18 16:24:04*
%MOMM*%
%LPD*%
G01*
G04 APERTURE LIST*
%TA.AperFunction,ComponentPad*%
%ADD10R,1.700000X1.700000*%
%TD*%
%TA.AperFunction,ComponentPad*%
%ADD11O,1.700000X1.700000*%
%TD*%
%TA.AperFunction,TestPad*%
%ADD12O,2.032000X0.762000*%
%TD*%
%TA.AperFunction,SMDPad,CuDef*%
%ADD13R,0.700000X2.000000*%
%TD*%
%TA.AperFunction,SMDPad,CuDef*%
%ADD14R,2.000000X1.000000*%
%TD*%
%TA.AperFunction,SMDPad,CuDef*%
%ADD15R,6.000000X3.600000*%
%TD*%
%TA.AperFunction,ViaPad*%
%ADD16C,0.600000*%
%TD*%
%TA.AperFunction,Conductor*%
%ADD17C,0.200000*%
%TD*%
G04 APERTURE END LIST*
D10*
%TO.P,OLED,1,Pin_1*%
%TO.N,GND*%
X124750000Y-37000000D03*
D11*
%TO.P,OLED,2,Pin_2*%
%TO.N,VCC*%
X127290000Y-37000000D03*
%TO.P,OLED,3,Pin_3*%
%TO.N,Net-(J1-Pin_5)*%
X129830000Y-37000000D03*
%TO.P,OLED,4,Pin_4*%
%TO.N,Net-(J1-Pin_3)*%
X132370000Y-37000000D03*
%TD*%
D12*
%TO.P,J1,1,Pin_1*%
%TO.N,GND*%
X105500000Y-49700000D03*
%TO.P,J1,2,Pin_2*%
%TO.N,Net-(J1-Pin_2)*%
X105500000Y-50970000D03*
%TO.P,J1,3,Pin_3*%
%TO.N,Net-(J1-Pin_3)*%
X105500000Y-52240000D03*
%TO.P,J1,4,Pin_4*%
%TO.N,Net-(J1-Pin_4)*%
X105500000Y-53510000D03*
%TO.P,J1,5,Pin_5*%
%TO.N,Net-(J1-Pin_5)*%
X105500000Y-54780000D03*
%TO.P,J1,6,Pin_6*%
%TO.N,VCC*%
X105500000Y-56050000D03*
%TD*%
D13*
%TO.P,POWER,3,C*%
%TO.N,unconnected-(SW1-C-Pad3)*%
X126125000Y-70570000D03*
%TO.P,POWER,2,B*%
%TO.N,Net-(CR2032-+)*%
X127625000Y-70570000D03*
%TO.P,POWER,1,A*%
%TO.N,VCC*%
X130625000Y-70570000D03*
D14*
%TO.P,POWER,*%
%TO.N,*%
X124225000Y-71470000D03*
X124225000Y-73680000D03*
X132525000Y-71470000D03*
X132525000Y-73680000D03*
%TD*%
D15*
%TO.P,CR2032,1,+*%
%TO.N,Net-(CR2032-+)*%
X114200000Y-54000000D03*
%TO.P,CR2032,2,-*%
%TO.N,GND*%
X143500000Y-54000000D03*
%TD*%
D16*
%TO.N,Net-(J1-Pin_2)*%
X128750000Y-52900000D03*
%TO.N,Net-(J1-Pin_3)*%
X109500000Y-52200000D03*
X128750000Y-46750000D03*
%TO.N,VCC*%
X128750000Y-56250000D03*
X109500000Y-56000000D03*
X126400000Y-46700000D03*
%TO.N,Net-(J1-Pin_5)*%
X109500000Y-54800000D03*
%TO.N,Net-(J1-Pin_4)*%
X109500000Y-53500000D03*
X120100000Y-48750000D03*
X121675000Y-49925000D03*
%TD*%
D17*
%TO.N,Net-(CR2032-+)*%
X114200000Y-54000000D02*
X121750000Y-54000000D01*
X127625000Y-59875000D02*
X127625000Y-70570000D01*
X121750000Y-54000000D02*
X127625000Y-59875000D01*
%TO.N,Net-(J1-Pin_2)*%
X128750000Y-52900000D02*
X126850000Y-51000000D01*
X105530000Y-51000000D02*
X105500000Y-50970000D01*
X126850000Y-51000000D02*
X105530000Y-51000000D01*
%TO.N,Net-(J1-Pin_3)*%
X128750000Y-46750000D02*
X128750000Y-42750000D01*
X131250000Y-41500000D02*
X132370000Y-40380000D01*
X130000000Y-41500000D02*
X131250000Y-41500000D01*
X109460000Y-52240000D02*
X109500000Y-52200000D01*
X105500000Y-52240000D02*
X109460000Y-52240000D01*
X128750000Y-42750000D02*
X130000000Y-41500000D01*
X132370000Y-40380000D02*
X132370000Y-37000000D01*
%TO.N,VCC*%
X130100000Y-54900000D02*
X128750000Y-56250000D01*
X130625000Y-70820000D02*
X130625000Y-58125000D01*
X109450000Y-56050000D02*
X109500000Y-56000000D01*
X105500000Y-56050000D02*
X109450000Y-56050000D01*
X130100000Y-50400000D02*
X130100000Y-54900000D01*
X130625000Y-58125000D02*
X128750000Y-56250000D01*
X126400000Y-46700000D02*
X130100000Y-50400000D01*
%TO.N,Net-(J1-Pin_5)*%
X109480000Y-54780000D02*
X109500000Y-54800000D01*
X105500000Y-54780000D02*
X109480000Y-54780000D01*
%TO.N,Net-(J1-Pin_4)*%
X120500000Y-48750000D02*
X121675000Y-49925000D01*
X120100000Y-48750000D02*
X120500000Y-48750000D01*
X109490000Y-53510000D02*
X109500000Y-53500000D01*
X105500000Y-53510000D02*
X109490000Y-53510000D01*
%TD*%
%TA.AperFunction,Conductor*%
%TO.N,GND*%
G36*
X138667647Y-32599412D02*
G01*
X139544556Y-32613271D01*
X139546135Y-32613323D01*
X140389316Y-32654621D01*
X140390972Y-32654731D01*
X141204651Y-32723422D01*
X141206455Y-32723608D01*
X141990568Y-32819557D01*
X141992500Y-32819832D01*
X142747087Y-32942897D01*
X142749096Y-32943268D01*
X143474263Y-33093302D01*
X143476385Y-33093791D01*
X144172059Y-33270603D01*
X144172087Y-33270610D01*
X144174322Y-33271234D01*
X144840761Y-33474689D01*
X144843032Y-33475445D01*
X145369812Y-33665495D01*
X145480321Y-33705364D01*
X145482713Y-33706298D01*
X146091080Y-33962546D01*
X146093522Y-33963655D01*
X146673186Y-34246101D01*
X146675656Y-34247393D01*
X147226927Y-34555965D01*
X147229398Y-34557444D01*
X147752672Y-34892163D01*
X147755109Y-34893828D01*
X148250718Y-35254729D01*
X148253066Y-35256552D01*
X148425773Y-35399348D01*
X148721369Y-35643750D01*
X148723651Y-35645760D01*
X149060509Y-35961505D01*
X149164988Y-36059436D01*
X149167152Y-36061595D01*
X149579954Y-36500000D01*
X149581866Y-36502030D01*
X149583884Y-36504311D01*
X149972252Y-36971829D01*
X149974102Y-36974201D01*
X150336319Y-37469145D01*
X150337989Y-37471577D01*
X150470640Y-37677828D01*
X150673611Y-37993415D01*
X150674186Y-37994308D01*
X150675665Y-37996764D01*
X150699166Y-38038493D01*
X150985899Y-38547639D01*
X150987194Y-38550099D01*
X151271454Y-39129446D01*
X151272566Y-39131878D01*
X151530782Y-39739971D01*
X151531721Y-39742352D01*
X151763797Y-40379468D01*
X151764574Y-40381779D01*
X151970375Y-41048108D01*
X151971005Y-41050335D01*
X152150355Y-41745962D01*
X152150854Y-41748093D01*
X152303621Y-42473200D01*
X152304005Y-42475231D01*
X152430025Y-43229870D01*
X152430307Y-43231796D01*
X152529426Y-44015917D01*
X152529622Y-44017738D01*
X152601713Y-44831446D01*
X152601835Y-44833162D01*
X152646773Y-45676405D01*
X152646832Y-45678020D01*
X152664574Y-46553715D01*
X152664584Y-46554708D01*
X152664584Y-61475168D01*
X152664578Y-61475949D01*
X152650598Y-62352735D01*
X152650544Y-62354371D01*
X152608910Y-63197329D01*
X152608794Y-63199067D01*
X152539566Y-64012556D01*
X152539374Y-64014397D01*
X152442713Y-64798334D01*
X152442433Y-64800281D01*
X152318509Y-65554664D01*
X152318127Y-65556714D01*
X152167117Y-66281592D01*
X152166618Y-66283743D01*
X151988709Y-66979184D01*
X151988078Y-66981428D01*
X151783464Y-67647526D01*
X151782685Y-67649854D01*
X151551526Y-68286824D01*
X151550584Y-68289219D01*
X151293083Y-68897154D01*
X151291968Y-68899599D01*
X151008233Y-69478820D01*
X151006934Y-69481290D01*
X150697077Y-70032046D01*
X150695591Y-70034515D01*
X150359630Y-70557174D01*
X150357957Y-70559612D01*
X149995872Y-71054507D01*
X149994019Y-71056883D01*
X149605708Y-71524376D01*
X149603689Y-71526658D01*
X149188977Y-71967097D01*
X149186813Y-71969256D01*
X148745486Y-72382927D01*
X148743201Y-72384939D01*
X148274936Y-72772137D01*
X148272559Y-72773983D01*
X147777048Y-73134882D01*
X147774611Y-73136547D01*
X147251512Y-73471275D01*
X147249045Y-73472754D01*
X146698014Y-73781366D01*
X146695547Y-73782656D01*
X146116328Y-74065110D01*
X146113889Y-74066218D01*
X145506198Y-74322454D01*
X145503809Y-74323389D01*
X144867392Y-74553307D01*
X144865072Y-74554080D01*
X144199794Y-74757518D01*
X144197558Y-74758144D01*
X143503325Y-74934943D01*
X143501182Y-74935438D01*
X142777830Y-75085452D01*
X142775788Y-75085831D01*
X142023320Y-75208884D01*
X142021382Y-75209161D01*
X141239838Y-75305092D01*
X141238004Y-75305282D01*
X140427333Y-75373958D01*
X140425603Y-75374074D01*
X139585890Y-75415362D01*
X139584262Y-75415415D01*
X138711283Y-75429274D01*
X138710505Y-75429280D01*
X132085546Y-75429280D01*
X132084397Y-75429266D01*
X132083256Y-75429239D01*
X132071381Y-75428960D01*
X132069060Y-75428851D01*
X132063178Y-75428433D01*
X132060861Y-75428213D01*
X132055684Y-75427597D01*
X132053348Y-75427262D01*
X132050743Y-75426824D01*
X132048757Y-75426489D01*
X132046416Y-75426037D01*
X132042412Y-75425161D01*
X132040109Y-75424598D01*
X132036584Y-75423646D01*
X132034275Y-75422961D01*
X132031234Y-75421977D01*
X132028956Y-75421178D01*
X132028940Y-75421172D01*
X132026284Y-75420165D01*
X132024049Y-75419254D01*
X132021758Y-75418254D01*
X132019560Y-75417229D01*
X132017543Y-75416227D01*
X132015396Y-75415094D01*
X132015273Y-75415025D01*
X132013622Y-75414100D01*
X132011523Y-75412853D01*
X132009972Y-75411879D01*
X132007982Y-75410559D01*
X132006571Y-75409573D01*
X132004591Y-75408113D01*
X132003354Y-75407152D01*
X132001506Y-75405641D01*
X132000331Y-75404631D01*
X131998486Y-75402961D01*
X131997444Y-75401969D01*
X131995730Y-75400255D01*
X131994712Y-75399185D01*
X131993091Y-75397395D01*
X131992096Y-75396238D01*
X131990551Y-75394348D01*
X131989571Y-75393086D01*
X131988130Y-75391132D01*
X131987157Y-75389742D01*
X131985815Y-75387716D01*
X131984852Y-75386181D01*
X131983629Y-75384122D01*
X131982625Y-75382333D01*
X131981482Y-75380170D01*
X131980472Y-75378138D01*
X131979464Y-75375977D01*
X131978430Y-75373606D01*
X131977527Y-75371389D01*
X131976534Y-75368767D01*
X131975739Y-75366501D01*
X131974738Y-75363408D01*
X131974060Y-75361126D01*
X131973104Y-75357590D01*
X131972549Y-75355314D01*
X131971665Y-75351270D01*
X131971221Y-75348968D01*
X131970447Y-75344373D01*
X131970114Y-75342058D01*
X131969494Y-75336851D01*
X131970042Y-75321762D01*
X131970237Y-75320754D01*
X131971073Y-75316432D01*
X131968322Y-75277646D01*
X131968702Y-75267185D01*
X131969681Y-75260401D01*
X131969681Y-75260399D01*
X131966867Y-75236783D01*
X131966537Y-75232141D01*
X131966482Y-75229780D01*
X131965983Y-75208499D01*
X131965981Y-75208495D01*
X131965956Y-75207392D01*
X131965762Y-75205359D01*
X131965660Y-75204756D01*
X131965661Y-75204753D01*
X131961713Y-75181296D01*
X131961158Y-75176630D01*
X131959405Y-75151896D01*
X131959169Y-75150253D01*
X131959018Y-75149562D01*
X131953937Y-75126316D01*
X131953154Y-75121662D01*
X131950217Y-75097005D01*
X131949980Y-75095777D01*
X131943572Y-75072063D01*
X131942554Y-75067410D01*
X131942548Y-75067372D01*
X131938623Y-75044042D01*
X131938622Y-75044039D01*
X131938419Y-75042833D01*
X131938197Y-75041925D01*
X131930602Y-75018456D01*
X131929355Y-75013848D01*
X131924297Y-74990702D01*
X131924296Y-74990700D01*
X131924023Y-74989450D01*
X131923882Y-74988976D01*
X131923498Y-74987965D01*
X131915106Y-74965815D01*
X131913634Y-74961270D01*
X131907437Y-74938330D01*
X131907094Y-74937060D01*
X131907040Y-74936908D01*
X131906608Y-74935919D01*
X131906608Y-74935917D01*
X131897073Y-74914076D01*
X131895371Y-74909586D01*
X131888056Y-74886976D01*
X131888055Y-74886974D01*
X131887659Y-74885750D01*
X131887191Y-74884808D01*
X131887191Y-74884807D01*
X131876588Y-74863469D01*
X131874655Y-74859040D01*
X131866234Y-74836815D01*
X131866234Y-74836814D01*
X131866232Y-74836811D01*
X131865822Y-74835729D01*
X131853686Y-74814073D01*
X131851530Y-74809736D01*
X131841999Y-74787901D01*
X131841997Y-74787898D01*
X131841570Y-74786920D01*
X131828394Y-74765935D01*
X131826011Y-74761684D01*
X131820853Y-74751304D01*
X131818287Y-74713889D01*
X131842929Y-74685618D01*
X131864734Y-74680499D01*
X133572878Y-74680499D01*
X133632478Y-74674092D01*
X133632479Y-74674091D01*
X133632483Y-74674091D01*
X133767331Y-74623796D01*
X133882546Y-74537546D01*
X133968796Y-74422331D01*
X134019091Y-74287483D01*
X134019091Y-74287481D01*
X134019092Y-74287479D01*
X134025499Y-74227879D01*
X134025500Y-74227873D01*
X134025499Y-73132128D01*
X134025499Y-73132127D01*
X134025499Y-73132120D01*
X134019092Y-73072521D01*
X134001942Y-73026539D01*
X133968796Y-72937669D01*
X133882546Y-72822454D01*
X133797402Y-72758715D01*
X133767333Y-72736205D01*
X133767331Y-72736204D01*
X133722381Y-72719439D01*
X133632479Y-72685907D01*
X133572879Y-72679500D01*
X131477120Y-72679500D01*
X131417521Y-72685907D01*
X131282666Y-72736205D01*
X131167454Y-72822454D01*
X131081205Y-72937666D01*
X131030907Y-73072520D01*
X131024500Y-73132120D01*
X131024500Y-74160816D01*
X131010148Y-74195464D01*
X130975500Y-74209816D01*
X130973740Y-74209784D01*
X130971292Y-74209696D01*
X130967923Y-74209375D01*
X130943170Y-74208793D01*
X130938529Y-74208463D01*
X130914918Y-74205651D01*
X130910497Y-74206289D01*
X130909709Y-74206403D01*
X130902714Y-74206905D01*
X130897929Y-74206905D01*
X130894464Y-74206782D01*
X130886933Y-74206247D01*
X130858902Y-74204260D01*
X130858892Y-74204260D01*
X130852276Y-74205539D01*
X130841835Y-74206416D01*
X130805722Y-74205570D01*
X130802605Y-74205497D01*
X130802604Y-74205497D01*
X130802603Y-74205497D01*
X130802509Y-74205520D01*
X130790942Y-74206905D01*
X125989383Y-74206905D01*
X125977816Y-74205520D01*
X125977721Y-74205497D01*
X125977720Y-74205497D01*
X125976739Y-74205520D01*
X125938489Y-74206416D01*
X125928047Y-74205539D01*
X125921430Y-74204260D01*
X125921422Y-74204260D01*
X125893390Y-74206247D01*
X125885859Y-74206782D01*
X125882395Y-74206905D01*
X125877610Y-74206905D01*
X125870614Y-74206403D01*
X125869510Y-74206244D01*
X125865404Y-74205651D01*
X125841793Y-74208463D01*
X125837152Y-74208793D01*
X125812415Y-74209374D01*
X125810297Y-74209576D01*
X125786275Y-74213618D01*
X125781617Y-74214174D01*
X125778957Y-74214362D01*
X125777969Y-74214432D01*
X125742392Y-74202572D01*
X125725622Y-74169027D01*
X125725499Y-74165556D01*
X125725499Y-73132120D01*
X125719092Y-73072521D01*
X125701942Y-73026539D01*
X125668796Y-72937669D01*
X125582546Y-72822454D01*
X125497402Y-72758715D01*
X125467333Y-72736205D01*
X125467331Y-72736204D01*
X125422381Y-72719439D01*
X125332479Y-72685907D01*
X125272879Y-72679500D01*
X123177120Y-72679500D01*
X123117521Y-72685907D01*
X122982666Y-72736205D01*
X122867454Y-72822454D01*
X122781205Y-72937666D01*
X122730907Y-73072520D01*
X122724500Y-73132120D01*
X122724500Y-74227879D01*
X122730907Y-74287478D01*
X122730909Y-74287483D01*
X122781204Y-74422331D01*
X122867454Y-74537546D01*
X122982669Y-74623796D01*
X123104669Y-74669299D01*
X123117520Y-74674092D01*
X123161177Y-74678785D01*
X123177127Y-74680500D01*
X124915585Y-74680499D01*
X124950233Y-74694851D01*
X124964585Y-74729499D01*
X124959467Y-74751300D01*
X124954297Y-74761706D01*
X124951921Y-74765944D01*
X124938760Y-74786906D01*
X124928808Y-74809703D01*
X124926647Y-74814051D01*
X124914501Y-74835723D01*
X124905661Y-74859055D01*
X124903723Y-74863492D01*
X124892650Y-74885780D01*
X124884951Y-74909573D01*
X124883243Y-74914078D01*
X124873921Y-74935438D01*
X124873313Y-74936831D01*
X124873225Y-74937080D01*
X124866701Y-74961219D01*
X124865221Y-74965791D01*
X124856451Y-74988941D01*
X124856281Y-74989512D01*
X124850959Y-75013870D01*
X124849710Y-75018491D01*
X124842123Y-75041942D01*
X124841904Y-75042836D01*
X124837775Y-75067372D01*
X124836758Y-75072021D01*
X124830351Y-75095731D01*
X124830098Y-75097038D01*
X124827160Y-75121703D01*
X124826375Y-75126365D01*
X124821157Y-75150249D01*
X124820914Y-75151935D01*
X124819165Y-75176612D01*
X124818609Y-75181275D01*
X124814569Y-75205288D01*
X124814364Y-75207426D01*
X124813783Y-75232160D01*
X124813453Y-75236801D01*
X124810641Y-75260414D01*
X124811620Y-75267204D01*
X124811998Y-75277658D01*
X124809250Y-75316430D01*
X124809250Y-75316432D01*
X124810280Y-75321758D01*
X124810826Y-75336862D01*
X124810209Y-75342037D01*
X124809875Y-75344367D01*
X124809105Y-75348943D01*
X124808655Y-75351272D01*
X124807779Y-75355281D01*
X124807210Y-75357608D01*
X124806259Y-75361126D01*
X124805576Y-75363427D01*
X124804586Y-75366486D01*
X124803794Y-75368744D01*
X124802794Y-75371386D01*
X124801875Y-75373643D01*
X124800864Y-75375959D01*
X124799831Y-75378173D01*
X124798838Y-75380170D01*
X124797715Y-75382297D01*
X124796722Y-75384070D01*
X124795461Y-75386194D01*
X124794501Y-75387722D01*
X124793160Y-75389742D01*
X124792182Y-75391140D01*
X124790737Y-75393100D01*
X124789779Y-75394334D01*
X124788215Y-75396248D01*
X124787240Y-75397381D01*
X124785598Y-75399195D01*
X124784598Y-75400246D01*
X124782870Y-75401974D01*
X124781805Y-75402987D01*
X124779992Y-75404627D01*
X124778839Y-75405619D01*
X124776962Y-75407155D01*
X124775752Y-75408096D01*
X124773732Y-75409585D01*
X124772342Y-75410556D01*
X124770347Y-75411879D01*
X124768795Y-75412854D01*
X124766673Y-75414114D01*
X124764925Y-75415093D01*
X124762789Y-75416220D01*
X124760785Y-75417216D01*
X124758580Y-75418245D01*
X124756257Y-75419259D01*
X124754026Y-75420168D01*
X124751378Y-75421172D01*
X124749090Y-75421976D01*
X124746027Y-75422967D01*
X124743718Y-75423651D01*
X124740204Y-75424600D01*
X124737892Y-75425165D01*
X124733916Y-75426034D01*
X124731588Y-75426484D01*
X124726973Y-75427261D01*
X124724633Y-75427597D01*
X124719461Y-75428213D01*
X124717132Y-75428434D01*
X124711252Y-75428851D01*
X124708938Y-75428960D01*
X124697067Y-75429239D01*
X124695925Y-75429266D01*
X124694777Y-75429280D01*
X118069851Y-75429280D01*
X118069070Y-75429274D01*
X117192283Y-75415294D01*
X117190647Y-75415240D01*
X116347694Y-75373606D01*
X116345956Y-75373490D01*
X115532464Y-75304261D01*
X115530623Y-75304069D01*
X114746701Y-75207410D01*
X114744754Y-75207130D01*
X114074560Y-75097038D01*
X113990351Y-75083205D01*
X113988314Y-75082825D01*
X113802076Y-75044027D01*
X113263428Y-74931812D01*
X113261277Y-74931313D01*
X112565833Y-74753404D01*
X112563589Y-74752773D01*
X111897489Y-74548158D01*
X111895161Y-74547379D01*
X111258203Y-74316226D01*
X111255808Y-74315284D01*
X110647878Y-74057786D01*
X110645433Y-74056671D01*
X110086056Y-73782656D01*
X110066191Y-73772925D01*
X110063725Y-73771628D01*
X109512972Y-73461773D01*
X109510503Y-73460287D01*
X108987838Y-73124321D01*
X108985400Y-73122648D01*
X108916881Y-73072517D01*
X108508848Y-72773983D01*
X108490513Y-72760568D01*
X108488137Y-72758715D01*
X108133436Y-72464092D01*
X108020642Y-72370403D01*
X108018367Y-72368390D01*
X107577920Y-71953671D01*
X107575761Y-71951507D01*
X107162093Y-71510184D01*
X107160080Y-71507899D01*
X106887398Y-71178124D01*
X106772869Y-71039616D01*
X106771028Y-71037244D01*
X106410136Y-70541743D01*
X106408471Y-70539306D01*
X106073743Y-70016208D01*
X106072264Y-70013741D01*
X105796930Y-69522128D01*
X105763643Y-69462692D01*
X105762371Y-69460261D01*
X105488382Y-68898402D01*
X105479908Y-68881024D01*
X105478800Y-68878585D01*
X105222564Y-68270894D01*
X105221629Y-68268505D01*
X104991704Y-67632066D01*
X104990947Y-67629795D01*
X104787495Y-66964478D01*
X104786872Y-66962251D01*
X104610071Y-66268012D01*
X104609579Y-66265880D01*
X104459568Y-65542532D01*
X104459189Y-65540490D01*
X104336128Y-64787975D01*
X104335862Y-64786119D01*
X104239922Y-64004496D01*
X104239739Y-64002737D01*
X104171057Y-63192010D01*
X104170946Y-63190359D01*
X104129654Y-62350582D01*
X104129602Y-62348959D01*
X104129218Y-62324797D01*
X104115746Y-61475981D01*
X104115740Y-61475203D01*
X104115740Y-56665665D01*
X104130092Y-56631017D01*
X104164740Y-56616665D01*
X104199388Y-56631017D01*
X104303077Y-56734706D01*
X104447453Y-56831175D01*
X104607876Y-56897624D01*
X104778180Y-56931500D01*
X106221820Y-56931500D01*
X106392124Y-56897624D01*
X106552547Y-56831175D01*
X106696923Y-56734706D01*
X106766777Y-56664852D01*
X106801425Y-56650500D01*
X109016538Y-56650500D01*
X109042608Y-56658010D01*
X109150478Y-56725789D01*
X109320745Y-56785368D01*
X109500000Y-56805565D01*
X109679255Y-56785368D01*
X109849522Y-56725789D01*
X109849524Y-56725787D01*
X109849526Y-56725787D01*
X109905596Y-56690555D01*
X110002262Y-56629816D01*
X110129816Y-56502262D01*
X110190555Y-56405596D01*
X110225787Y-56349526D01*
X110225787Y-56349524D01*
X110225789Y-56349522D01*
X110285368Y-56179255D01*
X110305565Y-56000000D01*
X110285368Y-55820745D01*
X110225789Y-55650478D01*
X110225788Y-55650477D01*
X110225787Y-55650473D01*
X110129817Y-55497740D01*
X110129816Y-55497738D01*
X110066726Y-55434648D01*
X110052374Y-55400000D01*
X110066726Y-55365352D01*
X110090155Y-55341923D01*
X110129816Y-55302262D01*
X110205442Y-55181904D01*
X110225787Y-55149526D01*
X110225787Y-55149524D01*
X110225789Y-55149522D01*
X110285368Y-54979255D01*
X110305565Y-54800000D01*
X110285368Y-54620745D01*
X110225789Y-54450478D01*
X110225788Y-54450477D01*
X110225787Y-54450473D01*
X110129817Y-54297740D01*
X110129816Y-54297738D01*
X110016726Y-54184648D01*
X110002374Y-54150000D01*
X110016726Y-54115352D01*
X110060155Y-54071923D01*
X110129816Y-54002262D01*
X110190555Y-53905596D01*
X110225787Y-53849526D01*
X110225787Y-53849524D01*
X110225789Y-53849522D01*
X110285368Y-53679255D01*
X110305565Y-53500000D01*
X110285368Y-53320745D01*
X110225789Y-53150478D01*
X110225788Y-53150477D01*
X110225787Y-53150473D01*
X110129817Y-52997740D01*
X110129816Y-52997738D01*
X110016726Y-52884648D01*
X110002374Y-52850000D01*
X110016726Y-52815352D01*
X110030155Y-52801923D01*
X110129816Y-52702262D01*
X110190555Y-52605596D01*
X110225787Y-52549526D01*
X110225787Y-52549524D01*
X110225789Y-52549522D01*
X110285368Y-52379255D01*
X110305565Y-52200000D01*
X110300170Y-52152120D01*
X110699500Y-52152120D01*
X110699500Y-55847879D01*
X110705907Y-55907478D01*
X110705909Y-55907483D01*
X110756204Y-56042331D01*
X110842454Y-56157546D01*
X110934934Y-56226776D01*
X110957074Y-56243351D01*
X110957669Y-56243796D01*
X111092517Y-56294091D01*
X111092520Y-56294092D01*
X111136177Y-56298785D01*
X111152127Y-56300500D01*
X117247872Y-56300499D01*
X117247878Y-56300499D01*
X117307478Y-56294092D01*
X117307479Y-56294091D01*
X117307483Y-56294091D01*
X117442331Y-56243796D01*
X117557546Y-56157546D01*
X117643796Y-56042331D01*
X117694091Y-55907483D01*
X117694091Y-55907481D01*
X117694092Y-55907479D01*
X117700500Y-55847879D01*
X117700500Y-54649500D01*
X117714852Y-54614852D01*
X117749500Y-54600500D01*
X121480969Y-54600500D01*
X121515617Y-54614852D01*
X127010148Y-60109383D01*
X127024500Y-60144031D01*
X127024500Y-69107791D01*
X127010148Y-69142439D01*
X127004865Y-69147017D01*
X126917455Y-69212452D01*
X126917454Y-69212454D01*
X126914224Y-69216767D01*
X126881972Y-69235902D01*
X126845634Y-69226627D01*
X126835776Y-69216769D01*
X126832546Y-69212454D01*
X126832544Y-69212453D01*
X126832544Y-69212452D01*
X126717333Y-69126205D01*
X126717331Y-69126204D01*
X126667963Y-69107791D01*
X126582479Y-69075907D01*
X126522879Y-69069500D01*
X125727120Y-69069500D01*
X125667521Y-69075907D01*
X125532666Y-69126205D01*
X125417454Y-69212454D01*
X125331205Y-69327666D01*
X125280907Y-69462520D01*
X125274500Y-69522120D01*
X125274500Y-70420500D01*
X125260148Y-70455148D01*
X125225500Y-70469500D01*
X123177120Y-70469500D01*
X123117521Y-70475907D01*
X122982666Y-70526205D01*
X122867454Y-70612454D01*
X122781205Y-70727666D01*
X122730907Y-70862520D01*
X122724500Y-70922120D01*
X122724500Y-72017879D01*
X122730907Y-72077478D01*
X122730909Y-72077483D01*
X122772539Y-72189100D01*
X122781205Y-72212333D01*
X122815627Y-72258314D01*
X122867454Y-72327546D01*
X122982669Y-72413796D01*
X123117517Y-72464091D01*
X123117520Y-72464092D01*
X123161177Y-72468785D01*
X123177127Y-72470500D01*
X125272872Y-72470499D01*
X125272878Y-72470499D01*
X125332478Y-72464092D01*
X125332479Y-72464091D01*
X125332483Y-72464091D01*
X125467331Y-72413796D01*
X125582546Y-72327546D01*
X125668796Y-72212331D01*
X125709807Y-72102373D01*
X125735360Y-72074927D01*
X125755711Y-72070499D01*
X126281281Y-72070499D01*
X126315929Y-72084851D01*
X126330281Y-72119499D01*
X126322023Y-72146722D01*
X126254223Y-72248192D01*
X126201420Y-72375670D01*
X126201417Y-72375681D01*
X126174500Y-72511001D01*
X126174500Y-72648998D01*
X126201417Y-72784318D01*
X126201420Y-72784328D01*
X126254225Y-72911811D01*
X126271501Y-72937666D01*
X126330883Y-73026539D01*
X126428460Y-73124116D01*
X126445875Y-73135752D01*
X126543189Y-73200775D01*
X126670672Y-73253580D01*
X126670678Y-73253581D01*
X126670681Y-73253582D01*
X126806001Y-73280499D01*
X126806007Y-73280500D01*
X126943993Y-73280500D01*
X127079328Y-73253580D01*
X127206811Y-73200775D01*
X127321542Y-73124114D01*
X127419114Y-73026542D01*
X127495775Y-72911811D01*
X127548580Y-72784328D01*
X127575500Y-72648993D01*
X127575500Y-72511007D01*
X127567443Y-72470500D01*
X127548582Y-72375681D01*
X127548579Y-72375670D01*
X127545564Y-72368390D01*
X127495775Y-72248189D01*
X127441737Y-72167316D01*
X127427977Y-72146722D01*
X127420661Y-72109939D01*
X127441496Y-72078757D01*
X127468719Y-72070499D01*
X128022878Y-72070499D01*
X128082478Y-72064092D01*
X128082479Y-72064091D01*
X128082483Y-72064091D01*
X128217331Y-72013796D01*
X128332546Y-71927546D01*
X128418796Y-71812331D01*
X128469091Y-71677483D01*
X128469091Y-71677481D01*
X128469092Y-71677479D01*
X128475499Y-71617879D01*
X128475500Y-71617873D01*
X128475499Y-69522128D01*
X128475499Y-69522127D01*
X128475499Y-69522120D01*
X128469092Y-69462521D01*
X128468715Y-69461509D01*
X128418796Y-69327669D01*
X128408634Y-69314095D01*
X128393571Y-69293973D01*
X128332546Y-69212454D01*
X128291036Y-69181380D01*
X128245135Y-69147017D01*
X128225999Y-69114764D01*
X128225500Y-69107791D01*
X128225500Y-59958014D01*
X128225501Y-59958001D01*
X128225501Y-59795941D01*
X128208203Y-59731390D01*
X128184577Y-59643216D01*
X128184576Y-59643214D01*
X128184576Y-59643213D01*
X128105524Y-59506290D01*
X128105521Y-59506287D01*
X128105520Y-59506284D01*
X122233314Y-53634079D01*
X122233313Y-53634077D01*
X122118718Y-53519482D01*
X122118716Y-53519480D01*
X122118713Y-53519478D01*
X122118709Y-53519475D01*
X122014960Y-53459577D01*
X121981785Y-53440423D01*
X121981784Y-53440422D01*
X121981783Y-53440422D01*
X121981781Y-53440421D01*
X121829060Y-53399499D01*
X121829057Y-53399499D01*
X121670943Y-53399499D01*
X121667946Y-53399499D01*
X121667930Y-53399500D01*
X117749499Y-53399500D01*
X117714851Y-53385148D01*
X117700499Y-53350500D01*
X117700499Y-52152120D01*
X117694092Y-52092521D01*
X117692352Y-52087855D01*
X117643796Y-51957669D01*
X117557546Y-51842454D01*
X117488314Y-51790627D01*
X117442333Y-51756205D01*
X117442331Y-51756204D01*
X117397381Y-51739439D01*
X117307479Y-51705907D01*
X117247879Y-51699500D01*
X111152120Y-51699500D01*
X111092521Y-51705907D01*
X110957666Y-51756205D01*
X110842454Y-51842454D01*
X110756205Y-51957666D01*
X110705907Y-52092520D01*
X110699500Y-52152120D01*
X110300170Y-52152120D01*
X110285368Y-52020745D01*
X110225789Y-51850478D01*
X110225788Y-51850477D01*
X110225787Y-51850473D01*
X110129817Y-51697740D01*
X110129816Y-51697738D01*
X110116226Y-51684148D01*
X110101874Y-51649500D01*
X110116226Y-51614852D01*
X110150874Y-51600500D01*
X126580969Y-51600500D01*
X126615617Y-51614852D01*
X127937855Y-52937091D01*
X127951899Y-52966253D01*
X127964631Y-53079248D01*
X127964633Y-53079258D01*
X128024212Y-53249526D01*
X128120182Y-53402259D01*
X128120184Y-53402262D01*
X128247738Y-53529816D01*
X128247740Y-53529817D01*
X128400473Y-53625787D01*
X128400477Y-53625788D01*
X128400478Y-53625789D01*
X128570745Y-53685368D01*
X128750000Y-53705565D01*
X128929255Y-53685368D01*
X129099522Y-53625789D01*
X129099524Y-53625787D01*
X129099526Y-53625787D01*
X129155596Y-53590555D01*
X129252262Y-53529816D01*
X129379816Y-53402262D01*
X129409011Y-53355798D01*
X129439596Y-53334097D01*
X129476569Y-53340378D01*
X129498271Y-53370964D01*
X129499500Y-53381868D01*
X129499500Y-54630968D01*
X129485148Y-54665616D01*
X128712908Y-55437855D01*
X128683747Y-55451899D01*
X128570750Y-55464631D01*
X128570741Y-55464633D01*
X128400473Y-55524212D01*
X128247740Y-55620182D01*
X128247736Y-55620185D01*
X128120185Y-55747736D01*
X128120182Y-55747740D01*
X128024212Y-55900473D01*
X127964633Y-56070741D01*
X127964631Y-56070750D01*
X127944435Y-56249999D01*
X127964631Y-56429249D01*
X127964633Y-56429258D01*
X128024212Y-56599526D01*
X128103549Y-56725788D01*
X128120184Y-56752262D01*
X128247738Y-56879816D01*
X128247740Y-56879817D01*
X128400473Y-56975787D01*
X128400477Y-56975788D01*
X128400478Y-56975789D01*
X128570745Y-57035368D01*
X128683747Y-57048099D01*
X128712908Y-57062143D01*
X130010148Y-58359383D01*
X130024500Y-58394031D01*
X130024500Y-69107791D01*
X130010148Y-69142439D01*
X130004865Y-69147017D01*
X129917454Y-69212454D01*
X129831205Y-69327666D01*
X129780907Y-69462520D01*
X129774500Y-69522120D01*
X129774500Y-71617879D01*
X129780907Y-71677478D01*
X129780909Y-71677483D01*
X129831204Y-71812331D01*
X129831205Y-71812332D01*
X129832429Y-71815614D01*
X129830554Y-71816313D01*
X129833864Y-71847165D01*
X129810326Y-71876362D01*
X129796412Y-71881408D01*
X129670679Y-71906418D01*
X129670670Y-71906420D01*
X129543192Y-71959223D01*
X129428460Y-72035883D01*
X129330883Y-72133460D01*
X129254223Y-72248192D01*
X129201420Y-72375670D01*
X129201417Y-72375681D01*
X129174500Y-72511001D01*
X129174500Y-72648998D01*
X129201417Y-72784318D01*
X129201420Y-72784328D01*
X129254225Y-72911811D01*
X129271501Y-72937666D01*
X129330883Y-73026539D01*
X129428460Y-73124116D01*
X129445875Y-73135752D01*
X129543189Y-73200775D01*
X129670672Y-73253580D01*
X129670678Y-73253581D01*
X129670681Y-73253582D01*
X129806001Y-73280499D01*
X129806007Y-73280500D01*
X129943993Y-73280500D01*
X130079328Y-73253580D01*
X130206811Y-73200775D01*
X130321542Y-73124114D01*
X130419114Y-73026542D01*
X130495775Y-72911811D01*
X130548580Y-72784328D01*
X130575500Y-72648993D01*
X130575500Y-72511007D01*
X130567443Y-72470500D01*
X130548582Y-72375681D01*
X130548579Y-72375670D01*
X130545564Y-72368390D01*
X130495775Y-72248189D01*
X130441737Y-72167316D01*
X130427977Y-72146722D01*
X130420661Y-72109939D01*
X130441496Y-72078757D01*
X130468719Y-72070499D01*
X130994283Y-72070499D01*
X131028931Y-72084851D01*
X131040192Y-72102374D01*
X131058871Y-72152452D01*
X131081204Y-72212332D01*
X131124329Y-72269938D01*
X131167454Y-72327546D01*
X131282669Y-72413796D01*
X131417517Y-72464091D01*
X131417520Y-72464092D01*
X131461177Y-72468785D01*
X131477127Y-72470500D01*
X133572872Y-72470499D01*
X133572878Y-72470499D01*
X133632478Y-72464092D01*
X133632479Y-72464091D01*
X133632483Y-72464091D01*
X133767331Y-72413796D01*
X133882546Y-72327546D01*
X133968796Y-72212331D01*
X134019091Y-72077483D01*
X134019091Y-72077481D01*
X134019092Y-72077479D01*
X134025499Y-72017879D01*
X134025500Y-72017873D01*
X134025499Y-70922128D01*
X134025499Y-70922127D01*
X134025499Y-70922120D01*
X134019092Y-70862521D01*
X134019091Y-70862517D01*
X133968796Y-70727669D01*
X133882546Y-70612454D01*
X133798861Y-70549807D01*
X133767333Y-70526205D01*
X133767331Y-70526204D01*
X133715204Y-70506762D01*
X133632479Y-70475907D01*
X133572879Y-70469500D01*
X131524499Y-70469500D01*
X131489851Y-70455148D01*
X131475499Y-70420500D01*
X131475499Y-69522120D01*
X131469092Y-69462521D01*
X131468715Y-69461509D01*
X131418796Y-69327669D01*
X131408634Y-69314095D01*
X131393571Y-69293973D01*
X131332546Y-69212454D01*
X131291036Y-69181380D01*
X131245135Y-69147017D01*
X131225999Y-69114764D01*
X131225500Y-69107791D01*
X131225500Y-58045940D01*
X131225499Y-58045939D01*
X131184577Y-57893217D01*
X131184576Y-57893213D01*
X131105524Y-57756290D01*
X131105521Y-57756287D01*
X131105520Y-57756284D01*
X130993716Y-57644480D01*
X130992010Y-57642774D01*
X130991999Y-57642764D01*
X129633882Y-56284647D01*
X129619530Y-56249999D01*
X129633880Y-56215354D01*
X130001400Y-55847834D01*
X140000000Y-55847834D01*
X140006401Y-55907372D01*
X140006401Y-55907373D01*
X140056648Y-56042091D01*
X140142811Y-56157188D01*
X140257908Y-56243351D01*
X140392626Y-56293598D01*
X140452166Y-56300000D01*
X143250000Y-56300000D01*
X143750000Y-56300000D01*
X146547834Y-56300000D01*
X146607372Y-56293598D01*
X146607373Y-56293598D01*
X146742091Y-56243351D01*
X146857188Y-56157188D01*
X146943351Y-56042091D01*
X146993598Y-55907373D01*
X146993598Y-55907372D01*
X147000000Y-55847834D01*
X147000000Y-54250000D01*
X143750000Y-54250000D01*
X143750000Y-56300000D01*
X143250000Y-56300000D01*
X143250000Y-54250000D01*
X140000000Y-54250000D01*
X140000000Y-55847834D01*
X130001400Y-55847834D01*
X130464681Y-55384552D01*
X130464686Y-55384549D01*
X130468714Y-55380520D01*
X130468716Y-55380520D01*
X130580520Y-55268716D01*
X130630638Y-55181906D01*
X130630640Y-55181904D01*
X130659575Y-55131790D01*
X130659577Y-55131784D01*
X130700499Y-54979061D01*
X130700500Y-54979061D01*
X130700500Y-52152165D01*
X140000000Y-52152165D01*
X140000000Y-53750000D01*
X143250000Y-53750000D01*
X143750000Y-53750000D01*
X147000000Y-53750000D01*
X147000000Y-52152165D01*
X146993598Y-52092627D01*
X146993598Y-52092626D01*
X146943351Y-51957908D01*
X146857188Y-51842811D01*
X146742091Y-51756648D01*
X146607373Y-51706401D01*
X146547834Y-51700000D01*
X143750000Y-51700000D01*
X143750000Y-53750000D01*
X143250000Y-53750000D01*
X143250000Y-51700000D01*
X140452166Y-51700000D01*
X140392627Y-51706401D01*
X140392626Y-51706401D01*
X140257908Y-51756648D01*
X140142811Y-51842811D01*
X140056648Y-51957908D01*
X140006401Y-52092626D01*
X140006401Y-52092627D01*
X140000000Y-52152165D01*
X130700500Y-52152165D01*
X130700500Y-50320940D01*
X130700499Y-50320939D01*
X130661247Y-50174448D01*
X130661246Y-50174444D01*
X130661246Y-50174445D01*
X130659577Y-50168216D01*
X130659577Y-50168215D01*
X130630185Y-50117308D01*
X130613553Y-50088500D01*
X130613552Y-50088499D01*
X130580522Y-50031287D01*
X130580517Y-50031281D01*
X130467010Y-49917774D01*
X130466999Y-49917764D01*
X127212143Y-46662908D01*
X127198099Y-46633746D01*
X127195536Y-46610999D01*
X127185368Y-46520745D01*
X127125789Y-46350478D01*
X127125788Y-46350477D01*
X127125787Y-46350473D01*
X127029817Y-46197740D01*
X127029816Y-46197738D01*
X126902262Y-46070184D01*
X126902259Y-46070182D01*
X126749526Y-45974212D01*
X126579258Y-45914633D01*
X126579257Y-45914632D01*
X126579255Y-45914632D01*
X126579251Y-45914631D01*
X126579249Y-45914631D01*
X126400000Y-45894435D01*
X126220750Y-45914631D01*
X126220741Y-45914633D01*
X126050473Y-45974212D01*
X125897740Y-46070182D01*
X125897736Y-46070185D01*
X125770185Y-46197736D01*
X125770182Y-46197740D01*
X125674212Y-46350473D01*
X125614633Y-46520741D01*
X125614631Y-46520750D01*
X125594435Y-46700000D01*
X125614631Y-46879249D01*
X125614633Y-46879258D01*
X125674212Y-47049526D01*
X125770182Y-47202259D01*
X125770184Y-47202262D01*
X125897738Y-47329816D01*
X125897740Y-47329817D01*
X126050473Y-47425787D01*
X126050477Y-47425788D01*
X126050478Y-47425789D01*
X126220745Y-47485368D01*
X126333747Y-47498099D01*
X126362908Y-47512143D01*
X129485148Y-50634383D01*
X129499500Y-50669031D01*
X129499500Y-52418131D01*
X129485148Y-52452779D01*
X129450500Y-52467131D01*
X129415852Y-52452779D01*
X129409011Y-52444201D01*
X129379817Y-52397740D01*
X129379816Y-52397738D01*
X129252262Y-52270184D01*
X129252259Y-52270182D01*
X129099526Y-52174212D01*
X128929258Y-52114633D01*
X128929257Y-52114632D01*
X128929255Y-52114632D01*
X128929250Y-52114631D01*
X128929248Y-52114631D01*
X128816253Y-52101899D01*
X128787091Y-52087855D01*
X127333315Y-50634080D01*
X127333313Y-50634077D01*
X127218718Y-50519482D01*
X127218716Y-50519480D01*
X127218713Y-50519478D01*
X127218709Y-50519475D01*
X127123111Y-50464283D01*
X127081785Y-50440423D01*
X127081784Y-50440422D01*
X127081783Y-50440422D01*
X127081781Y-50440421D01*
X126929060Y-50399499D01*
X126929057Y-50399499D01*
X126770943Y-50399499D01*
X126767946Y-50399499D01*
X126767930Y-50399500D01*
X122410919Y-50399500D01*
X122376271Y-50385148D01*
X122361919Y-50350500D01*
X122369430Y-50324430D01*
X122400787Y-50274526D01*
X122400787Y-50274524D01*
X122400789Y-50274522D01*
X122460368Y-50104255D01*
X122480565Y-49925000D01*
X122460368Y-49745745D01*
X122400789Y-49575478D01*
X122400788Y-49575477D01*
X122400787Y-49575473D01*
X122322432Y-49450775D01*
X122304816Y-49422738D01*
X122177262Y-49295184D01*
X122157380Y-49282691D01*
X122024526Y-49199212D01*
X121854258Y-49139633D01*
X121854257Y-49139632D01*
X121854255Y-49139632D01*
X121854250Y-49139631D01*
X121854248Y-49139631D01*
X121741252Y-49126899D01*
X121712090Y-49112855D01*
X120983315Y-48384080D01*
X120983313Y-48384077D01*
X120868716Y-48269480D01*
X120766935Y-48210717D01*
X120731787Y-48190423D01*
X120731781Y-48190421D01*
X120663483Y-48172121D01*
X120641517Y-48159439D01*
X120602263Y-48120185D01*
X120602259Y-48120182D01*
X120449526Y-48024212D01*
X120279258Y-47964633D01*
X120279257Y-47964632D01*
X120279255Y-47964632D01*
X120279251Y-47964631D01*
X120279249Y-47964631D01*
X120100000Y-47944435D01*
X119920750Y-47964631D01*
X119920741Y-47964633D01*
X119750473Y-48024212D01*
X119597740Y-48120182D01*
X119597736Y-48120185D01*
X119470185Y-48247736D01*
X119470182Y-48247740D01*
X119374212Y-48400473D01*
X119314633Y-48570741D01*
X119314631Y-48570750D01*
X119294435Y-48750000D01*
X119314631Y-48929249D01*
X119314633Y-48929258D01*
X119374212Y-49099526D01*
X119436850Y-49199212D01*
X119470184Y-49252262D01*
X119597738Y-49379816D01*
X119597740Y-49379817D01*
X119750473Y-49475787D01*
X119750477Y-49475788D01*
X119750478Y-49475789D01*
X119920745Y-49535368D01*
X120100000Y-49555565D01*
X120279255Y-49535368D01*
X120366409Y-49504871D01*
X120403850Y-49506973D01*
X120417238Y-49516473D01*
X120862855Y-49962090D01*
X120876899Y-49991252D01*
X120889631Y-50104248D01*
X120889633Y-50104258D01*
X120949212Y-50274526D01*
X120980570Y-50324430D01*
X120986853Y-50361403D01*
X120965151Y-50391989D01*
X120939081Y-50399500D01*
X106831425Y-50399500D01*
X106796777Y-50385148D01*
X106780924Y-50369295D01*
X106766572Y-50334647D01*
X106780924Y-50299999D01*
X106819318Y-50261604D01*
X106915732Y-50117308D01*
X106982142Y-49956981D01*
X106982144Y-49956975D01*
X107016000Y-49786767D01*
X107016000Y-49613232D01*
X106982144Y-49443024D01*
X106982142Y-49443018D01*
X106915732Y-49282691D01*
X106819318Y-49138395D01*
X106696604Y-49015681D01*
X106601449Y-48952101D01*
X105534647Y-50018904D01*
X105499999Y-50033256D01*
X105465351Y-50018904D01*
X104398549Y-48952101D01*
X104303395Y-49015681D01*
X104199388Y-49119689D01*
X104164740Y-49134041D01*
X104130092Y-49119689D01*
X104115740Y-49085041D01*
X104115740Y-48819000D01*
X104972553Y-48819000D01*
X105500000Y-49346447D01*
X106027447Y-48819000D01*
X104972553Y-48819000D01*
X104115740Y-48819000D01*
X104115740Y-46553455D01*
X104115746Y-46552681D01*
X104118941Y-46350478D01*
X104129603Y-45675776D01*
X104129656Y-45674177D01*
X104131202Y-45642612D01*
X104170953Y-44831034D01*
X104171063Y-44829386D01*
X104239755Y-44015712D01*
X104239943Y-44013900D01*
X104245810Y-43965957D01*
X104335891Y-43229837D01*
X104336159Y-43227957D01*
X104459240Y-42473345D01*
X104459599Y-42471406D01*
X104609630Y-41746377D01*
X104610109Y-41744295D01*
X104786943Y-41048693D01*
X104787548Y-41046528D01*
X104990998Y-40380325D01*
X104991763Y-40378029D01*
X105019586Y-40300943D01*
X105221675Y-39741038D01*
X105222596Y-39738680D01*
X105478834Y-39130680D01*
X105479919Y-39128292D01*
X105762363Y-38549050D01*
X105763628Y-38546634D01*
X106072190Y-37995888D01*
X106073673Y-37993415D01*
X106096754Y-37957373D01*
X106408348Y-37470802D01*
X106409998Y-37468390D01*
X106770822Y-36973577D01*
X106772643Y-36971235D01*
X107159778Y-36503804D01*
X107161761Y-36501556D01*
X107536892Y-36102165D01*
X123400000Y-36102165D01*
X123400000Y-36750000D01*
X124316988Y-36750000D01*
X124284075Y-36807007D01*
X124250000Y-36934174D01*
X124250000Y-37065826D01*
X124284075Y-37192993D01*
X124316988Y-37250000D01*
X123400000Y-37250000D01*
X123400000Y-37897834D01*
X123406401Y-37957372D01*
X123406401Y-37957373D01*
X123456648Y-38092091D01*
X123542811Y-38207188D01*
X123657908Y-38293351D01*
X123792626Y-38343598D01*
X123852166Y-38350000D01*
X124500000Y-38350000D01*
X124500000Y-37433012D01*
X124557007Y-37465925D01*
X124684174Y-37500000D01*
X124815826Y-37500000D01*
X124942993Y-37465925D01*
X125000000Y-37433012D01*
X125000000Y-38350000D01*
X125647834Y-38350000D01*
X125707372Y-38343598D01*
X125707373Y-38343598D01*
X125842091Y-38293351D01*
X125957188Y-38207188D01*
X126043351Y-38092091D01*
X126093598Y-37957373D01*
X126093598Y-37957372D01*
X126100000Y-37897834D01*
X126100000Y-37810437D01*
X126114352Y-37775789D01*
X126149000Y-37761437D01*
X126183648Y-37775789D01*
X126189133Y-37782325D01*
X126208818Y-37810437D01*
X126251506Y-37871402D01*
X126418597Y-38038493D01*
X126418604Y-38038499D01*
X126612159Y-38174029D01*
X126612171Y-38174036D01*
X126826339Y-38273904D01*
X126826344Y-38273905D01*
X127054583Y-38335061D01*
X127054587Y-38335061D01*
X127054592Y-38335063D01*
X127290000Y-38355659D01*
X127525408Y-38335063D01*
X127525414Y-38335061D01*
X127525416Y-38335061D01*
X127681081Y-38293351D01*
X127753657Y-38273904D01*
X127753660Y-38273904D01*
X127753660Y-38273903D01*
X127753663Y-38273903D01*
X127967830Y-38174035D01*
X127967831Y-38174034D01*
X127967840Y-38174029D01*
X128161395Y-38038499D01*
X128161401Y-38038495D01*
X128328495Y-37871401D01*
X128351165Y-37839024D01*
X128464029Y-37677840D01*
X128464031Y-37677834D01*
X128464035Y-37677830D01*
X128515591Y-37567266D01*
X128543241Y-37541930D01*
X128580708Y-37543566D01*
X128604409Y-37567267D01*
X128655964Y-37677828D01*
X128655970Y-37677840D01*
X128791500Y-37871395D01*
X128791506Y-37871402D01*
X128958597Y-38038493D01*
X128958604Y-38038499D01*
X129152159Y-38174029D01*
X129152171Y-38174036D01*
X129366339Y-38273904D01*
X129366344Y-38273905D01*
X129594583Y-38335061D01*
X129594587Y-38335061D01*
X129594592Y-38335063D01*
X129830000Y-38355659D01*
X130065408Y-38335063D01*
X130065414Y-38335061D01*
X130065416Y-38335061D01*
X130221081Y-38293351D01*
X130293657Y-38273904D01*
X130293660Y-38273904D01*
X130293660Y-38273903D01*
X130293663Y-38273903D01*
X130507830Y-38174035D01*
X130507831Y-38174034D01*
X130507840Y-38174029D01*
X130701395Y-38038499D01*
X130701401Y-38038495D01*
X130868495Y-37871401D01*
X130891165Y-37839024D01*
X131004029Y-37677840D01*
X131004031Y-37677834D01*
X131004035Y-37677830D01*
X131055591Y-37567266D01*
X131083241Y-37541930D01*
X131120708Y-37543566D01*
X131144409Y-37567267D01*
X131195964Y-37677828D01*
X131195970Y-37677840D01*
X131331500Y-37871395D01*
X131331506Y-37871402D01*
X131498597Y-38038493D01*
X131498604Y-38038499D01*
X131692159Y-38174029D01*
X131692167Y-38174033D01*
X131692170Y-38174035D01*
X131741208Y-38196901D01*
X131766545Y-38224550D01*
X131769500Y-38241310D01*
X131769500Y-40110969D01*
X131755148Y-40145617D01*
X131015617Y-40885148D01*
X130980969Y-40899500D01*
X130082070Y-40899500D01*
X130082054Y-40899499D01*
X130079057Y-40899499D01*
X129920943Y-40899499D01*
X129920940Y-40899499D01*
X129768218Y-40940421D01*
X129768216Y-40940422D01*
X129754075Y-40948586D01*
X129734756Y-40959741D01*
X129631290Y-41019475D01*
X129631281Y-41019482D01*
X128269481Y-42381283D01*
X128269480Y-42381283D01*
X128219360Y-42468095D01*
X128190423Y-42518212D01*
X128190421Y-42518218D01*
X128149499Y-42670940D01*
X128149499Y-42833000D01*
X128149500Y-42833013D01*
X128149500Y-46198126D01*
X128135148Y-46232774D01*
X128120185Y-46247736D01*
X128120182Y-46247740D01*
X128024212Y-46400473D01*
X127964633Y-46570741D01*
X127964631Y-46570750D01*
X127944435Y-46750000D01*
X127964631Y-46929249D01*
X127964633Y-46929258D01*
X128024212Y-47099526D01*
X128120182Y-47252259D01*
X128120184Y-47252262D01*
X128247738Y-47379816D01*
X128247740Y-47379817D01*
X128400473Y-47475787D01*
X128400477Y-47475788D01*
X128400478Y-47475789D01*
X128570745Y-47535368D01*
X128750000Y-47555565D01*
X128929255Y-47535368D01*
X129099522Y-47475789D01*
X129099524Y-47475787D01*
X129099526Y-47475787D01*
X129179096Y-47425789D01*
X129252262Y-47379816D01*
X129379816Y-47252262D01*
X129440555Y-47155596D01*
X129475787Y-47099526D01*
X129475787Y-47099524D01*
X129475789Y-47099522D01*
X129535368Y-46929255D01*
X129555565Y-46750000D01*
X129535368Y-46570745D01*
X129475789Y-46400478D01*
X129475788Y-46400477D01*
X129475787Y-46400473D01*
X129379817Y-46247740D01*
X129379816Y-46247738D01*
X129364852Y-46232774D01*
X129350500Y-46198126D01*
X129350500Y-43019031D01*
X129364852Y-42984383D01*
X130234383Y-42114852D01*
X130269031Y-42100500D01*
X131167930Y-42100500D01*
X131167946Y-42100501D01*
X131170943Y-42100501D01*
X131329059Y-42100501D01*
X131481781Y-42059578D01*
X131481779Y-42059578D01*
X131481785Y-42059577D01*
X131534016Y-42029421D01*
X131618716Y-41980520D01*
X131730520Y-41868716D01*
X131730520Y-41868714D01*
X131734549Y-41864686D01*
X131734553Y-41864681D01*
X132734681Y-40864553D01*
X132734686Y-40864549D01*
X132738714Y-40860520D01*
X132738716Y-40860520D01*
X132850520Y-40748716D01*
X132909796Y-40646046D01*
X132929577Y-40611785D01*
X132970499Y-40459061D01*
X132970500Y-40459061D01*
X132970500Y-38241310D01*
X132984852Y-38206662D01*
X132998790Y-38196902D01*
X133047830Y-38174035D01*
X133047834Y-38174031D01*
X133047840Y-38174029D01*
X133241395Y-38038499D01*
X133241401Y-38038495D01*
X133408495Y-37871401D01*
X133431165Y-37839024D01*
X133544029Y-37677840D01*
X133544036Y-37677828D01*
X133558467Y-37646880D01*
X133643903Y-37463663D01*
X133705063Y-37235408D01*
X133725659Y-37000000D01*
X133705063Y-36764592D01*
X133701153Y-36750000D01*
X133643905Y-36536344D01*
X133643904Y-36536339D01*
X133544036Y-36322172D01*
X133544028Y-36322160D01*
X133408499Y-36128604D01*
X133408493Y-36128597D01*
X133241402Y-35961506D01*
X133241395Y-35961500D01*
X133047840Y-35825970D01*
X133047828Y-35825963D01*
X132833660Y-35726095D01*
X132833655Y-35726094D01*
X132605416Y-35664938D01*
X132605410Y-35664937D01*
X132370000Y-35644341D01*
X132134589Y-35664937D01*
X132134583Y-35664938D01*
X131906344Y-35726094D01*
X131906339Y-35726095D01*
X131692172Y-35825963D01*
X131692160Y-35825971D01*
X131498604Y-35961500D01*
X131498597Y-35961506D01*
X131331506Y-36128597D01*
X131331500Y-36128604D01*
X131195971Y-36322160D01*
X131195963Y-36322172D01*
X131144409Y-36432732D01*
X131116759Y-36458069D01*
X131079292Y-36456433D01*
X131055591Y-36432732D01*
X131004036Y-36322172D01*
X131004028Y-36322160D01*
X130868499Y-36128604D01*
X130868493Y-36128597D01*
X130701402Y-35961506D01*
X130701395Y-35961500D01*
X130507840Y-35825970D01*
X130507828Y-35825963D01*
X130293660Y-35726095D01*
X130293655Y-35726094D01*
X130065416Y-35664938D01*
X130065410Y-35664937D01*
X129830000Y-35644341D01*
X129594589Y-35664937D01*
X129594583Y-35664938D01*
X129366344Y-35726094D01*
X129366339Y-35726095D01*
X129152172Y-35825963D01*
X129152160Y-35825971D01*
X128958604Y-35961500D01*
X128958597Y-35961506D01*
X128791506Y-36128597D01*
X128791500Y-36128604D01*
X128655971Y-36322160D01*
X128655963Y-36322172D01*
X128604409Y-36432732D01*
X128576759Y-36458069D01*
X128539292Y-36456433D01*
X128515591Y-36432732D01*
X128464036Y-36322172D01*
X128464028Y-36322160D01*
X128328499Y-36128604D01*
X128328493Y-36128597D01*
X128161402Y-35961506D01*
X128161395Y-35961500D01*
X127967840Y-35825970D01*
X127967828Y-35825963D01*
X127753660Y-35726095D01*
X127753655Y-35726094D01*
X127525416Y-35664938D01*
X127525410Y-35664937D01*
X127290000Y-35644341D01*
X127054589Y-35664937D01*
X127054583Y-35664938D01*
X126826344Y-35726094D01*
X126826339Y-35726095D01*
X126612172Y-35825963D01*
X126612160Y-35825971D01*
X126418604Y-35961500D01*
X126418597Y-35961506D01*
X126251506Y-36128597D01*
X126251500Y-36128604D01*
X126189138Y-36217667D01*
X126157509Y-36237818D01*
X126120895Y-36229700D01*
X126100744Y-36198071D01*
X126100000Y-36189562D01*
X126100000Y-36102165D01*
X126093598Y-36042627D01*
X126093598Y-36042626D01*
X126043351Y-35907908D01*
X125957188Y-35792811D01*
X125842091Y-35706648D01*
X125707373Y-35656401D01*
X125647834Y-35650000D01*
X125000000Y-35650000D01*
X125000000Y-36566988D01*
X124942993Y-36534075D01*
X124815826Y-36500000D01*
X124684174Y-36500000D01*
X124557007Y-36534075D01*
X124500000Y-36566988D01*
X124500000Y-35650000D01*
X123852166Y-35650000D01*
X123792627Y-35656401D01*
X123792626Y-35656401D01*
X123657908Y-35706648D01*
X123542811Y-35792811D01*
X123456648Y-35907908D01*
X123406401Y-36042626D01*
X123406401Y-36042627D01*
X123400000Y-36102165D01*
X107536892Y-36102165D01*
X107575381Y-36061187D01*
X107577521Y-36059047D01*
X108017881Y-35645434D01*
X108020128Y-35643451D01*
X108487561Y-35256316D01*
X108489892Y-35254503D01*
X108984752Y-34893645D01*
X108987152Y-34892005D01*
X109509739Y-34557343D01*
X109512213Y-34555861D01*
X109600024Y-34506664D01*
X110062954Y-34247302D01*
X110065370Y-34246037D01*
X110644612Y-33963592D01*
X110647000Y-33962507D01*
X111255012Y-33706263D01*
X111257370Y-33705342D01*
X111894376Y-33475425D01*
X111896656Y-33474666D01*
X112562860Y-33271216D01*
X112565031Y-33270610D01*
X113260627Y-33093777D01*
X113262709Y-33093298D01*
X113987739Y-32943267D01*
X113989678Y-32942908D01*
X114744276Y-32819828D01*
X114746156Y-32819560D01*
X115530248Y-32723608D01*
X115532042Y-32723422D01*
X116345717Y-32654731D01*
X116347365Y-32654621D01*
X117190536Y-32613323D01*
X117192110Y-32613271D01*
X118069020Y-32599412D01*
X118069794Y-32599407D01*
X138666874Y-32599407D01*
X138667647Y-32599412D01*
G37*
%TD.AperFunction*%
%TD*%
M02*
