%TF.GenerationSoftware,KiCad,Pcbnew,8.0.3*%
%TF.CreationDate,2024-08-18T16:24:04+10:00*%
%TF.ProjectId,tetris_03,74657472-6973-45f3-9033-2e6b69636164,rev?*%
%TF.SameCoordinates,Original*%
%TF.FileFunction,Legend,Bot*%
%TF.FilePolarity,Positive*%
%FSLAX46Y46*%
G04 Gerber Fmt 4.6, Leading zero omitted, Abs format (unit mm)*
G04 Created by KiCad (PCBNEW 8.0.3) date 2024-08-18 16:24:04*
%MOMM*%
%LPD*%
G01*
G04 APERTURE LIST*
%ADD10C,0.000000*%
%ADD11C,0.100000*%
%ADD12C,0.150000*%
%ADD13C,0.120000*%
G04 APERTURE END LIST*
D10*
G36*
X140709030Y-34354105D02*
G01*
X140722289Y-34355141D01*
X140735541Y-34357130D01*
X140748738Y-34360087D01*
X144848797Y-35124521D01*
X144890630Y-35131287D01*
X144900934Y-35133264D01*
X144910996Y-35135625D01*
X144920725Y-35138504D01*
X144930031Y-35142038D01*
X144934497Y-35144092D01*
X144938823Y-35146361D01*
X144942998Y-35148860D01*
X144947010Y-35151607D01*
X144950849Y-35154620D01*
X144954503Y-35157914D01*
X144957960Y-35161506D01*
X144961210Y-35165414D01*
X144964241Y-35169654D01*
X144967041Y-35174243D01*
X144969600Y-35179198D01*
X144971907Y-35184537D01*
X144973949Y-35190275D01*
X144975715Y-35196429D01*
X144977195Y-35203018D01*
X144978376Y-35210056D01*
X145132614Y-36186311D01*
X145207364Y-36651491D01*
X145242983Y-36884306D01*
X145274817Y-37117594D01*
X145277634Y-37136289D01*
X145281210Y-37153374D01*
X145283290Y-37161339D01*
X145285570Y-37168933D01*
X145288052Y-37176167D01*
X145290741Y-37183050D01*
X145293639Y-37189594D01*
X145296749Y-37195809D01*
X145300076Y-37201706D01*
X145303622Y-37207294D01*
X145307391Y-37212585D01*
X145311387Y-37217588D01*
X145315611Y-37222315D01*
X145320068Y-37226776D01*
X145324762Y-37230981D01*
X145329695Y-37234940D01*
X145334870Y-37238665D01*
X145340292Y-37242166D01*
X145345963Y-37245453D01*
X145351887Y-37248537D01*
X145364506Y-37254136D01*
X145378176Y-37259047D01*
X145392924Y-37263355D01*
X145408776Y-37267143D01*
X145425759Y-37270496D01*
X147279526Y-37609408D01*
X147288320Y-37609975D01*
X147296991Y-37610961D01*
X147305527Y-37612356D01*
X147313920Y-37614150D01*
X147322159Y-37616331D01*
X147330234Y-37618891D01*
X147338135Y-37621818D01*
X147345853Y-37625103D01*
X147353377Y-37628736D01*
X147360698Y-37632706D01*
X147367805Y-37637002D01*
X147374689Y-37641616D01*
X147381340Y-37646536D01*
X147387748Y-37651753D01*
X147393902Y-37657256D01*
X147399793Y-37663034D01*
X147405412Y-37669079D01*
X147410747Y-37675379D01*
X147415789Y-37681925D01*
X147420529Y-37688705D01*
X147424956Y-37695711D01*
X147429060Y-37702931D01*
X147432831Y-37710356D01*
X147436260Y-37717976D01*
X147439337Y-37725779D01*
X147442051Y-37733757D01*
X147444392Y-37741898D01*
X147446351Y-37750192D01*
X147447918Y-37758630D01*
X147449083Y-37767201D01*
X147449836Y-37775895D01*
X147450166Y-37784702D01*
X147595160Y-38739008D01*
X147745502Y-39692510D01*
X147748330Y-39706610D01*
X147750179Y-39720752D01*
X147751063Y-39734889D01*
X147750996Y-39748977D01*
X147749992Y-39762971D01*
X147748066Y-39776824D01*
X147745231Y-39790492D01*
X147741502Y-39803930D01*
X147736893Y-39817091D01*
X147731418Y-39829932D01*
X147725091Y-39842406D01*
X147717927Y-39854468D01*
X147709940Y-39866074D01*
X147701144Y-39877177D01*
X147691553Y-39887732D01*
X147681181Y-39897695D01*
X147130178Y-40460108D01*
X146583102Y-41026379D01*
X146578345Y-41031836D01*
X146573419Y-41037091D01*
X146563088Y-41046984D01*
X146552159Y-41056042D01*
X146540684Y-41064250D01*
X146528712Y-41071592D01*
X146516296Y-41078051D01*
X146503486Y-41083612D01*
X146490332Y-41088258D01*
X146476886Y-41091973D01*
X146463198Y-41094743D01*
X146449320Y-41096550D01*
X146435302Y-41097378D01*
X146421194Y-41097212D01*
X146407049Y-41096036D01*
X146392916Y-41093833D01*
X146385871Y-41092342D01*
X146378847Y-41090588D01*
X142293740Y-40331328D01*
X142283488Y-40329296D01*
X142273723Y-40327040D01*
X142264431Y-40324561D01*
X142255599Y-40321859D01*
X142247212Y-40318935D01*
X142239259Y-40315788D01*
X142231726Y-40312420D01*
X142224598Y-40308830D01*
X142217863Y-40305019D01*
X142211507Y-40300987D01*
X142205518Y-40296734D01*
X142199880Y-40292262D01*
X142194582Y-40287569D01*
X142189610Y-40282656D01*
X142184950Y-40277525D01*
X142180589Y-40272174D01*
X142176514Y-40266605D01*
X142172710Y-40260818D01*
X142169166Y-40254813D01*
X142165867Y-40248590D01*
X142162799Y-40242149D01*
X142159951Y-40235492D01*
X142154855Y-40221529D01*
X142150474Y-40206701D01*
X142146698Y-40191012D01*
X142143422Y-40174464D01*
X142140538Y-40157061D01*
X141998109Y-39241416D01*
X141858518Y-38325358D01*
X141855570Y-38308008D01*
X141852008Y-38292152D01*
X141849985Y-38284759D01*
X141847795Y-38277710D01*
X141845432Y-38270996D01*
X141842892Y-38264605D01*
X141840171Y-38258529D01*
X141837263Y-38252758D01*
X141834165Y-38247282D01*
X141830871Y-38242091D01*
X141827377Y-38237176D01*
X141823678Y-38232526D01*
X141819769Y-38228132D01*
X141815646Y-38223984D01*
X141811304Y-38220073D01*
X141806738Y-38216388D01*
X141801944Y-38212920D01*
X141796918Y-38209659D01*
X141791653Y-38206595D01*
X141786147Y-38203718D01*
X141780393Y-38201019D01*
X141774388Y-38198488D01*
X141761604Y-38193890D01*
X141747757Y-38189847D01*
X141732811Y-38186279D01*
X141716727Y-38183108D01*
X139863083Y-37843493D01*
X139853824Y-37842903D01*
X139844696Y-37841871D01*
X139835708Y-37840409D01*
X139826872Y-37838528D01*
X139818197Y-37836238D01*
X139809694Y-37833549D01*
X139801374Y-37830473D01*
X139793247Y-37827021D01*
X139785323Y-37823202D01*
X139777614Y-37819028D01*
X139770129Y-37814510D01*
X139762879Y-37809658D01*
X139755874Y-37804484D01*
X139749126Y-37798997D01*
X139742643Y-37793208D01*
X139736438Y-37787129D01*
X139730519Y-37780770D01*
X139724899Y-37774141D01*
X139719587Y-37767254D01*
X139714593Y-37760120D01*
X139709929Y-37752748D01*
X139705604Y-37745150D01*
X139701629Y-37737336D01*
X139698015Y-37729318D01*
X139694772Y-37721105D01*
X139691910Y-37712709D01*
X139689441Y-37704141D01*
X139687373Y-37695410D01*
X139685719Y-37686529D01*
X139684488Y-37677507D01*
X139683691Y-37668355D01*
X139683338Y-37659085D01*
X139539100Y-36704706D01*
X139400790Y-35828826D01*
X139537912Y-35828826D01*
X139538097Y-35836620D01*
X139538590Y-35844942D01*
X139540476Y-35863225D01*
X139543527Y-35883768D01*
X139678776Y-36722153D01*
X139805296Y-37561962D01*
X139805322Y-37569897D01*
X139805738Y-37577787D01*
X139806541Y-37585618D01*
X139807723Y-37593377D01*
X139809281Y-37601050D01*
X139811210Y-37608625D01*
X139813503Y-37616089D01*
X139816157Y-37623427D01*
X139819165Y-37630627D01*
X139822523Y-37637676D01*
X139826225Y-37644560D01*
X139830267Y-37651266D01*
X139834644Y-37657782D01*
X139839349Y-37664092D01*
X139844378Y-37670185D01*
X139849727Y-37676047D01*
X139855359Y-37681637D01*
X139861235Y-37686918D01*
X139867342Y-37691884D01*
X139873667Y-37696531D01*
X139880197Y-37700851D01*
X139886920Y-37704840D01*
X139893821Y-37708492D01*
X139900888Y-37711801D01*
X139908109Y-37714761D01*
X139915469Y-37717366D01*
X139922957Y-37719611D01*
X139930558Y-37721491D01*
X139938260Y-37722999D01*
X139946051Y-37724130D01*
X139953916Y-37724878D01*
X139961843Y-37725237D01*
X140865654Y-37891977D01*
X141317511Y-37975566D01*
X141770080Y-38054893D01*
X141797735Y-38060277D01*
X141810647Y-38063372D01*
X141822969Y-38066742D01*
X141834716Y-38070392D01*
X141845904Y-38074325D01*
X141856548Y-38078547D01*
X141866663Y-38083063D01*
X141876265Y-38087876D01*
X141885368Y-38092992D01*
X141893988Y-38098415D01*
X141902140Y-38104150D01*
X141909839Y-38110201D01*
X141917102Y-38116574D01*
X141923942Y-38123272D01*
X141930375Y-38130300D01*
X141936417Y-38137663D01*
X141942082Y-38145366D01*
X141947386Y-38153412D01*
X141952345Y-38161808D01*
X141956973Y-38170556D01*
X141961285Y-38179663D01*
X141965298Y-38189132D01*
X141969025Y-38198969D01*
X141975687Y-38219761D01*
X141981393Y-38242078D01*
X141986264Y-38265956D01*
X141990423Y-38291432D01*
X142264856Y-40076946D01*
X142264884Y-40083730D01*
X142265248Y-40090434D01*
X142265938Y-40097050D01*
X142266948Y-40103570D01*
X142268269Y-40109985D01*
X142269893Y-40116288D01*
X142271813Y-40122470D01*
X142274021Y-40128522D01*
X142276509Y-40134436D01*
X142279269Y-40140204D01*
X142282293Y-40145817D01*
X142285574Y-40151268D01*
X142289103Y-40156548D01*
X142292874Y-40161648D01*
X142296878Y-40166561D01*
X142301106Y-40171278D01*
X142305553Y-40175790D01*
X142310208Y-40180089D01*
X142315066Y-40184168D01*
X142320118Y-40188017D01*
X142325355Y-40191629D01*
X142330771Y-40194995D01*
X142336358Y-40198106D01*
X142342107Y-40200955D01*
X142348011Y-40203533D01*
X142354062Y-40205831D01*
X142360252Y-40207842D01*
X142366573Y-40209558D01*
X142373018Y-40210969D01*
X142379579Y-40212067D01*
X142386248Y-40212845D01*
X142393016Y-40213293D01*
X146250693Y-40930255D01*
X146271115Y-40933827D01*
X146289529Y-40936393D01*
X146305998Y-40937859D01*
X146313522Y-40938151D01*
X146320583Y-40938133D01*
X146327189Y-40937794D01*
X146333347Y-40937122D01*
X146339065Y-40936105D01*
X146344351Y-40934733D01*
X146349212Y-40932992D01*
X146353657Y-40930872D01*
X146357693Y-40928362D01*
X146361328Y-40925449D01*
X146364570Y-40922121D01*
X146367426Y-40918368D01*
X146369903Y-40914177D01*
X146372011Y-40909538D01*
X146373756Y-40904437D01*
X146375147Y-40898865D01*
X146376191Y-40892809D01*
X146376895Y-40886257D01*
X146377268Y-40879198D01*
X146377318Y-40871621D01*
X146376476Y-40854863D01*
X146374433Y-40835892D01*
X146371250Y-40814614D01*
X146304016Y-40403163D01*
X146238957Y-39991359D01*
X146176076Y-39579203D01*
X146115370Y-39166695D01*
X146115380Y-39157040D01*
X146114907Y-39147499D01*
X146113963Y-39138084D01*
X146112559Y-39128806D01*
X146110706Y-39119678D01*
X146108417Y-39110712D01*
X146106213Y-39103577D01*
X146236255Y-39103577D01*
X146238001Y-39138813D01*
X146241964Y-39174570D01*
X146247765Y-39210766D01*
X146255028Y-39247317D01*
X146272423Y-39321155D01*
X146291122Y-39395419D01*
X146308102Y-39469445D01*
X146315001Y-39506161D01*
X146320336Y-39542568D01*
X146320534Y-39544488D01*
X146320678Y-39546416D01*
X146320884Y-39550281D01*
X146320988Y-39552212D01*
X146321121Y-39554140D01*
X146321304Y-39556060D01*
X146321557Y-39557970D01*
X146524861Y-40852316D01*
X146524861Y-40852317D01*
X146524861Y-40852318D01*
X146524860Y-40852318D01*
X146524860Y-40852319D01*
X146524859Y-40852320D01*
X146524858Y-40852321D01*
X146524857Y-40852321D01*
X146524857Y-40852322D01*
X146524856Y-40852322D01*
X146524856Y-40852323D01*
X146524855Y-40852324D01*
X146524855Y-40852325D01*
X146524855Y-40852326D01*
X146528814Y-40851261D01*
X146532548Y-40850328D01*
X146539361Y-40848784D01*
X146550520Y-40846472D01*
X146554949Y-40845410D01*
X146556895Y-40844839D01*
X146558669Y-40844216D01*
X146560275Y-40843524D01*
X146561720Y-40842743D01*
X146563009Y-40841856D01*
X146564147Y-40840843D01*
X147066416Y-40327677D01*
X147570154Y-39815974D01*
X147575148Y-39810719D01*
X147579721Y-39805454D01*
X147583888Y-39800180D01*
X147587663Y-39794897D01*
X147591063Y-39789605D01*
X147594103Y-39784305D01*
X147596799Y-39778996D01*
X147599166Y-39773679D01*
X147601220Y-39768354D01*
X147602977Y-39763020D01*
X147604451Y-39757679D01*
X147605659Y-39752331D01*
X147606616Y-39746975D01*
X147607337Y-39741612D01*
X147608136Y-39730865D01*
X147608181Y-39720091D01*
X147607594Y-39709293D01*
X147606502Y-39698470D01*
X147605029Y-39687626D01*
X147597807Y-39644056D01*
X147521090Y-39148079D01*
X147443044Y-38652308D01*
X147317817Y-37855464D01*
X146974587Y-38205202D01*
X146648751Y-38538763D01*
X146622686Y-38564863D01*
X146595712Y-38590627D01*
X146540011Y-38641532D01*
X146483596Y-38692240D01*
X146428416Y-38743514D01*
X146401898Y-38769601D01*
X146376418Y-38796115D01*
X146352222Y-38823153D01*
X146329552Y-38850808D01*
X146308652Y-38879176D01*
X146289766Y-38908353D01*
X146273136Y-38938434D01*
X146265744Y-38953843D01*
X146259008Y-38969514D01*
X146253066Y-38985561D01*
X146248103Y-39001832D01*
X146244073Y-39018317D01*
X146240928Y-39035004D01*
X146238621Y-39051884D01*
X146237105Y-39068947D01*
X146236255Y-39103577D01*
X146106213Y-39103577D01*
X146105702Y-39101921D01*
X146102573Y-39093315D01*
X146099041Y-39084907D01*
X146095118Y-39076710D01*
X146090815Y-39068735D01*
X146086144Y-39060994D01*
X146081115Y-39053500D01*
X146075741Y-39046264D01*
X146070033Y-39039299D01*
X146064002Y-39032616D01*
X146057660Y-39026229D01*
X146051018Y-39020147D01*
X146044088Y-39014385D01*
X146036880Y-39008954D01*
X146029407Y-39003865D01*
X146021680Y-38999132D01*
X146013710Y-38994766D01*
X146005508Y-38990779D01*
X145997087Y-38987183D01*
X145988457Y-38983991D01*
X145979631Y-38981214D01*
X145970618Y-38978864D01*
X145961431Y-38976954D01*
X145952082Y-38975496D01*
X145942581Y-38974501D01*
X145932940Y-38973983D01*
X144139639Y-38648172D01*
X144128779Y-38647742D01*
X144118001Y-38646773D01*
X144107325Y-38645275D01*
X144096769Y-38643255D01*
X144086350Y-38640721D01*
X144076087Y-38637681D01*
X144065997Y-38634142D01*
X144056100Y-38630113D01*
X144046414Y-38625602D01*
X144036956Y-38620616D01*
X144027744Y-38615164D01*
X144018798Y-38609253D01*
X144010135Y-38602892D01*
X144001772Y-38596087D01*
X143993730Y-38588848D01*
X143986025Y-38581182D01*
X143978713Y-38573141D01*
X143971843Y-38564781D01*
X143965422Y-38556121D01*
X143959456Y-38547181D01*
X143953954Y-38537978D01*
X143948921Y-38528531D01*
X143944366Y-38518858D01*
X143940295Y-38508978D01*
X143936715Y-38498911D01*
X143933633Y-38488673D01*
X143931058Y-38478283D01*
X143928994Y-38467761D01*
X143927451Y-38457124D01*
X143926434Y-38446392D01*
X143925951Y-38435582D01*
X143926009Y-38424713D01*
X143916207Y-38342375D01*
X143905145Y-38260175D01*
X143880307Y-38096073D01*
X143827215Y-37768259D01*
X143638639Y-36561789D01*
X143638428Y-36556710D01*
X143637902Y-36551933D01*
X143637074Y-36547445D01*
X143635954Y-36543237D01*
X143634553Y-36539298D01*
X143632882Y-36535616D01*
X143630953Y-36532180D01*
X143628777Y-36528979D01*
X143626364Y-36526002D01*
X143623727Y-36523239D01*
X143620876Y-36520678D01*
X143617822Y-36518308D01*
X143617773Y-36518275D01*
X143784115Y-36518275D01*
X143784361Y-36528206D01*
X143785079Y-36538174D01*
X143786168Y-36548179D01*
X143789049Y-36568287D01*
X143792190Y-36588516D01*
X143838700Y-36893679D01*
X143886673Y-37198625D01*
X144074267Y-38388528D01*
X144074264Y-38388537D01*
X145113335Y-37321980D01*
X145119785Y-37314786D01*
X145125693Y-37307238D01*
X145131052Y-37299366D01*
X145135854Y-37291202D01*
X145140093Y-37282774D01*
X145143760Y-37274112D01*
X145146850Y-37265247D01*
X145149353Y-37256208D01*
X145151265Y-37247026D01*
X145152576Y-37237730D01*
X145153280Y-37228351D01*
X145153369Y-37218917D01*
X145152837Y-37209460D01*
X145151675Y-37200009D01*
X145149878Y-37190594D01*
X145147437Y-37181245D01*
X145119992Y-37009755D01*
X145093765Y-36838064D01*
X145041546Y-36494633D01*
X144862096Y-35362351D01*
X144334523Y-35904795D01*
X143819992Y-36430917D01*
X143815514Y-36435662D01*
X143811397Y-36440421D01*
X143807627Y-36445193D01*
X143804192Y-36449980D01*
X143801079Y-36454779D01*
X143798275Y-36459592D01*
X143795768Y-36464417D01*
X143793545Y-36469255D01*
X143791592Y-36474106D01*
X143789898Y-36478968D01*
X143788450Y-36483843D01*
X143787234Y-36488729D01*
X143785450Y-36498534D01*
X143784444Y-36508384D01*
X143784115Y-36518275D01*
X143617773Y-36518275D01*
X143614577Y-36516118D01*
X143611151Y-36514097D01*
X143607556Y-36512234D01*
X143603803Y-36510518D01*
X143599903Y-36508938D01*
X143595867Y-36507482D01*
X143591707Y-36506141D01*
X143587433Y-36504903D01*
X143578589Y-36502690D01*
X143569425Y-36500757D01*
X143531350Y-36494048D01*
X139658684Y-35772711D01*
X139639728Y-35769409D01*
X139622541Y-35767024D01*
X139607081Y-35765654D01*
X139599984Y-35765379D01*
X139593303Y-35765393D01*
X139587031Y-35765709D01*
X139581165Y-35766338D01*
X139575697Y-35767293D01*
X139570623Y-35768585D01*
X139565937Y-35770227D01*
X139561635Y-35772230D01*
X139557710Y-35774606D01*
X139554157Y-35777368D01*
X139550971Y-35780528D01*
X139548146Y-35784096D01*
X139545677Y-35788087D01*
X139543559Y-35792510D01*
X139541787Y-35797379D01*
X139540353Y-35802706D01*
X139539255Y-35808502D01*
X139538485Y-35814779D01*
X139538039Y-35821550D01*
X139537912Y-35828826D01*
X139400790Y-35828826D01*
X139388544Y-35751276D01*
X139385830Y-35738142D01*
X139384030Y-35724965D01*
X139383130Y-35711786D01*
X139383119Y-35698648D01*
X139383982Y-35685594D01*
X139385707Y-35672666D01*
X139388280Y-35659906D01*
X139391689Y-35647357D01*
X139395921Y-35635060D01*
X139400962Y-35623059D01*
X139406799Y-35611396D01*
X139413420Y-35600112D01*
X139420811Y-35589251D01*
X139428960Y-35578855D01*
X139437853Y-35568965D01*
X139447477Y-35559625D01*
X140004146Y-34991860D01*
X140557276Y-34420634D01*
X140566373Y-34410627D01*
X140576071Y-34401380D01*
X140586324Y-34392909D01*
X140597084Y-34385228D01*
X140608304Y-34378352D01*
X140619938Y-34372296D01*
X140631939Y-34367075D01*
X140644261Y-34362703D01*
X140656855Y-34359196D01*
X140669676Y-34356568D01*
X140682677Y-34354833D01*
X140695811Y-34354007D01*
X140709030Y-34354105D01*
G37*
G36*
X125922294Y-39445224D02*
G01*
X125934507Y-39446525D01*
X125946538Y-39448689D01*
X125958343Y-39451694D01*
X125969879Y-39455522D01*
X125981102Y-39460152D01*
X125991970Y-39465565D01*
X126002438Y-39471741D01*
X126012464Y-39478661D01*
X126022004Y-39486304D01*
X126031014Y-39494651D01*
X126039451Y-39503682D01*
X126047272Y-39513377D01*
X126054434Y-39523717D01*
X126497248Y-40099587D01*
X126943100Y-40673108D01*
X126951451Y-40683751D01*
X126959096Y-40694806D01*
X126966028Y-40706237D01*
X126972238Y-40718011D01*
X126977719Y-40730092D01*
X126982464Y-40742446D01*
X126986465Y-40755038D01*
X126989714Y-40767834D01*
X126992203Y-40780799D01*
X126993924Y-40793899D01*
X126994871Y-40807099D01*
X126995034Y-40820365D01*
X126994408Y-40833661D01*
X126992983Y-40846954D01*
X126990752Y-40860208D01*
X126987707Y-40873389D01*
X126968853Y-40968049D01*
X126950872Y-41062888D01*
X126915997Y-41252762D01*
X126904619Y-41316736D01*
X126900758Y-41342594D01*
X126898416Y-41364709D01*
X126897885Y-41374445D01*
X126897819Y-41383342D01*
X126898245Y-41391433D01*
X126899193Y-41398750D01*
X126900689Y-41405326D01*
X126902762Y-41411193D01*
X126905441Y-41416383D01*
X126908753Y-41420928D01*
X126912727Y-41424862D01*
X126917391Y-41428215D01*
X126922773Y-41431021D01*
X126928902Y-41433312D01*
X126935805Y-41435120D01*
X126943510Y-41436478D01*
X126952047Y-41437417D01*
X126961442Y-41437971D01*
X126982923Y-41438050D01*
X127008179Y-41436974D01*
X127070916Y-41432391D01*
X127386912Y-41407471D01*
X127544749Y-41393469D01*
X127702286Y-41376900D01*
X127718499Y-41374380D01*
X127734684Y-41373116D01*
X127750780Y-41373084D01*
X127766724Y-41374254D01*
X127782454Y-41376602D01*
X127797909Y-41380099D01*
X127813027Y-41384720D01*
X127827745Y-41390437D01*
X127842001Y-41397223D01*
X127855733Y-41405053D01*
X127868880Y-41413899D01*
X127881379Y-41423734D01*
X127893168Y-41434531D01*
X127904186Y-41446265D01*
X127914370Y-41458907D01*
X127923658Y-41472432D01*
X128138694Y-41755501D01*
X128355484Y-42037246D01*
X128791668Y-42598764D01*
X128799788Y-42608146D01*
X128807274Y-42617938D01*
X128814117Y-42628109D01*
X128820309Y-42638627D01*
X128825841Y-42649459D01*
X128830706Y-42660575D01*
X128834893Y-42671941D01*
X128838395Y-42683528D01*
X128841202Y-42695301D01*
X128843307Y-42707230D01*
X128844701Y-42719283D01*
X128845374Y-42731428D01*
X128845319Y-42743633D01*
X128844527Y-42755867D01*
X128842989Y-42768096D01*
X128840697Y-42780290D01*
X128657565Y-43759496D01*
X128481044Y-44739941D01*
X128477669Y-44757404D01*
X128473878Y-44773646D01*
X128469584Y-44788695D01*
X128464699Y-44802579D01*
X128459134Y-44815324D01*
X128456070Y-44821278D01*
X128452802Y-44826958D01*
X128449322Y-44832367D01*
X128445616Y-44837509D01*
X128441675Y-44842386D01*
X128437487Y-44847003D01*
X128433041Y-44851362D01*
X128428327Y-44855468D01*
X128423333Y-44859323D01*
X128418048Y-44862931D01*
X128412462Y-44866296D01*
X128406563Y-44869420D01*
X128400341Y-44872308D01*
X128393784Y-44874962D01*
X128386882Y-44877387D01*
X128379623Y-44879585D01*
X128371996Y-44881560D01*
X128363991Y-44883315D01*
X128346802Y-44886180D01*
X128327967Y-44888207D01*
X124183916Y-45236868D01*
X124183776Y-45235211D01*
X122997669Y-45336633D01*
X121811871Y-45441457D01*
X121793839Y-45444059D01*
X121775846Y-45445295D01*
X121757959Y-45445193D01*
X121740243Y-45443782D01*
X121722766Y-45441090D01*
X121705592Y-45437146D01*
X121688789Y-45431979D01*
X121672423Y-45425616D01*
X121656559Y-45418088D01*
X121641264Y-45409421D01*
X121626605Y-45399644D01*
X121612646Y-45388787D01*
X121599455Y-45376877D01*
X121587098Y-45363943D01*
X121575641Y-45350014D01*
X121565149Y-45335119D01*
X121464253Y-45201936D01*
X121794891Y-45201936D01*
X121795273Y-45211940D01*
X121796175Y-45221209D01*
X121797595Y-45229769D01*
X121799529Y-45237644D01*
X121801972Y-45244857D01*
X121804922Y-45251435D01*
X121808376Y-45257400D01*
X121812329Y-45262777D01*
X121816779Y-45267592D01*
X121821722Y-45271867D01*
X121827154Y-45275627D01*
X121833072Y-45278898D01*
X121839472Y-45281702D01*
X121846352Y-45284065D01*
X121853707Y-45286011D01*
X121861534Y-45287564D01*
X121869830Y-45288748D01*
X121878592Y-45289589D01*
X121897496Y-45290336D01*
X121918219Y-45289999D01*
X121940735Y-45288773D01*
X121965014Y-45286854D01*
X125061281Y-45025024D01*
X125061267Y-45025024D01*
X126632342Y-44891505D01*
X128203758Y-44762213D01*
X128223879Y-44760145D01*
X128242253Y-44757248D01*
X128250815Y-44755479D01*
X128258974Y-44753490D01*
X128266742Y-44751276D01*
X128274132Y-44748834D01*
X128281153Y-44746160D01*
X128287818Y-44743248D01*
X128294138Y-44740094D01*
X128300124Y-44736695D01*
X128305788Y-44733045D01*
X128311142Y-44729141D01*
X128316196Y-44724979D01*
X128320962Y-44720553D01*
X128325451Y-44715859D01*
X128329676Y-44710894D01*
X128333647Y-44705653D01*
X128337375Y-44700131D01*
X128340873Y-44694325D01*
X128344152Y-44688229D01*
X128347222Y-44681840D01*
X128350096Y-44675153D01*
X128355300Y-44660869D01*
X128359855Y-44645342D01*
X128363851Y-44628537D01*
X128367382Y-44610421D01*
X128519133Y-43766765D01*
X128597422Y-43345382D01*
X128677958Y-42924439D01*
X128681657Y-42903431D01*
X128684105Y-42884660D01*
X128684845Y-42876079D01*
X128685254Y-42868019D01*
X128685326Y-42860465D01*
X128685057Y-42853405D01*
X128684438Y-42846825D01*
X128683466Y-42840713D01*
X128682133Y-42835055D01*
X128680435Y-42829838D01*
X128678365Y-42825050D01*
X128675916Y-42820677D01*
X128673084Y-42816706D01*
X128669863Y-42813124D01*
X128666246Y-42809919D01*
X128662227Y-42807076D01*
X128657802Y-42804583D01*
X128652963Y-42802427D01*
X128647705Y-42800595D01*
X128642022Y-42799073D01*
X128635908Y-42797849D01*
X128629357Y-42796910D01*
X128622364Y-42796243D01*
X128614922Y-42795833D01*
X128598669Y-42795738D01*
X128580551Y-42796520D01*
X128560521Y-42798075D01*
X127613377Y-42879717D01*
X126665993Y-42958831D01*
X126634376Y-42961255D01*
X126606290Y-42962692D01*
X126581584Y-42962955D01*
X126570451Y-42962590D01*
X126560106Y-42961861D01*
X126550530Y-42960746D01*
X126541705Y-42959222D01*
X126533612Y-42957266D01*
X126526231Y-42954853D01*
X126519544Y-42951962D01*
X126513531Y-42948569D01*
X126508175Y-42944650D01*
X126503455Y-42940183D01*
X126499353Y-42935143D01*
X126495851Y-42929509D01*
X126492929Y-42923257D01*
X126490568Y-42916363D01*
X126488750Y-42908804D01*
X126487455Y-42900557D01*
X126486665Y-42891599D01*
X126486361Y-42881907D01*
X126486523Y-42871457D01*
X126487133Y-42860226D01*
X126489622Y-42835329D01*
X126493676Y-42807030D01*
X126499143Y-42775144D01*
X126503755Y-42749738D01*
X126652935Y-42749738D01*
X126653144Y-42755607D01*
X126653644Y-42761082D01*
X126654435Y-42766175D01*
X126655516Y-42770896D01*
X126656884Y-42775257D01*
X126658540Y-42779268D01*
X126660483Y-42782942D01*
X126662709Y-42786290D01*
X126665220Y-42789322D01*
X126668013Y-42792049D01*
X126671088Y-42794484D01*
X126674443Y-42796637D01*
X126678077Y-42798519D01*
X126681990Y-42800142D01*
X126686179Y-42801516D01*
X126690643Y-42802653D01*
X126695382Y-42803565D01*
X126700395Y-42804262D01*
X126705680Y-42804755D01*
X126711236Y-42805057D01*
X126723157Y-42805127D01*
X126736148Y-42804563D01*
X126750200Y-42803455D01*
X127111447Y-42772031D01*
X127472799Y-42741712D01*
X128652335Y-42638661D01*
X128652321Y-42638661D01*
X127806852Y-41543282D01*
X127803481Y-41539110D01*
X127800050Y-41535271D01*
X127796562Y-41531752D01*
X127793018Y-41528541D01*
X127789421Y-41525625D01*
X127785773Y-41522992D01*
X127782077Y-41520630D01*
X127778333Y-41518526D01*
X127774546Y-41516667D01*
X127770716Y-41515042D01*
X127766847Y-41513638D01*
X127762940Y-41512442D01*
X127758997Y-41511443D01*
X127755022Y-41510626D01*
X127746979Y-41509495D01*
X127738830Y-41508949D01*
X127730592Y-41508888D01*
X127722283Y-41509214D01*
X127713920Y-41509827D01*
X127680289Y-41513158D01*
X127326599Y-41543114D01*
X127149738Y-41557784D01*
X126972792Y-41571174D01*
X126959768Y-41572326D01*
X126947429Y-41573931D01*
X126935775Y-41576043D01*
X126924805Y-41578717D01*
X126914518Y-41582007D01*
X126904913Y-41585967D01*
X126900366Y-41588215D01*
X126895989Y-41590652D01*
X126891782Y-41593283D01*
X126887746Y-41596116D01*
X126883879Y-41599158D01*
X126880181Y-41602414D01*
X126876654Y-41605893D01*
X126873296Y-41609600D01*
X126870108Y-41613543D01*
X126867088Y-41617729D01*
X126864239Y-41622164D01*
X126861558Y-41626854D01*
X126859046Y-41631808D01*
X126856703Y-41637031D01*
X126854529Y-41642530D01*
X126852524Y-41648313D01*
X126850687Y-41654386D01*
X126849019Y-41660756D01*
X126847519Y-41667429D01*
X126846188Y-41674412D01*
X126754816Y-42190549D01*
X126707362Y-42448288D01*
X126657876Y-42705625D01*
X126656310Y-42714093D01*
X126655042Y-42722099D01*
X126654072Y-42729656D01*
X126653398Y-42736773D01*
X126653020Y-42743464D01*
X126652935Y-42749738D01*
X126503755Y-42749738D01*
X126659122Y-41893876D01*
X126823832Y-41013509D01*
X126827771Y-40991217D01*
X126830545Y-40970957D01*
X126832058Y-40952670D01*
X126832313Y-40944247D01*
X126832216Y-40936294D01*
X126831757Y-40928804D01*
X126830923Y-40921769D01*
X126829703Y-40915181D01*
X126828084Y-40909033D01*
X126826056Y-40903317D01*
X126823605Y-40898026D01*
X126820721Y-40893152D01*
X126817391Y-40888687D01*
X126813603Y-40884624D01*
X126809346Y-40880956D01*
X126804607Y-40877674D01*
X126799375Y-40874771D01*
X126793638Y-40872240D01*
X126787384Y-40870073D01*
X126780601Y-40868262D01*
X126773278Y-40866799D01*
X126765401Y-40865678D01*
X126756961Y-40864890D01*
X126747944Y-40864428D01*
X126738338Y-40864285D01*
X126717316Y-40864922D01*
X126693797Y-40866742D01*
X125785532Y-40949432D01*
X124876602Y-41024699D01*
X124860362Y-41026375D01*
X124845497Y-41028720D01*
X124838558Y-41030155D01*
X124831936Y-41031770D01*
X124825623Y-41033570D01*
X124819609Y-41035561D01*
X124813886Y-41037746D01*
X124808445Y-41040130D01*
X124803278Y-41042717D01*
X124798374Y-41045513D01*
X124793726Y-41048521D01*
X124789325Y-41051747D01*
X124785162Y-41055195D01*
X124781228Y-41058869D01*
X124777515Y-41062774D01*
X124774013Y-41066915D01*
X124770713Y-41071295D01*
X124767608Y-41075921D01*
X124764687Y-41080795D01*
X124761943Y-41085924D01*
X124759366Y-41091311D01*
X124756948Y-41096961D01*
X124752553Y-41109068D01*
X124748687Y-41122282D01*
X124745279Y-41136639D01*
X124742259Y-41152175D01*
X124415425Y-42960447D01*
X124410596Y-42985589D01*
X124405049Y-43008874D01*
X124398674Y-43030352D01*
X124391363Y-43050073D01*
X124387323Y-43059291D01*
X124383008Y-43068088D01*
X124378404Y-43076470D01*
X124373499Y-43084445D01*
X124368278Y-43092018D01*
X124362727Y-43099196D01*
X124356834Y-43105984D01*
X124350585Y-43112390D01*
X124343966Y-43118419D01*
X124336963Y-43124078D01*
X124329562Y-43129373D01*
X124321752Y-43134309D01*
X124313516Y-43138895D01*
X124304843Y-43143135D01*
X124295718Y-43147035D01*
X124286129Y-43150604D01*
X124276060Y-43153845D01*
X124265499Y-43156766D01*
X124254432Y-43159374D01*
X124242846Y-43161673D01*
X124218060Y-43165375D01*
X124191034Y-43167920D01*
X123705538Y-43204829D01*
X123220303Y-43245439D01*
X122249862Y-43327575D01*
X122235297Y-43329003D01*
X122221696Y-43330917D01*
X122209032Y-43333372D01*
X122197276Y-43336423D01*
X122186401Y-43340127D01*
X122181285Y-43342241D01*
X122176379Y-43344539D01*
X122171679Y-43347029D01*
X122167182Y-43349716D01*
X122162884Y-43352608D01*
X122158783Y-43355711D01*
X122154873Y-43359034D01*
X122151153Y-43362582D01*
X122147618Y-43366363D01*
X122144265Y-43370384D01*
X122141091Y-43374652D01*
X122138092Y-43379173D01*
X122135265Y-43383954D01*
X122132605Y-43389003D01*
X122130110Y-43394327D01*
X122127777Y-43399932D01*
X122125601Y-43405826D01*
X122123580Y-43412015D01*
X122119986Y-43425306D01*
X122116968Y-43439863D01*
X121964553Y-44283324D01*
X121885887Y-44704582D01*
X121803725Y-45125138D01*
X121800911Y-45140057D01*
X121798638Y-45154096D01*
X121796903Y-45167279D01*
X121795703Y-45179630D01*
X121795033Y-45191175D01*
X121794891Y-45201936D01*
X121464253Y-45201936D01*
X121355158Y-45057931D01*
X121143341Y-44782110D01*
X120716096Y-44233235D01*
X120706374Y-44221394D01*
X120697442Y-44209068D01*
X120689309Y-44196298D01*
X120681985Y-44183122D01*
X120675479Y-44169580D01*
X120669801Y-44155710D01*
X120664961Y-44141552D01*
X120660969Y-44127144D01*
X120657833Y-44112525D01*
X120655563Y-44097736D01*
X120654170Y-44082814D01*
X120653662Y-44067798D01*
X120654049Y-44052729D01*
X120655341Y-44037644D01*
X120657548Y-44022583D01*
X120660678Y-44007585D01*
X120837422Y-43058590D01*
X121007055Y-42108255D01*
X121011161Y-42086817D01*
X121014662Y-42071749D01*
X121241507Y-42071749D01*
X121661520Y-42615345D01*
X122067942Y-43144047D01*
X122072045Y-43149185D01*
X122076206Y-43153948D01*
X122080424Y-43158348D01*
X122084697Y-43162400D01*
X122089024Y-43166115D01*
X122093404Y-43169507D01*
X122097835Y-43172589D01*
X122102315Y-43175374D01*
X122106843Y-43177875D01*
X122111417Y-43180104D01*
X122116037Y-43182075D01*
X122120701Y-43183801D01*
X122125406Y-43185294D01*
X122130153Y-43186569D01*
X122134938Y-43187637D01*
X122139762Y-43188512D01*
X122149516Y-43189734D01*
X122159404Y-43190338D01*
X122169414Y-43190430D01*
X122179534Y-43190113D01*
X122189753Y-43189490D01*
X122200058Y-43188666D01*
X122220883Y-43186830D01*
X123530282Y-43076066D01*
X123685657Y-43061900D01*
X123842897Y-43046644D01*
X124170950Y-43014161D01*
X123750178Y-42469375D01*
X123343602Y-41939780D01*
X123339493Y-41934615D01*
X123335330Y-41929821D01*
X123331116Y-41925386D01*
X123326850Y-41921298D01*
X123322536Y-41917543D01*
X123318173Y-41914109D01*
X123313762Y-41910983D01*
X123309306Y-41908152D01*
X123304804Y-41905604D01*
X123300258Y-41903326D01*
X123295670Y-41901305D01*
X123291040Y-41899528D01*
X123286369Y-41897983D01*
X123281660Y-41896657D01*
X123276911Y-41895537D01*
X123272126Y-41894610D01*
X123262449Y-41893286D01*
X123252637Y-41892583D01*
X123242699Y-41892398D01*
X123232644Y-41892630D01*
X123222482Y-41893178D01*
X123212221Y-41893937D01*
X123191439Y-41895688D01*
X122659582Y-41937175D01*
X122393788Y-41959231D01*
X122128318Y-41984437D01*
X122020876Y-41994227D01*
X121912907Y-42002203D01*
X121694496Y-42016982D01*
X121583606Y-42025921D01*
X121471296Y-42037317D01*
X121357342Y-42052237D01*
X121299679Y-42061352D01*
X121241521Y-42071749D01*
X121241507Y-42071749D01*
X121014662Y-42071749D01*
X121015801Y-42066850D01*
X121021086Y-42048327D01*
X121027127Y-42031219D01*
X121030466Y-42023188D01*
X121034035Y-42015499D01*
X121037848Y-42008150D01*
X121041920Y-42001138D01*
X121046264Y-41994458D01*
X121050893Y-41988108D01*
X121055822Y-41982084D01*
X121061064Y-41976381D01*
X121066634Y-41970998D01*
X121072545Y-41965930D01*
X121078811Y-41961174D01*
X121085445Y-41956726D01*
X121092463Y-41952583D01*
X121099876Y-41948741D01*
X121107700Y-41945197D01*
X121115948Y-41941948D01*
X121124634Y-41938989D01*
X121133772Y-41936317D01*
X121143375Y-41933929D01*
X121153457Y-41931822D01*
X121164033Y-41929991D01*
X121175116Y-41928434D01*
X121198859Y-41926125D01*
X123125047Y-41770211D01*
X123146483Y-41768189D01*
X123166275Y-41765417D01*
X123184494Y-41761815D01*
X123201210Y-41757302D01*
X123209027Y-41754678D01*
X123216494Y-41751796D01*
X123223621Y-41748646D01*
X123230417Y-41745218D01*
X123236890Y-41741502D01*
X123243048Y-41737487D01*
X123248902Y-41733163D01*
X123254459Y-41728521D01*
X123259729Y-41723550D01*
X123264720Y-41718241D01*
X123269441Y-41712582D01*
X123273901Y-41706565D01*
X123278109Y-41700179D01*
X123282074Y-41693413D01*
X123285803Y-41686258D01*
X123289307Y-41678704D01*
X123292594Y-41670741D01*
X123295673Y-41662357D01*
X123301241Y-41644293D01*
X123306082Y-41624428D01*
X123310266Y-41602685D01*
X123636332Y-39793910D01*
X123638552Y-39782511D01*
X123879319Y-39782511D01*
X124696083Y-40841477D01*
X124699800Y-40846128D01*
X124703560Y-40850436D01*
X124707360Y-40854411D01*
X124711202Y-40858067D01*
X124715084Y-40861416D01*
X124719007Y-40864469D01*
X124722970Y-40867238D01*
X124726973Y-40869735D01*
X124731016Y-40871973D01*
X124735098Y-40873963D01*
X124739219Y-40875717D01*
X124743379Y-40877248D01*
X124747578Y-40878567D01*
X124751815Y-40879687D01*
X124756091Y-40880619D01*
X124760404Y-40881375D01*
X124769142Y-40882409D01*
X124778029Y-40882884D01*
X124787062Y-40882898D01*
X124796239Y-40882545D01*
X124815015Y-40881124D01*
X124834342Y-40879392D01*
X126097439Y-40776599D01*
X126266171Y-40761851D01*
X126437766Y-40745916D01*
X126801480Y-40711468D01*
X126382719Y-40169702D01*
X126180519Y-39906872D01*
X125981463Y-39645518D01*
X125976577Y-39639323D01*
X125971638Y-39633576D01*
X125966647Y-39628260D01*
X125961605Y-39623361D01*
X125956511Y-39618863D01*
X125951368Y-39614751D01*
X125946176Y-39611009D01*
X125940935Y-39607621D01*
X125935647Y-39604574D01*
X125930312Y-39601850D01*
X125924931Y-39599435D01*
X125919506Y-39597313D01*
X125914036Y-39595469D01*
X125908522Y-39593888D01*
X125902966Y-39592554D01*
X125897368Y-39591452D01*
X125886050Y-39589882D01*
X125874575Y-39589054D01*
X125862948Y-39588846D01*
X125851176Y-39589134D01*
X125839266Y-39589795D01*
X125827223Y-39590707D01*
X125802769Y-39592790D01*
X124046522Y-39736607D01*
X124035433Y-39736301D01*
X124024372Y-39736435D01*
X124013350Y-39737005D01*
X124002381Y-39738007D01*
X123991476Y-39739438D01*
X123980648Y-39741294D01*
X123969909Y-39743572D01*
X123959271Y-39746270D01*
X123948748Y-39749382D01*
X123938351Y-39752906D01*
X123928093Y-39756839D01*
X123917986Y-39761177D01*
X123908043Y-39765916D01*
X123898276Y-39771054D01*
X123888697Y-39776587D01*
X123879319Y-39782511D01*
X123638552Y-39782511D01*
X123640403Y-39773005D01*
X123645099Y-39753646D01*
X123650499Y-39735789D01*
X123656682Y-39719392D01*
X123660092Y-39711728D01*
X123663727Y-39704412D01*
X123667598Y-39697441D01*
X123671714Y-39690807D01*
X123676085Y-39684507D01*
X123680720Y-39678534D01*
X123685631Y-39672883D01*
X123690826Y-39667549D01*
X123696316Y-39662527D01*
X123702110Y-39657812D01*
X123708218Y-39653397D01*
X123714651Y-39649278D01*
X123721417Y-39645449D01*
X123728528Y-39641905D01*
X123735992Y-39638640D01*
X123743820Y-39635650D01*
X123752021Y-39632929D01*
X123760606Y-39630471D01*
X123769584Y-39628272D01*
X123778965Y-39626325D01*
X123798976Y-39623170D01*
X123820718Y-39620962D01*
X124853094Y-39536830D01*
X125884996Y-39446686D01*
X125897495Y-39445284D01*
X125909942Y-39444803D01*
X125922294Y-39445224D01*
G37*
G36*
X109750000Y-41500000D02*
G01*
X109758716Y-41500738D01*
X109767374Y-41501878D01*
X109775959Y-41503416D01*
X109784456Y-41505347D01*
X109792852Y-41507668D01*
X109801132Y-41510374D01*
X109809281Y-41513460D01*
X109817285Y-41516923D01*
X109825131Y-41520758D01*
X109832802Y-41524960D01*
X109840286Y-41529526D01*
X109847567Y-41534451D01*
X109854632Y-41539730D01*
X109861465Y-41545359D01*
X109868053Y-41551335D01*
X109874381Y-41557652D01*
X109880435Y-41564306D01*
X109886200Y-41571293D01*
X109891662Y-41578609D01*
X109896807Y-41586249D01*
X109901619Y-41594209D01*
X110476373Y-42301166D01*
X110763827Y-42654567D01*
X111048600Y-43010091D01*
X111053247Y-43017455D01*
X111058207Y-43024499D01*
X111063466Y-43031220D01*
X111069010Y-43037614D01*
X111074823Y-43043677D01*
X111080891Y-43049405D01*
X111087200Y-43054794D01*
X111093735Y-43059842D01*
X111100482Y-43064544D01*
X111107425Y-43068897D01*
X111114551Y-43072897D01*
X111121845Y-43076540D01*
X111129292Y-43079822D01*
X111136878Y-43082741D01*
X111144587Y-43085291D01*
X111152406Y-43087471D01*
X111160321Y-43089275D01*
X111168315Y-43090700D01*
X111176376Y-43091743D01*
X111184488Y-43092399D01*
X111192636Y-43092666D01*
X111200807Y-43092539D01*
X111208985Y-43092014D01*
X111217156Y-43091089D01*
X111225306Y-43089759D01*
X111233420Y-43088021D01*
X111241483Y-43085871D01*
X111249480Y-43083305D01*
X111257398Y-43080319D01*
X111265222Y-43076911D01*
X111272937Y-43073076D01*
X111280528Y-43068810D01*
X115043094Y-41710427D01*
X115052633Y-41705563D01*
X115062302Y-41701220D01*
X115072084Y-41697391D01*
X115081963Y-41694073D01*
X115091921Y-41691261D01*
X115101941Y-41688949D01*
X115112008Y-41687135D01*
X115122102Y-41685812D01*
X115132209Y-41684976D01*
X115142309Y-41684622D01*
X115152388Y-41684746D01*
X115162427Y-41685344D01*
X115172410Y-41686409D01*
X115182319Y-41687938D01*
X115192138Y-41689926D01*
X115201850Y-41692368D01*
X115211438Y-41695260D01*
X115220884Y-41698596D01*
X115230173Y-41702373D01*
X115239286Y-41706585D01*
X115248207Y-41711228D01*
X115256919Y-41716297D01*
X115265405Y-41721787D01*
X115273647Y-41727694D01*
X115281630Y-41734013D01*
X115289336Y-41740740D01*
X115296747Y-41747869D01*
X115303848Y-41755396D01*
X115310621Y-41763316D01*
X115317049Y-41771624D01*
X115323115Y-41780317D01*
X115328802Y-41789389D01*
X115625513Y-42160099D01*
X115924034Y-42529362D01*
X116224364Y-42897178D01*
X116526503Y-43263546D01*
X116536049Y-43274278D01*
X116544767Y-43285541D01*
X116552647Y-43297288D01*
X116559678Y-43309472D01*
X116565851Y-43322048D01*
X116571154Y-43334968D01*
X116575577Y-43348185D01*
X116579109Y-43361654D01*
X116581740Y-43375328D01*
X116583459Y-43389159D01*
X116584256Y-43403102D01*
X116584119Y-43417110D01*
X116583039Y-43431137D01*
X116581005Y-43445135D01*
X116578006Y-43459058D01*
X116574031Y-43472861D01*
X116381869Y-44236359D01*
X116195012Y-45001201D01*
X116191979Y-45015354D01*
X116187979Y-45029126D01*
X116183048Y-45042477D01*
X116177220Y-45055369D01*
X116170532Y-45067762D01*
X116163018Y-45079618D01*
X116154716Y-45090897D01*
X116145659Y-45101561D01*
X116135883Y-45111571D01*
X116125425Y-45120887D01*
X116114319Y-45129470D01*
X116102602Y-45137282D01*
X116090308Y-45144284D01*
X116077473Y-45150436D01*
X116064133Y-45155699D01*
X116050323Y-45160035D01*
X110105149Y-47295206D01*
X110094419Y-47299221D01*
X110083710Y-47303481D01*
X110062566Y-47312249D01*
X110042137Y-47320528D01*
X110032323Y-47324179D01*
X110022846Y-47327341D01*
X110013758Y-47329892D01*
X110005113Y-47331710D01*
X109996962Y-47332672D01*
X109993088Y-47332793D01*
X109989358Y-47332655D01*
X109985778Y-47332242D01*
X109982355Y-47331538D01*
X109979095Y-47330529D01*
X109976004Y-47329198D01*
X109973090Y-47327531D01*
X109970358Y-47325513D01*
X109967816Y-47323128D01*
X109965470Y-47320361D01*
X109819017Y-47140798D01*
X110106567Y-47140798D01*
X110116009Y-47139359D01*
X110125426Y-47137779D01*
X110134818Y-47136059D01*
X110144183Y-47134198D01*
X110153519Y-47132199D01*
X110162824Y-47130060D01*
X110172097Y-47127781D01*
X110181337Y-47125365D01*
X115966139Y-45048070D01*
X115971997Y-45045995D01*
X115977744Y-45043717D01*
X115983376Y-45041243D01*
X115988889Y-45038575D01*
X115994279Y-45035719D01*
X115999543Y-45032679D01*
X116004677Y-45029460D01*
X116009677Y-45026067D01*
X116014539Y-45022505D01*
X116019261Y-45018778D01*
X116028266Y-45010847D01*
X116036662Y-45002312D01*
X116044420Y-44993210D01*
X116051510Y-44983579D01*
X116057903Y-44973456D01*
X116063569Y-44962878D01*
X116066120Y-44957430D01*
X116068478Y-44951883D01*
X116070640Y-44946240D01*
X116072601Y-44940507D01*
X116074359Y-44934689D01*
X116075909Y-44928789D01*
X116077248Y-44922812D01*
X116078371Y-44916764D01*
X116079277Y-44910649D01*
X116079959Y-44904471D01*
X116394936Y-43630653D01*
X116398064Y-43623547D01*
X116400883Y-43616338D01*
X116403392Y-43609038D01*
X116405590Y-43601654D01*
X116407476Y-43594199D01*
X116409048Y-43586681D01*
X116410307Y-43579111D01*
X116411250Y-43571498D01*
X116411877Y-43563852D01*
X116412187Y-43556185D01*
X116412178Y-43548504D01*
X116411851Y-43540821D01*
X116411202Y-43533145D01*
X116410233Y-43525486D01*
X116408941Y-43517855D01*
X116407326Y-43510263D01*
X116397800Y-43510168D01*
X116388297Y-43510407D01*
X116378826Y-43510979D01*
X116369396Y-43511881D01*
X116360014Y-43513111D01*
X116350689Y-43514667D01*
X116341429Y-43516546D01*
X116332244Y-43518747D01*
X116323141Y-43521267D01*
X116314129Y-43524105D01*
X116305217Y-43527257D01*
X116296412Y-43530722D01*
X116287723Y-43534498D01*
X116279159Y-43538582D01*
X116270728Y-43542972D01*
X116262438Y-43547666D01*
X113689545Y-44470635D01*
X110594212Y-45584619D01*
X110574578Y-45591176D01*
X110554960Y-45597446D01*
X110545324Y-45600758D01*
X110535892Y-45604342D01*
X110526732Y-45608312D01*
X110517909Y-45612780D01*
X110509492Y-45617863D01*
X110505456Y-45620670D01*
X110501547Y-45623674D01*
X110497772Y-45626888D01*
X110494140Y-45630327D01*
X110490660Y-45634005D01*
X110487339Y-45637936D01*
X110484186Y-45642136D01*
X110481210Y-45646617D01*
X110478419Y-45651394D01*
X110475820Y-45656482D01*
X110473424Y-45661895D01*
X110471237Y-45667647D01*
X110469268Y-45673753D01*
X110467526Y-45680226D01*
X110106567Y-47140798D01*
X109819017Y-47140798D01*
X109243876Y-46435632D01*
X107331296Y-44089545D01*
X107321136Y-44078093D01*
X107311859Y-44066077D01*
X107303475Y-44053545D01*
X107295997Y-44040549D01*
X107289434Y-44027137D01*
X107283799Y-44013359D01*
X107279102Y-43999265D01*
X107275355Y-43984904D01*
X107272570Y-43970327D01*
X107270756Y-43955582D01*
X107269925Y-43940719D01*
X107270090Y-43925789D01*
X107271260Y-43910840D01*
X107273183Y-43897720D01*
X107421621Y-43897720D01*
X107422789Y-43916255D01*
X107425185Y-43934634D01*
X107428792Y-43952795D01*
X107433597Y-43970677D01*
X107439585Y-43988217D01*
X107446742Y-44005354D01*
X107455053Y-44022026D01*
X107464504Y-44038170D01*
X107475080Y-44053726D01*
X107486768Y-44068630D01*
X107499551Y-44082821D01*
X109041053Y-45971636D01*
X109957869Y-47091640D01*
X109969396Y-47056878D01*
X109979487Y-47027088D01*
X109983977Y-47013498D01*
X109988086Y-47000480D01*
X109991809Y-46987809D01*
X109995139Y-46975261D01*
X110148607Y-46353496D01*
X110226301Y-46042871D01*
X110306456Y-45732897D01*
X110311739Y-45715611D01*
X110315777Y-45698154D01*
X110318584Y-45680584D01*
X110320173Y-45662964D01*
X110320556Y-45645352D01*
X110319748Y-45627811D01*
X110317760Y-45610400D01*
X110314608Y-45593180D01*
X110310303Y-45576211D01*
X110304859Y-45559554D01*
X110298289Y-45543269D01*
X110290606Y-45527418D01*
X110281824Y-45512059D01*
X110271956Y-45497255D01*
X110261014Y-45483065D01*
X110249013Y-45469550D01*
X109985862Y-45151627D01*
X109724458Y-44832243D01*
X109203328Y-44192076D01*
X107777650Y-42444512D01*
X107605874Y-43136712D01*
X107521253Y-43472567D01*
X107434683Y-43804880D01*
X107429502Y-43823264D01*
X107425619Y-43841802D01*
X107423021Y-43860432D01*
X107421693Y-43879092D01*
X107421621Y-43897720D01*
X107273183Y-43897720D01*
X107273447Y-43895922D01*
X107276662Y-43881086D01*
X107280917Y-43866380D01*
X107471304Y-43110395D01*
X107654798Y-42352663D01*
X107657983Y-42337611D01*
X107662213Y-42322970D01*
X107667447Y-42308783D01*
X107673646Y-42295092D01*
X107680772Y-42281941D01*
X107688785Y-42269372D01*
X107697647Y-42257426D01*
X107707318Y-42246147D01*
X107717758Y-42235577D01*
X107728931Y-42225758D01*
X107740795Y-42216733D01*
X107753312Y-42208544D01*
X107766442Y-42201234D01*
X107780148Y-42194845D01*
X107794389Y-42189420D01*
X107809127Y-42185001D01*
X108732963Y-41855656D01*
X109654376Y-41519680D01*
X109662786Y-41515706D01*
X109671296Y-41512182D01*
X109679892Y-41509103D01*
X109688558Y-41506466D01*
X109697281Y-41504266D01*
X109706046Y-41502499D01*
X109714838Y-41501160D01*
X109723645Y-41500245D01*
X109732450Y-41499749D01*
X109741240Y-41499669D01*
X109750000Y-41500000D01*
G37*
G36*
X110085738Y-59101456D02*
G01*
X110090527Y-59101932D01*
X110095288Y-59102680D01*
X110100019Y-59103715D01*
X110104720Y-59105054D01*
X110109390Y-59106711D01*
X110114028Y-59108701D01*
X110118634Y-59111039D01*
X110123206Y-59113742D01*
X110127744Y-59116823D01*
X110132247Y-59120299D01*
X110136714Y-59124184D01*
X110141144Y-59128494D01*
X110145537Y-59133244D01*
X110149892Y-59138448D01*
X110780659Y-59919667D01*
X111068619Y-60272947D01*
X111210900Y-60450853D01*
X111280711Y-60540793D01*
X111349290Y-60631648D01*
X111356001Y-60640432D01*
X111362659Y-60648650D01*
X111369273Y-60656312D01*
X111375852Y-60663431D01*
X111382405Y-60670019D01*
X111388941Y-60676088D01*
X111395469Y-60681649D01*
X111401998Y-60686714D01*
X111408536Y-60691296D01*
X111415092Y-60695406D01*
X111421676Y-60699056D01*
X111428296Y-60702258D01*
X111434961Y-60705024D01*
X111441679Y-60707365D01*
X111448460Y-60709295D01*
X111455313Y-60710824D01*
X111462246Y-60711965D01*
X111469268Y-60712729D01*
X111476389Y-60713128D01*
X111483616Y-60713175D01*
X111490960Y-60712881D01*
X111498428Y-60712258D01*
X111506029Y-60711318D01*
X111513773Y-60710072D01*
X111529724Y-60706714D01*
X111546351Y-60702277D01*
X111563725Y-60696859D01*
X111581917Y-60690552D01*
X113328538Y-60069053D01*
X113336776Y-60064791D01*
X113345130Y-60060974D01*
X113353585Y-60057597D01*
X113362126Y-60054658D01*
X113370740Y-60052153D01*
X113379411Y-60050077D01*
X113388125Y-60048428D01*
X113396868Y-60047200D01*
X113405625Y-60046391D01*
X113414382Y-60045996D01*
X113423123Y-60046012D01*
X113431835Y-60046435D01*
X113440504Y-60047260D01*
X113449114Y-60048485D01*
X113457651Y-60050106D01*
X113466100Y-60052118D01*
X113474448Y-60054518D01*
X113482680Y-60057302D01*
X113490780Y-60060467D01*
X113498735Y-60064007D01*
X113506531Y-60067921D01*
X113514152Y-60072203D01*
X113521584Y-60076850D01*
X113528813Y-60081858D01*
X113535824Y-60087224D01*
X113542602Y-60092944D01*
X113549134Y-60099013D01*
X113555405Y-60105428D01*
X113561399Y-60112185D01*
X113567104Y-60119280D01*
X113572503Y-60126710D01*
X113577583Y-60134471D01*
X114173916Y-60883837D01*
X114776031Y-61628622D01*
X114786362Y-61639959D01*
X114795817Y-61651874D01*
X114804384Y-61664316D01*
X114812050Y-61677236D01*
X114818804Y-61690585D01*
X114824634Y-61704313D01*
X114829527Y-61718371D01*
X114833473Y-61732708D01*
X114836459Y-61747275D01*
X114838474Y-61762023D01*
X114839504Y-61776903D01*
X114839540Y-61791863D01*
X114838567Y-61806855D01*
X114836576Y-61821830D01*
X114833553Y-61836737D01*
X114829488Y-61851527D01*
X114632005Y-62613839D01*
X114441048Y-63377861D01*
X114438378Y-63391095D01*
X114434800Y-63403983D01*
X114430345Y-63416487D01*
X114425047Y-63428570D01*
X114418939Y-63440195D01*
X114412053Y-63451326D01*
X114404423Y-63461926D01*
X114396082Y-63471957D01*
X114387062Y-63481383D01*
X114377397Y-63490167D01*
X114367120Y-63498271D01*
X114356263Y-63505659D01*
X114344859Y-63512294D01*
X114332942Y-63518139D01*
X114320544Y-63523157D01*
X114307699Y-63527311D01*
X110374009Y-64914913D01*
X110363760Y-64918375D01*
X110353864Y-64921335D01*
X110344310Y-64923806D01*
X110335084Y-64925799D01*
X110326173Y-64927327D01*
X110317563Y-64928399D01*
X110309242Y-64929029D01*
X110301196Y-64929227D01*
X110293412Y-64929005D01*
X110285877Y-64928375D01*
X110278577Y-64927349D01*
X110271500Y-64925937D01*
X110264632Y-64924151D01*
X110257961Y-64922004D01*
X110251472Y-64919506D01*
X110245153Y-64916669D01*
X110238991Y-64913504D01*
X110232972Y-64910024D01*
X110221312Y-64902163D01*
X110210066Y-64893178D01*
X110199130Y-64883161D01*
X110188399Y-64872205D01*
X110177766Y-64860402D01*
X110167126Y-64847845D01*
X110156374Y-64834627D01*
X109579889Y-64118844D01*
X109292235Y-63760494D01*
X109006443Y-63400677D01*
X109002476Y-63394015D01*
X108998226Y-63387628D01*
X108993703Y-63381520D01*
X108988920Y-63375693D01*
X108983892Y-63370152D01*
X108978629Y-63364901D01*
X108973144Y-63359942D01*
X108967452Y-63355281D01*
X108961563Y-63350919D01*
X108955491Y-63346861D01*
X108949249Y-63343111D01*
X108942848Y-63339672D01*
X108936303Y-63336548D01*
X108929625Y-63333743D01*
X108922827Y-63331259D01*
X108915922Y-63329101D01*
X108908923Y-63327273D01*
X108901842Y-63325777D01*
X108894691Y-63324619D01*
X108887485Y-63323800D01*
X108880235Y-63323325D01*
X108872953Y-63323198D01*
X108865654Y-63323422D01*
X108858349Y-63324001D01*
X108851051Y-63324938D01*
X108843772Y-63326238D01*
X108836527Y-63327903D01*
X108829326Y-63329937D01*
X108822183Y-63332345D01*
X108815110Y-63335129D01*
X108808121Y-63338293D01*
X108801228Y-63341842D01*
X107025291Y-63973205D01*
X107017417Y-63977189D01*
X107009436Y-63980748D01*
X107001363Y-63983886D01*
X106993211Y-63986607D01*
X106984995Y-63988914D01*
X106976727Y-63990811D01*
X106968423Y-63992302D01*
X106960095Y-63993390D01*
X106951757Y-63994081D01*
X106943424Y-63994376D01*
X106935109Y-63994281D01*
X106926825Y-63993798D01*
X106918587Y-63992932D01*
X106910408Y-63991686D01*
X106902302Y-63990065D01*
X106894284Y-63988071D01*
X106886366Y-63985709D01*
X106878562Y-63982982D01*
X106870887Y-63979894D01*
X106863353Y-63976450D01*
X106855976Y-63972652D01*
X106848768Y-63968504D01*
X106841744Y-63964011D01*
X106834916Y-63959176D01*
X106828300Y-63954003D01*
X106821908Y-63948495D01*
X106815755Y-63942656D01*
X106809854Y-63936491D01*
X106804220Y-63930003D01*
X106798865Y-63923195D01*
X106793804Y-63916071D01*
X106789050Y-63908636D01*
X106177562Y-63141827D01*
X105561245Y-62378853D01*
X105553801Y-62370041D01*
X105547021Y-62360824D01*
X105540915Y-62351238D01*
X105539131Y-62347978D01*
X105731815Y-62347978D01*
X105732061Y-62353035D01*
X105732878Y-62358343D01*
X105734271Y-62363918D01*
X105736247Y-62369778D01*
X105738809Y-62375939D01*
X105741965Y-62382416D01*
X105745718Y-62389227D01*
X105750075Y-62396388D01*
X105755040Y-62403915D01*
X105760619Y-62411824D01*
X105766817Y-62420133D01*
X105781092Y-62438013D01*
X106045934Y-62760032D01*
X106308517Y-63083906D01*
X106568840Y-63409636D01*
X106826904Y-63737221D01*
X106831887Y-63745488D01*
X106837225Y-63753408D01*
X106842901Y-63760978D01*
X106848898Y-63768192D01*
X106855202Y-63775046D01*
X106861796Y-63781536D01*
X106868664Y-63787658D01*
X106875790Y-63793407D01*
X106883158Y-63798778D01*
X106890752Y-63803767D01*
X106898556Y-63808370D01*
X106906555Y-63812583D01*
X106914731Y-63816400D01*
X106923070Y-63819817D01*
X106931555Y-63822831D01*
X106940170Y-63825436D01*
X106948899Y-63827629D01*
X106957727Y-63829404D01*
X106966637Y-63830758D01*
X106975612Y-63831685D01*
X106984639Y-63832182D01*
X106993699Y-63832245D01*
X107002778Y-63831867D01*
X107011859Y-63831046D01*
X107020926Y-63829777D01*
X107029963Y-63828055D01*
X107038955Y-63825876D01*
X107047885Y-63823236D01*
X107056737Y-63820130D01*
X107065496Y-63816553D01*
X107074145Y-63812502D01*
X107082668Y-63807972D01*
X107518679Y-63650645D01*
X107955608Y-63495837D01*
X108830486Y-63189039D01*
X108876733Y-63171431D01*
X108888359Y-63167346D01*
X108899987Y-63163766D01*
X108911603Y-63160876D01*
X108923195Y-63158867D01*
X108928978Y-63158250D01*
X108934751Y-63157925D01*
X108940511Y-63157913D01*
X108946257Y-63158238D01*
X108951988Y-63158925D01*
X108957702Y-63159996D01*
X108963397Y-63161475D01*
X108969073Y-63163385D01*
X108974726Y-63165751D01*
X108980356Y-63168595D01*
X108985962Y-63171941D01*
X108991541Y-63175812D01*
X108997093Y-63180233D01*
X109002614Y-63185226D01*
X109008105Y-63190815D01*
X109013563Y-63197024D01*
X109058739Y-63249856D01*
X109081193Y-63276382D01*
X109092287Y-63289752D01*
X109103255Y-63303223D01*
X109665109Y-64000720D01*
X110225076Y-64699713D01*
X110228379Y-64705673D01*
X110231937Y-64711403D01*
X110235739Y-64716900D01*
X110239774Y-64722160D01*
X110244032Y-64727180D01*
X110248502Y-64731957D01*
X110253173Y-64736485D01*
X110258034Y-64740763D01*
X110263075Y-64744787D01*
X110268285Y-64748552D01*
X110273653Y-64752055D01*
X110279168Y-64755294D01*
X110284820Y-64758263D01*
X110290598Y-64760961D01*
X110296491Y-64763382D01*
X110302489Y-64765524D01*
X110308580Y-64767384D01*
X110314754Y-64768956D01*
X110321000Y-64770239D01*
X110327308Y-64771228D01*
X110333667Y-64771919D01*
X110340065Y-64772310D01*
X110346492Y-64772397D01*
X110352938Y-64772175D01*
X110359392Y-64771643D01*
X110365842Y-64770795D01*
X110372279Y-64769629D01*
X110378691Y-64768140D01*
X110385068Y-64766326D01*
X110391398Y-64764183D01*
X110397672Y-64761707D01*
X110403879Y-64758895D01*
X114119025Y-63447853D01*
X114134476Y-63442167D01*
X114148328Y-63436458D01*
X114160558Y-63430650D01*
X114166058Y-63427686D01*
X114171146Y-63424669D01*
X114175817Y-63421591D01*
X114180071Y-63418443D01*
X114183903Y-63415214D01*
X114187312Y-63411896D01*
X114190294Y-63408479D01*
X114192848Y-63404954D01*
X114194970Y-63401312D01*
X114196658Y-63397544D01*
X114197910Y-63393641D01*
X114198722Y-63389592D01*
X114199092Y-63385389D01*
X114199017Y-63381023D01*
X114198495Y-63376484D01*
X114197524Y-63371764D01*
X114196099Y-63366852D01*
X114194220Y-63361740D01*
X114191883Y-63356419D01*
X114189086Y-63350878D01*
X114185826Y-63345109D01*
X114182100Y-63339103D01*
X114177906Y-63332850D01*
X114173242Y-63326342D01*
X114162489Y-63312520D01*
X113617545Y-62641126D01*
X113346604Y-62304201D01*
X113077308Y-61965975D01*
X113073342Y-61959869D01*
X113069120Y-61954028D01*
X113064656Y-61948452D01*
X113059961Y-61943147D01*
X113055046Y-61938115D01*
X113049924Y-61933358D01*
X113044606Y-61928880D01*
X113039104Y-61924683D01*
X113033429Y-61920772D01*
X113027594Y-61917148D01*
X113021609Y-61913815D01*
X113015488Y-61910776D01*
X113009240Y-61908033D01*
X113002879Y-61905590D01*
X112996416Y-61903449D01*
X112989863Y-61901615D01*
X112983230Y-61900088D01*
X112976531Y-61898874D01*
X112969777Y-61897974D01*
X112962979Y-61897392D01*
X112956149Y-61897130D01*
X112949300Y-61897192D01*
X112942441Y-61897581D01*
X112935587Y-61898299D01*
X112928747Y-61899349D01*
X112921935Y-61900735D01*
X112915161Y-61902460D01*
X112908437Y-61904526D01*
X112901775Y-61906937D01*
X112895187Y-61909695D01*
X112888684Y-61912804D01*
X112882279Y-61916266D01*
X112007923Y-62224419D01*
X111570963Y-62379048D01*
X111135339Y-62537282D01*
X111125279Y-62542287D01*
X111115088Y-62546736D01*
X111104783Y-62550635D01*
X111094384Y-62553990D01*
X111083908Y-62556805D01*
X111073373Y-62559087D01*
X111062798Y-62560840D01*
X111052200Y-62562070D01*
X111041599Y-62562783D01*
X111031011Y-62562984D01*
X111020456Y-62562677D01*
X111009951Y-62561870D01*
X110999515Y-62560567D01*
X110989166Y-62558773D01*
X110978921Y-62556494D01*
X110968800Y-62553736D01*
X110958820Y-62550503D01*
X110949000Y-62546802D01*
X110939357Y-62542637D01*
X110929910Y-62538015D01*
X110920677Y-62532939D01*
X110911677Y-62527417D01*
X110902927Y-62521453D01*
X110894445Y-62515053D01*
X110886250Y-62508222D01*
X110878360Y-62500965D01*
X110870793Y-62493288D01*
X110863568Y-62485197D01*
X110856701Y-62476697D01*
X110850213Y-62467793D01*
X110844120Y-62458490D01*
X110838441Y-62448795D01*
X110781300Y-62377204D01*
X111095434Y-62377204D01*
X111104928Y-62376244D01*
X111114402Y-62375114D01*
X111123852Y-62373813D01*
X111133276Y-62372343D01*
X111142672Y-62370704D01*
X111152038Y-62368895D01*
X111161372Y-62366918D01*
X111170671Y-62364773D01*
X112873972Y-61767335D01*
X112880354Y-61765030D01*
X112886616Y-61762508D01*
X112892753Y-61759775D01*
X112898763Y-61756836D01*
X112904642Y-61753696D01*
X112910384Y-61750359D01*
X112921447Y-61743114D01*
X112931919Y-61735142D01*
X112941771Y-61726482D01*
X112950971Y-61717172D01*
X112959487Y-61707251D01*
X112967289Y-61696760D01*
X112974345Y-61685736D01*
X112980624Y-61674219D01*
X112986094Y-61662248D01*
X112990724Y-61649863D01*
X112992715Y-61643527D01*
X112994484Y-61637102D01*
X112996027Y-61630592D01*
X112997341Y-61624004D01*
X112998422Y-61617341D01*
X112999265Y-61610608D01*
X113263880Y-60564132D01*
X113277788Y-60521163D01*
X113290381Y-60477823D01*
X113301650Y-60434142D01*
X113311591Y-60390149D01*
X113320196Y-60345876D01*
X113327459Y-60301353D01*
X113333374Y-60256609D01*
X113337934Y-60211676D01*
X112603124Y-60478440D01*
X112420662Y-60543156D01*
X112237928Y-60605379D01*
X112054538Y-60664258D01*
X111870106Y-60718939D01*
X111844604Y-60724271D01*
X111819523Y-60730616D01*
X111794882Y-60737950D01*
X111770705Y-60746252D01*
X111747010Y-60755496D01*
X111723820Y-60765661D01*
X111701155Y-60776723D01*
X111679037Y-60788658D01*
X111657486Y-60801443D01*
X111636524Y-60815055D01*
X111616171Y-60829471D01*
X111596449Y-60844667D01*
X111577378Y-60860620D01*
X111558980Y-60877307D01*
X111541275Y-60894705D01*
X111524285Y-60912790D01*
X111508031Y-60931538D01*
X111492533Y-60950928D01*
X111477813Y-60970934D01*
X111463891Y-60991535D01*
X111450789Y-61012706D01*
X111438528Y-61034425D01*
X111427128Y-61056669D01*
X111416611Y-61079413D01*
X111406998Y-61102634D01*
X111398310Y-61126310D01*
X111390567Y-61150417D01*
X111383791Y-61174932D01*
X111378003Y-61199832D01*
X111373224Y-61225092D01*
X111369474Y-61250691D01*
X111366776Y-61276604D01*
X111340682Y-61414100D01*
X111310765Y-61551067D01*
X111277818Y-61687782D01*
X111242636Y-61824519D01*
X111095434Y-62377204D01*
X110781300Y-62377204D01*
X109730633Y-61060856D01*
X109725935Y-61052880D01*
X109720895Y-61045230D01*
X109715530Y-61037910D01*
X109709854Y-61030924D01*
X109703882Y-61024276D01*
X109697630Y-61017972D01*
X109691112Y-61012015D01*
X109684344Y-61006410D01*
X109677341Y-61001162D01*
X109670117Y-60996274D01*
X109662687Y-60991751D01*
X109655068Y-60987598D01*
X109647273Y-60983819D01*
X109639318Y-60980418D01*
X109631218Y-60977401D01*
X109622987Y-60974770D01*
X109614642Y-60972531D01*
X109606197Y-60970688D01*
X109597666Y-60969246D01*
X109589066Y-60968209D01*
X109580411Y-60967581D01*
X109571716Y-60967367D01*
X109562996Y-60967571D01*
X109554266Y-60968198D01*
X109545542Y-60969251D01*
X109536838Y-60970737D01*
X109528169Y-60972658D01*
X109519551Y-60975019D01*
X109510998Y-60977825D01*
X109502526Y-60981081D01*
X109494149Y-60984790D01*
X109485883Y-60988956D01*
X109225099Y-61085146D01*
X108962900Y-61177614D01*
X108437470Y-61359877D01*
X105828678Y-62277846D01*
X105809938Y-62284580D01*
X105793103Y-62291139D01*
X105778215Y-62297653D01*
X105771514Y-62300934D01*
X105765315Y-62304254D01*
X105759625Y-62307628D01*
X105754447Y-62311073D01*
X105749788Y-62314606D01*
X105745653Y-62318242D01*
X105742046Y-62321998D01*
X105738975Y-62325891D01*
X105736442Y-62329937D01*
X105734455Y-62334152D01*
X105733018Y-62338553D01*
X105732136Y-62343156D01*
X105731815Y-62347978D01*
X105539131Y-62347978D01*
X105535488Y-62341321D01*
X105530748Y-62331109D01*
X105526704Y-62320638D01*
X105523363Y-62309945D01*
X105520731Y-62299066D01*
X105518818Y-62288039D01*
X105517630Y-62276899D01*
X105517175Y-62265683D01*
X105517461Y-62254429D01*
X105518495Y-62243171D01*
X105520285Y-62231947D01*
X105522838Y-62220794D01*
X105526163Y-62209748D01*
X105553404Y-62103916D01*
X105694038Y-62103916D01*
X105694148Y-62113235D01*
X105694724Y-62122548D01*
X105695768Y-62131837D01*
X105697281Y-62141084D01*
X105699265Y-62150272D01*
X105701720Y-62159383D01*
X105704647Y-62168398D01*
X105723912Y-62161274D01*
X105734273Y-62157470D01*
X105744867Y-62153673D01*
X109516994Y-60825992D01*
X109526261Y-60823330D01*
X109535228Y-60820040D01*
X109543873Y-60816149D01*
X109552169Y-60811682D01*
X109560093Y-60806664D01*
X109567620Y-60801122D01*
X109574726Y-60795080D01*
X109581387Y-60788564D01*
X109587578Y-60781601D01*
X109593274Y-60774215D01*
X109598452Y-60766432D01*
X109603087Y-60758278D01*
X109607154Y-60749779D01*
X109610629Y-60740959D01*
X109613488Y-60731844D01*
X109615706Y-60722461D01*
X109896526Y-59612149D01*
X110048195Y-59612149D01*
X110086904Y-59620832D01*
X110089063Y-59612698D01*
X110092100Y-59604772D01*
X110095918Y-59597028D01*
X110100424Y-59589442D01*
X110105522Y-59581986D01*
X110111116Y-59574636D01*
X110123415Y-59560149D01*
X110149786Y-59531305D01*
X110162337Y-59516536D01*
X110168120Y-59508974D01*
X110173449Y-59501261D01*
X110178227Y-59493369D01*
X110182361Y-59485273D01*
X110185754Y-59476948D01*
X110188312Y-59468368D01*
X110189940Y-59459506D01*
X110190542Y-59450338D01*
X110190023Y-59440837D01*
X110188288Y-59430977D01*
X110185242Y-59420734D01*
X110180789Y-59410080D01*
X110174836Y-59398991D01*
X110167285Y-59387441D01*
X110158043Y-59375403D01*
X110147014Y-59362853D01*
X110134103Y-59349764D01*
X110119215Y-59336110D01*
X110119214Y-59336110D01*
X110048195Y-59612149D01*
X109896526Y-59612149D01*
X109979122Y-59285578D01*
X109979121Y-59285578D01*
X109971220Y-59285976D01*
X109963331Y-59286538D01*
X109955457Y-59287265D01*
X109947601Y-59288156D01*
X109939765Y-59289210D01*
X109931952Y-59290428D01*
X109924165Y-59291809D01*
X109916406Y-59293353D01*
X106143807Y-60619940D01*
X106136641Y-60622581D01*
X106129828Y-60625362D01*
X106123357Y-60628281D01*
X106117216Y-60631337D01*
X106111394Y-60634529D01*
X106105878Y-60637855D01*
X106100658Y-60641312D01*
X106095722Y-60644900D01*
X106091059Y-60648617D01*
X106086657Y-60652460D01*
X106082504Y-60656430D01*
X106078589Y-60660522D01*
X106074901Y-60664738D01*
X106071428Y-60669073D01*
X106068158Y-60673528D01*
X106065080Y-60678099D01*
X106062183Y-60682786D01*
X106059455Y-60687587D01*
X106054460Y-60697525D01*
X106050003Y-60707898D01*
X106045992Y-60718693D01*
X106042334Y-60729898D01*
X106038939Y-60741500D01*
X106032566Y-60765838D01*
X105713876Y-62022699D01*
X105709834Y-62031274D01*
X105706250Y-62040002D01*
X105703123Y-62048867D01*
X105700455Y-62057850D01*
X105698247Y-62066933D01*
X105696500Y-62076099D01*
X105695216Y-62085330D01*
X105694395Y-62094608D01*
X105694038Y-62103916D01*
X105553404Y-62103916D01*
X105726316Y-61432151D01*
X105922500Y-60653558D01*
X105925649Y-60640392D01*
X105929694Y-60627604D01*
X105934601Y-60615230D01*
X105940335Y-60603305D01*
X105946862Y-60591866D01*
X105954149Y-60580947D01*
X105962162Y-60570584D01*
X105970865Y-60560814D01*
X105980226Y-60551671D01*
X105990210Y-60543191D01*
X106000783Y-60535411D01*
X106011911Y-60528365D01*
X106023560Y-60522090D01*
X106035696Y-60516621D01*
X106048285Y-60511993D01*
X106061292Y-60508243D01*
X109995528Y-59122157D01*
X110016119Y-59114896D01*
X110026316Y-59111471D01*
X110036441Y-59108344D01*
X110046485Y-59105638D01*
X110056443Y-59103475D01*
X110066309Y-59101976D01*
X110076076Y-59101262D01*
X110080920Y-59101238D01*
X110085738Y-59101456D01*
G37*
G36*
X118211535Y-33710322D02*
G01*
X118220391Y-33710869D01*
X118229242Y-33711871D01*
X118238071Y-33713330D01*
X118246813Y-33715240D01*
X118255407Y-33717584D01*
X118263837Y-33720352D01*
X118272089Y-33723534D01*
X118280150Y-33727121D01*
X118288005Y-33731103D01*
X118295640Y-33735471D01*
X118303041Y-33740215D01*
X118310194Y-33745326D01*
X118317084Y-33750793D01*
X118323698Y-33756608D01*
X118330022Y-33762761D01*
X118336040Y-33769243D01*
X118341740Y-33776043D01*
X118347107Y-33783152D01*
X118352126Y-33790560D01*
X119669852Y-35318014D01*
X120992305Y-36841381D01*
X121002637Y-36852628D01*
X121012220Y-36864396D01*
X121021043Y-36876646D01*
X121029093Y-36889341D01*
X121036360Y-36902444D01*
X121042832Y-36915917D01*
X121048496Y-36929724D01*
X121053342Y-36943827D01*
X121057357Y-36958188D01*
X121060531Y-36972770D01*
X121062851Y-36987536D01*
X121064305Y-37002448D01*
X121064884Y-37017469D01*
X121064573Y-37032562D01*
X121063363Y-37047690D01*
X121061241Y-37062814D01*
X121017053Y-37427068D01*
X120975028Y-37791600D01*
X120895921Y-38521230D01*
X120895206Y-38534720D01*
X120893479Y-38547974D01*
X120890774Y-38560946D01*
X120887121Y-38573591D01*
X120882554Y-38585862D01*
X120877105Y-38597713D01*
X120870807Y-38609100D01*
X120863691Y-38619977D01*
X120855790Y-38630297D01*
X120847136Y-38640016D01*
X120837762Y-38649087D01*
X120827700Y-38657465D01*
X120816982Y-38665104D01*
X120805641Y-38671959D01*
X120793710Y-38677984D01*
X120781219Y-38683132D01*
X119826866Y-39120226D01*
X118875238Y-39563160D01*
X118865807Y-39567414D01*
X118856699Y-39571143D01*
X118847901Y-39574359D01*
X118839401Y-39577076D01*
X118831186Y-39579305D01*
X118823243Y-39581059D01*
X118815559Y-39582351D01*
X118808122Y-39583192D01*
X118800917Y-39583596D01*
X118793934Y-39583575D01*
X118787158Y-39583141D01*
X118780577Y-39582307D01*
X118774177Y-39581084D01*
X118767947Y-39579486D01*
X118761873Y-39577525D01*
X118755943Y-39575214D01*
X118750143Y-39572564D01*
X118744460Y-39569589D01*
X118738882Y-39566300D01*
X118733397Y-39562711D01*
X118722649Y-39554679D01*
X118712115Y-39545593D01*
X118701692Y-39535552D01*
X118691276Y-39524656D01*
X118670055Y-39500697D01*
X118563739Y-39377840D01*
X118880447Y-39377840D01*
X118880469Y-39377840D01*
X118890423Y-39378524D01*
X118898956Y-39379338D01*
X118912377Y-39380855D01*
X118917573Y-39381307D01*
X118919860Y-39381402D01*
X118921965Y-39381388D01*
X118923908Y-39381250D01*
X118925707Y-39380971D01*
X118927383Y-39380537D01*
X118928954Y-39379931D01*
X120682961Y-38578045D01*
X120687764Y-38575719D01*
X120692450Y-38573228D01*
X120697016Y-38570577D01*
X120701459Y-38567770D01*
X120705776Y-38564812D01*
X120709965Y-38561707D01*
X120714023Y-38558460D01*
X120717948Y-38555075D01*
X120721735Y-38551556D01*
X120725384Y-38547909D01*
X120728890Y-38544138D01*
X120732251Y-38540247D01*
X120735465Y-38536241D01*
X120738528Y-38532124D01*
X120741438Y-38527902D01*
X120744192Y-38523577D01*
X120746788Y-38519156D01*
X120749222Y-38514642D01*
X120751491Y-38510039D01*
X120753594Y-38505354D01*
X120755527Y-38500589D01*
X120757287Y-38495750D01*
X120758872Y-38490841D01*
X120760280Y-38485866D01*
X120761506Y-38480831D01*
X120762548Y-38475739D01*
X120763405Y-38470595D01*
X120764072Y-38465404D01*
X120764547Y-38460170D01*
X120764828Y-38454898D01*
X120764911Y-38449592D01*
X120764794Y-38444256D01*
X120821806Y-37953845D01*
X120850187Y-37708638D01*
X120875905Y-37463169D01*
X120884491Y-37417146D01*
X120891569Y-37370904D01*
X120897136Y-37324482D01*
X120901189Y-37277915D01*
X120903726Y-37231241D01*
X120904744Y-37184497D01*
X120904240Y-37137720D01*
X120902212Y-37090947D01*
X119109202Y-37914923D01*
X119104397Y-37917247D01*
X119099710Y-37919737D01*
X119095144Y-37922388D01*
X119090702Y-37925196D01*
X119086386Y-37928156D01*
X119082200Y-37931264D01*
X119078146Y-37934514D01*
X119074226Y-37937903D01*
X119070444Y-37941425D01*
X119066802Y-37945077D01*
X119063304Y-37948854D01*
X119059951Y-37952750D01*
X119056748Y-37956762D01*
X119053695Y-37960885D01*
X119050798Y-37965114D01*
X119048057Y-37969445D01*
X119045476Y-37973873D01*
X119043058Y-37978393D01*
X119040805Y-37983002D01*
X119038720Y-37987694D01*
X119036807Y-37992465D01*
X119035067Y-37997310D01*
X119033504Y-38002224D01*
X119032120Y-38007204D01*
X119030918Y-38012244D01*
X119029902Y-38017340D01*
X119029073Y-38022488D01*
X119028434Y-38027682D01*
X119027989Y-38032918D01*
X119027740Y-38038192D01*
X119027690Y-38043499D01*
X119027841Y-38048834D01*
X118951463Y-38708249D01*
X118915529Y-39042663D01*
X118880447Y-39377840D01*
X118563739Y-39377840D01*
X118073248Y-38811034D01*
X117775105Y-38465985D01*
X117478606Y-38119540D01*
X117474200Y-38112351D01*
X117469451Y-38105433D01*
X117464373Y-38098795D01*
X117458978Y-38092446D01*
X117453280Y-38086397D01*
X117447292Y-38080658D01*
X117441027Y-38075237D01*
X117434498Y-38070146D01*
X117427719Y-38065393D01*
X117420702Y-38060988D01*
X117413462Y-38056941D01*
X117406010Y-38053263D01*
X117398361Y-38049962D01*
X117390527Y-38047048D01*
X117382522Y-38044532D01*
X117374359Y-38042422D01*
X117366097Y-38040738D01*
X117357799Y-38039489D01*
X117349481Y-38038672D01*
X117341159Y-38038285D01*
X117332849Y-38038323D01*
X117324567Y-38038784D01*
X117316330Y-38039666D01*
X117308153Y-38040964D01*
X117300053Y-38042677D01*
X117292045Y-38044801D01*
X117284146Y-38047333D01*
X117276373Y-38050271D01*
X117268741Y-38053611D01*
X117261266Y-38057349D01*
X117253964Y-38061485D01*
X117246852Y-38066013D01*
X113451037Y-39824093D01*
X113442799Y-39829372D01*
X113434340Y-39834195D01*
X113425678Y-39838558D01*
X113416832Y-39842457D01*
X113407821Y-39845890D01*
X113398663Y-39848852D01*
X113389377Y-39851340D01*
X113379983Y-39853351D01*
X113370498Y-39854880D01*
X113360942Y-39855925D01*
X113351333Y-39856482D01*
X113341690Y-39856548D01*
X113332032Y-39856118D01*
X113322378Y-39855190D01*
X113312746Y-39853760D01*
X113303156Y-39851824D01*
X113293678Y-39849394D01*
X113284384Y-39846491D01*
X113275287Y-39843125D01*
X113266405Y-39839310D01*
X113257751Y-39835055D01*
X113249342Y-39830372D01*
X113241193Y-39825273D01*
X113233319Y-39819768D01*
X113225735Y-39813870D01*
X113218458Y-39807589D01*
X113211501Y-39800937D01*
X113204881Y-39793926D01*
X113198613Y-39786566D01*
X113192713Y-39778868D01*
X113187195Y-39770845D01*
X113182075Y-39762508D01*
X113118534Y-39687974D01*
X113408303Y-39687974D01*
X114555685Y-39160533D01*
X117220863Y-37930273D01*
X117258248Y-37913291D01*
X117267228Y-37908773D01*
X117275921Y-37903955D01*
X117284260Y-37898740D01*
X117292174Y-37893033D01*
X117295951Y-37889965D01*
X117299595Y-37886739D01*
X117303098Y-37883341D01*
X117306452Y-37879761D01*
X117309647Y-37875986D01*
X117312676Y-37872004D01*
X117315529Y-37867803D01*
X117318198Y-37863372D01*
X117320674Y-37858698D01*
X117322949Y-37853770D01*
X117325013Y-37848575D01*
X117326858Y-37843101D01*
X117328476Y-37837337D01*
X117329857Y-37831270D01*
X117330994Y-37824889D01*
X117331876Y-37818182D01*
X117409119Y-37134162D01*
X117489379Y-36441319D01*
X117482367Y-36442201D01*
X117475351Y-36443220D01*
X117468358Y-36444371D01*
X117461388Y-36445655D01*
X117454444Y-36447072D01*
X117447527Y-36448621D01*
X117440640Y-36450301D01*
X117433784Y-36452112D01*
X113643549Y-38193560D01*
X113638690Y-38195694D01*
X113633945Y-38198000D01*
X113629317Y-38200473D01*
X113624808Y-38203107D01*
X113620421Y-38205899D01*
X113616160Y-38208845D01*
X113612027Y-38211938D01*
X113608025Y-38215175D01*
X113604157Y-38218551D01*
X113600427Y-38222061D01*
X113596837Y-38225702D01*
X113593390Y-38229468D01*
X113590090Y-38233354D01*
X113586938Y-38237357D01*
X113583939Y-38241471D01*
X113581094Y-38245692D01*
X113578408Y-38250015D01*
X113575883Y-38254436D01*
X113573522Y-38258951D01*
X113571328Y-38263553D01*
X113569304Y-38268240D01*
X113567453Y-38273006D01*
X113565777Y-38277847D01*
X113564281Y-38282757D01*
X113562967Y-38287734D01*
X113561837Y-38292771D01*
X113560895Y-38297865D01*
X113560144Y-38303010D01*
X113559587Y-38308203D01*
X113559227Y-38313438D01*
X113559066Y-38318711D01*
X113559108Y-38324017D01*
X113539345Y-38504501D01*
X113518045Y-38684825D01*
X113475336Y-39045472D01*
X113442102Y-39357621D01*
X113408303Y-39687974D01*
X113118534Y-39687974D01*
X112876219Y-39403738D01*
X112568203Y-39046794D01*
X111950471Y-38334342D01*
X111942931Y-38325860D01*
X111935155Y-38317475D01*
X111919367Y-38300757D01*
X111911592Y-38292307D01*
X111904051Y-38283719D01*
X111896864Y-38274934D01*
X111890149Y-38265893D01*
X111884022Y-38256537D01*
X111881217Y-38251723D01*
X111878602Y-38246809D01*
X111876194Y-38241787D01*
X111874007Y-38236649D01*
X111872056Y-38231389D01*
X111870355Y-38225999D01*
X111868919Y-38220471D01*
X111867762Y-38214800D01*
X111866901Y-38208976D01*
X111866348Y-38202993D01*
X111866120Y-38196844D01*
X111866230Y-38190521D01*
X111866693Y-38184016D01*
X111867525Y-38177324D01*
X112043557Y-36623417D01*
X112266395Y-36623417D01*
X112266823Y-36628780D01*
X112267832Y-36634266D01*
X112269408Y-36639888D01*
X112271539Y-36645660D01*
X112274210Y-36651596D01*
X112277407Y-36657710D01*
X112281117Y-36664016D01*
X112285326Y-36670528D01*
X112290021Y-36677259D01*
X112300813Y-36691439D01*
X112313383Y-36706665D01*
X112327622Y-36723051D01*
X112603295Y-37036424D01*
X112877306Y-37351259D01*
X113149655Y-37667556D01*
X113420343Y-37985315D01*
X113424803Y-37992328D01*
X113429600Y-37999066D01*
X113434718Y-38005521D01*
X113440146Y-38011683D01*
X113445869Y-38017542D01*
X113451875Y-38023088D01*
X113458149Y-38028313D01*
X113464679Y-38033206D01*
X113471450Y-38037758D01*
X113478451Y-38041961D01*
X113485666Y-38045803D01*
X113493084Y-38049276D01*
X113500690Y-38052370D01*
X113508471Y-38055076D01*
X113516414Y-38057384D01*
X113524506Y-38059284D01*
X113532685Y-38060761D01*
X113540890Y-38061804D01*
X113549106Y-38062418D01*
X113557315Y-38062606D01*
X113565502Y-38062372D01*
X113573651Y-38061718D01*
X113581745Y-38060649D01*
X113589769Y-38059167D01*
X113597707Y-38057276D01*
X113605542Y-38054980D01*
X113613259Y-38052281D01*
X113620841Y-38049184D01*
X113628272Y-38045691D01*
X113635537Y-38041806D01*
X113642619Y-38037533D01*
X113649502Y-38032874D01*
X117447981Y-36276526D01*
X117455899Y-36271382D01*
X117464032Y-36266672D01*
X117472363Y-36262401D01*
X117480873Y-36258572D01*
X117489545Y-36255188D01*
X117498361Y-36252253D01*
X117507304Y-36249770D01*
X117516355Y-36247744D01*
X117525496Y-36246176D01*
X117534711Y-36245072D01*
X117543981Y-36244435D01*
X117553288Y-36244267D01*
X117562615Y-36244572D01*
X117571944Y-36245355D01*
X117581258Y-36246618D01*
X117590537Y-36248366D01*
X117599715Y-36250587D01*
X117608724Y-36253263D01*
X117617550Y-36256384D01*
X117626178Y-36259940D01*
X117634594Y-36263918D01*
X117642782Y-36268310D01*
X117650729Y-36273104D01*
X117658418Y-36278290D01*
X117665836Y-36283858D01*
X117672968Y-36289797D01*
X117679799Y-36296096D01*
X117686313Y-36302746D01*
X117692497Y-36309734D01*
X117698336Y-36317052D01*
X117703815Y-36324689D01*
X117708919Y-36332633D01*
X118004971Y-36679480D01*
X118303091Y-37024578D01*
X118898708Y-37715318D01*
X118910564Y-37728757D01*
X118922164Y-37740885D01*
X118933590Y-37751679D01*
X118939263Y-37756569D01*
X118944922Y-37761116D01*
X118950579Y-37765319D01*
X118956243Y-37769173D01*
X118961925Y-37772676D01*
X118967634Y-37775826D01*
X118973380Y-37778618D01*
X118979175Y-37781051D01*
X118985027Y-37783121D01*
X118990948Y-37784826D01*
X118996947Y-37786162D01*
X119003035Y-37787126D01*
X119009221Y-37787716D01*
X119015516Y-37787929D01*
X119021931Y-37787761D01*
X119028474Y-37787210D01*
X119035157Y-37786273D01*
X119041989Y-37784948D01*
X119048981Y-37783230D01*
X119056143Y-37781117D01*
X119063485Y-37778606D01*
X119071017Y-37775695D01*
X119078750Y-37772380D01*
X119086693Y-37768658D01*
X119094856Y-37764527D01*
X119103251Y-37759983D01*
X119149044Y-37735446D01*
X119195589Y-37712259D01*
X119242715Y-37690116D01*
X119290254Y-37668712D01*
X119385896Y-37626896D01*
X119433660Y-37605872D01*
X119481162Y-37584363D01*
X120883828Y-36935766D01*
X120883850Y-36935766D01*
X120879107Y-36928019D01*
X120874263Y-36920336D01*
X120869318Y-36912718D01*
X120864274Y-36905166D01*
X120859131Y-36897682D01*
X120853889Y-36890265D01*
X120848550Y-36882917D01*
X120843114Y-36875639D01*
X118294807Y-33929025D01*
X118290740Y-33923229D01*
X118286405Y-33917673D01*
X118281812Y-33912362D01*
X118276973Y-33907305D01*
X118271898Y-33902510D01*
X118266599Y-33897982D01*
X118261087Y-33893730D01*
X118255373Y-33889761D01*
X118249468Y-33886081D01*
X118243384Y-33882699D01*
X118237130Y-33879622D01*
X118230719Y-33876857D01*
X118224161Y-33874411D01*
X118217467Y-33872292D01*
X118210649Y-33870507D01*
X118203718Y-33869063D01*
X118196723Y-33867972D01*
X118189713Y-33867241D01*
X118182702Y-33866866D01*
X118175703Y-33866844D01*
X118168729Y-33867173D01*
X118161792Y-33867850D01*
X118154906Y-33868871D01*
X118148083Y-33870234D01*
X118141337Y-33871935D01*
X118134680Y-33873973D01*
X118128126Y-33876343D01*
X118121687Y-33879044D01*
X118115377Y-33882071D01*
X118109208Y-33885423D01*
X118103192Y-33889096D01*
X118097345Y-33893087D01*
X112361303Y-36537407D01*
X112339026Y-36548136D01*
X112329094Y-36553342D01*
X112319949Y-36558461D01*
X112311577Y-36563506D01*
X112303963Y-36568492D01*
X112297095Y-36573433D01*
X112290958Y-36578342D01*
X112285539Y-36583234D01*
X112280825Y-36588122D01*
X112276801Y-36593021D01*
X112273454Y-36597944D01*
X112270770Y-36602906D01*
X112268736Y-36607920D01*
X112267338Y-36613001D01*
X112266562Y-36618162D01*
X112266395Y-36623417D01*
X112043557Y-36623417D01*
X112046660Y-36596029D01*
X112047757Y-36588150D01*
X112049220Y-36580704D01*
X112051033Y-36573675D01*
X112053182Y-36567044D01*
X112055652Y-36560795D01*
X112058427Y-36554910D01*
X112061492Y-36549373D01*
X112064834Y-36544165D01*
X112068436Y-36539270D01*
X112072284Y-36534671D01*
X112076363Y-36530349D01*
X112080658Y-36526289D01*
X112085154Y-36522472D01*
X112089836Y-36518882D01*
X112094690Y-36515501D01*
X112099699Y-36512313D01*
X112104850Y-36509299D01*
X112110127Y-36506442D01*
X112121001Y-36501134D01*
X112132201Y-36496249D01*
X112143607Y-36491650D01*
X112166562Y-36482758D01*
X112177871Y-36478189D01*
X112188909Y-36473355D01*
X116394394Y-34533773D01*
X117249820Y-34140126D01*
X118103536Y-33742888D01*
X118110940Y-33737862D01*
X118118555Y-33733242D01*
X118126366Y-33729033D01*
X118134355Y-33725238D01*
X118142506Y-33721861D01*
X118150802Y-33718905D01*
X118159227Y-33716374D01*
X118167763Y-33714272D01*
X118176394Y-33712603D01*
X118185103Y-33711369D01*
X118193874Y-33710575D01*
X118202690Y-33710225D01*
X118211535Y-33710322D01*
G37*
G36*
X133445399Y-35178942D02*
G01*
X133451523Y-35179494D01*
X133457574Y-35180333D01*
X133469485Y-35182807D01*
X133481183Y-35186242D01*
X133492722Y-35190515D01*
X133504155Y-35195501D01*
X133515534Y-35201076D01*
X133526913Y-35207118D01*
X133538344Y-35213503D01*
X133561575Y-35226807D01*
X134453785Y-35734499D01*
X135348337Y-36237978D01*
X135355801Y-36240922D01*
X135363069Y-36244231D01*
X135370130Y-36247894D01*
X135376972Y-36251901D01*
X135383584Y-36256241D01*
X135389954Y-36260902D01*
X135396073Y-36265876D01*
X135401928Y-36271150D01*
X135407507Y-36276714D01*
X135412801Y-36282558D01*
X135417797Y-36288670D01*
X135422484Y-36295041D01*
X135426851Y-36301659D01*
X135430887Y-36308513D01*
X135434580Y-36315594D01*
X135437920Y-36322890D01*
X135440878Y-36330348D01*
X135443436Y-36337913D01*
X135445594Y-36345569D01*
X135447352Y-36353301D01*
X135448710Y-36361092D01*
X135449667Y-36368928D01*
X135450225Y-36376794D01*
X135450383Y-36384672D01*
X135450141Y-36392548D01*
X135449500Y-36400407D01*
X135448459Y-36408233D01*
X135447019Y-36416009D01*
X135445179Y-36423722D01*
X135442940Y-36431355D01*
X135440302Y-36438892D01*
X135437265Y-36446318D01*
X135008394Y-38219198D01*
X135005086Y-38227438D01*
X135002223Y-38235797D01*
X134999803Y-38244259D01*
X134997826Y-38252806D01*
X134996293Y-38261422D01*
X134995204Y-38270088D01*
X134994558Y-38278788D01*
X134994356Y-38287504D01*
X134994597Y-38296220D01*
X134995282Y-38304917D01*
X134996410Y-38313578D01*
X134997981Y-38322187D01*
X134999996Y-38330725D01*
X135002454Y-38339176D01*
X135005355Y-38347522D01*
X135008699Y-38355747D01*
X135012465Y-38363787D01*
X135016621Y-38371585D01*
X135021155Y-38379128D01*
X135026054Y-38386406D01*
X135031307Y-38393405D01*
X135036899Y-38400115D01*
X135042818Y-38406524D01*
X135049052Y-38412619D01*
X135055588Y-38418390D01*
X135062413Y-38423824D01*
X135069515Y-38428909D01*
X135076881Y-38433635D01*
X135084497Y-38437988D01*
X135092352Y-38441958D01*
X135100433Y-38445532D01*
X135108727Y-38448699D01*
X138762867Y-40516434D01*
X138770358Y-40519180D01*
X138777662Y-40522294D01*
X138784768Y-40525767D01*
X138791664Y-40529588D01*
X138798338Y-40533747D01*
X138804779Y-40538232D01*
X138810976Y-40543034D01*
X138816916Y-40548143D01*
X138822588Y-40553547D01*
X138827981Y-40559236D01*
X138833084Y-40565201D01*
X138837883Y-40571429D01*
X138842369Y-40577912D01*
X138846530Y-40584638D01*
X138850353Y-40591597D01*
X138853828Y-40598779D01*
X138856927Y-40606132D01*
X138859628Y-40613599D01*
X138861931Y-40621165D01*
X138863837Y-40628815D01*
X138865345Y-40636532D01*
X138866454Y-40644303D01*
X138867165Y-40652110D01*
X138867478Y-40659938D01*
X138867392Y-40667772D01*
X138866906Y-40675597D01*
X138866021Y-40683396D01*
X138864737Y-40691154D01*
X138863053Y-40698855D01*
X138860969Y-40706485D01*
X138858485Y-40714027D01*
X138855600Y-40721465D01*
X138627250Y-41660211D01*
X138405338Y-42600518D01*
X138402102Y-42615468D01*
X138398007Y-42630104D01*
X138393077Y-42644396D01*
X138387334Y-42658313D01*
X138380804Y-42671822D01*
X138373511Y-42684894D01*
X138365477Y-42697496D01*
X138356728Y-42709598D01*
X138347287Y-42721168D01*
X138337177Y-42732175D01*
X138326424Y-42742588D01*
X138315052Y-42752376D01*
X138303083Y-42761507D01*
X138290542Y-42769951D01*
X138277453Y-42777676D01*
X138263840Y-42784651D01*
X137945522Y-42959254D01*
X137628204Y-43135683D01*
X137311887Y-43313939D01*
X136996571Y-43494022D01*
X136983608Y-43502259D01*
X136970193Y-43509394D01*
X136956394Y-43515427D01*
X136942273Y-43520357D01*
X136927895Y-43524185D01*
X136913326Y-43526911D01*
X136898629Y-43528535D01*
X136883870Y-43529058D01*
X136869114Y-43528478D01*
X136854423Y-43526797D01*
X136839865Y-43524015D01*
X136825502Y-43520131D01*
X136811401Y-43515146D01*
X136797624Y-43509060D01*
X136784238Y-43501873D01*
X136771306Y-43493585D01*
X131065252Y-40255427D01*
X131058212Y-40252613D01*
X131051354Y-40249463D01*
X131044687Y-40245987D01*
X131038221Y-40242194D01*
X131031967Y-40238094D01*
X131025934Y-40233696D01*
X131020134Y-40229011D01*
X131014576Y-40224047D01*
X131009270Y-40218814D01*
X131004227Y-40213321D01*
X130999457Y-40207579D01*
X130994969Y-40201597D01*
X130990775Y-40195384D01*
X130986884Y-40188950D01*
X130983307Y-40182304D01*
X130980053Y-40175457D01*
X130977148Y-40168454D01*
X130974609Y-40161346D01*
X130972438Y-40154148D01*
X130970634Y-40146872D01*
X130969198Y-40139533D01*
X130968129Y-40132144D01*
X130967429Y-40124721D01*
X130967097Y-40117276D01*
X130967134Y-40109824D01*
X130967540Y-40102379D01*
X130968315Y-40094954D01*
X130969460Y-40087564D01*
X130970974Y-40080223D01*
X130972859Y-40072943D01*
X130975114Y-40065741D01*
X130975657Y-40064270D01*
X131118058Y-40064270D01*
X131118084Y-40070473D01*
X131118393Y-40076454D01*
X131118983Y-40082225D01*
X131119851Y-40087794D01*
X131120992Y-40093170D01*
X131122405Y-40098364D01*
X131124085Y-40103384D01*
X131126030Y-40108240D01*
X131128235Y-40112942D01*
X131130698Y-40117499D01*
X131133416Y-40121921D01*
X131136385Y-40126217D01*
X131139603Y-40130396D01*
X131143064Y-40134469D01*
X131150709Y-40142332D01*
X131159294Y-40149881D01*
X131168793Y-40157193D01*
X131179179Y-40164344D01*
X131190426Y-40171409D01*
X131202509Y-40178465D01*
X136721969Y-43312482D01*
X136732632Y-43318408D01*
X136742697Y-43323688D01*
X136752187Y-43328333D01*
X136761122Y-43332352D01*
X136769524Y-43335758D01*
X136777414Y-43338560D01*
X136784814Y-43340771D01*
X136791745Y-43342401D01*
X136798229Y-43343461D01*
X136804287Y-43343961D01*
X136809940Y-43343913D01*
X136815210Y-43343329D01*
X136820118Y-43342218D01*
X136824686Y-43340591D01*
X136828935Y-43338461D01*
X136832886Y-43335836D01*
X136836561Y-43332730D01*
X136839981Y-43329152D01*
X136843168Y-43325113D01*
X136846143Y-43320625D01*
X136848927Y-43315698D01*
X136851543Y-43310343D01*
X136854010Y-43304572D01*
X136856351Y-43298395D01*
X136860741Y-43284866D01*
X136864881Y-43269847D01*
X136873103Y-43235682D01*
X137065378Y-42415375D01*
X137164223Y-42005881D01*
X137266041Y-41597140D01*
X137270754Y-41576459D01*
X137274002Y-41557282D01*
X137275078Y-41548223D01*
X137275790Y-41539498D01*
X137276139Y-41531094D01*
X137276123Y-41522997D01*
X137275746Y-41515192D01*
X137275006Y-41507665D01*
X137273904Y-41500404D01*
X137272442Y-41493393D01*
X137270619Y-41486619D01*
X137268436Y-41480068D01*
X137265894Y-41473726D01*
X137262993Y-41467579D01*
X137259734Y-41461614D01*
X137256117Y-41455815D01*
X137252143Y-41450171D01*
X137247813Y-41444665D01*
X137243127Y-41439285D01*
X137238085Y-41434017D01*
X137226938Y-41423759D01*
X137214377Y-41413781D01*
X137200405Y-41403971D01*
X137185028Y-41394217D01*
X137168250Y-41384408D01*
X133539936Y-39330285D01*
X133530317Y-39326495D01*
X133520952Y-39322233D01*
X133511855Y-39317513D01*
X133503040Y-39312349D01*
X133494523Y-39306755D01*
X133486317Y-39300745D01*
X133478439Y-39294332D01*
X133470901Y-39287531D01*
X133463719Y-39280355D01*
X133456907Y-39272818D01*
X133450480Y-39264935D01*
X133444453Y-39256718D01*
X133438840Y-39248182D01*
X133433655Y-39239341D01*
X133428914Y-39230209D01*
X133424631Y-39220799D01*
X133420841Y-39211179D01*
X133417569Y-39201424D01*
X133415887Y-39195396D01*
X133635246Y-39195396D01*
X133635262Y-39195396D01*
X133641807Y-39201419D01*
X133648444Y-39207337D01*
X133655171Y-39213150D01*
X133661989Y-39218857D01*
X133668895Y-39224457D01*
X133675889Y-39229948D01*
X133682968Y-39235330D01*
X133690132Y-39240602D01*
X137302478Y-41295262D01*
X137311597Y-41300617D01*
X137320999Y-41305209D01*
X137330639Y-41309040D01*
X137340474Y-41312110D01*
X137350459Y-41314421D01*
X137360552Y-41315974D01*
X137370707Y-41316772D01*
X137380881Y-41316815D01*
X137391031Y-41316104D01*
X137401112Y-41314642D01*
X137411081Y-41312429D01*
X137420893Y-41309468D01*
X137430505Y-41305759D01*
X137439873Y-41301304D01*
X137448953Y-41296104D01*
X137457701Y-41290162D01*
X137615774Y-41200859D01*
X137774679Y-41112996D01*
X138092611Y-40937454D01*
X138228761Y-40860592D01*
X138366523Y-40781960D01*
X138655581Y-40616332D01*
X137559834Y-39992620D01*
X135006172Y-38545013D01*
X134970795Y-38524283D01*
X134961929Y-38519459D01*
X134952979Y-38515019D01*
X134943906Y-38511082D01*
X134934673Y-38507767D01*
X134929985Y-38506382D01*
X134925243Y-38505196D01*
X134920442Y-38504227D01*
X134915577Y-38503488D01*
X134910645Y-38502995D01*
X134905639Y-38502763D01*
X134900555Y-38502806D01*
X134895389Y-38503140D01*
X134890136Y-38503779D01*
X134884791Y-38504740D01*
X134879349Y-38506035D01*
X134873807Y-38507682D01*
X134868158Y-38509694D01*
X134862398Y-38512086D01*
X134856523Y-38514874D01*
X134850528Y-38518073D01*
X134249011Y-38854361D01*
X133635246Y-39195396D01*
X133415887Y-39195396D01*
X133414814Y-39191552D01*
X133412578Y-39181584D01*
X133410858Y-39171540D01*
X133409656Y-39161440D01*
X133408970Y-39151304D01*
X133408802Y-39141153D01*
X133409150Y-39131006D01*
X133410014Y-39120884D01*
X133411395Y-39110807D01*
X133413292Y-39100795D01*
X133415705Y-39090868D01*
X133418634Y-39081046D01*
X133422078Y-39071350D01*
X133426038Y-39061800D01*
X133534801Y-38622925D01*
X133640670Y-38183324D01*
X133849235Y-37303326D01*
X133861298Y-37258037D01*
X133863811Y-37247010D01*
X133865719Y-37236111D01*
X133866822Y-37225344D01*
X133867007Y-37220012D01*
X133866916Y-37214715D01*
X133866522Y-37209453D01*
X133865800Y-37204228D01*
X133864726Y-37199039D01*
X133863273Y-37193888D01*
X133861417Y-37188775D01*
X133859132Y-37183701D01*
X133856394Y-37178666D01*
X133853177Y-37173670D01*
X133849455Y-37168716D01*
X133845204Y-37163802D01*
X133840398Y-37158930D01*
X133835013Y-37154101D01*
X133829022Y-37149314D01*
X133822401Y-37144572D01*
X133815125Y-37139873D01*
X133807168Y-37135219D01*
X132938398Y-36645929D01*
X132065034Y-36149751D01*
X132061987Y-36154385D01*
X132059052Y-36159097D01*
X132056232Y-36163878D01*
X132053531Y-36168725D01*
X132050949Y-36173637D01*
X132048488Y-36178611D01*
X132046148Y-36183645D01*
X132043931Y-36188738D01*
X131124050Y-40021883D01*
X131122303Y-40029610D01*
X131120860Y-40037060D01*
X131119717Y-40044241D01*
X131118872Y-40051164D01*
X131118320Y-40057837D01*
X131118058Y-40064270D01*
X130975657Y-40064270D01*
X130977740Y-40058629D01*
X131927997Y-36089839D01*
X131937687Y-36048302D01*
X131940436Y-36038198D01*
X131943503Y-36028348D01*
X131944480Y-36025673D01*
X132178086Y-36025673D01*
X132182908Y-36031380D01*
X132187874Y-36036957D01*
X132192982Y-36042400D01*
X132198229Y-36047706D01*
X132203614Y-36052874D01*
X132209132Y-36057900D01*
X132214782Y-36062782D01*
X132220560Y-36067517D01*
X133883507Y-37014447D01*
X133892648Y-37019845D01*
X133902072Y-37024489D01*
X133911736Y-37028382D01*
X133921597Y-37031524D01*
X133931613Y-37033915D01*
X133941741Y-37035558D01*
X133951937Y-37036452D01*
X133962160Y-37036599D01*
X133972367Y-37036000D01*
X133982514Y-37034655D01*
X133992559Y-37032567D01*
X134002459Y-37029734D01*
X134012172Y-37026160D01*
X134021654Y-37021844D01*
X134030863Y-37016787D01*
X134039756Y-37010990D01*
X134606607Y-36696259D01*
X134910081Y-36523709D01*
X135215173Y-36348891D01*
X135207821Y-36339339D01*
X135201825Y-36331231D01*
X135192938Y-36318848D01*
X135189566Y-36314327D01*
X135188041Y-36312429D01*
X135186585Y-36310754D01*
X135185167Y-36309284D01*
X135183756Y-36308006D01*
X135182323Y-36306902D01*
X135180837Y-36305959D01*
X133532477Y-35365267D01*
X133521859Y-35358534D01*
X133510868Y-35352726D01*
X133499560Y-35347842D01*
X133487990Y-35343882D01*
X133476214Y-35340843D01*
X133464286Y-35338727D01*
X133452261Y-35337532D01*
X133440196Y-35337256D01*
X133428144Y-35337900D01*
X133416162Y-35339462D01*
X133404304Y-35341941D01*
X133392626Y-35345337D01*
X133381183Y-35349649D01*
X133370030Y-35354875D01*
X133359222Y-35361016D01*
X133348814Y-35368070D01*
X133305905Y-35393840D01*
X133262478Y-35418765D01*
X133218662Y-35443055D01*
X133174583Y-35466921D01*
X133086147Y-35514219D01*
X133042044Y-35538072D01*
X132998190Y-35562340D01*
X132178086Y-36025673D01*
X131944480Y-36025673D01*
X131946982Y-36018822D01*
X131950965Y-36009690D01*
X131955546Y-36001023D01*
X131958090Y-35996886D01*
X131960819Y-35992892D01*
X131963744Y-35989050D01*
X131966877Y-35985367D01*
X131970230Y-35981854D01*
X131973814Y-35978519D01*
X131977641Y-35975371D01*
X131981723Y-35972419D01*
X131986071Y-35969671D01*
X131990697Y-35967136D01*
X131995614Y-35964823D01*
X132000831Y-35962742D01*
X132006362Y-35960900D01*
X132012217Y-35959307D01*
X132690457Y-35580227D01*
X133363813Y-35200290D01*
X133371328Y-35196199D01*
X133378691Y-35192580D01*
X133385908Y-35189417D01*
X133392986Y-35186695D01*
X133399932Y-35184399D01*
X133406752Y-35182513D01*
X133413453Y-35181021D01*
X133420041Y-35179909D01*
X133426523Y-35179160D01*
X133432905Y-35178760D01*
X133439195Y-35178693D01*
X133445399Y-35178942D01*
G37*
G36*
X119129649Y-59835307D02*
G01*
X119144474Y-59836740D01*
X119159178Y-59839206D01*
X119173706Y-59842704D01*
X119187999Y-59847228D01*
X119202003Y-59852777D01*
X119215659Y-59859345D01*
X119228912Y-59866930D01*
X119241705Y-59875529D01*
X124642155Y-63122802D01*
X124651840Y-63128394D01*
X124661815Y-63133833D01*
X124682034Y-63144697D01*
X124691979Y-63150345D01*
X124701614Y-63156287D01*
X124710789Y-63162633D01*
X124719355Y-63169496D01*
X124723362Y-63173156D01*
X124727161Y-63176987D01*
X124730733Y-63181003D01*
X124734058Y-63185218D01*
X124737119Y-63189646D01*
X124739896Y-63194301D01*
X124742371Y-63199196D01*
X124744526Y-63204347D01*
X124746340Y-63209766D01*
X124747796Y-63215468D01*
X124748875Y-63221467D01*
X124749557Y-63227777D01*
X124749826Y-63234411D01*
X124749660Y-63241383D01*
X124749043Y-63248709D01*
X124747955Y-63256400D01*
X124589505Y-64027877D01*
X123920282Y-67295773D01*
X123917611Y-67311813D01*
X123913886Y-67327501D01*
X123909139Y-67342796D01*
X123903405Y-67357655D01*
X123896717Y-67372036D01*
X123889107Y-67385896D01*
X123880610Y-67399193D01*
X123871260Y-67411885D01*
X123861088Y-67423929D01*
X123850130Y-67435284D01*
X123838417Y-67445906D01*
X123825985Y-67455753D01*
X123812865Y-67464784D01*
X123799092Y-67472955D01*
X123784700Y-67480224D01*
X123769720Y-67486549D01*
X123070503Y-67813474D01*
X122374343Y-68146970D01*
X122359832Y-68154436D01*
X122344960Y-68160761D01*
X122329788Y-68165948D01*
X122314378Y-68170003D01*
X122298791Y-68172928D01*
X122283090Y-68174728D01*
X122267336Y-68175406D01*
X122251591Y-68174967D01*
X122235916Y-68173414D01*
X122220374Y-68170751D01*
X122205026Y-68166982D01*
X122189934Y-68162112D01*
X122175159Y-68156143D01*
X122160764Y-68149080D01*
X122146810Y-68140927D01*
X122133360Y-68131688D01*
X121866467Y-67970102D01*
X122368025Y-67970102D01*
X122377402Y-67970190D01*
X122386748Y-67969902D01*
X122396053Y-67969240D01*
X122405305Y-67968208D01*
X122414494Y-67966809D01*
X122423609Y-67965046D01*
X122432640Y-67962922D01*
X122441576Y-67960441D01*
X122450405Y-67957605D01*
X122459118Y-67954419D01*
X122467703Y-67950884D01*
X122476150Y-67947005D01*
X122484448Y-67942785D01*
X122492586Y-67938226D01*
X122500554Y-67933332D01*
X122508341Y-67928106D01*
X123073474Y-67661228D01*
X123356343Y-67528467D01*
X123640230Y-67397945D01*
X123648624Y-67394430D01*
X123656856Y-67390648D01*
X123672816Y-67382309D01*
X123688072Y-67372976D01*
X123702588Y-67362696D01*
X123716327Y-67351516D01*
X123729254Y-67339485D01*
X123741330Y-67326648D01*
X123752521Y-67313055D01*
X123762789Y-67298751D01*
X123772098Y-67283786D01*
X123780412Y-67268206D01*
X123787693Y-67252058D01*
X123793906Y-67235391D01*
X123799013Y-67218251D01*
X123802979Y-67200687D01*
X123804523Y-67191760D01*
X123805767Y-67182744D01*
X124390004Y-64325507D01*
X124584536Y-63358569D01*
X123934571Y-63667389D01*
X123617848Y-63816547D01*
X123302553Y-63962159D01*
X123294598Y-63965342D01*
X123286794Y-63968780D01*
X123271653Y-63976398D01*
X123257165Y-63984968D01*
X123243365Y-63994446D01*
X123230290Y-64004786D01*
X123217975Y-64015945D01*
X123206454Y-64027875D01*
X123195764Y-64040534D01*
X123185940Y-64053876D01*
X123177016Y-64067856D01*
X123169029Y-64082430D01*
X123162015Y-64097552D01*
X123156007Y-64113178D01*
X123151042Y-64129262D01*
X123147156Y-64145760D01*
X123145628Y-64154151D01*
X123144383Y-64162628D01*
X122622656Y-66717385D01*
X122368027Y-67970102D01*
X122368025Y-67970102D01*
X121866467Y-67970102D01*
X121300960Y-67627724D01*
X120883255Y-67378267D01*
X120464148Y-67131201D01*
X120455322Y-67126993D01*
X120446800Y-67122402D01*
X120438588Y-67117443D01*
X120430692Y-67112131D01*
X120423117Y-67106480D01*
X120415870Y-67100506D01*
X120408957Y-67094223D01*
X120402384Y-67087646D01*
X120396157Y-67080790D01*
X120390282Y-67073670D01*
X120384765Y-67066301D01*
X120379612Y-67058697D01*
X120374829Y-67050874D01*
X120370422Y-67042847D01*
X120366397Y-67034629D01*
X120362760Y-67026237D01*
X120359518Y-67017685D01*
X120356676Y-67008987D01*
X120354240Y-67000159D01*
X120352217Y-66991216D01*
X120350612Y-66982172D01*
X120349431Y-66973043D01*
X120348681Y-66963842D01*
X120348367Y-66954586D01*
X120348495Y-66945288D01*
X120349073Y-66935964D01*
X120350104Y-66926629D01*
X120351597Y-66917297D01*
X120353556Y-66907984D01*
X120355987Y-66898704D01*
X120358898Y-66889472D01*
X120362293Y-66880303D01*
X120544690Y-65995511D01*
X120635817Y-65553115D01*
X120730395Y-65111480D01*
X120733283Y-65102766D01*
X120735702Y-65094011D01*
X120737657Y-65085228D01*
X120739156Y-65076433D01*
X120740206Y-65067640D01*
X120740812Y-65058863D01*
X120740982Y-65050115D01*
X120740722Y-65041413D01*
X120740040Y-65032769D01*
X120738942Y-65024198D01*
X120737434Y-65015715D01*
X120735523Y-65007334D01*
X120733217Y-64999069D01*
X120730521Y-64990934D01*
X120727443Y-64982944D01*
X120723990Y-64975113D01*
X120720167Y-64967455D01*
X120715982Y-64959985D01*
X120711441Y-64952717D01*
X120706551Y-64945665D01*
X120701320Y-64938844D01*
X120695753Y-64932268D01*
X120689857Y-64925951D01*
X120683639Y-64919908D01*
X120677106Y-64914153D01*
X120670265Y-64908699D01*
X120663122Y-64903563D01*
X120655683Y-64898757D01*
X120647957Y-64894296D01*
X120639948Y-64890195D01*
X120631665Y-64886467D01*
X120623114Y-64883127D01*
X117191345Y-62827627D01*
X117182304Y-62823903D01*
X117173544Y-62819783D01*
X117165070Y-62815281D01*
X117156890Y-62810410D01*
X117149009Y-62805186D01*
X117141436Y-62799623D01*
X117134177Y-62793735D01*
X117127239Y-62787536D01*
X117120628Y-62781040D01*
X117114351Y-62774262D01*
X117108415Y-62767217D01*
X117102828Y-62759918D01*
X117097595Y-62752379D01*
X117092724Y-62744616D01*
X117088221Y-62736642D01*
X117084093Y-62728472D01*
X117080348Y-62720119D01*
X117076991Y-62711599D01*
X117074030Y-62702926D01*
X117071471Y-62694113D01*
X117069322Y-62685176D01*
X117067589Y-62676128D01*
X117066279Y-62666983D01*
X117065398Y-62657757D01*
X117064954Y-62648463D01*
X117064954Y-62639116D01*
X117065404Y-62629730D01*
X117066310Y-62620319D01*
X117067681Y-62610898D01*
X117069522Y-62601480D01*
X117071841Y-62592081D01*
X117074644Y-62582714D01*
X117272533Y-61645996D01*
X117462462Y-60707575D01*
X117464937Y-60692472D01*
X117468408Y-60677699D01*
X117472843Y-60663295D01*
X117476319Y-60654235D01*
X117729786Y-60654235D01*
X118456148Y-61091011D01*
X123010089Y-63827195D01*
X123048095Y-63850734D01*
X123057504Y-63856152D01*
X123066987Y-63861146D01*
X123076602Y-63865600D01*
X123086402Y-63869394D01*
X123091390Y-63871008D01*
X123096446Y-63872412D01*
X123101576Y-63873593D01*
X123106788Y-63874536D01*
X123112088Y-63875225D01*
X123117484Y-63875647D01*
X123122983Y-63875785D01*
X123128591Y-63875627D01*
X123134316Y-63875156D01*
X123140164Y-63874359D01*
X123146143Y-63873220D01*
X123152259Y-63871725D01*
X123158520Y-63869858D01*
X123164932Y-63867606D01*
X123171503Y-63864953D01*
X123178240Y-63861885D01*
X123848213Y-63543186D01*
X124527375Y-63223142D01*
X124527373Y-63223142D01*
X124519043Y-63215886D01*
X124510613Y-63208751D01*
X124502084Y-63201736D01*
X124493458Y-63194842D01*
X124484735Y-63188071D01*
X124475917Y-63181423D01*
X124467005Y-63174899D01*
X124458001Y-63168501D01*
X119203861Y-60008849D01*
X119193289Y-60002408D01*
X119182380Y-59996814D01*
X119171182Y-59992068D01*
X119159741Y-59988169D01*
X119148106Y-59985118D01*
X119136324Y-59982916D01*
X119124441Y-59981562D01*
X119112505Y-59981056D01*
X119100564Y-59981400D01*
X119088664Y-59982594D01*
X119076853Y-59984637D01*
X119065178Y-59987531D01*
X119053686Y-59991275D01*
X119042425Y-59995869D01*
X119031442Y-60001315D01*
X119020784Y-60007612D01*
X117820966Y-60575950D01*
X117814384Y-60578890D01*
X117807583Y-60581653D01*
X117793618Y-60587020D01*
X117786597Y-60589812D01*
X117779645Y-60592802D01*
X117772836Y-60596083D01*
X117766240Y-60599750D01*
X117759929Y-60603896D01*
X117756904Y-60606179D01*
X117753976Y-60608616D01*
X117751156Y-60611220D01*
X117748453Y-60614003D01*
X117745874Y-60616976D01*
X117743430Y-60620151D01*
X117741129Y-60623540D01*
X117738980Y-60627155D01*
X117736992Y-60631006D01*
X117735175Y-60635107D01*
X117733537Y-60639468D01*
X117732086Y-60644102D01*
X117730833Y-60649020D01*
X117729786Y-60654235D01*
X117476319Y-60654235D01*
X117478212Y-60649300D01*
X117484481Y-60635755D01*
X117491621Y-60622701D01*
X117499599Y-60610176D01*
X117508383Y-60598221D01*
X117517943Y-60586877D01*
X117528246Y-60576183D01*
X117539261Y-60566179D01*
X117550956Y-60556906D01*
X117563300Y-60548403D01*
X117576261Y-60540712D01*
X117589807Y-60533871D01*
X117603908Y-60527921D01*
X118309924Y-60197330D01*
X119013507Y-59861493D01*
X119027258Y-59854527D01*
X119041340Y-59848623D01*
X119055699Y-59843778D01*
X119070277Y-59839987D01*
X119085017Y-59837249D01*
X119099864Y-59835558D01*
X119114760Y-59834912D01*
X119129649Y-59835307D01*
G37*
G36*
X148420286Y-45540173D02*
G01*
X148475361Y-45544269D01*
X148529949Y-45551661D01*
X148583905Y-45562306D01*
X148637079Y-45576160D01*
X148689327Y-45593181D01*
X148740500Y-45613325D01*
X148790452Y-45636549D01*
X148839036Y-45662811D01*
X148886104Y-45692068D01*
X148931511Y-45724276D01*
X148975108Y-45759392D01*
X149016749Y-45797373D01*
X149150412Y-45914130D01*
X149286356Y-46028360D01*
X149424183Y-46140485D01*
X149563496Y-46250925D01*
X149844989Y-46468435D01*
X150127656Y-46684258D01*
X150135841Y-46689000D01*
X150143742Y-46694124D01*
X150151349Y-46699616D01*
X150158651Y-46705461D01*
X150165637Y-46711648D01*
X150172296Y-46718162D01*
X150178618Y-46724989D01*
X150184591Y-46732116D01*
X150190204Y-46739530D01*
X150195448Y-46747216D01*
X150200310Y-46755162D01*
X150204781Y-46763353D01*
X150208849Y-46771776D01*
X150212503Y-46780418D01*
X150215734Y-46789264D01*
X150218529Y-46798302D01*
X150220866Y-46807469D01*
X150222732Y-46816699D01*
X150224130Y-46825977D01*
X150225060Y-46835284D01*
X150225526Y-46844604D01*
X150225530Y-46853920D01*
X150225074Y-46863213D01*
X150224159Y-46872467D01*
X150222788Y-46881665D01*
X150220964Y-46890788D01*
X150218688Y-46899821D01*
X150215962Y-46908746D01*
X150212789Y-46917545D01*
X150209170Y-46926201D01*
X150205109Y-46934698D01*
X150200606Y-46943017D01*
X150174742Y-47011521D01*
X150150569Y-47080691D01*
X150105207Y-47220214D01*
X150060355Y-47359966D01*
X150036819Y-47429421D01*
X150011848Y-47498324D01*
X150008675Y-47504982D01*
X150005864Y-47511720D01*
X150003414Y-47518526D01*
X150001319Y-47525389D01*
X149999575Y-47532297D01*
X149998181Y-47539238D01*
X149997131Y-47546201D01*
X149996422Y-47553173D01*
X149996051Y-47560144D01*
X149996014Y-47567100D01*
X149996307Y-47574032D01*
X149996926Y-47580926D01*
X149997868Y-47587771D01*
X149999130Y-47594556D01*
X150000707Y-47601268D01*
X150002597Y-47607897D01*
X150004794Y-47614429D01*
X150007297Y-47620854D01*
X150010100Y-47627160D01*
X150013201Y-47633335D01*
X150016596Y-47639368D01*
X150020280Y-47645245D01*
X150024252Y-47650957D01*
X150028506Y-47656491D01*
X150033039Y-47661836D01*
X150037848Y-47666979D01*
X150042929Y-47671909D01*
X150048278Y-47676614D01*
X150053892Y-47681083D01*
X150059767Y-47685304D01*
X150065899Y-47689264D01*
X150072285Y-47692953D01*
X151224536Y-48602894D01*
X151232158Y-48607246D01*
X151239485Y-48611920D01*
X151246511Y-48616902D01*
X151253233Y-48622179D01*
X151259647Y-48627736D01*
X151265746Y-48633561D01*
X151271528Y-48639640D01*
X151276988Y-48645959D01*
X151282121Y-48652504D01*
X151286923Y-48659263D01*
X151291389Y-48666220D01*
X151295516Y-48673364D01*
X151299298Y-48680680D01*
X151302731Y-48688154D01*
X151305811Y-48695774D01*
X151308534Y-48703525D01*
X151310894Y-48711394D01*
X151312888Y-48719366D01*
X151314511Y-48727430D01*
X151315759Y-48735571D01*
X151316626Y-48743775D01*
X151317110Y-48752029D01*
X151317205Y-48760319D01*
X151316907Y-48768632D01*
X151316212Y-48776953D01*
X151315115Y-48785271D01*
X151313611Y-48793570D01*
X151311697Y-48801837D01*
X151309367Y-48810060D01*
X151306618Y-48818223D01*
X151303445Y-48826314D01*
X151299843Y-48834318D01*
X150974638Y-49800020D01*
X150816024Y-50284190D01*
X150660650Y-50769374D01*
X150658214Y-50778750D01*
X150655391Y-50787937D01*
X150652188Y-50796927D01*
X150648618Y-50805712D01*
X150644690Y-50814283D01*
X150640414Y-50822634D01*
X150635802Y-50830756D01*
X150630862Y-50838642D01*
X150625606Y-50846283D01*
X150620044Y-50853672D01*
X150614186Y-50860801D01*
X150608043Y-50867662D01*
X150601624Y-50874247D01*
X150594941Y-50880548D01*
X150588003Y-50886558D01*
X150580821Y-50892268D01*
X150573405Y-50897671D01*
X150565765Y-50902759D01*
X150557912Y-50907524D01*
X150549856Y-50911958D01*
X150541607Y-50916054D01*
X150533177Y-50919803D01*
X150524574Y-50923198D01*
X150515809Y-50926230D01*
X150506893Y-50928892D01*
X150497837Y-50931176D01*
X150488649Y-50933075D01*
X150479341Y-50934580D01*
X150469923Y-50935683D01*
X150460406Y-50936377D01*
X150450799Y-50936653D01*
X150441112Y-50936505D01*
X147834396Y-51255469D01*
X147019819Y-51357809D01*
X147015101Y-51359233D01*
X147010388Y-51360385D01*
X147005679Y-51361272D01*
X147000975Y-51361902D01*
X146996273Y-51362281D01*
X146991575Y-51362415D01*
X146986879Y-51362313D01*
X146982186Y-51361980D01*
X146977493Y-51361423D01*
X146972802Y-51360650D01*
X146963421Y-51358481D01*
X146954037Y-51355528D01*
X146944647Y-51351845D01*
X146935247Y-51347488D01*
X146925834Y-51342511D01*
X146916402Y-51336969D01*
X146906949Y-51330916D01*
X146897469Y-51324409D01*
X146887960Y-51317501D01*
X146878417Y-51310247D01*
X146868836Y-51302703D01*
X146155562Y-50734546D01*
X145440525Y-50168635D01*
X145434275Y-50164730D01*
X145428284Y-50160565D01*
X145422554Y-50156152D01*
X145417088Y-50151502D01*
X145411891Y-50146627D01*
X145406966Y-50141538D01*
X145402315Y-50136247D01*
X145397942Y-50130765D01*
X145393851Y-50125104D01*
X145390043Y-50119276D01*
X145386524Y-50113291D01*
X145383296Y-50107162D01*
X145380362Y-50100900D01*
X145377725Y-50094516D01*
X145375389Y-50088022D01*
X145373358Y-50081430D01*
X145371633Y-50074751D01*
X145370219Y-50067996D01*
X145369119Y-50061177D01*
X145368336Y-50054306D01*
X145367874Y-50047394D01*
X145367735Y-50040453D01*
X145367923Y-50033494D01*
X145368441Y-50026528D01*
X145369293Y-50019568D01*
X145370481Y-50012624D01*
X145372009Y-50005709D01*
X145373388Y-50000643D01*
X145522507Y-50000643D01*
X145522707Y-50007111D01*
X145523214Y-50013547D01*
X145524024Y-50019941D01*
X145525134Y-50026281D01*
X145526541Y-50032557D01*
X145528241Y-50038757D01*
X145530232Y-50044870D01*
X145532509Y-50050884D01*
X145535070Y-50056790D01*
X145537910Y-50062575D01*
X145541028Y-50068229D01*
X145544419Y-50073741D01*
X145548080Y-50079099D01*
X145552008Y-50084292D01*
X145556199Y-50089310D01*
X145560650Y-50094141D01*
X145565359Y-50098774D01*
X145570320Y-50103197D01*
X145575532Y-50107401D01*
X145580991Y-50111373D01*
X145586693Y-50115103D01*
X145592635Y-50118580D01*
X146210475Y-50606365D01*
X146825031Y-51098300D01*
X146840197Y-51110197D01*
X146854238Y-51120413D01*
X146867233Y-51128888D01*
X146873364Y-51132455D01*
X146879262Y-51135565D01*
X146884938Y-51138212D01*
X146890401Y-51140386D01*
X146895662Y-51142082D01*
X146900731Y-51143293D01*
X146905616Y-51144009D01*
X146910329Y-51144226D01*
X146914878Y-51143935D01*
X146919274Y-51143129D01*
X146923526Y-51141800D01*
X146927645Y-51139942D01*
X146931639Y-51137547D01*
X146935519Y-51134608D01*
X146939295Y-51131118D01*
X146942977Y-51127068D01*
X146946574Y-51122453D01*
X146950096Y-51117265D01*
X146953553Y-51111497D01*
X146956955Y-51105140D01*
X146960311Y-51098189D01*
X146963632Y-51090635D01*
X146966927Y-51082472D01*
X146970207Y-51073691D01*
X146976757Y-51054252D01*
X147088772Y-50705555D01*
X147202829Y-50357508D01*
X147432933Y-49662055D01*
X147569317Y-49251382D01*
X145972106Y-49448642D01*
X145960948Y-49451893D01*
X145949688Y-49454421D01*
X145938358Y-49456231D01*
X145926991Y-49457328D01*
X145915619Y-49457720D01*
X145904275Y-49457411D01*
X145892990Y-49456408D01*
X145881798Y-49454716D01*
X145870731Y-49452342D01*
X145859820Y-49449292D01*
X145849099Y-49445571D01*
X145838600Y-49441185D01*
X145828355Y-49436141D01*
X145818396Y-49430443D01*
X145808756Y-49424099D01*
X145799468Y-49417114D01*
X145794121Y-49412052D01*
X145788972Y-49407489D01*
X145784016Y-49403416D01*
X145779246Y-49399823D01*
X145774658Y-49396699D01*
X145770246Y-49394036D01*
X145766003Y-49391822D01*
X145761924Y-49390049D01*
X145758003Y-49388705D01*
X145754235Y-49387783D01*
X145750614Y-49387271D01*
X145747134Y-49387160D01*
X145743790Y-49387440D01*
X145740576Y-49388100D01*
X145737486Y-49389132D01*
X145734514Y-49390526D01*
X145731655Y-49392271D01*
X145728904Y-49394357D01*
X145726253Y-49396775D01*
X145723698Y-49399515D01*
X145721234Y-49402568D01*
X145718853Y-49405922D01*
X145716552Y-49409569D01*
X145714323Y-49413498D01*
X145712161Y-49417699D01*
X145710061Y-49422164D01*
X145706022Y-49431842D01*
X145702161Y-49442452D01*
X145698432Y-49453916D01*
X145660695Y-49575416D01*
X145622093Y-49696674D01*
X145602141Y-49757072D01*
X145581580Y-49817243D01*
X145560279Y-49877129D01*
X145538108Y-49936676D01*
X145535058Y-49942848D01*
X145532348Y-49949099D01*
X145529974Y-49955419D01*
X145527934Y-49961796D01*
X145526224Y-49968220D01*
X145524841Y-49974678D01*
X145523781Y-49981161D01*
X145523040Y-49987657D01*
X145522617Y-49994154D01*
X145522507Y-50000643D01*
X145373388Y-50000643D01*
X145373880Y-49998834D01*
X145376098Y-49992009D01*
X145378665Y-49985248D01*
X145381586Y-49978561D01*
X145384862Y-49971960D01*
X145410628Y-49899238D01*
X145435220Y-49826081D01*
X145482606Y-49679110D01*
X145530476Y-49532341D01*
X145555671Y-49459438D01*
X145582281Y-49387071D01*
X145585761Y-49380043D01*
X145588850Y-49372924D01*
X145591552Y-49365727D01*
X145593871Y-49358465D01*
X145595811Y-49351151D01*
X145597375Y-49343797D01*
X145598568Y-49336416D01*
X145599393Y-49329021D01*
X145599855Y-49321626D01*
X145599957Y-49314242D01*
X145599704Y-49306882D01*
X145599099Y-49299560D01*
X145598146Y-49292289D01*
X145596849Y-49285080D01*
X145595212Y-49277948D01*
X145593239Y-49270904D01*
X145590934Y-49263962D01*
X145588301Y-49257134D01*
X145585343Y-49250433D01*
X145582065Y-49243873D01*
X145578471Y-49237465D01*
X145574564Y-49231223D01*
X145570349Y-49225160D01*
X145565829Y-49219288D01*
X145561008Y-49213620D01*
X145555890Y-49208170D01*
X145550480Y-49202949D01*
X145544781Y-49197971D01*
X145538796Y-49193249D01*
X145532531Y-49188794D01*
X145525988Y-49184622D01*
X145519172Y-49180743D01*
X144379010Y-48280437D01*
X144371005Y-48275765D01*
X144363312Y-48270758D01*
X144355938Y-48265430D01*
X144348885Y-48259796D01*
X144342160Y-48253869D01*
X144335765Y-48247664D01*
X144329706Y-48241195D01*
X144323987Y-48234476D01*
X144318613Y-48227522D01*
X144313588Y-48220346D01*
X144308918Y-48212963D01*
X144304605Y-48205387D01*
X144300656Y-48197632D01*
X144297074Y-48189713D01*
X144293864Y-48181644D01*
X144291031Y-48173438D01*
X144288579Y-48165111D01*
X144286512Y-48156676D01*
X144284836Y-48148148D01*
X144283555Y-48139540D01*
X144282673Y-48130868D01*
X144282194Y-48122145D01*
X144282125Y-48113385D01*
X144282468Y-48104603D01*
X144283228Y-48095813D01*
X144284411Y-48087029D01*
X144286020Y-48078266D01*
X144288061Y-48069537D01*
X144290537Y-48060856D01*
X144293453Y-48052239D01*
X144293775Y-48051419D01*
X144458756Y-48051419D01*
X144458858Y-48068242D01*
X144460146Y-48084343D01*
X144462656Y-48099837D01*
X144466422Y-48114839D01*
X144471480Y-48129465D01*
X144477864Y-48143830D01*
X144485610Y-48158049D01*
X144494752Y-48172238D01*
X144505326Y-48186513D01*
X144517367Y-48200987D01*
X144530909Y-48215778D01*
X144545988Y-48231000D01*
X144580896Y-48263198D01*
X144622370Y-48298506D01*
X144726137Y-48382141D01*
X145830977Y-49259917D01*
X145835686Y-49252152D01*
X145840257Y-49244307D01*
X145844687Y-49236384D01*
X145848976Y-49228385D01*
X145853123Y-49220310D01*
X145857127Y-49212163D01*
X145860985Y-49203945D01*
X145864698Y-49195659D01*
X145995497Y-48798098D01*
X149603736Y-48798098D01*
X149604052Y-48803203D01*
X149604744Y-48807908D01*
X149605801Y-48812225D01*
X149607210Y-48816168D01*
X149608959Y-48819752D01*
X149611038Y-48822989D01*
X149613433Y-48825895D01*
X149616134Y-48828482D01*
X149619128Y-48830764D01*
X149622404Y-48832756D01*
X149625949Y-48834470D01*
X149629753Y-48835922D01*
X149633803Y-48837124D01*
X149638087Y-48838090D01*
X149642593Y-48838835D01*
X149647311Y-48839371D01*
X149652227Y-48839714D01*
X149662609Y-48839871D01*
X149673645Y-48839417D01*
X149685241Y-48838463D01*
X149697302Y-48837118D01*
X151080234Y-48667190D01*
X149940763Y-47760716D01*
X149774634Y-48264490D01*
X149613044Y-48749966D01*
X149610397Y-48758266D01*
X149608209Y-48766069D01*
X149606468Y-48773387D01*
X149605161Y-48780236D01*
X149604279Y-48786628D01*
X149603807Y-48792577D01*
X149603736Y-48798098D01*
X145995497Y-48798098D01*
X146166381Y-48278701D01*
X146472225Y-47363161D01*
X146474905Y-47354819D01*
X146477152Y-47346825D01*
X146478978Y-47339167D01*
X146480395Y-47331829D01*
X146481417Y-47324799D01*
X146482055Y-47318064D01*
X146482323Y-47311608D01*
X146482233Y-47305420D01*
X146481798Y-47299485D01*
X146481030Y-47293789D01*
X146479941Y-47288319D01*
X146478545Y-47283061D01*
X146476853Y-47278002D01*
X146474879Y-47273128D01*
X146472635Y-47268426D01*
X146470134Y-47263881D01*
X146467388Y-47259480D01*
X146464409Y-47255210D01*
X146457805Y-47247006D01*
X146450423Y-47239161D01*
X146442363Y-47231565D01*
X146433727Y-47224109D01*
X146424613Y-47216685D01*
X146405359Y-47201494D01*
X145786849Y-46712513D01*
X145478386Y-46467043D01*
X145171475Y-46219664D01*
X145162713Y-46212697D01*
X145154375Y-46206384D01*
X145146445Y-46200715D01*
X145138909Y-46195680D01*
X145131751Y-46191269D01*
X145124955Y-46187470D01*
X145118506Y-46184274D01*
X145112388Y-46181670D01*
X145106587Y-46179648D01*
X145101086Y-46178197D01*
X145095871Y-46177307D01*
X145090926Y-46176968D01*
X145086235Y-46177169D01*
X145081783Y-46177900D01*
X145077556Y-46179150D01*
X145073536Y-46180910D01*
X145069709Y-46183167D01*
X145066060Y-46185913D01*
X145062573Y-46189137D01*
X145059233Y-46192829D01*
X145056024Y-46196977D01*
X145052931Y-46201572D01*
X145049938Y-46206603D01*
X145047031Y-46212060D01*
X145041409Y-46224210D01*
X145035944Y-46237939D01*
X145030510Y-46253163D01*
X145024985Y-46269799D01*
X144782317Y-47010880D01*
X144537348Y-47751208D01*
X144496459Y-47876987D01*
X144481104Y-47928851D01*
X144469516Y-47974596D01*
X144465221Y-47995462D01*
X144461973Y-48015145D01*
X144459806Y-48033759D01*
X144458756Y-48051419D01*
X144293775Y-48051419D01*
X144296814Y-48043699D01*
X144300624Y-48035250D01*
X144624918Y-47069330D01*
X144939944Y-46100300D01*
X144941930Y-46091838D01*
X144944264Y-46083535D01*
X144946939Y-46075398D01*
X144947760Y-46073224D01*
X145243487Y-46073224D01*
X145249444Y-46081150D01*
X145255546Y-46088963D01*
X145261790Y-46096660D01*
X145268175Y-46104239D01*
X145274700Y-46111698D01*
X145281362Y-46119036D01*
X145288161Y-46126250D01*
X145295094Y-46133339D01*
X145917814Y-46628511D01*
X146539467Y-47125003D01*
X146550816Y-47132394D01*
X146562494Y-47139104D01*
X146574472Y-47145127D01*
X146586718Y-47150458D01*
X146599203Y-47155093D01*
X146611897Y-47159026D01*
X146624769Y-47162253D01*
X146637789Y-47164769D01*
X146650928Y-47166568D01*
X146664155Y-47167645D01*
X146677439Y-47167997D01*
X146690751Y-47167617D01*
X146704061Y-47166501D01*
X146717338Y-47164643D01*
X146730553Y-47162040D01*
X146743674Y-47158685D01*
X148413630Y-46949318D01*
X149958202Y-46757326D01*
X149958202Y-46757313D01*
X149956420Y-46751730D01*
X149954479Y-46746390D01*
X149952385Y-46741283D01*
X149950146Y-46736399D01*
X149947771Y-46731729D01*
X149945265Y-46727263D01*
X149942638Y-46722992D01*
X149939895Y-46718906D01*
X149937045Y-46714995D01*
X149934095Y-46711249D01*
X149931053Y-46707659D01*
X149927926Y-46704216D01*
X149921446Y-46697728D01*
X149914716Y-46691709D01*
X149907796Y-46686082D01*
X149900745Y-46680768D01*
X149886490Y-46670774D01*
X149872430Y-46661108D01*
X149865622Y-46656204D01*
X149859042Y-46651150D01*
X149284573Y-46194394D01*
X148997637Y-45965666D01*
X148712041Y-45735303D01*
X148698471Y-45724638D01*
X148684401Y-45714812D01*
X148669870Y-45705834D01*
X148654918Y-45697713D01*
X148639581Y-45690460D01*
X148623900Y-45684085D01*
X148607912Y-45678596D01*
X148591656Y-45674004D01*
X148575171Y-45670319D01*
X148558496Y-45667550D01*
X148541669Y-45665707D01*
X148524728Y-45664801D01*
X148507713Y-45664839D01*
X148490661Y-45665834D01*
X148473612Y-45667793D01*
X148456604Y-45670727D01*
X146526186Y-45911622D01*
X145243487Y-46073224D01*
X144947760Y-46073224D01*
X144949946Y-46067435D01*
X144953275Y-46059651D01*
X144956917Y-46052056D01*
X144960865Y-46044655D01*
X144965108Y-46037457D01*
X144969638Y-46030467D01*
X144974447Y-46023694D01*
X144979525Y-46017145D01*
X144984863Y-46010826D01*
X144990453Y-46004745D01*
X144996286Y-45998910D01*
X145002353Y-45993326D01*
X145008645Y-45988002D01*
X145015154Y-45982945D01*
X145021870Y-45978162D01*
X145028784Y-45973659D01*
X145035888Y-45969445D01*
X145043173Y-45965526D01*
X145050630Y-45961909D01*
X145058250Y-45958603D01*
X145066024Y-45955613D01*
X145073944Y-45952947D01*
X145082000Y-45950613D01*
X145090184Y-45948616D01*
X145098487Y-45946966D01*
X145106901Y-45945668D01*
X145115415Y-45944731D01*
X145124021Y-45944160D01*
X145132711Y-45943964D01*
X146666769Y-45760433D01*
X147433097Y-45663677D01*
X148198062Y-45557605D01*
X148253612Y-45548089D01*
X148309265Y-45542040D01*
X148364872Y-45539415D01*
X148420286Y-45540173D01*
G37*
G36*
X138288154Y-64979207D02*
G01*
X138296483Y-64980022D01*
X138304748Y-64981268D01*
X138312932Y-64982941D01*
X138321018Y-64985037D01*
X138328989Y-64987552D01*
X138336828Y-64990481D01*
X138344519Y-64993823D01*
X138352044Y-64997571D01*
X138359388Y-65001723D01*
X138366532Y-65006274D01*
X138373461Y-65011222D01*
X139326324Y-65519961D01*
X140282589Y-66022368D01*
X140289808Y-66025264D01*
X140296821Y-66028466D01*
X140303622Y-66031963D01*
X140310206Y-66035745D01*
X140316567Y-66039802D01*
X140322700Y-66044123D01*
X140328599Y-66048699D01*
X140334259Y-66053518D01*
X140339675Y-66058571D01*
X140344842Y-66063848D01*
X140349753Y-66069337D01*
X140354403Y-66075029D01*
X140358788Y-66080914D01*
X140362901Y-66086981D01*
X140366737Y-66093221D01*
X140370291Y-66099622D01*
X140373558Y-66106174D01*
X140376531Y-66112867D01*
X140379206Y-66119692D01*
X140381577Y-66126637D01*
X140383639Y-66133692D01*
X140385386Y-66140848D01*
X140386813Y-66148093D01*
X140387915Y-66155418D01*
X140388685Y-66162812D01*
X140389120Y-66170266D01*
X140389212Y-66177768D01*
X140388958Y-66185308D01*
X140388351Y-66192877D01*
X140387386Y-66200463D01*
X140386057Y-66208057D01*
X140384360Y-66215649D01*
X140351254Y-66553978D01*
X140320612Y-66892567D01*
X140289361Y-67231080D01*
X140254428Y-67569183D01*
X140252492Y-67578142D01*
X140250993Y-67587100D01*
X140249925Y-67596045D01*
X140249281Y-67604965D01*
X140249055Y-67613848D01*
X140249240Y-67622681D01*
X140249829Y-67631453D01*
X140250817Y-67640152D01*
X140252195Y-67648764D01*
X140253959Y-67657278D01*
X140256100Y-67665682D01*
X140258614Y-67673964D01*
X140261492Y-67682111D01*
X140264728Y-67690112D01*
X140272250Y-67705623D01*
X140281126Y-67720402D01*
X140286055Y-67727485D01*
X140291304Y-67734349D01*
X140296864Y-67740981D01*
X140302730Y-67747369D01*
X140308895Y-67753500D01*
X140315353Y-67759363D01*
X140322096Y-67764945D01*
X140329119Y-67770235D01*
X140336414Y-67775219D01*
X140343976Y-67779886D01*
X140351797Y-67784223D01*
X140359871Y-67788219D01*
X140368191Y-67791861D01*
X140376751Y-67795137D01*
X143954491Y-69687365D01*
X144097755Y-69763969D01*
X144155514Y-69796749D01*
X144204779Y-69827251D01*
X144226403Y-69841977D01*
X144246115Y-69856529D01*
X144263986Y-69871038D01*
X144280087Y-69885636D01*
X144294489Y-69900455D01*
X144307262Y-69915625D01*
X144318476Y-69931279D01*
X144328204Y-69947549D01*
X144336514Y-69964566D01*
X144343478Y-69982461D01*
X144349167Y-70001366D01*
X144353651Y-70021413D01*
X144357002Y-70042734D01*
X144359288Y-70065460D01*
X144360583Y-70089722D01*
X144360955Y-70115653D01*
X144359216Y-70173047D01*
X144354638Y-70238694D01*
X144339224Y-70398959D01*
X144282420Y-70983400D01*
X144227548Y-71568018D01*
X144225100Y-71577459D01*
X144222284Y-71586767D01*
X144219103Y-71595933D01*
X144215566Y-71604946D01*
X144211677Y-71613797D01*
X144207444Y-71622475D01*
X144202871Y-71630972D01*
X144197966Y-71639276D01*
X144192734Y-71647379D01*
X144187182Y-71655270D01*
X144181315Y-71662939D01*
X144175140Y-71670377D01*
X144168663Y-71677574D01*
X144161889Y-71684519D01*
X144154826Y-71691203D01*
X144147479Y-71697617D01*
X143532416Y-72380797D01*
X143225796Y-72723184D01*
X142921173Y-73067324D01*
X142913871Y-73075390D01*
X142906666Y-73082850D01*
X142899550Y-73089719D01*
X142892515Y-73096011D01*
X142885554Y-73101739D01*
X142878658Y-73106918D01*
X142871820Y-73111563D01*
X142865031Y-73115686D01*
X142858285Y-73119303D01*
X142851573Y-73122426D01*
X142844888Y-73125071D01*
X142838221Y-73127251D01*
X142831565Y-73128981D01*
X142824912Y-73130273D01*
X142818255Y-73131144D01*
X142811585Y-73131606D01*
X142804894Y-73131673D01*
X142798175Y-73131361D01*
X142791421Y-73130682D01*
X142784622Y-73129651D01*
X142777772Y-73128282D01*
X142770862Y-73126588D01*
X142756834Y-73122286D01*
X142742474Y-73116857D01*
X142727720Y-73110413D01*
X142712509Y-73103067D01*
X142696780Y-73094931D01*
X137605830Y-70396538D01*
X137142526Y-70149068D01*
X136910152Y-70026785D01*
X136676128Y-69907824D01*
X136667067Y-69904280D01*
X136658268Y-69900345D01*
X136649738Y-69896032D01*
X136641483Y-69891356D01*
X136633511Y-69886328D01*
X136625828Y-69880964D01*
X136618442Y-69875275D01*
X136611359Y-69869275D01*
X136604587Y-69862978D01*
X136598132Y-69856397D01*
X136592002Y-69849546D01*
X136586202Y-69842437D01*
X136580741Y-69835083D01*
X136575625Y-69827499D01*
X136570861Y-69819698D01*
X136566456Y-69811693D01*
X136562417Y-69803497D01*
X136558751Y-69795123D01*
X136555465Y-69786585D01*
X136552566Y-69777897D01*
X136550060Y-69769071D01*
X136547955Y-69760122D01*
X136546258Y-69751061D01*
X136544976Y-69741903D01*
X136544115Y-69732661D01*
X136543682Y-69723348D01*
X136543685Y-69713978D01*
X136544131Y-69704564D01*
X136545026Y-69695119D01*
X136546377Y-69685656D01*
X136548191Y-69676190D01*
X136550476Y-69666733D01*
X136552266Y-69648173D01*
X136684931Y-69648173D01*
X136685223Y-69656962D01*
X136685906Y-69665688D01*
X136686974Y-69674339D01*
X136688421Y-69682904D01*
X136690240Y-69691371D01*
X136694971Y-69707966D01*
X136701118Y-69724033D01*
X136708631Y-69739479D01*
X136717459Y-69754213D01*
X136727553Y-69768142D01*
X136738863Y-69781175D01*
X136744959Y-69787327D01*
X136751340Y-69793220D01*
X136758001Y-69798843D01*
X136764934Y-69804185D01*
X136772134Y-69809233D01*
X136779594Y-69813977D01*
X136787309Y-69818405D01*
X136795272Y-69822506D01*
X136803477Y-69826267D01*
X136811917Y-69829678D01*
X142614882Y-72898714D01*
X142634182Y-72908655D01*
X142651993Y-72917121D01*
X142668368Y-72923999D01*
X142676032Y-72926807D01*
X142683356Y-72929175D01*
X142690345Y-72931090D01*
X142697007Y-72932537D01*
X142703348Y-72933502D01*
X142709373Y-72933971D01*
X142715089Y-72933929D01*
X142720503Y-72933363D01*
X142725621Y-72932258D01*
X142730448Y-72930601D01*
X142734992Y-72928376D01*
X142739259Y-72925571D01*
X142743254Y-72922170D01*
X142746985Y-72918159D01*
X142750458Y-72913525D01*
X142753678Y-72908253D01*
X142756653Y-72902329D01*
X142759388Y-72895739D01*
X142761890Y-72888469D01*
X142764165Y-72880504D01*
X142766219Y-72871831D01*
X142767862Y-72863444D01*
X142915697Y-72863444D01*
X144055378Y-71595665D01*
X144060740Y-71588787D01*
X144065790Y-71581709D01*
X144070523Y-71574444D01*
X144074936Y-71567002D01*
X144079024Y-71559394D01*
X144082784Y-71551631D01*
X144086212Y-71543723D01*
X144089303Y-71535682D01*
X144092054Y-71527519D01*
X144094461Y-71519243D01*
X144096520Y-71510867D01*
X144098228Y-71502401D01*
X144099579Y-71493855D01*
X144100570Y-71485241D01*
X144101198Y-71476570D01*
X144101458Y-71467851D01*
X144218579Y-70182669D01*
X144177954Y-70223296D01*
X144144092Y-70256860D01*
X144115155Y-70286088D01*
X144101957Y-70299929D01*
X144089301Y-70313709D01*
X143673558Y-70781527D01*
X143464266Y-71014068D01*
X143358305Y-71129083D01*
X143251102Y-71242910D01*
X143224674Y-71269539D01*
X143199657Y-71297292D01*
X143176077Y-71326111D01*
X143153960Y-71355938D01*
X143133333Y-71386716D01*
X143114221Y-71418387D01*
X143096651Y-71450894D01*
X143080648Y-71484179D01*
X143066238Y-71518185D01*
X143053449Y-71552852D01*
X143042305Y-71588125D01*
X143032832Y-71623945D01*
X143025058Y-71660255D01*
X143019007Y-71696997D01*
X143014706Y-71734113D01*
X143012182Y-71771546D01*
X143004598Y-71903531D01*
X142994937Y-72035866D01*
X142970979Y-72303457D01*
X142915697Y-72863444D01*
X142767862Y-72863444D01*
X142768059Y-72862435D01*
X142769691Y-72852301D01*
X142771122Y-72841417D01*
X142773403Y-72817339D01*
X142796554Y-72524795D01*
X142822465Y-72232472D01*
X142851136Y-71940370D01*
X142882567Y-71648487D01*
X142884725Y-71639515D01*
X142886440Y-71630534D01*
X142887719Y-71621556D01*
X142888569Y-71612594D01*
X142888995Y-71603660D01*
X142889005Y-71594768D01*
X142888604Y-71585929D01*
X142887800Y-71577156D01*
X142886598Y-71568461D01*
X142885005Y-71559857D01*
X142883028Y-71551356D01*
X142880673Y-71542971D01*
X142877946Y-71534715D01*
X142874855Y-71526600D01*
X142867601Y-71510841D01*
X142858965Y-71495797D01*
X142854144Y-71488573D01*
X142848997Y-71481565D01*
X142843530Y-71474786D01*
X142837750Y-71468247D01*
X142831662Y-71461962D01*
X142825273Y-71455942D01*
X142818591Y-71450201D01*
X142811620Y-71444751D01*
X142804368Y-71439604D01*
X142796842Y-71434773D01*
X142789047Y-71430270D01*
X142780990Y-71426108D01*
X142772677Y-71422300D01*
X142764116Y-71418857D01*
X138911657Y-69385889D01*
X138901669Y-69382051D01*
X138891957Y-69377789D01*
X138882529Y-69373118D01*
X138873393Y-69368053D01*
X138864556Y-69362605D01*
X138856026Y-69356791D01*
X138847811Y-69350623D01*
X138839917Y-69344115D01*
X138832354Y-69337282D01*
X138825127Y-69330137D01*
X138818246Y-69322694D01*
X138811718Y-69314967D01*
X138805550Y-69306970D01*
X138799749Y-69298717D01*
X138794325Y-69290222D01*
X138789283Y-69281498D01*
X138784632Y-69272560D01*
X138780380Y-69263421D01*
X138776534Y-69254096D01*
X138773101Y-69244598D01*
X138770090Y-69234941D01*
X138767508Y-69225139D01*
X138765362Y-69215206D01*
X138763661Y-69205156D01*
X138762411Y-69195003D01*
X138761621Y-69184760D01*
X138761298Y-69174442D01*
X138761449Y-69164063D01*
X138762083Y-69153636D01*
X138763207Y-69143175D01*
X138764828Y-69132694D01*
X138766955Y-69122208D01*
X138775499Y-69035064D01*
X138927506Y-69035064D01*
X139363520Y-68541780D01*
X139469151Y-68423618D01*
X139574984Y-68307703D01*
X139681795Y-68194128D01*
X139790359Y-68082983D01*
X139832147Y-68043120D01*
X139871598Y-68001330D01*
X139908666Y-67957717D01*
X139943303Y-67912388D01*
X139975463Y-67865448D01*
X140005099Y-67817001D01*
X140032163Y-67767152D01*
X140056609Y-67716008D01*
X140078389Y-67663673D01*
X140097457Y-67610253D01*
X140113765Y-67555852D01*
X140127267Y-67500577D01*
X140137916Y-67444531D01*
X140145663Y-67387821D01*
X140150464Y-67330551D01*
X140152269Y-67272828D01*
X140154956Y-67161626D01*
X140161099Y-67049958D01*
X140169993Y-66937331D01*
X140180931Y-66823250D01*
X140206121Y-66588752D01*
X140231023Y-66342515D01*
X139098716Y-67603676D01*
X139092264Y-67612134D01*
X139086198Y-67620831D01*
X139080521Y-67629754D01*
X139075240Y-67638888D01*
X139070357Y-67648222D01*
X139065878Y-67657741D01*
X139061808Y-67667431D01*
X139058151Y-67677281D01*
X139054912Y-67687275D01*
X139052095Y-67697401D01*
X139049706Y-67707646D01*
X139047748Y-67717995D01*
X139046226Y-67728436D01*
X139045146Y-67738956D01*
X139044511Y-67749540D01*
X139044327Y-67760176D01*
X138927506Y-69035064D01*
X138775499Y-69035064D01*
X138898083Y-67784739D01*
X138899590Y-67777101D01*
X138900723Y-67769471D01*
X138901488Y-67761859D01*
X138901891Y-67754275D01*
X138901937Y-67746731D01*
X138901633Y-67739235D01*
X138900984Y-67731799D01*
X138899997Y-67724434D01*
X138898677Y-67717148D01*
X138897031Y-67709953D01*
X138895063Y-67702859D01*
X138892780Y-67695876D01*
X138890189Y-67689015D01*
X138887294Y-67682286D01*
X138884102Y-67675699D01*
X138880618Y-67669265D01*
X138876849Y-67662994D01*
X138872801Y-67656896D01*
X138868478Y-67650981D01*
X138863888Y-67645261D01*
X138859036Y-67639745D01*
X138853928Y-67634444D01*
X138848570Y-67629367D01*
X138842968Y-67624526D01*
X138837128Y-67619931D01*
X138831055Y-67615592D01*
X138824755Y-67611519D01*
X138818235Y-67607723D01*
X138811501Y-67604214D01*
X138804557Y-67601002D01*
X138797411Y-67598098D01*
X138790068Y-67595512D01*
X138642476Y-67519551D01*
X138495712Y-67441947D01*
X138202698Y-67285715D01*
X137040659Y-66673451D01*
X137029358Y-66670339D01*
X137019035Y-66668130D01*
X137009648Y-66666781D01*
X137001157Y-66666248D01*
X136993518Y-66666488D01*
X136986692Y-66667456D01*
X136980636Y-66669109D01*
X136975309Y-66671403D01*
X136970669Y-66674293D01*
X136966675Y-66677737D01*
X136963286Y-66681691D01*
X136960460Y-66686110D01*
X136958155Y-66690950D01*
X136956331Y-66696169D01*
X136954945Y-66701722D01*
X136953956Y-66707565D01*
X136953322Y-66713654D01*
X136953003Y-66719946D01*
X136953140Y-66732963D01*
X136954036Y-66746265D01*
X136955358Y-66759501D01*
X136957955Y-66784373D01*
X136958565Y-66795308D01*
X136958553Y-66800247D01*
X136958274Y-66804775D01*
X136689557Y-69603683D01*
X136687799Y-69612616D01*
X136686464Y-69621542D01*
X136685545Y-69630452D01*
X136685036Y-69639333D01*
X136684931Y-69648173D01*
X136552266Y-69648173D01*
X136695847Y-68159430D01*
X136833191Y-66651337D01*
X136834782Y-66632273D01*
X136837196Y-66613361D01*
X136840425Y-66594627D01*
X136844456Y-66576094D01*
X136849280Y-66557787D01*
X136854886Y-66539731D01*
X136861262Y-66521952D01*
X136868399Y-66504472D01*
X136876285Y-66487318D01*
X136884910Y-66470513D01*
X136894263Y-66454083D01*
X136904334Y-66438051D01*
X136915111Y-66422444D01*
X136926583Y-66407285D01*
X136938741Y-66392599D01*
X136951574Y-66378412D01*
X137250400Y-66049756D01*
X137547918Y-65719905D01*
X137844127Y-65388859D01*
X138139025Y-65056619D01*
X138143606Y-65049444D01*
X138148534Y-65042555D01*
X138153797Y-65035963D01*
X138159379Y-65029677D01*
X138165266Y-65023706D01*
X138171445Y-65018062D01*
X138177901Y-65012753D01*
X138184619Y-65007790D01*
X138191587Y-65003183D01*
X138198789Y-64998942D01*
X138206211Y-64995076D01*
X138213840Y-64991595D01*
X138221661Y-64988510D01*
X138229660Y-64985830D01*
X138237822Y-64983566D01*
X138246134Y-64981727D01*
X138254532Y-64980330D01*
X138262950Y-64979384D01*
X138271371Y-64978884D01*
X138279778Y-64978826D01*
X138288154Y-64979207D01*
G37*
G36*
X149236602Y-58009867D02*
G01*
X149252757Y-58011186D01*
X149267814Y-58013194D01*
X149281854Y-58015942D01*
X149294960Y-58019483D01*
X149307215Y-58023871D01*
X149318699Y-58029158D01*
X149329496Y-58035397D01*
X149339688Y-58042639D01*
X149349357Y-58050938D01*
X149358586Y-58060347D01*
X149367457Y-58070918D01*
X149376051Y-58082704D01*
X149384452Y-58095757D01*
X149392741Y-58110130D01*
X149401001Y-58125876D01*
X149417763Y-58161697D01*
X149435395Y-58203640D01*
X149475905Y-58307579D01*
X149776853Y-59093579D01*
X149928537Y-59486097D01*
X150082419Y-59877741D01*
X150090407Y-59897231D01*
X150097169Y-59917036D01*
X150102708Y-59937103D01*
X150107026Y-59957376D01*
X150110128Y-59977800D01*
X150112015Y-59998322D01*
X150112691Y-60018887D01*
X150112159Y-60039439D01*
X150110422Y-60059924D01*
X150107483Y-60080289D01*
X150103345Y-60100477D01*
X150098010Y-60120435D01*
X150091483Y-60140108D01*
X150083766Y-60159441D01*
X150074861Y-60178379D01*
X150064773Y-60196869D01*
X149913860Y-60492661D01*
X149765193Y-60789621D01*
X149619310Y-61087940D01*
X149476751Y-61387811D01*
X149472496Y-61399718D01*
X149467777Y-61411353D01*
X149462607Y-61422705D01*
X149457000Y-61433767D01*
X149450968Y-61444530D01*
X149444523Y-61454986D01*
X149437680Y-61465125D01*
X149430450Y-61474938D01*
X149422847Y-61484419D01*
X149414884Y-61493557D01*
X149406573Y-61502343D01*
X149397928Y-61510771D01*
X149388960Y-61518830D01*
X149379684Y-61526512D01*
X149370112Y-61533808D01*
X149360257Y-61540711D01*
X149350132Y-61547210D01*
X149339749Y-61553298D01*
X149329122Y-61558966D01*
X149318263Y-61564206D01*
X149307186Y-61569007D01*
X149295903Y-61573363D01*
X149284427Y-61577264D01*
X149272771Y-61580702D01*
X149260948Y-61583667D01*
X149248971Y-61586153D01*
X149236853Y-61588148D01*
X149224606Y-61589646D01*
X149212244Y-61590637D01*
X149199779Y-61591113D01*
X149187224Y-61591066D01*
X149174593Y-61590485D01*
X149086109Y-61592941D01*
X148997419Y-61597792D01*
X148908277Y-61604544D01*
X148818438Y-61612704D01*
X148447179Y-61649547D01*
X148526397Y-61864034D01*
X148545327Y-61914246D01*
X148564600Y-61963388D01*
X148584562Y-62011604D01*
X148605561Y-62059042D01*
X148613354Y-62076726D01*
X148619972Y-62094736D01*
X148625416Y-62113018D01*
X148629691Y-62131516D01*
X148632797Y-62150176D01*
X148634740Y-62168942D01*
X148635520Y-62187759D01*
X148635141Y-62206573D01*
X148633606Y-62225327D01*
X148630918Y-62243968D01*
X148627079Y-62262439D01*
X148622092Y-62280687D01*
X148615960Y-62298655D01*
X148608686Y-62316289D01*
X148600273Y-62333533D01*
X148590722Y-62350334D01*
X148430586Y-62667398D01*
X148272141Y-62985316D01*
X148115388Y-63304087D01*
X147960325Y-63623711D01*
X147957402Y-63630872D01*
X147954223Y-63637873D01*
X147950796Y-63644709D01*
X147947126Y-63651376D01*
X147943221Y-63657869D01*
X147939087Y-63664183D01*
X147934731Y-63670314D01*
X147930159Y-63676258D01*
X147925379Y-63682010D01*
X147920396Y-63687565D01*
X147915218Y-63692919D01*
X147909852Y-63698067D01*
X147904304Y-63703005D01*
X147898580Y-63707728D01*
X147892687Y-63712231D01*
X147886633Y-63716511D01*
X147880424Y-63720562D01*
X147874066Y-63724380D01*
X147867566Y-63727961D01*
X147860932Y-63731299D01*
X147854168Y-63734391D01*
X147847283Y-63737231D01*
X147840283Y-63739816D01*
X147833175Y-63742140D01*
X147825965Y-63744200D01*
X147818660Y-63745990D01*
X147811267Y-63747506D01*
X147803793Y-63748743D01*
X147796243Y-63749698D01*
X147788625Y-63750364D01*
X147780946Y-63750739D01*
X147773212Y-63750817D01*
X146741084Y-63835361D01*
X145709491Y-63926502D01*
X145690565Y-63927775D01*
X145673089Y-63927946D01*
X145664867Y-63927615D01*
X145656975Y-63927003D01*
X145649401Y-63926111D01*
X145642134Y-63924936D01*
X145635163Y-63923477D01*
X145628476Y-63921733D01*
X145622064Y-63919702D01*
X145615914Y-63917382D01*
X145610015Y-63914773D01*
X145604357Y-63911873D01*
X145598927Y-63908680D01*
X145593716Y-63905194D01*
X145588712Y-63901412D01*
X145583903Y-63897334D01*
X145579279Y-63892958D01*
X145574829Y-63888282D01*
X145570541Y-63883305D01*
X145566404Y-63878025D01*
X145558539Y-63866554D01*
X145551146Y-63853857D01*
X145544135Y-63839923D01*
X145537418Y-63824739D01*
X145530905Y-63808296D01*
X144875714Y-62091297D01*
X144868372Y-62072643D01*
X144860812Y-62055534D01*
X144852937Y-62039944D01*
X144848851Y-62032708D01*
X144844650Y-62025841D01*
X144840323Y-62019339D01*
X144835856Y-62013198D01*
X144831238Y-62007416D01*
X144826457Y-62001987D01*
X144821500Y-61996909D01*
X144816356Y-61992177D01*
X144811013Y-61987790D01*
X144805458Y-61983742D01*
X144799679Y-61980030D01*
X144793665Y-61976650D01*
X144787402Y-61973600D01*
X144780880Y-61970875D01*
X144774086Y-61968472D01*
X144767008Y-61966387D01*
X144759634Y-61964617D01*
X144751952Y-61963158D01*
X144743949Y-61962006D01*
X144735614Y-61961158D01*
X144726935Y-61960610D01*
X144717899Y-61960359D01*
X144708494Y-61960401D01*
X144698709Y-61960732D01*
X144677949Y-61962249D01*
X142722759Y-62137604D01*
X142714908Y-62139343D01*
X142707016Y-62140673D01*
X142699096Y-62141597D01*
X142691166Y-62142117D01*
X142683238Y-62142235D01*
X142675329Y-62141954D01*
X142667454Y-62141277D01*
X142659628Y-62140206D01*
X142651865Y-62138742D01*
X142644181Y-62136890D01*
X142636590Y-62134650D01*
X142629109Y-62132026D01*
X142621751Y-62129021D01*
X142614532Y-62125635D01*
X142607468Y-62121873D01*
X142600572Y-62117736D01*
X142593897Y-62113252D01*
X142587490Y-62108456D01*
X142581358Y-62103359D01*
X142575511Y-62097976D01*
X142569956Y-62092318D01*
X142564704Y-62086399D01*
X142559762Y-62080229D01*
X142555138Y-62073824D01*
X142550843Y-62067194D01*
X142546883Y-62060352D01*
X142543269Y-62053312D01*
X142540008Y-62046085D01*
X142537109Y-62038685D01*
X142534581Y-62031123D01*
X142532432Y-62023413D01*
X142530671Y-62015568D01*
X142184861Y-61106283D01*
X141833451Y-60199126D01*
X141828528Y-60186645D01*
X141824369Y-60173975D01*
X141820972Y-60161150D01*
X141818335Y-60148203D01*
X141816457Y-60135167D01*
X141815335Y-60122074D01*
X141815119Y-60114324D01*
X141955557Y-60114324D01*
X141955861Y-60122906D01*
X141956631Y-60131465D01*
X141957867Y-60139981D01*
X141959569Y-60148435D01*
X141961736Y-60156808D01*
X141964368Y-60165079D01*
X141967465Y-60173230D01*
X141971028Y-60181240D01*
X142631987Y-61900247D01*
X142632346Y-61899523D01*
X144953059Y-61899523D01*
X144953231Y-61907187D01*
X144953814Y-61914835D01*
X144954809Y-61922451D01*
X144956216Y-61930019D01*
X144958035Y-61937520D01*
X144960266Y-61944938D01*
X144962909Y-61952256D01*
X144965964Y-61959458D01*
X145628849Y-63685753D01*
X145648550Y-63648724D01*
X145654999Y-63636515D01*
X145660336Y-63626037D01*
X146237173Y-62463397D01*
X146241696Y-62453718D01*
X146245642Y-62443855D01*
X146249012Y-62433833D01*
X146251804Y-62423677D01*
X146254018Y-62413412D01*
X146255654Y-62403062D01*
X146256711Y-62392652D01*
X146257189Y-62382207D01*
X146257087Y-62371752D01*
X146256405Y-62361310D01*
X146255143Y-62350908D01*
X146253300Y-62340569D01*
X146250876Y-62330319D01*
X146247869Y-62320181D01*
X146244281Y-62310182D01*
X146240109Y-62300345D01*
X145583962Y-60594307D01*
X145583962Y-60594310D01*
X144966505Y-61839709D01*
X144963385Y-61846882D01*
X144960675Y-61854176D01*
X144958377Y-61861574D01*
X144956491Y-61869058D01*
X144955015Y-61876612D01*
X144953952Y-61884219D01*
X144953300Y-61891862D01*
X144953059Y-61899523D01*
X142632346Y-61899523D01*
X143249878Y-60654477D01*
X143253294Y-60644399D01*
X143256103Y-60634203D01*
X143258307Y-60623912D01*
X143259910Y-60613553D01*
X143260914Y-60603153D01*
X143261321Y-60592735D01*
X143261134Y-60582328D01*
X143260357Y-60571955D01*
X143258991Y-60561644D01*
X143257039Y-60551419D01*
X143254505Y-60541307D01*
X143251389Y-60531333D01*
X143247697Y-60521524D01*
X143243429Y-60511904D01*
X143238589Y-60502500D01*
X143233179Y-60493338D01*
X142946067Y-59744836D01*
X142585469Y-58805240D01*
X141969914Y-60047160D01*
X141966485Y-60055229D01*
X141963524Y-60063430D01*
X141961029Y-60071743D01*
X141959002Y-60080151D01*
X141957441Y-60088632D01*
X141956347Y-60097167D01*
X141955719Y-60105738D01*
X141955557Y-60114324D01*
X141815119Y-60114324D01*
X141814968Y-60108959D01*
X141815354Y-60095854D01*
X141816491Y-60082793D01*
X141818376Y-60069809D01*
X141821009Y-60056935D01*
X141824386Y-60044205D01*
X141828507Y-60031651D01*
X141833369Y-60019306D01*
X141838971Y-60007205D01*
X141845309Y-59995379D01*
X142172831Y-59338879D01*
X142469923Y-58733622D01*
X142722819Y-58733622D01*
X142722865Y-58738321D01*
X142723230Y-58743226D01*
X142723898Y-58748338D01*
X142724853Y-58753659D01*
X142727564Y-58764933D01*
X142731236Y-58777059D01*
X142735744Y-58790050D01*
X142740962Y-58803917D01*
X143051718Y-59610828D01*
X143360345Y-60418553D01*
X143361803Y-60424999D01*
X143363580Y-60431334D01*
X143365669Y-60437546D01*
X143368061Y-60443625D01*
X143370750Y-60449561D01*
X143373730Y-60455344D01*
X143376993Y-60460963D01*
X143380531Y-60466407D01*
X143384338Y-60471668D01*
X143388407Y-60476733D01*
X143392731Y-60481594D01*
X143397302Y-60486239D01*
X143402114Y-60490658D01*
X143407159Y-60494841D01*
X143412431Y-60498778D01*
X143417922Y-60502458D01*
X143423593Y-60505853D01*
X143429403Y-60508940D01*
X143435340Y-60511717D01*
X143441391Y-60514183D01*
X143447543Y-60516335D01*
X143453784Y-60518170D01*
X143460102Y-60519688D01*
X143466485Y-60520886D01*
X143472920Y-60521763D01*
X143479394Y-60522315D01*
X143485896Y-60522542D01*
X143492412Y-60522440D01*
X143498931Y-60522009D01*
X143505441Y-60521246D01*
X143511928Y-60520149D01*
X143518381Y-60518716D01*
X145457548Y-60345086D01*
X145467686Y-60342660D01*
X145477887Y-60340763D01*
X145488132Y-60339393D01*
X145498400Y-60338547D01*
X145508673Y-60338222D01*
X145518930Y-60338416D01*
X145529152Y-60339124D01*
X145539320Y-60340345D01*
X145549413Y-60342075D01*
X145559413Y-60344312D01*
X145569299Y-60347053D01*
X145579053Y-60350295D01*
X145588653Y-60354035D01*
X145598081Y-60358270D01*
X145607318Y-60362997D01*
X145616343Y-60368214D01*
X145625089Y-60373886D01*
X145633494Y-60379969D01*
X145641549Y-60386446D01*
X145649240Y-60393302D01*
X145656557Y-60400519D01*
X145663488Y-60408083D01*
X145670022Y-60415976D01*
X145676147Y-60424184D01*
X145681852Y-60432688D01*
X145687125Y-60441474D01*
X145691955Y-60450525D01*
X145696330Y-60459825D01*
X145700239Y-60469358D01*
X145703671Y-60479107D01*
X145706614Y-60489057D01*
X145709057Y-60499191D01*
X145866235Y-60918536D01*
X146026329Y-61336804D01*
X146346208Y-62173475D01*
X146353228Y-62191497D01*
X146360346Y-62208245D01*
X146367692Y-62223709D01*
X146375395Y-62237877D01*
X146379421Y-62244473D01*
X146383583Y-62250741D01*
X146387900Y-62256681D01*
X146392386Y-62262290D01*
X146397057Y-62267569D01*
X146401930Y-62272514D01*
X146407021Y-62277127D01*
X146412346Y-62281404D01*
X146417921Y-62285345D01*
X146423762Y-62288948D01*
X146429886Y-62292213D01*
X146436307Y-62295137D01*
X146443043Y-62297721D01*
X146450109Y-62299961D01*
X146457522Y-62301859D01*
X146465298Y-62303411D01*
X146473452Y-62304616D01*
X146482001Y-62305475D01*
X146490960Y-62305984D01*
X146500347Y-62306144D01*
X146510177Y-62305952D01*
X146520466Y-62305407D01*
X146531230Y-62304509D01*
X146542485Y-62303256D01*
X146657522Y-62289982D01*
X146772779Y-62278489D01*
X147003758Y-62259248D01*
X147466223Y-62224571D01*
X148482039Y-62137166D01*
X148431108Y-61995125D01*
X148407160Y-61929041D01*
X148383028Y-61864606D01*
X148087764Y-61093116D01*
X147789471Y-60322814D01*
X147781415Y-60300750D01*
X147775244Y-60280365D01*
X147772873Y-60270787D01*
X147770983Y-60261610D01*
X147769576Y-60252828D01*
X147768657Y-60244435D01*
X147768228Y-60236426D01*
X147768293Y-60228794D01*
X147768855Y-60221532D01*
X147769918Y-60214635D01*
X147771484Y-60208097D01*
X147773557Y-60201912D01*
X147776139Y-60196072D01*
X147779236Y-60190574D01*
X147782848Y-60185409D01*
X147786981Y-60180573D01*
X147791637Y-60176059D01*
X147796819Y-60171860D01*
X147802531Y-60167972D01*
X147808776Y-60164387D01*
X147815557Y-60161100D01*
X147822877Y-60158104D01*
X147830741Y-60155394D01*
X147839150Y-60152963D01*
X147848108Y-60150806D01*
X147857619Y-60148915D01*
X147878312Y-60145912D01*
X147901253Y-60143903D01*
X148047617Y-60133229D01*
X148193854Y-60120574D01*
X148486247Y-60093990D01*
X149948896Y-59968954D01*
X149948889Y-59968954D01*
X149948699Y-59961748D01*
X149948326Y-59954553D01*
X149947769Y-59947371D01*
X149947029Y-59940207D01*
X149946107Y-59933064D01*
X149945002Y-59925946D01*
X149943716Y-59918855D01*
X149942249Y-59911796D01*
X149619540Y-59068032D01*
X149299307Y-58223362D01*
X149296156Y-58215399D01*
X149292878Y-58207974D01*
X149289473Y-58201070D01*
X149285943Y-58194669D01*
X149282290Y-58188754D01*
X149278515Y-58183307D01*
X149274618Y-58178310D01*
X149270602Y-58173747D01*
X149266468Y-58169599D01*
X149262217Y-58165848D01*
X149257851Y-58162479D01*
X149253370Y-58159472D01*
X149248776Y-58156810D01*
X149244071Y-58154476D01*
X149239255Y-58152451D01*
X149234331Y-58150720D01*
X149229299Y-58149263D01*
X149224160Y-58148064D01*
X149218917Y-58147104D01*
X149213570Y-58146367D01*
X149208121Y-58145835D01*
X149202570Y-58145490D01*
X149191173Y-58145290D01*
X149179387Y-58145629D01*
X149167224Y-58146365D01*
X149141809Y-58148467D01*
X146539826Y-58369346D01*
X142813028Y-58680570D01*
X142803402Y-58681464D01*
X142794408Y-58682535D01*
X142786031Y-58683783D01*
X142778255Y-58685211D01*
X142771065Y-58686819D01*
X142764445Y-58688609D01*
X142758379Y-58690583D01*
X142752852Y-58692742D01*
X142747847Y-58695087D01*
X142743350Y-58697621D01*
X142739344Y-58700344D01*
X142735814Y-58703258D01*
X142732744Y-58706364D01*
X142730119Y-58709664D01*
X142727922Y-58713160D01*
X142726138Y-58716853D01*
X142724752Y-58720744D01*
X142723747Y-58724834D01*
X142723108Y-58729127D01*
X142722819Y-58733622D01*
X142469923Y-58733622D01*
X142496113Y-58680265D01*
X142499003Y-58673109D01*
X142502148Y-58666113D01*
X142505541Y-58659279D01*
X142509176Y-58652613D01*
X142513047Y-58646118D01*
X142517146Y-58639801D01*
X142521467Y-58633665D01*
X142526003Y-58627714D01*
X142530748Y-58621954D01*
X142535695Y-58616389D01*
X142540837Y-58611023D01*
X142546169Y-58605861D01*
X142551682Y-58600907D01*
X142557371Y-58596167D01*
X142563229Y-58591644D01*
X142569249Y-58587343D01*
X142575425Y-58583269D01*
X142581750Y-58579427D01*
X142588218Y-58575820D01*
X142594821Y-58572453D01*
X142601553Y-58569331D01*
X142608408Y-58566459D01*
X142615379Y-58563841D01*
X142622459Y-58561481D01*
X142629642Y-58559384D01*
X142636921Y-58557555D01*
X142644289Y-58555999D01*
X142651740Y-58554719D01*
X142659268Y-58553720D01*
X142666864Y-58553007D01*
X142674524Y-58552584D01*
X142682240Y-58552457D01*
X148812195Y-58034558D01*
X149028185Y-58020283D01*
X149136464Y-58011754D01*
X149180721Y-58009514D01*
X149219266Y-58009184D01*
X149236602Y-58009867D01*
G37*
G36*
X116252233Y-67724282D02*
G01*
X116259132Y-67724877D01*
X116265775Y-67725770D01*
X116272172Y-67726959D01*
X116278334Y-67728445D01*
X116284271Y-67730226D01*
X116289995Y-67732300D01*
X116295516Y-67734668D01*
X116300845Y-67737328D01*
X116305992Y-67740279D01*
X116310967Y-67743519D01*
X116315783Y-67747049D01*
X116320448Y-67750867D01*
X116324974Y-67754972D01*
X116329372Y-67759364D01*
X116333653Y-67764040D01*
X116341902Y-67774245D01*
X116349809Y-67785579D01*
X116357458Y-67798033D01*
X116364934Y-67811601D01*
X116372323Y-67826275D01*
X117185167Y-69491734D01*
X117187420Y-69499350D01*
X117190054Y-69506802D01*
X117193059Y-69514079D01*
X117196424Y-69521167D01*
X117200141Y-69528055D01*
X117204199Y-69534731D01*
X117208588Y-69541181D01*
X117213300Y-69547394D01*
X117218323Y-69553358D01*
X117223648Y-69559060D01*
X117229266Y-69564488D01*
X117235167Y-69569630D01*
X117241340Y-69574473D01*
X117247776Y-69579006D01*
X117254466Y-69583216D01*
X117261399Y-69587091D01*
X117268524Y-69590599D01*
X117275788Y-69593716D01*
X117283173Y-69596442D01*
X117290665Y-69598775D01*
X117298247Y-69600713D01*
X117305905Y-69602257D01*
X117313622Y-69603404D01*
X117321383Y-69604154D01*
X117329172Y-69604506D01*
X117336974Y-69604458D01*
X117344773Y-69604010D01*
X117352553Y-69603160D01*
X117360299Y-69601907D01*
X117367995Y-69600251D01*
X117375625Y-69598189D01*
X117383175Y-69595721D01*
X119314864Y-69246349D01*
X119322979Y-69243812D01*
X119331176Y-69241702D01*
X119339437Y-69240020D01*
X119347747Y-69238762D01*
X119356089Y-69237929D01*
X119364448Y-69237519D01*
X119372806Y-69237530D01*
X119381148Y-69237962D01*
X119389458Y-69238813D01*
X119397720Y-69240082D01*
X119405917Y-69241767D01*
X119414033Y-69243868D01*
X119422052Y-69246384D01*
X119429959Y-69249313D01*
X119437735Y-69252653D01*
X119445367Y-69256404D01*
X119452796Y-69260540D01*
X119459971Y-69265030D01*
X119466881Y-69269861D01*
X119473516Y-69275019D01*
X119479866Y-69280494D01*
X119485920Y-69286271D01*
X119491668Y-69292339D01*
X119497101Y-69298685D01*
X119502207Y-69305297D01*
X119506976Y-69312161D01*
X119511399Y-69319265D01*
X119515466Y-69326597D01*
X119519165Y-69334144D01*
X119522486Y-69341893D01*
X119525421Y-69349833D01*
X119527957Y-69357949D01*
X119949495Y-70226121D01*
X120377443Y-71091203D01*
X120383818Y-71104069D01*
X120389392Y-71117205D01*
X120394163Y-71130576D01*
X120398131Y-71144146D01*
X120401294Y-71157880D01*
X120403653Y-71171740D01*
X120405206Y-71185692D01*
X120405952Y-71199700D01*
X120405891Y-71213727D01*
X120405021Y-71227739D01*
X120403342Y-71241698D01*
X120400853Y-71255570D01*
X120397552Y-71269317D01*
X120393440Y-71282905D01*
X120388515Y-71296298D01*
X120382776Y-71309460D01*
X120117732Y-71985279D01*
X119858147Y-72663236D01*
X119855726Y-72671063D01*
X119853020Y-72678743D01*
X119850036Y-72686272D01*
X119846781Y-72693645D01*
X119843261Y-72700856D01*
X119839482Y-72707900D01*
X119835452Y-72714770D01*
X119831177Y-72721463D01*
X119826664Y-72727972D01*
X119821919Y-72734292D01*
X119816950Y-72740417D01*
X119811762Y-72746342D01*
X119806363Y-72752063D01*
X119800758Y-72757572D01*
X119794956Y-72762865D01*
X119788962Y-72767937D01*
X119782783Y-72772781D01*
X119776425Y-72777393D01*
X119769896Y-72781767D01*
X119763202Y-72785898D01*
X119756350Y-72789780D01*
X119749346Y-72793408D01*
X119742197Y-72796777D01*
X119734910Y-72799880D01*
X119727492Y-72802713D01*
X119719948Y-72805270D01*
X119712286Y-72807546D01*
X119704512Y-72809535D01*
X119696633Y-72811232D01*
X119688656Y-72812631D01*
X119680587Y-72813728D01*
X119672434Y-72814516D01*
X114724316Y-73681567D01*
X113970648Y-73813287D01*
X113217438Y-73947518D01*
X113210180Y-73949793D01*
X113202850Y-73951693D01*
X113195462Y-73953217D01*
X113188030Y-73954368D01*
X113180568Y-73955147D01*
X113173089Y-73955554D01*
X113165608Y-73955589D01*
X113158139Y-73955256D01*
X113150696Y-73954553D01*
X113143292Y-73953483D01*
X113135941Y-73952045D01*
X113128658Y-73950242D01*
X113121457Y-73948074D01*
X113114351Y-73945542D01*
X113107355Y-73942647D01*
X113100482Y-73939389D01*
X113093781Y-73935791D01*
X113087298Y-73931878D01*
X113081043Y-73927662D01*
X113075024Y-73923153D01*
X113069250Y-73918362D01*
X113063731Y-73913299D01*
X113058475Y-73907975D01*
X113053492Y-73902402D01*
X113048790Y-73896588D01*
X113044379Y-73890546D01*
X113040268Y-73884286D01*
X113036465Y-73877818D01*
X113032981Y-73871153D01*
X113029823Y-73864302D01*
X113027001Y-73857275D01*
X113024525Y-73850083D01*
X112600196Y-72974590D01*
X112170430Y-72101726D01*
X112164839Y-72091355D01*
X112330524Y-72091355D01*
X112330604Y-72096822D01*
X112331140Y-72102593D01*
X112332122Y-72108679D01*
X112333544Y-72115091D01*
X112335397Y-72121842D01*
X112337674Y-72128944D01*
X112343468Y-72144243D01*
X112350862Y-72161083D01*
X112359793Y-72179558D01*
X112547370Y-72556222D01*
X112733126Y-72933790D01*
X112917060Y-73312262D01*
X113099172Y-73691638D01*
X113101684Y-73699208D01*
X113104572Y-73706602D01*
X113107825Y-73713808D01*
X113111433Y-73720813D01*
X113115386Y-73727607D01*
X113119674Y-73734177D01*
X113124286Y-73740511D01*
X113129213Y-73746597D01*
X113134445Y-73752424D01*
X113139970Y-73757980D01*
X113145780Y-73763252D01*
X113151863Y-73768228D01*
X113158211Y-73772898D01*
X113164811Y-73777248D01*
X113171656Y-73781268D01*
X113178733Y-73784944D01*
X113185992Y-73788248D01*
X113193377Y-73791156D01*
X113200873Y-73793669D01*
X113208463Y-73795786D01*
X113216133Y-73797505D01*
X113223866Y-73798826D01*
X113231647Y-73799750D01*
X113239460Y-73800274D01*
X113247290Y-73800399D01*
X113255121Y-73800123D01*
X113262937Y-73799446D01*
X113270722Y-73798368D01*
X113278462Y-73796888D01*
X113286140Y-73795005D01*
X113293741Y-73792718D01*
X113301248Y-73790027D01*
X114388799Y-73595850D01*
X115477036Y-73405467D01*
X119526512Y-72698846D01*
X119544362Y-72695517D01*
X119560344Y-72691946D01*
X119574480Y-72688042D01*
X119580862Y-72685936D01*
X119586791Y-72683713D01*
X119592269Y-72681361D01*
X119597299Y-72678868D01*
X119601885Y-72676223D01*
X119606028Y-72673414D01*
X119609731Y-72670430D01*
X119612997Y-72667260D01*
X119615829Y-72663892D01*
X119618230Y-72660314D01*
X119620202Y-72656516D01*
X119621748Y-72652485D01*
X119622871Y-72648210D01*
X119623574Y-72643679D01*
X119623859Y-72638882D01*
X119623728Y-72633807D01*
X119623186Y-72628441D01*
X119622234Y-72622775D01*
X119620875Y-72616795D01*
X119619112Y-72610492D01*
X119616948Y-72603852D01*
X119614385Y-72596866D01*
X119608075Y-72581806D01*
X119600204Y-72565219D01*
X119217257Y-71789972D01*
X118838563Y-71012616D01*
X118836438Y-71006361D01*
X118834007Y-71000251D01*
X118831280Y-70994295D01*
X118828264Y-70988504D01*
X118824968Y-70982886D01*
X118821399Y-70977451D01*
X118817567Y-70972208D01*
X118813478Y-70967168D01*
X118809142Y-70962339D01*
X118804565Y-70957732D01*
X118799757Y-70953355D01*
X118794726Y-70949218D01*
X118789479Y-70945331D01*
X118784026Y-70941703D01*
X118778373Y-70938344D01*
X118772529Y-70935263D01*
X118766535Y-70932485D01*
X118760436Y-70930028D01*
X118754244Y-70927891D01*
X118747971Y-70926077D01*
X118741630Y-70924585D01*
X118735234Y-70923416D01*
X118728795Y-70922572D01*
X118722326Y-70922052D01*
X118715838Y-70921857D01*
X118709345Y-70921989D01*
X118702860Y-70922447D01*
X118696394Y-70923233D01*
X118689960Y-70924348D01*
X118683570Y-70925791D01*
X118677238Y-70927564D01*
X118670976Y-70929668D01*
X116754982Y-71275332D01*
X116745071Y-71278544D01*
X116735055Y-71281233D01*
X116724955Y-71283402D01*
X116714790Y-71285051D01*
X116704580Y-71286182D01*
X116694345Y-71286795D01*
X116684103Y-71286893D01*
X116673876Y-71286477D01*
X116663683Y-71285547D01*
X116653543Y-71284105D01*
X116643477Y-71282153D01*
X116633504Y-71279691D01*
X116623643Y-71276721D01*
X116613915Y-71273245D01*
X116604340Y-71269263D01*
X116594937Y-71264777D01*
X116585775Y-71259816D01*
X116576920Y-71254420D01*
X116568383Y-71248603D01*
X116560178Y-71242381D01*
X116552317Y-71235768D01*
X116544813Y-71228779D01*
X116537679Y-71221431D01*
X116530927Y-71213739D01*
X116524570Y-71205716D01*
X116518621Y-71197380D01*
X116513092Y-71188744D01*
X116507996Y-71179824D01*
X116503346Y-71170636D01*
X116499154Y-71161194D01*
X116495434Y-71151514D01*
X116492197Y-71141611D01*
X116296458Y-70734526D01*
X116098067Y-70328699D01*
X115701582Y-69516882D01*
X115693668Y-69501107D01*
X115685706Y-69486658D01*
X115677600Y-69473528D01*
X115673463Y-69467455D01*
X115669253Y-69461709D01*
X115664959Y-69456290D01*
X115660569Y-69451195D01*
X115656070Y-69446425D01*
X115651451Y-69441978D01*
X115646700Y-69437854D01*
X115641804Y-69434051D01*
X115636751Y-69430569D01*
X115631530Y-69427406D01*
X115626128Y-69424562D01*
X115620533Y-69422036D01*
X115614733Y-69419827D01*
X115608717Y-69417933D01*
X115602472Y-69416355D01*
X115595986Y-69415091D01*
X115589246Y-69414141D01*
X115582242Y-69413502D01*
X115574961Y-69413175D01*
X115567391Y-69413159D01*
X115559519Y-69413452D01*
X115551334Y-69414054D01*
X115542824Y-69414963D01*
X115533977Y-69416180D01*
X115515222Y-69419529D01*
X115399650Y-69442260D01*
X115283826Y-69463741D01*
X115051645Y-69504083D01*
X114586745Y-69582239D01*
X113588857Y-69758921D01*
X113635579Y-69870007D01*
X113657446Y-69920737D01*
X113668603Y-69945301D01*
X113680136Y-69969483D01*
X114402503Y-71438108D01*
X114421273Y-71476539D01*
X114437282Y-71510446D01*
X114450335Y-71540184D01*
X114460241Y-71566109D01*
X114463953Y-71577752D01*
X114466806Y-71588575D01*
X114468775Y-71598622D01*
X114469836Y-71607938D01*
X114469966Y-71616566D01*
X114469140Y-71624552D01*
X114467334Y-71631939D01*
X114464524Y-71638772D01*
X114460685Y-71645095D01*
X114455794Y-71650953D01*
X114449826Y-71656391D01*
X114442758Y-71661451D01*
X114434565Y-71666180D01*
X114425223Y-71670620D01*
X114414707Y-71674817D01*
X114402995Y-71678816D01*
X114375881Y-71686392D01*
X114343689Y-71693705D01*
X114306225Y-71701109D01*
X114263296Y-71708959D01*
X113350399Y-71871234D01*
X112436518Y-72027722D01*
X112415802Y-72031499D01*
X112397502Y-72035602D01*
X112389237Y-72037805D01*
X112381553Y-72040124D01*
X112374442Y-72042571D01*
X112367895Y-72045158D01*
X112361905Y-72047896D01*
X112356464Y-72050797D01*
X112351564Y-72053874D01*
X112347198Y-72057136D01*
X112343357Y-72060597D01*
X112340033Y-72064268D01*
X112337219Y-72068161D01*
X112334908Y-72072286D01*
X112333090Y-72076657D01*
X112331759Y-72081284D01*
X112330906Y-72086180D01*
X112330524Y-72091355D01*
X112164839Y-72091355D01*
X112164037Y-72089868D01*
X112158381Y-72077731D01*
X112153465Y-72065349D01*
X112149291Y-72052755D01*
X112145859Y-72039981D01*
X112143173Y-72027061D01*
X112141235Y-72014029D01*
X112140046Y-72000917D01*
X112139609Y-71987758D01*
X112139926Y-71974586D01*
X112140999Y-71961434D01*
X112142829Y-71948334D01*
X112145419Y-71935321D01*
X112148771Y-71922427D01*
X112152887Y-71909685D01*
X112157769Y-71897129D01*
X112426404Y-71214429D01*
X112558672Y-70872290D01*
X112688782Y-70529344D01*
X112691559Y-70521054D01*
X112694642Y-70512931D01*
X112698024Y-70504982D01*
X112701697Y-70497211D01*
X112705653Y-70489624D01*
X112709884Y-70482228D01*
X112714384Y-70475028D01*
X112719144Y-70468030D01*
X112724158Y-70461239D01*
X112729416Y-70454661D01*
X112734913Y-70448303D01*
X112740639Y-70442169D01*
X112746588Y-70436266D01*
X112752752Y-70430599D01*
X112759123Y-70425175D01*
X112765694Y-70419998D01*
X112772457Y-70415075D01*
X112779405Y-70410411D01*
X112786529Y-70406012D01*
X112793823Y-70401884D01*
X112801278Y-70398033D01*
X112808887Y-70394464D01*
X112816643Y-70391184D01*
X112824538Y-70388197D01*
X112832564Y-70385510D01*
X112840714Y-70383128D01*
X112848980Y-70381058D01*
X112857354Y-70379304D01*
X112865829Y-70377874D01*
X112874398Y-70376771D01*
X112883052Y-70376003D01*
X112891784Y-70375575D01*
X113078923Y-70346148D01*
X113268107Y-70313660D01*
X113663173Y-70243503D01*
X113556766Y-70020138D01*
X113505489Y-69914541D01*
X113479517Y-69862807D01*
X113453012Y-69811607D01*
X113446480Y-69799768D01*
X113440705Y-69787637D01*
X113435687Y-69775251D01*
X113431429Y-69762643D01*
X113427934Y-69749848D01*
X113425202Y-69736901D01*
X113423237Y-69723838D01*
X113422040Y-69710692D01*
X113421614Y-69697499D01*
X113421961Y-69684294D01*
X113423083Y-69671110D01*
X113424982Y-69657984D01*
X113427660Y-69644949D01*
X113431119Y-69632040D01*
X113435362Y-69619293D01*
X113440391Y-69606742D01*
X113557405Y-69306520D01*
X115778704Y-69306520D01*
X115779152Y-69316967D01*
X115780178Y-69327373D01*
X115781781Y-69337713D01*
X115783959Y-69347963D01*
X115786709Y-69358098D01*
X115790031Y-69368093D01*
X115793922Y-69377924D01*
X115798381Y-69387567D01*
X115803407Y-69396996D01*
X116609056Y-71037825D01*
X116718181Y-70757343D01*
X118969538Y-70757343D01*
X118969626Y-70817865D01*
X118973887Y-70878237D01*
X118982313Y-70938234D01*
X118994894Y-70997631D01*
X119011624Y-71056204D01*
X119032494Y-71113728D01*
X119057495Y-71169978D01*
X119086621Y-71224728D01*
X119119863Y-71277755D01*
X119205726Y-71429024D01*
X119287653Y-71583011D01*
X119366689Y-71739504D01*
X119443878Y-71898291D01*
X119596895Y-72221900D01*
X119755060Y-72552137D01*
X120256911Y-71262791D01*
X120259684Y-71253475D01*
X120261920Y-71244071D01*
X120263622Y-71234602D01*
X120264792Y-71225088D01*
X120265433Y-71215553D01*
X120265548Y-71206017D01*
X120265141Y-71196502D01*
X120264212Y-71187031D01*
X120262766Y-71177625D01*
X120260805Y-71168306D01*
X120258331Y-71159095D01*
X120255348Y-71150016D01*
X120251858Y-71141088D01*
X120247864Y-71132335D01*
X120243369Y-71123778D01*
X120238375Y-71115439D01*
X119433288Y-69474239D01*
X119433288Y-69474236D01*
X119388874Y-69591109D01*
X119346733Y-69705888D01*
X119265331Y-69929008D01*
X119224096Y-70037268D01*
X119181192Y-70143275D01*
X119135630Y-70246988D01*
X119086426Y-70348368D01*
X119057081Y-70403647D01*
X119031965Y-70460349D01*
X119011070Y-70518250D01*
X118994388Y-70577125D01*
X118981911Y-70636748D01*
X118973630Y-70696896D01*
X118969538Y-70757343D01*
X116718181Y-70757343D01*
X117113020Y-69742487D01*
X117115494Y-69735066D01*
X117117547Y-69727562D01*
X117119182Y-69719990D01*
X117120400Y-69712368D01*
X117121202Y-69704713D01*
X117121589Y-69697041D01*
X117121563Y-69689371D01*
X117121126Y-69681718D01*
X117120278Y-69674099D01*
X117119022Y-69666532D01*
X117117358Y-69659033D01*
X117115288Y-69651620D01*
X117112814Y-69644309D01*
X117109937Y-69637116D01*
X117106658Y-69630060D01*
X117102979Y-69623158D01*
X116288545Y-67962174D01*
X116272420Y-68001130D01*
X116267149Y-68013937D01*
X116262788Y-68024884D01*
X115791903Y-69234321D01*
X115788255Y-69244363D01*
X115785197Y-69254537D01*
X115782728Y-69264818D01*
X115780846Y-69275182D01*
X115779549Y-69285603D01*
X115778835Y-69296058D01*
X115778704Y-69306520D01*
X113557405Y-69306520D01*
X113712403Y-68908847D01*
X113980676Y-68209491D01*
X113983044Y-68203117D01*
X113985637Y-68196875D01*
X113988451Y-68190767D01*
X113991479Y-68184798D01*
X113994717Y-68178972D01*
X113998158Y-68173293D01*
X114001797Y-68167766D01*
X114005628Y-68162394D01*
X114009646Y-68157182D01*
X114013846Y-68152133D01*
X114018221Y-68147252D01*
X114022766Y-68142543D01*
X114027477Y-68138010D01*
X114032346Y-68133657D01*
X114037369Y-68129487D01*
X114042540Y-68125507D01*
X114047854Y-68121718D01*
X114053305Y-68118126D01*
X114058887Y-68114735D01*
X114064595Y-68111548D01*
X114070423Y-68108570D01*
X114076366Y-68105806D01*
X114082419Y-68103258D01*
X114088575Y-68100931D01*
X114094829Y-68098829D01*
X114101177Y-68096957D01*
X114107611Y-68095318D01*
X114114127Y-68093917D01*
X114120718Y-68092757D01*
X114127381Y-68091843D01*
X114134108Y-68091179D01*
X114140894Y-68090769D01*
X115168761Y-67911848D01*
X116195865Y-67728541D01*
X116213518Y-67725810D01*
X116229890Y-67724294D01*
X116237623Y-67723990D01*
X116245066Y-67723986D01*
X116252233Y-67724282D01*
G37*
D11*
X108129449Y-51233609D02*
X108296115Y-50995514D01*
X108415163Y-51233609D02*
X108415163Y-50733609D01*
X108415163Y-50733609D02*
X108224687Y-50733609D01*
X108224687Y-50733609D02*
X108177068Y-50757419D01*
X108177068Y-50757419D02*
X108153258Y-50781228D01*
X108153258Y-50781228D02*
X108129449Y-50828847D01*
X108129449Y-50828847D02*
X108129449Y-50900276D01*
X108129449Y-50900276D02*
X108153258Y-50947895D01*
X108153258Y-50947895D02*
X108177068Y-50971704D01*
X108177068Y-50971704D02*
X108224687Y-50995514D01*
X108224687Y-50995514D02*
X108415163Y-50995514D01*
X107938972Y-51209800D02*
X107867544Y-51233609D01*
X107867544Y-51233609D02*
X107748496Y-51233609D01*
X107748496Y-51233609D02*
X107700877Y-51209800D01*
X107700877Y-51209800D02*
X107677068Y-51185990D01*
X107677068Y-51185990D02*
X107653258Y-51138371D01*
X107653258Y-51138371D02*
X107653258Y-51090752D01*
X107653258Y-51090752D02*
X107677068Y-51043133D01*
X107677068Y-51043133D02*
X107700877Y-51019323D01*
X107700877Y-51019323D02*
X107748496Y-50995514D01*
X107748496Y-50995514D02*
X107843734Y-50971704D01*
X107843734Y-50971704D02*
X107891353Y-50947895D01*
X107891353Y-50947895D02*
X107915163Y-50924085D01*
X107915163Y-50924085D02*
X107938972Y-50876466D01*
X107938972Y-50876466D02*
X107938972Y-50828847D01*
X107938972Y-50828847D02*
X107915163Y-50781228D01*
X107915163Y-50781228D02*
X107891353Y-50757419D01*
X107891353Y-50757419D02*
X107843734Y-50733609D01*
X107843734Y-50733609D02*
X107724687Y-50733609D01*
X107724687Y-50733609D02*
X107653258Y-50757419D01*
X107510401Y-50733609D02*
X107224687Y-50733609D01*
X107367544Y-51233609D02*
X107367544Y-50733609D01*
X108415163Y-52533609D02*
X108415163Y-52033609D01*
X108415163Y-52033609D02*
X108224687Y-52033609D01*
X108224687Y-52033609D02*
X108177068Y-52057419D01*
X108177068Y-52057419D02*
X108153258Y-52081228D01*
X108153258Y-52081228D02*
X108129449Y-52128847D01*
X108129449Y-52128847D02*
X108129449Y-52200276D01*
X108129449Y-52200276D02*
X108153258Y-52247895D01*
X108153258Y-52247895D02*
X108177068Y-52271704D01*
X108177068Y-52271704D02*
X108224687Y-52295514D01*
X108224687Y-52295514D02*
X108415163Y-52295514D01*
X107748496Y-52271704D02*
X107677068Y-52295514D01*
X107677068Y-52295514D02*
X107653258Y-52319323D01*
X107653258Y-52319323D02*
X107629449Y-52366942D01*
X107629449Y-52366942D02*
X107629449Y-52438371D01*
X107629449Y-52438371D02*
X107653258Y-52485990D01*
X107653258Y-52485990D02*
X107677068Y-52509800D01*
X107677068Y-52509800D02*
X107724687Y-52533609D01*
X107724687Y-52533609D02*
X107915163Y-52533609D01*
X107915163Y-52533609D02*
X107915163Y-52033609D01*
X107915163Y-52033609D02*
X107748496Y-52033609D01*
X107748496Y-52033609D02*
X107700877Y-52057419D01*
X107700877Y-52057419D02*
X107677068Y-52081228D01*
X107677068Y-52081228D02*
X107653258Y-52128847D01*
X107653258Y-52128847D02*
X107653258Y-52176466D01*
X107653258Y-52176466D02*
X107677068Y-52224085D01*
X107677068Y-52224085D02*
X107700877Y-52247895D01*
X107700877Y-52247895D02*
X107748496Y-52271704D01*
X107748496Y-52271704D02*
X107915163Y-52271704D01*
X107319925Y-52033609D02*
X107272306Y-52033609D01*
X107272306Y-52033609D02*
X107224687Y-52057419D01*
X107224687Y-52057419D02*
X107200877Y-52081228D01*
X107200877Y-52081228D02*
X107177068Y-52128847D01*
X107177068Y-52128847D02*
X107153258Y-52224085D01*
X107153258Y-52224085D02*
X107153258Y-52343133D01*
X107153258Y-52343133D02*
X107177068Y-52438371D01*
X107177068Y-52438371D02*
X107200877Y-52485990D01*
X107200877Y-52485990D02*
X107224687Y-52509800D01*
X107224687Y-52509800D02*
X107272306Y-52533609D01*
X107272306Y-52533609D02*
X107319925Y-52533609D01*
X107319925Y-52533609D02*
X107367544Y-52509800D01*
X107367544Y-52509800D02*
X107391353Y-52485990D01*
X107391353Y-52485990D02*
X107415163Y-52438371D01*
X107415163Y-52438371D02*
X107438972Y-52343133D01*
X107438972Y-52343133D02*
X107438972Y-52224085D01*
X107438972Y-52224085D02*
X107415163Y-52128847D01*
X107415163Y-52128847D02*
X107391353Y-52081228D01*
X107391353Y-52081228D02*
X107367544Y-52057419D01*
X107367544Y-52057419D02*
X107319925Y-52033609D01*
D12*
X133469048Y-53454819D02*
X133469048Y-54169104D01*
X133469048Y-54169104D02*
X133516667Y-54311961D01*
X133516667Y-54311961D02*
X133611905Y-54407200D01*
X133611905Y-54407200D02*
X133754762Y-54454819D01*
X133754762Y-54454819D02*
X133850000Y-54454819D01*
X132516667Y-54454819D02*
X132992857Y-54454819D01*
X132992857Y-54454819D02*
X132992857Y-53454819D01*
X131611905Y-54359580D02*
X131659524Y-54407200D01*
X131659524Y-54407200D02*
X131802381Y-54454819D01*
X131802381Y-54454819D02*
X131897619Y-54454819D01*
X131897619Y-54454819D02*
X132040476Y-54407200D01*
X132040476Y-54407200D02*
X132135714Y-54311961D01*
X132135714Y-54311961D02*
X132183333Y-54216723D01*
X132183333Y-54216723D02*
X132230952Y-54026247D01*
X132230952Y-54026247D02*
X132230952Y-53883390D01*
X132230952Y-53883390D02*
X132183333Y-53692914D01*
X132183333Y-53692914D02*
X132135714Y-53597676D01*
X132135714Y-53597676D02*
X132040476Y-53502438D01*
X132040476Y-53502438D02*
X131897619Y-53454819D01*
X131897619Y-53454819D02*
X131802381Y-53454819D01*
X131802381Y-53454819D02*
X131659524Y-53502438D01*
X131659524Y-53502438D02*
X131611905Y-53550057D01*
X130897619Y-53454819D02*
X130897619Y-54169104D01*
X130897619Y-54169104D02*
X130945238Y-54311961D01*
X130945238Y-54311961D02*
X131040476Y-54407200D01*
X131040476Y-54407200D02*
X131183333Y-54454819D01*
X131183333Y-54454819D02*
X131278571Y-54454819D01*
X129945238Y-54454819D02*
X130421428Y-54454819D01*
X130421428Y-54454819D02*
X130421428Y-53454819D01*
X129040476Y-54359580D02*
X129088095Y-54407200D01*
X129088095Y-54407200D02*
X129230952Y-54454819D01*
X129230952Y-54454819D02*
X129326190Y-54454819D01*
X129326190Y-54454819D02*
X129469047Y-54407200D01*
X129469047Y-54407200D02*
X129564285Y-54311961D01*
X129564285Y-54311961D02*
X129611904Y-54216723D01*
X129611904Y-54216723D02*
X129659523Y-54026247D01*
X129659523Y-54026247D02*
X129659523Y-53883390D01*
X129659523Y-53883390D02*
X129611904Y-53692914D01*
X129611904Y-53692914D02*
X129564285Y-53597676D01*
X129564285Y-53597676D02*
X129469047Y-53502438D01*
X129469047Y-53502438D02*
X129326190Y-53454819D01*
X129326190Y-53454819D02*
X129230952Y-53454819D01*
X129230952Y-53454819D02*
X129088095Y-53502438D01*
X129088095Y-53502438D02*
X129040476Y-53550057D01*
X128326190Y-53454819D02*
X128326190Y-54169104D01*
X128326190Y-54169104D02*
X128373809Y-54311961D01*
X128373809Y-54311961D02*
X128469047Y-54407200D01*
X128469047Y-54407200D02*
X128611904Y-54454819D01*
X128611904Y-54454819D02*
X128707142Y-54454819D01*
X127373809Y-54454819D02*
X127849999Y-54454819D01*
X127849999Y-54454819D02*
X127849999Y-53454819D01*
X126469047Y-54359580D02*
X126516666Y-54407200D01*
X126516666Y-54407200D02*
X126659523Y-54454819D01*
X126659523Y-54454819D02*
X126754761Y-54454819D01*
X126754761Y-54454819D02*
X126897618Y-54407200D01*
X126897618Y-54407200D02*
X126992856Y-54311961D01*
X126992856Y-54311961D02*
X127040475Y-54216723D01*
X127040475Y-54216723D02*
X127088094Y-54026247D01*
X127088094Y-54026247D02*
X127088094Y-53883390D01*
X127088094Y-53883390D02*
X127040475Y-53692914D01*
X127040475Y-53692914D02*
X126992856Y-53597676D01*
X126992856Y-53597676D02*
X126897618Y-53502438D01*
X126897618Y-53502438D02*
X126754761Y-53454819D01*
X126754761Y-53454819D02*
X126659523Y-53454819D01*
X126659523Y-53454819D02*
X126516666Y-53502438D01*
X126516666Y-53502438D02*
X126469047Y-53550057D01*
X125754761Y-53454819D02*
X125754761Y-54169104D01*
X125754761Y-54169104D02*
X125802380Y-54311961D01*
X125802380Y-54311961D02*
X125897618Y-54407200D01*
X125897618Y-54407200D02*
X126040475Y-54454819D01*
X126040475Y-54454819D02*
X126135713Y-54454819D01*
X124802380Y-54454819D02*
X125278570Y-54454819D01*
X125278570Y-54454819D02*
X125278570Y-53454819D01*
X123897618Y-54359580D02*
X123945237Y-54407200D01*
X123945237Y-54407200D02*
X124088094Y-54454819D01*
X124088094Y-54454819D02*
X124183332Y-54454819D01*
X124183332Y-54454819D02*
X124326189Y-54407200D01*
X124326189Y-54407200D02*
X124421427Y-54311961D01*
X124421427Y-54311961D02*
X124469046Y-54216723D01*
X124469046Y-54216723D02*
X124516665Y-54026247D01*
X124516665Y-54026247D02*
X124516665Y-53883390D01*
X124516665Y-53883390D02*
X124469046Y-53692914D01*
X124469046Y-53692914D02*
X124421427Y-53597676D01*
X124421427Y-53597676D02*
X124326189Y-53502438D01*
X124326189Y-53502438D02*
X124183332Y-53454819D01*
X124183332Y-53454819D02*
X124088094Y-53454819D01*
X124088094Y-53454819D02*
X123945237Y-53502438D01*
X123945237Y-53502438D02*
X123897618Y-53550057D01*
D11*
X108153258Y-49457419D02*
X108200877Y-49433609D01*
X108200877Y-49433609D02*
X108272306Y-49433609D01*
X108272306Y-49433609D02*
X108343734Y-49457419D01*
X108343734Y-49457419D02*
X108391353Y-49505038D01*
X108391353Y-49505038D02*
X108415163Y-49552657D01*
X108415163Y-49552657D02*
X108438972Y-49647895D01*
X108438972Y-49647895D02*
X108438972Y-49719323D01*
X108438972Y-49719323D02*
X108415163Y-49814561D01*
X108415163Y-49814561D02*
X108391353Y-49862180D01*
X108391353Y-49862180D02*
X108343734Y-49909800D01*
X108343734Y-49909800D02*
X108272306Y-49933609D01*
X108272306Y-49933609D02*
X108224687Y-49933609D01*
X108224687Y-49933609D02*
X108153258Y-49909800D01*
X108153258Y-49909800D02*
X108129449Y-49885990D01*
X108129449Y-49885990D02*
X108129449Y-49719323D01*
X108129449Y-49719323D02*
X108224687Y-49719323D01*
X107915163Y-49933609D02*
X107915163Y-49433609D01*
X107915163Y-49433609D02*
X107629449Y-49933609D01*
X107629449Y-49933609D02*
X107629449Y-49433609D01*
X107391353Y-49933609D02*
X107391353Y-49433609D01*
X107391353Y-49433609D02*
X107272305Y-49433609D01*
X107272305Y-49433609D02*
X107200877Y-49457419D01*
X107200877Y-49457419D02*
X107153258Y-49505038D01*
X107153258Y-49505038D02*
X107129448Y-49552657D01*
X107129448Y-49552657D02*
X107105639Y-49647895D01*
X107105639Y-49647895D02*
X107105639Y-49719323D01*
X107105639Y-49719323D02*
X107129448Y-49814561D01*
X107129448Y-49814561D02*
X107153258Y-49862180D01*
X107153258Y-49862180D02*
X107200877Y-49909800D01*
X107200877Y-49909800D02*
X107272305Y-49933609D01*
X107272305Y-49933609D02*
X107391353Y-49933609D01*
X108415163Y-55033609D02*
X108415163Y-54533609D01*
X108415163Y-54533609D02*
X108224687Y-54533609D01*
X108224687Y-54533609D02*
X108177068Y-54557419D01*
X108177068Y-54557419D02*
X108153258Y-54581228D01*
X108153258Y-54581228D02*
X108129449Y-54628847D01*
X108129449Y-54628847D02*
X108129449Y-54700276D01*
X108129449Y-54700276D02*
X108153258Y-54747895D01*
X108153258Y-54747895D02*
X108177068Y-54771704D01*
X108177068Y-54771704D02*
X108224687Y-54795514D01*
X108224687Y-54795514D02*
X108415163Y-54795514D01*
X107748496Y-54771704D02*
X107677068Y-54795514D01*
X107677068Y-54795514D02*
X107653258Y-54819323D01*
X107653258Y-54819323D02*
X107629449Y-54866942D01*
X107629449Y-54866942D02*
X107629449Y-54938371D01*
X107629449Y-54938371D02*
X107653258Y-54985990D01*
X107653258Y-54985990D02*
X107677068Y-55009800D01*
X107677068Y-55009800D02*
X107724687Y-55033609D01*
X107724687Y-55033609D02*
X107915163Y-55033609D01*
X107915163Y-55033609D02*
X107915163Y-54533609D01*
X107915163Y-54533609D02*
X107748496Y-54533609D01*
X107748496Y-54533609D02*
X107700877Y-54557419D01*
X107700877Y-54557419D02*
X107677068Y-54581228D01*
X107677068Y-54581228D02*
X107653258Y-54628847D01*
X107653258Y-54628847D02*
X107653258Y-54676466D01*
X107653258Y-54676466D02*
X107677068Y-54724085D01*
X107677068Y-54724085D02*
X107700877Y-54747895D01*
X107700877Y-54747895D02*
X107748496Y-54771704D01*
X107748496Y-54771704D02*
X107915163Y-54771704D01*
X107438972Y-54581228D02*
X107415163Y-54557419D01*
X107415163Y-54557419D02*
X107367544Y-54533609D01*
X107367544Y-54533609D02*
X107248496Y-54533609D01*
X107248496Y-54533609D02*
X107200877Y-54557419D01*
X107200877Y-54557419D02*
X107177068Y-54581228D01*
X107177068Y-54581228D02*
X107153258Y-54628847D01*
X107153258Y-54628847D02*
X107153258Y-54676466D01*
X107153258Y-54676466D02*
X107177068Y-54747895D01*
X107177068Y-54747895D02*
X107462782Y-55033609D01*
X107462782Y-55033609D02*
X107153258Y-55033609D01*
X108386591Y-55733609D02*
X108219925Y-56233609D01*
X108219925Y-56233609D02*
X108053258Y-55733609D01*
X107600878Y-56185990D02*
X107624687Y-56209800D01*
X107624687Y-56209800D02*
X107696116Y-56233609D01*
X107696116Y-56233609D02*
X107743735Y-56233609D01*
X107743735Y-56233609D02*
X107815163Y-56209800D01*
X107815163Y-56209800D02*
X107862782Y-56162180D01*
X107862782Y-56162180D02*
X107886592Y-56114561D01*
X107886592Y-56114561D02*
X107910401Y-56019323D01*
X107910401Y-56019323D02*
X107910401Y-55947895D01*
X107910401Y-55947895D02*
X107886592Y-55852657D01*
X107886592Y-55852657D02*
X107862782Y-55805038D01*
X107862782Y-55805038D02*
X107815163Y-55757419D01*
X107815163Y-55757419D02*
X107743735Y-55733609D01*
X107743735Y-55733609D02*
X107696116Y-55733609D01*
X107696116Y-55733609D02*
X107624687Y-55757419D01*
X107624687Y-55757419D02*
X107600878Y-55781228D01*
X107100878Y-56185990D02*
X107124687Y-56209800D01*
X107124687Y-56209800D02*
X107196116Y-56233609D01*
X107196116Y-56233609D02*
X107243735Y-56233609D01*
X107243735Y-56233609D02*
X107315163Y-56209800D01*
X107315163Y-56209800D02*
X107362782Y-56162180D01*
X107362782Y-56162180D02*
X107386592Y-56114561D01*
X107386592Y-56114561D02*
X107410401Y-56019323D01*
X107410401Y-56019323D02*
X107410401Y-55947895D01*
X107410401Y-55947895D02*
X107386592Y-55852657D01*
X107386592Y-55852657D02*
X107362782Y-55805038D01*
X107362782Y-55805038D02*
X107315163Y-55757419D01*
X107315163Y-55757419D02*
X107243735Y-55733609D01*
X107243735Y-55733609D02*
X107196116Y-55733609D01*
X107196116Y-55733609D02*
X107124687Y-55757419D01*
X107124687Y-55757419D02*
X107100878Y-55781228D01*
X108415163Y-53733609D02*
X108415163Y-53233609D01*
X108415163Y-53233609D02*
X108224687Y-53233609D01*
X108224687Y-53233609D02*
X108177068Y-53257419D01*
X108177068Y-53257419D02*
X108153258Y-53281228D01*
X108153258Y-53281228D02*
X108129449Y-53328847D01*
X108129449Y-53328847D02*
X108129449Y-53400276D01*
X108129449Y-53400276D02*
X108153258Y-53447895D01*
X108153258Y-53447895D02*
X108177068Y-53471704D01*
X108177068Y-53471704D02*
X108224687Y-53495514D01*
X108224687Y-53495514D02*
X108415163Y-53495514D01*
X107748496Y-53471704D02*
X107677068Y-53495514D01*
X107677068Y-53495514D02*
X107653258Y-53519323D01*
X107653258Y-53519323D02*
X107629449Y-53566942D01*
X107629449Y-53566942D02*
X107629449Y-53638371D01*
X107629449Y-53638371D02*
X107653258Y-53685990D01*
X107653258Y-53685990D02*
X107677068Y-53709800D01*
X107677068Y-53709800D02*
X107724687Y-53733609D01*
X107724687Y-53733609D02*
X107915163Y-53733609D01*
X107915163Y-53733609D02*
X107915163Y-53233609D01*
X107915163Y-53233609D02*
X107748496Y-53233609D01*
X107748496Y-53233609D02*
X107700877Y-53257419D01*
X107700877Y-53257419D02*
X107677068Y-53281228D01*
X107677068Y-53281228D02*
X107653258Y-53328847D01*
X107653258Y-53328847D02*
X107653258Y-53376466D01*
X107653258Y-53376466D02*
X107677068Y-53424085D01*
X107677068Y-53424085D02*
X107700877Y-53447895D01*
X107700877Y-53447895D02*
X107748496Y-53471704D01*
X107748496Y-53471704D02*
X107915163Y-53471704D01*
X107153258Y-53733609D02*
X107438972Y-53733609D01*
X107296115Y-53733609D02*
X107296115Y-53233609D01*
X107296115Y-53233609D02*
X107343734Y-53305038D01*
X107343734Y-53305038D02*
X107391353Y-53352657D01*
X107391353Y-53352657D02*
X107438972Y-53376466D01*
D12*
X130809523Y-69204819D02*
X130809523Y-68204819D01*
X130809523Y-68204819D02*
X130428571Y-68204819D01*
X130428571Y-68204819D02*
X130333333Y-68252438D01*
X130333333Y-68252438D02*
X130285714Y-68300057D01*
X130285714Y-68300057D02*
X130238095Y-68395295D01*
X130238095Y-68395295D02*
X130238095Y-68538152D01*
X130238095Y-68538152D02*
X130285714Y-68633390D01*
X130285714Y-68633390D02*
X130333333Y-68681009D01*
X130333333Y-68681009D02*
X130428571Y-68728628D01*
X130428571Y-68728628D02*
X130809523Y-68728628D01*
X129619047Y-68204819D02*
X129428571Y-68204819D01*
X129428571Y-68204819D02*
X129333333Y-68252438D01*
X129333333Y-68252438D02*
X129238095Y-68347676D01*
X129238095Y-68347676D02*
X129190476Y-68538152D01*
X129190476Y-68538152D02*
X129190476Y-68871485D01*
X129190476Y-68871485D02*
X129238095Y-69061961D01*
X129238095Y-69061961D02*
X129333333Y-69157200D01*
X129333333Y-69157200D02*
X129428571Y-69204819D01*
X129428571Y-69204819D02*
X129619047Y-69204819D01*
X129619047Y-69204819D02*
X129714285Y-69157200D01*
X129714285Y-69157200D02*
X129809523Y-69061961D01*
X129809523Y-69061961D02*
X129857142Y-68871485D01*
X129857142Y-68871485D02*
X129857142Y-68538152D01*
X129857142Y-68538152D02*
X129809523Y-68347676D01*
X129809523Y-68347676D02*
X129714285Y-68252438D01*
X129714285Y-68252438D02*
X129619047Y-68204819D01*
X128857142Y-68204819D02*
X128619047Y-69204819D01*
X128619047Y-69204819D02*
X128428571Y-68490533D01*
X128428571Y-68490533D02*
X128238095Y-69204819D01*
X128238095Y-69204819D02*
X128000000Y-68204819D01*
X127619047Y-68681009D02*
X127285714Y-68681009D01*
X127142857Y-69204819D02*
X127619047Y-69204819D01*
X127619047Y-69204819D02*
X127619047Y-68204819D01*
X127619047Y-68204819D02*
X127142857Y-68204819D01*
X126142857Y-69204819D02*
X126476190Y-68728628D01*
X126714285Y-69204819D02*
X126714285Y-68204819D01*
X126714285Y-68204819D02*
X126333333Y-68204819D01*
X126333333Y-68204819D02*
X126238095Y-68252438D01*
X126238095Y-68252438D02*
X126190476Y-68300057D01*
X126190476Y-68300057D02*
X126142857Y-68395295D01*
X126142857Y-68395295D02*
X126142857Y-68538152D01*
X126142857Y-68538152D02*
X126190476Y-68633390D01*
X126190476Y-68633390D02*
X126238095Y-68681009D01*
X126238095Y-68681009D02*
X126333333Y-68728628D01*
X126333333Y-68728628D02*
X126714285Y-68728628D01*
X130695238Y-63959580D02*
X130742857Y-64007200D01*
X130742857Y-64007200D02*
X130885714Y-64054819D01*
X130885714Y-64054819D02*
X130980952Y-64054819D01*
X130980952Y-64054819D02*
X131123809Y-64007200D01*
X131123809Y-64007200D02*
X131219047Y-63911961D01*
X131219047Y-63911961D02*
X131266666Y-63816723D01*
X131266666Y-63816723D02*
X131314285Y-63626247D01*
X131314285Y-63626247D02*
X131314285Y-63483390D01*
X131314285Y-63483390D02*
X131266666Y-63292914D01*
X131266666Y-63292914D02*
X131219047Y-63197676D01*
X131219047Y-63197676D02*
X131123809Y-63102438D01*
X131123809Y-63102438D02*
X130980952Y-63054819D01*
X130980952Y-63054819D02*
X130885714Y-63054819D01*
X130885714Y-63054819D02*
X130742857Y-63102438D01*
X130742857Y-63102438D02*
X130695238Y-63150057D01*
X129695238Y-64054819D02*
X130028571Y-63578628D01*
X130266666Y-64054819D02*
X130266666Y-63054819D01*
X130266666Y-63054819D02*
X129885714Y-63054819D01*
X129885714Y-63054819D02*
X129790476Y-63102438D01*
X129790476Y-63102438D02*
X129742857Y-63150057D01*
X129742857Y-63150057D02*
X129695238Y-63245295D01*
X129695238Y-63245295D02*
X129695238Y-63388152D01*
X129695238Y-63388152D02*
X129742857Y-63483390D01*
X129742857Y-63483390D02*
X129790476Y-63531009D01*
X129790476Y-63531009D02*
X129885714Y-63578628D01*
X129885714Y-63578628D02*
X130266666Y-63578628D01*
X129314285Y-63150057D02*
X129266666Y-63102438D01*
X129266666Y-63102438D02*
X129171428Y-63054819D01*
X129171428Y-63054819D02*
X128933333Y-63054819D01*
X128933333Y-63054819D02*
X128838095Y-63102438D01*
X128838095Y-63102438D02*
X128790476Y-63150057D01*
X128790476Y-63150057D02*
X128742857Y-63245295D01*
X128742857Y-63245295D02*
X128742857Y-63340533D01*
X128742857Y-63340533D02*
X128790476Y-63483390D01*
X128790476Y-63483390D02*
X129361904Y-64054819D01*
X129361904Y-64054819D02*
X128742857Y-64054819D01*
X128123809Y-63054819D02*
X128028571Y-63054819D01*
X128028571Y-63054819D02*
X127933333Y-63102438D01*
X127933333Y-63102438D02*
X127885714Y-63150057D01*
X127885714Y-63150057D02*
X127838095Y-63245295D01*
X127838095Y-63245295D02*
X127790476Y-63435771D01*
X127790476Y-63435771D02*
X127790476Y-63673866D01*
X127790476Y-63673866D02*
X127838095Y-63864342D01*
X127838095Y-63864342D02*
X127885714Y-63959580D01*
X127885714Y-63959580D02*
X127933333Y-64007200D01*
X127933333Y-64007200D02*
X128028571Y-64054819D01*
X128028571Y-64054819D02*
X128123809Y-64054819D01*
X128123809Y-64054819D02*
X128219047Y-64007200D01*
X128219047Y-64007200D02*
X128266666Y-63959580D01*
X128266666Y-63959580D02*
X128314285Y-63864342D01*
X128314285Y-63864342D02*
X128361904Y-63673866D01*
X128361904Y-63673866D02*
X128361904Y-63435771D01*
X128361904Y-63435771D02*
X128314285Y-63245295D01*
X128314285Y-63245295D02*
X128266666Y-63150057D01*
X128266666Y-63150057D02*
X128219047Y-63102438D01*
X128219047Y-63102438D02*
X128123809Y-63054819D01*
X127457142Y-63054819D02*
X126838095Y-63054819D01*
X126838095Y-63054819D02*
X127171428Y-63435771D01*
X127171428Y-63435771D02*
X127028571Y-63435771D01*
X127028571Y-63435771D02*
X126933333Y-63483390D01*
X126933333Y-63483390D02*
X126885714Y-63531009D01*
X126885714Y-63531009D02*
X126838095Y-63626247D01*
X126838095Y-63626247D02*
X126838095Y-63864342D01*
X126838095Y-63864342D02*
X126885714Y-63959580D01*
X126885714Y-63959580D02*
X126933333Y-64007200D01*
X126933333Y-64007200D02*
X127028571Y-64054819D01*
X127028571Y-64054819D02*
X127314285Y-64054819D01*
X127314285Y-64054819D02*
X127409523Y-64007200D01*
X127409523Y-64007200D02*
X127457142Y-63959580D01*
X126457142Y-63150057D02*
X126409523Y-63102438D01*
X126409523Y-63102438D02*
X126314285Y-63054819D01*
X126314285Y-63054819D02*
X126076190Y-63054819D01*
X126076190Y-63054819D02*
X125980952Y-63102438D01*
X125980952Y-63102438D02*
X125933333Y-63150057D01*
X125933333Y-63150057D02*
X125885714Y-63245295D01*
X125885714Y-63245295D02*
X125885714Y-63340533D01*
X125885714Y-63340533D02*
X125933333Y-63483390D01*
X125933333Y-63483390D02*
X126504761Y-64054819D01*
X126504761Y-64054819D02*
X125885714Y-64054819D01*
D13*
%TO.C,POWER*%
X131825000Y-72970000D02*
X131825000Y-72180000D01*
X129775000Y-75270000D02*
X129775000Y-73980000D01*
X129575000Y-75480000D02*
X129775000Y-75270000D01*
X128675000Y-75480000D02*
X129575000Y-75480000D01*
X128675000Y-75480000D02*
X128475000Y-75270000D01*
X128475000Y-73980000D02*
X128475000Y-75270000D01*
X128275000Y-71130000D02*
X129975000Y-71130000D01*
X126775000Y-71130000D02*
X126975000Y-71130000D01*
X125525000Y-73980000D02*
X131225000Y-73980000D01*
X124925000Y-72180000D02*
X124925000Y-72970000D01*
%TO.C,CR2032*%
X114300000Y-50150000D02*
X117500000Y-50150000D01*
X114300000Y-51700000D02*
X114300000Y-50150000D01*
X114300000Y-56300000D02*
X114300000Y-57850000D01*
X114300000Y-57850000D02*
X117500000Y-57850000D01*
X114850000Y-48000000D02*
X116850000Y-48000000D01*
X115850000Y-47000000D02*
X115850000Y-49000000D01*
X117500000Y-47450000D02*
X119300000Y-45650000D01*
X117500000Y-50150000D02*
X117500000Y-47450000D01*
X117500000Y-57850000D02*
X117500000Y-62350000D01*
X119300000Y-45650000D02*
X140200000Y-45650000D01*
X140200000Y-50150000D02*
X140200000Y-45650000D01*
X140200000Y-57850000D02*
X140200000Y-62350000D01*
X140200000Y-62350000D02*
X117500000Y-62350000D01*
X143400000Y-50150000D02*
X140200000Y-50150000D01*
X143400000Y-51700000D02*
X143400000Y-50150000D01*
X143400000Y-56300000D02*
X143400000Y-57850000D01*
X143400000Y-57850000D02*
X140200000Y-57850000D01*
%TD*%
M02*
