%TF.GenerationSoftware,KiCad,Pcbnew,8.0.3*%
%TF.CreationDate,2024-08-18T16:24:04+10:00*%
%TF.ProjectId,tetris_03,74657472-6973-45f3-9033-2e6b69636164,rev?*%
%TF.SameCoordinates,Original*%
%TF.FileFunction,Copper,L1,Top*%
%TF.FilePolarity,Positive*%
%FSLAX46Y46*%
G04 Gerber Fmt 4.6, Leading zero omitted, Abs format (unit mm)*
G04 Created by KiCad (PCBNEW 8.0.3) date 2024-08-18 16:24:04*
%MOMM*%
%LPD*%
G01*
G04 APERTURE LIST*
G04 Aperture macros list*
%AMRoundRect*
0 Rectangle with rounded corners*
0 $1 Rounding radius*
0 $2 $3 $4 $5 $6 $7 $8 $9 X,Y pos of 4 corners*
0 Add a 4 corners polygon primitive as box body*
4,1,4,$2,$3,$4,$5,$6,$7,$8,$9,$2,$3,0*
0 Add four circle primitives for the rounded corners*
1,1,$1+$1,$2,$3*
1,1,$1+$1,$4,$5*
1,1,$1+$1,$6,$7*
1,1,$1+$1,$8,$9*
0 Add four rect primitives between the rounded corners*
20,1,$1+$1,$2,$3,$4,$5,0*
20,1,$1+$1,$4,$5,$6,$7,0*
20,1,$1+$1,$6,$7,$8,$9,0*
20,1,$1+$1,$8,$9,$2,$3,0*%
G04 Aperture macros list end*
%TA.AperFunction,SMDPad,CuDef*%
%ADD10R,2.000000X2.000000*%
%TD*%
%TA.AperFunction,ComponentPad*%
%ADD11R,1.700000X1.700000*%
%TD*%
%TA.AperFunction,ComponentPad*%
%ADD12O,1.700000X1.700000*%
%TD*%
%TA.AperFunction,SMDPad,CuDef*%
%ADD13R,1.700000X0.650000*%
%TD*%
%TA.AperFunction,SMDPad,CuDef*%
%ADD14RoundRect,0.535713X-0.964287X-1.139287X0.964287X-1.139287X0.964287X1.139287X-0.964287X1.139287X0*%
%TD*%
%TA.AperFunction,ViaPad*%
%ADD15C,0.600000*%
%TD*%
%TA.AperFunction,Conductor*%
%ADD16C,0.200000*%
%TD*%
G04 APERTURE END LIST*
D10*
%TO.P,RIGHT,1,1*%
%TO.N,Net-(U1-XTAL2{slash}PB4)*%
X147475000Y-48750000D03*
X139525000Y-48750000D03*
%TO.P,RIGHT,2,2*%
%TO.N,GND*%
X147475000Y-44250000D03*
X139525000Y-44250000D03*
%TD*%
%TO.P,LEFT,1,1*%
%TO.N,Net-(J1-Pin_4)*%
X117475000Y-48750000D03*
X109525000Y-48750000D03*
%TO.P,LEFT,2,2*%
%TO.N,GND*%
X117475000Y-44250000D03*
X109525000Y-44250000D03*
%TD*%
D11*
%TO.P,OLED,1,Pin_1*%
%TO.N,GND*%
X124750000Y-37000000D03*
D12*
%TO.P,OLED,2,Pin_2*%
%TO.N,VCC*%
X127290000Y-37000000D03*
%TO.P,OLED,3,Pin_3*%
%TO.N,Net-(J1-Pin_5)*%
X129830000Y-37000000D03*
%TO.P,OLED,4,Pin_4*%
%TO.N,Net-(J1-Pin_3)*%
X132370000Y-37000000D03*
%TD*%
D13*
%TO.P,ATTINY85,1,~{RESET}/PB5*%
%TO.N,Net-(J1-Pin_2)*%
X132150000Y-52905000D03*
%TO.P,ATTINY85,2,XTAL1/PB3*%
%TO.N,Net-(U1-XTAL1{slash}PB3)*%
X132150000Y-51635000D03*
%TO.P,ATTINY85,3,XTAL2/PB4*%
%TO.N,Net-(U1-XTAL2{slash}PB4)*%
X132150000Y-50365000D03*
%TO.P,ATTINY85,4,GND*%
%TO.N,GND*%
X132150000Y-49095000D03*
%TO.P,ATTINY85,5,AREF/PB0*%
%TO.N,Net-(J1-Pin_3)*%
X124850000Y-49095000D03*
%TO.P,ATTINY85,6,PB1*%
%TO.N,Net-(J1-Pin_4)*%
X124850000Y-50365000D03*
%TO.P,ATTINY85,7,PB2*%
%TO.N,Net-(J1-Pin_5)*%
X124850000Y-51635000D03*
%TO.P,ATTINY85,8,VCC*%
%TO.N,VCC*%
X124850000Y-52905000D03*
%TD*%
D10*
%TO.P,ROTATE,1,1*%
%TO.N,Net-(U1-XTAL1{slash}PB3)*%
X139550000Y-59250000D03*
X147500000Y-59250000D03*
%TO.P,ROTATE,2,2*%
%TO.N,GND*%
X139550000Y-63750000D03*
X147500000Y-63750000D03*
%TD*%
%TO.P,DROP,1,1*%
%TO.N,Net-(J1-Pin_2)*%
X109550000Y-59250000D03*
X117500000Y-59250000D03*
%TO.P,DROP,2,2*%
%TO.N,Net-(DROP1-Pad2)*%
X109550000Y-63750000D03*
X117500000Y-63750000D03*
%TD*%
D14*
%TO.P,R1,1*%
%TO.N,Net-(DROP1-Pad2)*%
X125450000Y-63750000D03*
%TO.P,R1,2*%
%TO.N,GND*%
X131550000Y-63750000D03*
%TD*%
D15*
%TO.N,Net-(J1-Pin_2)*%
X128750000Y-52900000D03*
%TO.N,Net-(J1-Pin_3)*%
X109500000Y-52200000D03*
X128750000Y-46750000D03*
%TO.N,VCC*%
X128750000Y-56250000D03*
X109500000Y-56000000D03*
X126400000Y-46700000D03*
%TO.N,Net-(J1-Pin_5)*%
X109500000Y-54800000D03*
%TO.N,Net-(J1-Pin_4)*%
X109500000Y-53500000D03*
X120100000Y-48750000D03*
X121675000Y-49925000D03*
%TD*%
D16*
%TO.N,Net-(DROP1-Pad2)*%
X117500000Y-63750000D02*
X125450000Y-63750000D01*
%TO.N,Net-(J1-Pin_2)*%
X135500000Y-53250000D02*
X135500000Y-58250000D01*
X135155000Y-52905000D02*
X135500000Y-53250000D01*
X129405000Y-52905000D02*
X132150000Y-52905000D01*
X129400000Y-52900000D02*
X129405000Y-52905000D01*
X132150000Y-52905000D02*
X135155000Y-52905000D01*
X135500000Y-58250000D02*
X134500000Y-59250000D01*
X134500000Y-59250000D02*
X117500000Y-59250000D01*
X128750000Y-52900000D02*
X129400000Y-52900000D01*
%TO.N,Net-(J1-Pin_3)*%
X121405000Y-49095000D02*
X124850000Y-49095000D01*
X120800000Y-51200000D02*
X120800000Y-49700000D01*
X109500000Y-52200000D02*
X119800000Y-52200000D01*
X120800000Y-49700000D02*
X121405000Y-49095000D01*
X124850000Y-49095000D02*
X127905000Y-49095000D01*
X128750000Y-48250000D02*
X128750000Y-48000000D01*
X127905000Y-49095000D02*
X128000000Y-49000000D01*
X128750000Y-48000000D02*
X128750000Y-46750000D01*
X119800000Y-52200000D02*
X120800000Y-51200000D01*
X128000000Y-49000000D02*
X128750000Y-48250000D01*
%TO.N,VCC*%
X123395000Y-52905000D02*
X124850000Y-52905000D01*
X109500000Y-56000000D02*
X120300000Y-56000000D01*
X120300000Y-56000000D02*
X123395000Y-52905000D01*
X127290000Y-37000000D02*
X127290000Y-41610000D01*
X124850000Y-54850000D02*
X124850000Y-52905000D01*
X126400000Y-42500000D02*
X126400000Y-46700000D01*
X126250000Y-56250000D02*
X124850000Y-54850000D01*
X127290000Y-41610000D02*
X126400000Y-42500000D01*
X128750000Y-56250000D02*
X126250000Y-56250000D01*
%TO.N,Net-(J1-Pin_5)*%
X129830000Y-49670000D02*
X129830000Y-37000000D01*
X127865000Y-51635000D02*
X129830000Y-49670000D01*
X124850000Y-51635000D02*
X127865000Y-51635000D01*
X120300000Y-54800000D02*
X123465000Y-51635000D01*
X123465000Y-51635000D02*
X124850000Y-51635000D01*
X109500000Y-54800000D02*
X120300000Y-54800000D01*
%TO.N,Net-(J1-Pin_4)*%
X123035000Y-50365000D02*
X124850000Y-50365000D01*
X120300000Y-53500000D02*
X123435000Y-50365000D01*
X120100000Y-48750000D02*
X117475000Y-48750000D01*
X123435000Y-50365000D02*
X124850000Y-50365000D01*
X121675000Y-49925000D02*
X122115000Y-50365000D01*
X109500000Y-53500000D02*
X120300000Y-53500000D01*
X122115000Y-50365000D02*
X124850000Y-50365000D01*
%TO.N,Net-(U1-XTAL2{slash}PB4)*%
X132150000Y-50365000D02*
X134885000Y-50365000D01*
X136500000Y-48750000D02*
X139525000Y-48750000D01*
X134885000Y-50365000D02*
X136500000Y-48750000D01*
%TO.N,Net-(U1-XTAL1{slash}PB3)*%
X135135000Y-51635000D02*
X136500000Y-53000000D01*
X137500000Y-59250000D02*
X139550000Y-59250000D01*
X132150000Y-51635000D02*
X135135000Y-51635000D01*
X136500000Y-53000000D02*
X136500000Y-58250000D01*
X136500000Y-58250000D02*
X137500000Y-59250000D01*
%TD*%
%TA.AperFunction,Conductor*%
%TO.N,GND*%
G36*
X138667647Y-32599412D02*
G01*
X139544556Y-32613271D01*
X139546135Y-32613323D01*
X140389316Y-32654621D01*
X140390972Y-32654731D01*
X141204651Y-32723422D01*
X141206455Y-32723608D01*
X141990568Y-32819557D01*
X141992500Y-32819832D01*
X142747087Y-32942897D01*
X142749096Y-32943268D01*
X143474263Y-33093302D01*
X143476385Y-33093791D01*
X144172059Y-33270603D01*
X144172087Y-33270610D01*
X144174322Y-33271234D01*
X144840761Y-33474689D01*
X144843032Y-33475445D01*
X145369812Y-33665495D01*
X145480321Y-33705364D01*
X145482713Y-33706298D01*
X146091080Y-33962546D01*
X146093522Y-33963655D01*
X146673186Y-34246101D01*
X146675656Y-34247393D01*
X147226927Y-34555965D01*
X147229398Y-34557444D01*
X147752672Y-34892163D01*
X147755109Y-34893828D01*
X148250718Y-35254729D01*
X148253066Y-35256552D01*
X148425773Y-35399348D01*
X148721369Y-35643750D01*
X148723651Y-35645760D01*
X149060509Y-35961505D01*
X149164988Y-36059436D01*
X149167152Y-36061595D01*
X149579954Y-36500000D01*
X149581866Y-36502030D01*
X149583884Y-36504311D01*
X149972252Y-36971829D01*
X149974102Y-36974201D01*
X150336319Y-37469145D01*
X150337989Y-37471577D01*
X150470640Y-37677828D01*
X150673611Y-37993415D01*
X150674186Y-37994308D01*
X150675665Y-37996764D01*
X150699166Y-38038493D01*
X150985899Y-38547639D01*
X150987194Y-38550099D01*
X151271454Y-39129446D01*
X151272566Y-39131878D01*
X151530782Y-39739971D01*
X151531721Y-39742352D01*
X151763797Y-40379468D01*
X151764574Y-40381779D01*
X151970375Y-41048108D01*
X151971005Y-41050335D01*
X152150355Y-41745962D01*
X152150854Y-41748093D01*
X152303621Y-42473200D01*
X152304005Y-42475231D01*
X152430025Y-43229870D01*
X152430307Y-43231796D01*
X152529426Y-44015917D01*
X152529622Y-44017738D01*
X152601713Y-44831446D01*
X152601835Y-44833162D01*
X152646773Y-45676405D01*
X152646832Y-45678020D01*
X152664574Y-46553715D01*
X152664584Y-46554708D01*
X152664584Y-61475168D01*
X152664578Y-61475949D01*
X152650598Y-62352735D01*
X152650544Y-62354371D01*
X152608910Y-63197329D01*
X152608794Y-63199067D01*
X152539566Y-64012556D01*
X152539374Y-64014397D01*
X152442713Y-64798334D01*
X152442433Y-64800281D01*
X152318509Y-65554664D01*
X152318127Y-65556714D01*
X152167117Y-66281592D01*
X152166618Y-66283743D01*
X151988709Y-66979184D01*
X151988078Y-66981428D01*
X151783464Y-67647526D01*
X151782685Y-67649854D01*
X151551526Y-68286824D01*
X151550584Y-68289219D01*
X151293083Y-68897154D01*
X151291968Y-68899599D01*
X151008233Y-69478820D01*
X151006934Y-69481290D01*
X150697077Y-70032046D01*
X150695591Y-70034515D01*
X150359630Y-70557174D01*
X150357957Y-70559612D01*
X149995872Y-71054507D01*
X149994019Y-71056883D01*
X149605708Y-71524376D01*
X149603689Y-71526658D01*
X149188977Y-71967097D01*
X149186813Y-71969256D01*
X148745486Y-72382927D01*
X148743201Y-72384939D01*
X148274936Y-72772137D01*
X148272559Y-72773983D01*
X147777048Y-73134882D01*
X147774611Y-73136547D01*
X147251512Y-73471275D01*
X147249045Y-73472754D01*
X146698014Y-73781366D01*
X146695547Y-73782656D01*
X146116328Y-74065110D01*
X146113889Y-74066218D01*
X145506198Y-74322454D01*
X145503809Y-74323389D01*
X144867392Y-74553307D01*
X144865072Y-74554080D01*
X144199794Y-74757518D01*
X144197558Y-74758144D01*
X143503325Y-74934943D01*
X143501182Y-74935438D01*
X142777830Y-75085452D01*
X142775788Y-75085831D01*
X142023320Y-75208884D01*
X142021382Y-75209161D01*
X141239838Y-75305092D01*
X141238004Y-75305282D01*
X140427333Y-75373958D01*
X140425603Y-75374074D01*
X139585890Y-75415362D01*
X139584262Y-75415415D01*
X138711283Y-75429274D01*
X138710505Y-75429280D01*
X132085546Y-75429280D01*
X132084397Y-75429266D01*
X132083256Y-75429239D01*
X132071381Y-75428960D01*
X132069060Y-75428851D01*
X132063178Y-75428433D01*
X132060861Y-75428213D01*
X132055684Y-75427597D01*
X132053348Y-75427262D01*
X132050743Y-75426824D01*
X132048757Y-75426489D01*
X132046416Y-75426037D01*
X132042412Y-75425161D01*
X132040109Y-75424598D01*
X132036584Y-75423646D01*
X132034275Y-75422961D01*
X132031234Y-75421977D01*
X132028956Y-75421178D01*
X132028940Y-75421172D01*
X132026284Y-75420165D01*
X132024049Y-75419254D01*
X132021758Y-75418254D01*
X132019560Y-75417229D01*
X132017543Y-75416227D01*
X132015396Y-75415094D01*
X132015273Y-75415025D01*
X132013622Y-75414100D01*
X132011523Y-75412853D01*
X132009972Y-75411879D01*
X132007982Y-75410559D01*
X132006571Y-75409573D01*
X132004591Y-75408113D01*
X132003354Y-75407152D01*
X132001506Y-75405641D01*
X132000331Y-75404631D01*
X131998486Y-75402961D01*
X131997444Y-75401969D01*
X131995730Y-75400255D01*
X131994712Y-75399185D01*
X131993091Y-75397395D01*
X131992096Y-75396238D01*
X131990551Y-75394348D01*
X131989571Y-75393086D01*
X131988130Y-75391132D01*
X131987157Y-75389742D01*
X131985815Y-75387716D01*
X131984852Y-75386181D01*
X131983629Y-75384122D01*
X131982625Y-75382333D01*
X131981482Y-75380170D01*
X131980472Y-75378138D01*
X131979464Y-75375977D01*
X131978430Y-75373606D01*
X131977527Y-75371389D01*
X131976534Y-75368767D01*
X131975739Y-75366501D01*
X131974738Y-75363408D01*
X131974060Y-75361126D01*
X131973104Y-75357590D01*
X131972549Y-75355314D01*
X131971665Y-75351270D01*
X131971221Y-75348968D01*
X131970447Y-75344373D01*
X131970114Y-75342058D01*
X131969494Y-75336851D01*
X131970042Y-75321762D01*
X131970237Y-75320754D01*
X131971073Y-75316432D01*
X131968322Y-75277646D01*
X131968702Y-75267185D01*
X131969681Y-75260401D01*
X131969681Y-75260399D01*
X131966867Y-75236783D01*
X131966537Y-75232141D01*
X131966482Y-75229780D01*
X131965983Y-75208499D01*
X131965981Y-75208495D01*
X131965956Y-75207392D01*
X131965762Y-75205359D01*
X131965660Y-75204756D01*
X131965661Y-75204753D01*
X131961713Y-75181296D01*
X131961158Y-75176630D01*
X131959405Y-75151896D01*
X131959169Y-75150253D01*
X131959018Y-75149562D01*
X131953937Y-75126316D01*
X131953154Y-75121662D01*
X131950217Y-75097005D01*
X131949980Y-75095777D01*
X131943572Y-75072063D01*
X131942554Y-75067410D01*
X131942548Y-75067372D01*
X131938623Y-75044042D01*
X131938622Y-75044039D01*
X131938419Y-75042833D01*
X131938197Y-75041925D01*
X131930602Y-75018456D01*
X131929355Y-75013848D01*
X131924297Y-74990702D01*
X131924296Y-74990700D01*
X131924023Y-74989450D01*
X131923882Y-74988976D01*
X131923498Y-74987965D01*
X131915106Y-74965815D01*
X131913634Y-74961270D01*
X131907437Y-74938330D01*
X131907094Y-74937060D01*
X131907040Y-74936908D01*
X131906608Y-74935919D01*
X131906608Y-74935917D01*
X131897073Y-74914076D01*
X131895371Y-74909586D01*
X131888056Y-74886976D01*
X131888055Y-74886974D01*
X131887659Y-74885750D01*
X131887191Y-74884808D01*
X131887191Y-74884807D01*
X131876588Y-74863469D01*
X131874655Y-74859040D01*
X131866234Y-74836815D01*
X131866234Y-74836814D01*
X131866232Y-74836811D01*
X131865822Y-74835729D01*
X131853686Y-74814073D01*
X131851530Y-74809736D01*
X131841999Y-74787901D01*
X131841997Y-74787898D01*
X131841570Y-74786920D01*
X131828394Y-74765935D01*
X131826010Y-74761683D01*
X131821583Y-74752773D01*
X131815411Y-74740352D01*
X131815409Y-74740350D01*
X131814986Y-74739498D01*
X131814500Y-74738803D01*
X131814499Y-74738800D01*
X131800815Y-74719241D01*
X131798225Y-74715115D01*
X131788684Y-74698092D01*
X131786556Y-74694295D01*
X131786554Y-74694293D01*
X131786121Y-74693520D01*
X131785626Y-74692883D01*
X131785626Y-74692882D01*
X131770966Y-74674010D01*
X131768163Y-74670004D01*
X131755028Y-74649083D01*
X131738960Y-74630403D01*
X131735957Y-74626538D01*
X131721828Y-74606343D01*
X131704833Y-74588474D01*
X131701642Y-74584765D01*
X131686512Y-74565288D01*
X131668659Y-74548307D01*
X131665290Y-74544766D01*
X131649702Y-74526646D01*
X131649698Y-74526643D01*
X131649229Y-74526098D01*
X131648686Y-74525631D01*
X131648685Y-74525629D01*
X131630563Y-74510039D01*
X131627029Y-74506678D01*
X131610541Y-74489343D01*
X131610540Y-74489342D01*
X131610035Y-74488811D01*
X131609434Y-74488344D01*
X131590549Y-74473675D01*
X131586842Y-74470486D01*
X131569007Y-74453521D01*
X131568370Y-74453075D01*
X131568369Y-74453074D01*
X131548804Y-74439384D01*
X131544946Y-74436387D01*
X131526243Y-74420297D01*
X131505305Y-74407152D01*
X131501301Y-74404351D01*
X131501293Y-74404345D01*
X131482438Y-74389699D01*
X131482437Y-74389698D01*
X131481802Y-74389205D01*
X131460238Y-74377119D01*
X131456105Y-74374524D01*
X131435837Y-74360344D01*
X131413623Y-74349307D01*
X131409372Y-74346924D01*
X131388413Y-74333765D01*
X131365634Y-74323821D01*
X131361284Y-74321660D01*
X131349907Y-74315284D01*
X131340470Y-74309995D01*
X131340468Y-74309994D01*
X131339602Y-74309509D01*
X131329779Y-74305787D01*
X131316264Y-74300666D01*
X131311843Y-74298736D01*
X131300067Y-74292885D01*
X131289550Y-74287660D01*
X131265757Y-74279961D01*
X131261254Y-74278254D01*
X131246039Y-74271613D01*
X131238477Y-74268312D01*
X131238298Y-74268250D01*
X131237019Y-74267904D01*
X131226876Y-74265162D01*
X131214117Y-74261714D01*
X131209543Y-74260233D01*
X131186368Y-74251453D01*
X131185831Y-74251294D01*
X131161457Y-74245968D01*
X131156835Y-74244719D01*
X131133379Y-74237130D01*
X131132499Y-74236915D01*
X131107970Y-74232787D01*
X131103322Y-74231771D01*
X131079592Y-74225359D01*
X131078303Y-74225109D01*
X131053627Y-74222170D01*
X131048966Y-74221385D01*
X131025086Y-74216168D01*
X131023407Y-74215926D01*
X130998712Y-74214174D01*
X130994051Y-74213618D01*
X130970030Y-74209577D01*
X130967915Y-74209375D01*
X130943170Y-74208793D01*
X130938529Y-74208463D01*
X130914918Y-74205651D01*
X130910497Y-74206289D01*
X130909709Y-74206403D01*
X130902714Y-74206905D01*
X130897929Y-74206905D01*
X130894464Y-74206782D01*
X130886933Y-74206247D01*
X130858902Y-74204260D01*
X130858892Y-74204260D01*
X130852276Y-74205539D01*
X130841835Y-74206416D01*
X130805722Y-74205570D01*
X130802605Y-74205497D01*
X130802604Y-74205497D01*
X130802603Y-74205497D01*
X130802509Y-74205520D01*
X130790942Y-74206905D01*
X125989383Y-74206905D01*
X125977816Y-74205520D01*
X125977721Y-74205497D01*
X125977720Y-74205497D01*
X125976739Y-74205520D01*
X125938489Y-74206416D01*
X125928047Y-74205539D01*
X125921430Y-74204260D01*
X125921422Y-74204260D01*
X125893390Y-74206247D01*
X125885859Y-74206782D01*
X125882395Y-74206905D01*
X125877610Y-74206905D01*
X125870614Y-74206403D01*
X125869510Y-74206244D01*
X125865404Y-74205651D01*
X125841793Y-74208463D01*
X125837152Y-74208793D01*
X125812415Y-74209374D01*
X125810297Y-74209576D01*
X125786275Y-74213618D01*
X125781612Y-74214174D01*
X125756924Y-74215924D01*
X125755238Y-74216167D01*
X125731354Y-74221385D01*
X125726695Y-74222170D01*
X125702024Y-74225109D01*
X125700712Y-74225363D01*
X125677012Y-74231768D01*
X125672363Y-74232785D01*
X125647844Y-74236911D01*
X125646929Y-74237135D01*
X125623493Y-74244717D01*
X125618873Y-74245966D01*
X125594501Y-74251292D01*
X125593949Y-74251456D01*
X125570781Y-74260232D01*
X125566211Y-74261711D01*
X125542052Y-74268241D01*
X125541843Y-74268315D01*
X125519092Y-74278245D01*
X125514579Y-74279956D01*
X125490770Y-74287660D01*
X125468471Y-74298739D01*
X125464033Y-74300676D01*
X125440718Y-74309510D01*
X125419050Y-74321653D01*
X125414702Y-74323814D01*
X125391913Y-74333762D01*
X125370937Y-74346930D01*
X125366693Y-74349309D01*
X125344477Y-74360349D01*
X125324221Y-74374521D01*
X125320090Y-74377115D01*
X125298519Y-74389204D01*
X125279026Y-74404345D01*
X125275027Y-74407144D01*
X125254082Y-74420294D01*
X125235377Y-74436385D01*
X125231516Y-74439385D01*
X125211309Y-74453524D01*
X125193465Y-74470495D01*
X125189759Y-74473684D01*
X125170298Y-74488802D01*
X125153308Y-74506662D01*
X125149764Y-74510033D01*
X125131092Y-74526097D01*
X125115018Y-74544779D01*
X125111650Y-74548320D01*
X125093793Y-74565308D01*
X125078680Y-74584762D01*
X125075491Y-74588470D01*
X125058504Y-74606330D01*
X125044365Y-74626537D01*
X125041364Y-74630399D01*
X125025298Y-74649075D01*
X125012155Y-74670007D01*
X125009356Y-74674008D01*
X124994199Y-74693520D01*
X124982097Y-74715112D01*
X124979505Y-74719241D01*
X124965329Y-74739505D01*
X124964902Y-74740363D01*
X124964902Y-74740364D01*
X124954297Y-74761706D01*
X124951921Y-74765944D01*
X124938760Y-74786906D01*
X124928808Y-74809703D01*
X124926647Y-74814051D01*
X124914501Y-74835723D01*
X124905661Y-74859055D01*
X124903723Y-74863492D01*
X124892650Y-74885780D01*
X124884951Y-74909573D01*
X124883243Y-74914078D01*
X124873921Y-74935438D01*
X124873313Y-74936831D01*
X124873225Y-74937080D01*
X124866701Y-74961219D01*
X124865221Y-74965791D01*
X124856451Y-74988941D01*
X124856281Y-74989512D01*
X124850959Y-75013870D01*
X124849710Y-75018491D01*
X124842123Y-75041942D01*
X124841904Y-75042836D01*
X124837775Y-75067372D01*
X124836758Y-75072021D01*
X124830351Y-75095731D01*
X124830098Y-75097038D01*
X124827160Y-75121703D01*
X124826375Y-75126365D01*
X124821157Y-75150249D01*
X124820914Y-75151935D01*
X124819165Y-75176612D01*
X124818609Y-75181275D01*
X124814569Y-75205288D01*
X124814364Y-75207426D01*
X124813783Y-75232160D01*
X124813453Y-75236801D01*
X124810641Y-75260414D01*
X124811620Y-75267204D01*
X124811998Y-75277658D01*
X124809250Y-75316430D01*
X124809250Y-75316432D01*
X124810280Y-75321758D01*
X124810826Y-75336862D01*
X124810209Y-75342037D01*
X124809875Y-75344367D01*
X124809105Y-75348943D01*
X124808655Y-75351272D01*
X124807779Y-75355281D01*
X124807210Y-75357608D01*
X124806259Y-75361126D01*
X124805576Y-75363427D01*
X124804586Y-75366486D01*
X124803794Y-75368744D01*
X124802794Y-75371386D01*
X124801875Y-75373643D01*
X124800864Y-75375959D01*
X124799831Y-75378173D01*
X124798838Y-75380170D01*
X124797715Y-75382297D01*
X124796722Y-75384070D01*
X124795461Y-75386194D01*
X124794501Y-75387722D01*
X124793160Y-75389742D01*
X124792182Y-75391140D01*
X124790737Y-75393100D01*
X124789779Y-75394334D01*
X124788215Y-75396248D01*
X124787240Y-75397381D01*
X124785598Y-75399195D01*
X124784598Y-75400246D01*
X124782870Y-75401974D01*
X124781805Y-75402987D01*
X124779992Y-75404627D01*
X124778839Y-75405619D01*
X124776962Y-75407155D01*
X124775752Y-75408096D01*
X124773732Y-75409585D01*
X124772342Y-75410556D01*
X124770347Y-75411879D01*
X124768795Y-75412854D01*
X124766673Y-75414114D01*
X124764925Y-75415093D01*
X124762789Y-75416220D01*
X124760785Y-75417216D01*
X124758580Y-75418245D01*
X124756257Y-75419259D01*
X124754026Y-75420168D01*
X124751378Y-75421172D01*
X124749090Y-75421976D01*
X124746027Y-75422967D01*
X124743718Y-75423651D01*
X124740204Y-75424600D01*
X124737892Y-75425165D01*
X124733916Y-75426034D01*
X124731588Y-75426484D01*
X124726973Y-75427261D01*
X124724633Y-75427597D01*
X124719461Y-75428213D01*
X124717132Y-75428434D01*
X124711252Y-75428851D01*
X124708938Y-75428960D01*
X124697067Y-75429239D01*
X124695925Y-75429266D01*
X124694777Y-75429280D01*
X118069851Y-75429280D01*
X118069070Y-75429274D01*
X117192283Y-75415294D01*
X117190647Y-75415240D01*
X116347694Y-75373606D01*
X116345956Y-75373490D01*
X115532464Y-75304261D01*
X115530623Y-75304069D01*
X114746701Y-75207410D01*
X114744754Y-75207130D01*
X114074560Y-75097038D01*
X113990351Y-75083205D01*
X113988314Y-75082825D01*
X113802076Y-75044027D01*
X113263428Y-74931812D01*
X113261277Y-74931313D01*
X112565833Y-74753404D01*
X112563589Y-74752773D01*
X111897489Y-74548158D01*
X111895161Y-74547379D01*
X111258203Y-74316226D01*
X111255808Y-74315284D01*
X110647878Y-74057786D01*
X110645433Y-74056671D01*
X110086056Y-73782656D01*
X110066191Y-73772925D01*
X110063725Y-73771628D01*
X109512972Y-73461773D01*
X109510503Y-73460287D01*
X108987838Y-73124321D01*
X108985400Y-73122648D01*
X108490513Y-72760568D01*
X108488137Y-72758715D01*
X108189910Y-72511001D01*
X126174500Y-72511001D01*
X126174500Y-72648998D01*
X126201417Y-72784318D01*
X126201420Y-72784328D01*
X126254225Y-72911811D01*
X126285137Y-72958074D01*
X126330883Y-73026539D01*
X126428460Y-73124116D01*
X126445875Y-73135752D01*
X126543189Y-73200775D01*
X126670672Y-73253580D01*
X126670678Y-73253581D01*
X126670681Y-73253582D01*
X126806001Y-73280499D01*
X126806007Y-73280500D01*
X126943993Y-73280500D01*
X127079328Y-73253580D01*
X127206811Y-73200775D01*
X127321542Y-73124114D01*
X127419114Y-73026542D01*
X127495775Y-72911811D01*
X127548580Y-72784328D01*
X127575500Y-72648993D01*
X127575500Y-72511007D01*
X127575499Y-72511001D01*
X129174500Y-72511001D01*
X129174500Y-72648998D01*
X129201417Y-72784318D01*
X129201420Y-72784328D01*
X129254225Y-72911811D01*
X129285137Y-72958074D01*
X129330883Y-73026539D01*
X129428460Y-73124116D01*
X129445875Y-73135752D01*
X129543189Y-73200775D01*
X129670672Y-73253580D01*
X129670678Y-73253581D01*
X129670681Y-73253582D01*
X129806001Y-73280499D01*
X129806007Y-73280500D01*
X129943993Y-73280500D01*
X130079328Y-73253580D01*
X130206811Y-73200775D01*
X130321542Y-73124114D01*
X130419114Y-73026542D01*
X130495775Y-72911811D01*
X130548580Y-72784328D01*
X130575500Y-72648993D01*
X130575500Y-72511007D01*
X130575499Y-72511001D01*
X130548582Y-72375681D01*
X130548579Y-72375670D01*
X130495776Y-72248192D01*
X130495775Y-72248189D01*
X130444147Y-72170923D01*
X130419116Y-72133460D01*
X130321539Y-72035883D01*
X130221823Y-71969256D01*
X130206811Y-71959225D01*
X130206808Y-71959223D01*
X130206807Y-71959223D01*
X130079329Y-71906420D01*
X130079318Y-71906417D01*
X129943998Y-71879500D01*
X129943993Y-71879500D01*
X129806007Y-71879500D01*
X129806001Y-71879500D01*
X129670681Y-71906417D01*
X129670670Y-71906420D01*
X129543192Y-71959223D01*
X129428460Y-72035883D01*
X129330883Y-72133460D01*
X129254223Y-72248192D01*
X129201420Y-72375670D01*
X129201417Y-72375681D01*
X129174500Y-72511001D01*
X127575499Y-72511001D01*
X127548582Y-72375681D01*
X127548579Y-72375670D01*
X127495776Y-72248192D01*
X127495775Y-72248189D01*
X127444147Y-72170923D01*
X127419116Y-72133460D01*
X127321539Y-72035883D01*
X127221823Y-71969256D01*
X127206811Y-71959225D01*
X127206808Y-71959223D01*
X127206807Y-71959223D01*
X127079329Y-71906420D01*
X127079318Y-71906417D01*
X126943998Y-71879500D01*
X126943993Y-71879500D01*
X126806007Y-71879500D01*
X126806001Y-71879500D01*
X126670681Y-71906417D01*
X126670670Y-71906420D01*
X126543192Y-71959223D01*
X126428460Y-72035883D01*
X126330883Y-72133460D01*
X126254223Y-72248192D01*
X126201420Y-72375670D01*
X126201417Y-72375681D01*
X126174500Y-72511001D01*
X108189910Y-72511001D01*
X108026996Y-72375681D01*
X108020642Y-72370403D01*
X108018367Y-72368390D01*
X107577920Y-71953671D01*
X107575761Y-71951507D01*
X107162093Y-71510184D01*
X107160080Y-71507899D01*
X106887398Y-71178124D01*
X106772869Y-71039616D01*
X106771028Y-71037244D01*
X106410136Y-70541743D01*
X106408471Y-70539306D01*
X106073743Y-70016208D01*
X106072264Y-70013741D01*
X105989952Y-69866772D01*
X105763643Y-69462692D01*
X105762371Y-69460261D01*
X105488382Y-68898402D01*
X105479908Y-68881024D01*
X105478800Y-68878585D01*
X105222564Y-68270894D01*
X105221629Y-68268505D01*
X104991704Y-67632066D01*
X104990947Y-67629795D01*
X104787495Y-66964478D01*
X104786872Y-66962251D01*
X104610071Y-66268012D01*
X104609579Y-66265880D01*
X104538885Y-65924998D01*
X104459568Y-65542532D01*
X104459189Y-65540490D01*
X104447250Y-65467481D01*
X104336128Y-64787975D01*
X104335862Y-64786119D01*
X104239922Y-64004496D01*
X104239739Y-64002737D01*
X104171057Y-63192010D01*
X104170946Y-63190359D01*
X104146939Y-62702120D01*
X108049500Y-62702120D01*
X108049500Y-64797879D01*
X108055907Y-64857478D01*
X108055909Y-64857483D01*
X108106204Y-64992331D01*
X108192454Y-65107546D01*
X108284934Y-65176776D01*
X108307074Y-65193351D01*
X108307669Y-65193796D01*
X108442517Y-65244091D01*
X108442520Y-65244092D01*
X108486177Y-65248785D01*
X108502127Y-65250500D01*
X110597872Y-65250499D01*
X110597878Y-65250499D01*
X110657478Y-65244092D01*
X110657479Y-65244091D01*
X110657483Y-65244091D01*
X110792331Y-65193796D01*
X110907546Y-65107546D01*
X110993796Y-64992331D01*
X111044091Y-64857483D01*
X111044091Y-64857481D01*
X111044092Y-64857479D01*
X111050241Y-64800281D01*
X111050500Y-64797873D01*
X111050499Y-62702128D01*
X111050499Y-62702127D01*
X111050499Y-62702120D01*
X115999500Y-62702120D01*
X115999500Y-64797879D01*
X116005907Y-64857478D01*
X116005909Y-64857483D01*
X116056204Y-64992331D01*
X116142454Y-65107546D01*
X116234934Y-65176776D01*
X116257074Y-65193351D01*
X116257669Y-65193796D01*
X116392517Y-65244091D01*
X116392520Y-65244092D01*
X116436177Y-65248785D01*
X116452127Y-65250500D01*
X118547872Y-65250499D01*
X118547878Y-65250499D01*
X118607478Y-65244092D01*
X118607479Y-65244091D01*
X118607483Y-65244091D01*
X118742331Y-65193796D01*
X118857546Y-65107546D01*
X118943796Y-64992331D01*
X118994091Y-64857483D01*
X118994091Y-64857481D01*
X118994092Y-64857479D01*
X119000500Y-64797879D01*
X119000500Y-64399500D01*
X119014852Y-64364852D01*
X119049500Y-64350500D01*
X123400501Y-64350500D01*
X123435149Y-64364852D01*
X123449501Y-64399500D01*
X123449501Y-64940194D01*
X123464493Y-65092420D01*
X123523745Y-65287747D01*
X123523748Y-65287752D01*
X123523749Y-65287755D01*
X123619965Y-65467763D01*
X123619967Y-65467766D01*
X123749452Y-65625544D01*
X123749455Y-65625547D01*
X123821765Y-65684890D01*
X123907238Y-65755036D01*
X124087253Y-65851255D01*
X124282580Y-65910507D01*
X124434805Y-65925500D01*
X126465194Y-65925499D01*
X126465195Y-65925499D01*
X126478842Y-65924154D01*
X126617420Y-65910507D01*
X126812747Y-65851255D01*
X126992762Y-65755036D01*
X127150546Y-65625546D01*
X127280036Y-65467762D01*
X127376255Y-65287747D01*
X127435507Y-65092420D01*
X127450500Y-64940195D01*
X127450500Y-64940166D01*
X129550001Y-64940166D01*
X129564985Y-65092321D01*
X129564986Y-65092323D01*
X129624208Y-65287552D01*
X129624211Y-65287559D01*
X129720383Y-65467481D01*
X129849810Y-65625189D01*
X130007518Y-65754616D01*
X130187440Y-65850788D01*
X130187447Y-65850791D01*
X130382677Y-65910013D01*
X130534833Y-65924999D01*
X131299999Y-65924999D01*
X131800000Y-65924999D01*
X132565164Y-65924999D01*
X132565166Y-65924998D01*
X132717321Y-65910014D01*
X132717323Y-65910013D01*
X132912552Y-65850791D01*
X132912559Y-65850788D01*
X133092481Y-65754616D01*
X133250189Y-65625189D01*
X133379616Y-65467481D01*
X133475788Y-65287559D01*
X133475791Y-65287552D01*
X133535013Y-65092323D01*
X133535013Y-65092322D01*
X133550000Y-64940166D01*
X133550000Y-64797834D01*
X138050000Y-64797834D01*
X138056401Y-64857372D01*
X138056401Y-64857373D01*
X138106648Y-64992091D01*
X138192811Y-65107188D01*
X138307908Y-65193351D01*
X138442626Y-65243598D01*
X138502166Y-65250000D01*
X139300000Y-65250000D01*
X139800000Y-65250000D01*
X140597834Y-65250000D01*
X140657372Y-65243598D01*
X140657373Y-65243598D01*
X140792091Y-65193351D01*
X140907188Y-65107188D01*
X140993351Y-64992091D01*
X141043598Y-64857373D01*
X141043598Y-64857372D01*
X141050000Y-64797834D01*
X146000000Y-64797834D01*
X146006401Y-64857372D01*
X146006401Y-64857373D01*
X146056648Y-64992091D01*
X146142811Y-65107188D01*
X146257908Y-65193351D01*
X146392626Y-65243598D01*
X146452166Y-65250000D01*
X147250000Y-65250000D01*
X147750000Y-65250000D01*
X148547834Y-65250000D01*
X148607372Y-65243598D01*
X148607373Y-65243598D01*
X148742091Y-65193351D01*
X148857188Y-65107188D01*
X148943351Y-64992091D01*
X148993598Y-64857373D01*
X148993598Y-64857372D01*
X149000000Y-64797834D01*
X149000000Y-64000000D01*
X147750000Y-64000000D01*
X147750000Y-65250000D01*
X147250000Y-65250000D01*
X147250000Y-64000000D01*
X146000000Y-64000000D01*
X146000000Y-64797834D01*
X141050000Y-64797834D01*
X141050000Y-64000000D01*
X139800000Y-64000000D01*
X139800000Y-65250000D01*
X139300000Y-65250000D01*
X139300000Y-64000000D01*
X138050000Y-64000000D01*
X138050000Y-64797834D01*
X133550000Y-64797834D01*
X133550000Y-64000000D01*
X131800000Y-64000000D01*
X131800000Y-65924999D01*
X131299999Y-65924999D01*
X131300000Y-65924998D01*
X131300000Y-64000000D01*
X129550001Y-64000000D01*
X129550001Y-64940166D01*
X127450500Y-64940166D01*
X127450499Y-62559833D01*
X129550000Y-62559833D01*
X129550000Y-63500000D01*
X131300000Y-63500000D01*
X131800000Y-63500000D01*
X133549999Y-63500000D01*
X133549999Y-62702165D01*
X138050000Y-62702165D01*
X138050000Y-63500000D01*
X139300000Y-63500000D01*
X139800000Y-63500000D01*
X141050000Y-63500000D01*
X141050000Y-62702165D01*
X146000000Y-62702165D01*
X146000000Y-63500000D01*
X147250000Y-63500000D01*
X147750000Y-63500000D01*
X149000000Y-63500000D01*
X149000000Y-62702165D01*
X148993598Y-62642627D01*
X148993598Y-62642626D01*
X148943351Y-62507908D01*
X148857188Y-62392811D01*
X148742091Y-62306648D01*
X148607373Y-62256401D01*
X148547834Y-62250000D01*
X147750000Y-62250000D01*
X147750000Y-63500000D01*
X147250000Y-63500000D01*
X147250000Y-62250000D01*
X146452166Y-62250000D01*
X146392627Y-62256401D01*
X146392626Y-62256401D01*
X146257908Y-62306648D01*
X146142811Y-62392811D01*
X146056648Y-62507908D01*
X146006401Y-62642626D01*
X146006401Y-62642627D01*
X146000000Y-62702165D01*
X141050000Y-62702165D01*
X141043598Y-62642627D01*
X141043598Y-62642626D01*
X140993351Y-62507908D01*
X140907188Y-62392811D01*
X140792091Y-62306648D01*
X140657373Y-62256401D01*
X140597834Y-62250000D01*
X139800000Y-62250000D01*
X139800000Y-63500000D01*
X139300000Y-63500000D01*
X139300000Y-62250000D01*
X138502166Y-62250000D01*
X138442627Y-62256401D01*
X138442626Y-62256401D01*
X138307908Y-62306648D01*
X138192811Y-62392811D01*
X138106648Y-62507908D01*
X138056401Y-62642626D01*
X138056401Y-62642627D01*
X138050000Y-62702165D01*
X133549999Y-62702165D01*
X133549999Y-62559836D01*
X133549998Y-62559833D01*
X133535014Y-62407678D01*
X133535013Y-62407676D01*
X133475791Y-62212447D01*
X133475788Y-62212440D01*
X133379616Y-62032518D01*
X133250189Y-61874810D01*
X133092481Y-61745383D01*
X132912559Y-61649211D01*
X132912552Y-61649208D01*
X132717322Y-61589986D01*
X132565166Y-61575000D01*
X131800000Y-61575000D01*
X131800000Y-63500000D01*
X131300000Y-63500000D01*
X131300000Y-61575000D01*
X130534836Y-61575000D01*
X130534833Y-61575001D01*
X130382678Y-61589985D01*
X130382676Y-61589986D01*
X130187447Y-61649208D01*
X130187440Y-61649211D01*
X130007518Y-61745383D01*
X129849810Y-61874810D01*
X129720383Y-62032518D01*
X129624211Y-62212440D01*
X129624208Y-62212447D01*
X129564986Y-62407676D01*
X129564986Y-62407677D01*
X129550000Y-62559833D01*
X127450499Y-62559833D01*
X127450499Y-62559806D01*
X127435507Y-62407580D01*
X127376255Y-62212253D01*
X127280036Y-62032238D01*
X127150546Y-61874454D01*
X126992762Y-61744964D01*
X126813619Y-61649211D01*
X126812755Y-61648749D01*
X126812752Y-61648748D01*
X126812747Y-61648745D01*
X126715083Y-61619119D01*
X126617424Y-61589494D01*
X126617416Y-61589492D01*
X126465196Y-61574500D01*
X124434804Y-61574500D01*
X124282579Y-61589493D01*
X124282578Y-61589493D01*
X124087256Y-61648744D01*
X124087253Y-61648745D01*
X124087250Y-61648746D01*
X124087244Y-61648749D01*
X123907236Y-61744965D01*
X123907233Y-61744967D01*
X123749455Y-61874452D01*
X123749452Y-61874455D01*
X123619967Y-62032233D01*
X123619965Y-62032236D01*
X123523749Y-62212244D01*
X123523744Y-62212256D01*
X123464494Y-62407575D01*
X123464492Y-62407583D01*
X123449500Y-62559803D01*
X123449500Y-63100500D01*
X123435148Y-63135148D01*
X123400500Y-63149500D01*
X119049499Y-63149500D01*
X119014851Y-63135148D01*
X119000499Y-63100500D01*
X119000499Y-62702120D01*
X118994092Y-62642521D01*
X118994091Y-62642517D01*
X118943796Y-62507669D01*
X118857546Y-62392454D01*
X118756133Y-62316536D01*
X118742333Y-62306205D01*
X118742331Y-62306204D01*
X118697381Y-62289439D01*
X118607479Y-62255907D01*
X118547879Y-62249500D01*
X116452120Y-62249500D01*
X116392521Y-62255907D01*
X116257666Y-62306205D01*
X116142454Y-62392454D01*
X116056205Y-62507666D01*
X116005907Y-62642520D01*
X115999500Y-62702120D01*
X111050499Y-62702120D01*
X111044092Y-62642521D01*
X111044091Y-62642517D01*
X110993796Y-62507669D01*
X110907546Y-62392454D01*
X110806133Y-62316536D01*
X110792333Y-62306205D01*
X110792331Y-62306204D01*
X110747381Y-62289439D01*
X110657479Y-62255907D01*
X110597879Y-62249500D01*
X108502120Y-62249500D01*
X108442521Y-62255907D01*
X108307666Y-62306205D01*
X108192454Y-62392454D01*
X108106205Y-62507666D01*
X108055907Y-62642520D01*
X108049500Y-62702120D01*
X104146939Y-62702120D01*
X104129654Y-62350582D01*
X104129602Y-62348959D01*
X104129218Y-62324797D01*
X104115746Y-61475981D01*
X104115740Y-61475203D01*
X104115740Y-58202120D01*
X108049500Y-58202120D01*
X108049500Y-60297879D01*
X108055907Y-60357478D01*
X108055909Y-60357483D01*
X108106204Y-60492331D01*
X108192454Y-60607546D01*
X108307669Y-60693796D01*
X108442517Y-60744091D01*
X108442520Y-60744092D01*
X108486177Y-60748785D01*
X108502127Y-60750500D01*
X110597872Y-60750499D01*
X110597878Y-60750499D01*
X110657478Y-60744092D01*
X110657479Y-60744091D01*
X110657483Y-60744091D01*
X110792331Y-60693796D01*
X110907546Y-60607546D01*
X110993796Y-60492331D01*
X111044091Y-60357483D01*
X111044091Y-60357481D01*
X111044092Y-60357479D01*
X111050499Y-60297879D01*
X111050500Y-60297873D01*
X111050499Y-58202128D01*
X111050499Y-58202127D01*
X111050499Y-58202120D01*
X115999500Y-58202120D01*
X115999500Y-60297879D01*
X116005907Y-60357478D01*
X116005909Y-60357483D01*
X116056204Y-60492331D01*
X116142454Y-60607546D01*
X116257669Y-60693796D01*
X116392517Y-60744091D01*
X116392520Y-60744092D01*
X116436177Y-60748785D01*
X116452127Y-60750500D01*
X118547872Y-60750499D01*
X118547878Y-60750499D01*
X118607478Y-60744092D01*
X118607479Y-60744091D01*
X118607483Y-60744091D01*
X118742331Y-60693796D01*
X118857546Y-60607546D01*
X118943796Y-60492331D01*
X118994091Y-60357483D01*
X118994091Y-60357481D01*
X118994092Y-60357479D01*
X119000500Y-60297879D01*
X119000500Y-59899500D01*
X119014852Y-59864852D01*
X119049500Y-59850500D01*
X134417930Y-59850500D01*
X134417946Y-59850501D01*
X134420943Y-59850501D01*
X134579059Y-59850501D01*
X134680875Y-59823218D01*
X134731785Y-59809577D01*
X134731786Y-59809576D01*
X134731790Y-59809575D01*
X134781892Y-59780646D01*
X134781892Y-59780645D01*
X134781904Y-59780639D01*
X134868716Y-59730520D01*
X134980520Y-59618716D01*
X134980520Y-59618714D01*
X134984549Y-59614686D01*
X134984552Y-59614681D01*
X135965354Y-58633881D01*
X135999999Y-58619531D01*
X136034647Y-58633883D01*
X136134074Y-58733310D01*
X136134079Y-58733314D01*
X137131284Y-59730520D01*
X137131287Y-59730521D01*
X137131290Y-59730524D01*
X137268214Y-59809576D01*
X137268216Y-59809577D01*
X137339093Y-59828568D01*
X137420941Y-59850501D01*
X137420943Y-59850501D01*
X137582055Y-59850501D01*
X137582071Y-59850500D01*
X138000501Y-59850500D01*
X138035149Y-59864852D01*
X138049501Y-59899500D01*
X138049501Y-60297879D01*
X138055907Y-60357478D01*
X138055909Y-60357483D01*
X138106204Y-60492331D01*
X138192454Y-60607546D01*
X138307669Y-60693796D01*
X138442517Y-60744091D01*
X138442520Y-60744092D01*
X138486177Y-60748785D01*
X138502127Y-60750500D01*
X140597872Y-60750499D01*
X140597878Y-60750499D01*
X140657478Y-60744092D01*
X140657479Y-60744091D01*
X140657483Y-60744091D01*
X140792331Y-60693796D01*
X140907546Y-60607546D01*
X140993796Y-60492331D01*
X141044091Y-60357483D01*
X141044091Y-60357481D01*
X141044092Y-60357479D01*
X141050499Y-60297879D01*
X141050500Y-60297873D01*
X141050499Y-58202128D01*
X141050499Y-58202127D01*
X141050499Y-58202120D01*
X145999500Y-58202120D01*
X145999500Y-60297879D01*
X146005907Y-60357478D01*
X146005909Y-60357483D01*
X146056204Y-60492331D01*
X146142454Y-60607546D01*
X146257669Y-60693796D01*
X146392517Y-60744091D01*
X146392520Y-60744092D01*
X146436177Y-60748785D01*
X146452127Y-60750500D01*
X148547872Y-60750499D01*
X148547878Y-60750499D01*
X148607478Y-60744092D01*
X148607479Y-60744091D01*
X148607483Y-60744091D01*
X148742331Y-60693796D01*
X148857546Y-60607546D01*
X148943796Y-60492331D01*
X148994091Y-60357483D01*
X148994091Y-60357481D01*
X148994092Y-60357479D01*
X149000499Y-60297879D01*
X149000500Y-60297873D01*
X149000499Y-58202128D01*
X149000499Y-58202127D01*
X149000499Y-58202120D01*
X148994092Y-58142521D01*
X148994091Y-58142517D01*
X148943796Y-58007669D01*
X148857546Y-57892454D01*
X148788314Y-57840627D01*
X148742333Y-57806205D01*
X148742331Y-57806204D01*
X148697381Y-57789439D01*
X148607479Y-57755907D01*
X148547879Y-57749500D01*
X146452120Y-57749500D01*
X146392521Y-57755907D01*
X146257666Y-57806205D01*
X146142454Y-57892454D01*
X146056205Y-58007666D01*
X146005907Y-58142520D01*
X145999500Y-58202120D01*
X141050499Y-58202120D01*
X141044092Y-58142521D01*
X141044091Y-58142517D01*
X140993796Y-58007669D01*
X140907546Y-57892454D01*
X140838314Y-57840627D01*
X140792333Y-57806205D01*
X140792331Y-57806204D01*
X140747381Y-57789439D01*
X140657479Y-57755907D01*
X140597879Y-57749500D01*
X138502120Y-57749500D01*
X138442521Y-57755907D01*
X138307666Y-57806205D01*
X138192454Y-57892454D01*
X138106205Y-58007666D01*
X138055907Y-58142520D01*
X138049500Y-58202120D01*
X138049500Y-58600500D01*
X138035148Y-58635148D01*
X138000500Y-58649500D01*
X137769032Y-58649500D01*
X137734384Y-58635148D01*
X137114852Y-58015616D01*
X137100500Y-57980968D01*
X137100500Y-53083014D01*
X137100501Y-53083001D01*
X137100501Y-52920941D01*
X137069434Y-52805003D01*
X137059577Y-52768216D01*
X137059576Y-52768214D01*
X137059576Y-52768213D01*
X136980524Y-52631290D01*
X136980521Y-52631287D01*
X136980520Y-52631284D01*
X135618314Y-51269079D01*
X135618313Y-51269077D01*
X135503718Y-51154482D01*
X135503712Y-51154477D01*
X135440405Y-51117928D01*
X135416904Y-51104360D01*
X135366785Y-51075423D01*
X135366784Y-51075422D01*
X135366783Y-51075422D01*
X135366781Y-51075421D01*
X135214060Y-51034499D01*
X135214057Y-51034499D01*
X135078744Y-51034499D01*
X135044096Y-51020147D01*
X135029744Y-50985499D01*
X135044096Y-50950851D01*
X135066062Y-50938169D01*
X135101040Y-50928795D01*
X135116785Y-50924577D01*
X135116786Y-50924576D01*
X135116790Y-50924575D01*
X135166892Y-50895646D01*
X135166892Y-50895645D01*
X135166904Y-50895639D01*
X135253716Y-50845520D01*
X135365520Y-50733716D01*
X135365520Y-50733714D01*
X135369549Y-50729686D01*
X135369552Y-50729681D01*
X136734383Y-49364852D01*
X136769031Y-49350500D01*
X137975501Y-49350500D01*
X138010149Y-49364852D01*
X138024501Y-49399500D01*
X138024501Y-49797879D01*
X138030907Y-49857478D01*
X138030909Y-49857483D01*
X138081204Y-49992331D01*
X138167454Y-50107546D01*
X138282669Y-50193796D01*
X138417517Y-50244091D01*
X138417520Y-50244092D01*
X138461177Y-50248785D01*
X138477127Y-50250500D01*
X140572872Y-50250499D01*
X140572878Y-50250499D01*
X140632478Y-50244092D01*
X140632479Y-50244091D01*
X140632483Y-50244091D01*
X140767331Y-50193796D01*
X140882546Y-50107546D01*
X140968796Y-49992331D01*
X141019091Y-49857483D01*
X141019091Y-49857481D01*
X141019092Y-49857479D01*
X141025499Y-49797879D01*
X141025500Y-49797873D01*
X141025499Y-47702128D01*
X141025499Y-47702127D01*
X141025499Y-47702120D01*
X145974500Y-47702120D01*
X145974500Y-49797879D01*
X145980907Y-49857478D01*
X145980909Y-49857483D01*
X146031204Y-49992331D01*
X146117454Y-50107546D01*
X146232669Y-50193796D01*
X146367517Y-50244091D01*
X146367520Y-50244092D01*
X146411177Y-50248785D01*
X146427127Y-50250500D01*
X148522872Y-50250499D01*
X148522878Y-50250499D01*
X148582478Y-50244092D01*
X148582479Y-50244091D01*
X148582483Y-50244091D01*
X148717331Y-50193796D01*
X148832546Y-50107546D01*
X148918796Y-49992331D01*
X148969091Y-49857483D01*
X148969091Y-49857481D01*
X148969092Y-49857479D01*
X148975499Y-49797879D01*
X148975500Y-49797873D01*
X148975499Y-47702128D01*
X148975499Y-47702127D01*
X148975499Y-47702120D01*
X148969092Y-47642521D01*
X148969091Y-47642517D01*
X148918796Y-47507669D01*
X148832546Y-47392454D01*
X148748870Y-47329814D01*
X148717333Y-47306205D01*
X148717331Y-47306204D01*
X148672381Y-47289439D01*
X148582479Y-47255907D01*
X148522879Y-47249500D01*
X146427120Y-47249500D01*
X146367521Y-47255907D01*
X146232666Y-47306205D01*
X146117454Y-47392454D01*
X146031205Y-47507666D01*
X145980907Y-47642520D01*
X145974500Y-47702120D01*
X141025499Y-47702120D01*
X141019092Y-47642521D01*
X141019091Y-47642517D01*
X140968796Y-47507669D01*
X140882546Y-47392454D01*
X140798870Y-47329814D01*
X140767333Y-47306205D01*
X140767331Y-47306204D01*
X140722381Y-47289439D01*
X140632479Y-47255907D01*
X140572879Y-47249500D01*
X138477120Y-47249500D01*
X138417521Y-47255907D01*
X138282666Y-47306205D01*
X138167454Y-47392454D01*
X138081205Y-47507666D01*
X138030907Y-47642520D01*
X138024500Y-47702120D01*
X138024500Y-48100500D01*
X138010148Y-48135148D01*
X137975500Y-48149500D01*
X136582070Y-48149500D01*
X136582054Y-48149499D01*
X136579057Y-48149499D01*
X136420943Y-48149499D01*
X136420940Y-48149499D01*
X136268218Y-48190421D01*
X136268212Y-48190423D01*
X136233065Y-48210717D01*
X136131283Y-48269480D01*
X136131283Y-48269481D01*
X136019478Y-48381286D01*
X134650617Y-49750148D01*
X134615969Y-49764500D01*
X133464578Y-49764500D01*
X133429930Y-49750148D01*
X133415578Y-49715500D01*
X133425352Y-49686135D01*
X133443352Y-49662089D01*
X133493598Y-49527373D01*
X133493598Y-49527372D01*
X133500000Y-49467834D01*
X133500000Y-49345000D01*
X130800000Y-49345000D01*
X130800000Y-49467834D01*
X130806401Y-49527372D01*
X130806401Y-49527373D01*
X130856648Y-49662091D01*
X130885190Y-49700218D01*
X130894465Y-49736556D01*
X130885190Y-49758948D01*
X130856205Y-49797666D01*
X130805907Y-49932520D01*
X130799500Y-49992120D01*
X130799500Y-50737879D01*
X130805907Y-50797478D01*
X130805909Y-50797483D01*
X130842521Y-50895646D01*
X130856205Y-50932333D01*
X130884878Y-50970635D01*
X130894153Y-51006973D01*
X130884878Y-51029365D01*
X130856205Y-51067666D01*
X130805907Y-51202520D01*
X130799500Y-51262120D01*
X130799500Y-52007879D01*
X130805907Y-52067478D01*
X130805909Y-52067483D01*
X130856204Y-52202331D01*
X130874024Y-52226135D01*
X130883298Y-52262473D01*
X130864162Y-52294727D01*
X130834797Y-52304500D01*
X129504171Y-52304500D01*
X129491489Y-52302830D01*
X129484088Y-52300847D01*
X129479058Y-52299499D01*
X129479057Y-52299499D01*
X129320943Y-52299499D01*
X129317946Y-52299499D01*
X129317930Y-52299500D01*
X129301874Y-52299500D01*
X129267226Y-52285148D01*
X129252263Y-52270185D01*
X129252259Y-52270182D01*
X129099526Y-52174212D01*
X128929258Y-52114633D01*
X128929257Y-52114632D01*
X128929255Y-52114632D01*
X128929251Y-52114631D01*
X128929249Y-52114631D01*
X128750000Y-52094435D01*
X128570750Y-52114631D01*
X128570741Y-52114633D01*
X128400473Y-52174212D01*
X128247740Y-52270182D01*
X128247736Y-52270185D01*
X128120185Y-52397736D01*
X128120182Y-52397740D01*
X128024212Y-52550473D01*
X127964633Y-52720741D01*
X127964631Y-52720750D01*
X127944435Y-52900000D01*
X127964631Y-53079249D01*
X127964633Y-53079258D01*
X128024212Y-53249526D01*
X128120182Y-53402259D01*
X128120184Y-53402262D01*
X128247738Y-53529816D01*
X128275775Y-53547432D01*
X128400473Y-53625787D01*
X128400477Y-53625788D01*
X128400478Y-53625789D01*
X128570745Y-53685368D01*
X128750000Y-53705565D01*
X128929255Y-53685368D01*
X129099522Y-53625789D01*
X129099524Y-53625787D01*
X129099526Y-53625787D01*
X129170259Y-53581342D01*
X129252262Y-53529816D01*
X129267005Y-53515072D01*
X129301652Y-53500720D01*
X129314335Y-53502389D01*
X129318307Y-53503453D01*
X129325942Y-53505500D01*
X129325943Y-53505500D01*
X129484057Y-53505500D01*
X130856507Y-53505500D01*
X130891155Y-53519852D01*
X130895731Y-53525133D01*
X130942454Y-53587546D01*
X131057669Y-53673796D01*
X131192517Y-53724091D01*
X131192520Y-53724092D01*
X131236177Y-53728785D01*
X131252127Y-53730500D01*
X133047872Y-53730499D01*
X133047878Y-53730499D01*
X133107478Y-53724092D01*
X133107479Y-53724091D01*
X133107483Y-53724091D01*
X133242331Y-53673796D01*
X133357546Y-53587546D01*
X133404267Y-53525134D01*
X133436520Y-53505999D01*
X133443493Y-53505500D01*
X134850500Y-53505500D01*
X134885148Y-53519852D01*
X134899500Y-53554500D01*
X134899500Y-57980968D01*
X134885148Y-58015616D01*
X134265617Y-58635148D01*
X134230969Y-58649500D01*
X119049499Y-58649500D01*
X119014851Y-58635148D01*
X119000499Y-58600500D01*
X119000499Y-58202120D01*
X118994092Y-58142521D01*
X118994091Y-58142517D01*
X118943796Y-58007669D01*
X118857546Y-57892454D01*
X118788314Y-57840627D01*
X118742333Y-57806205D01*
X118742331Y-57806204D01*
X118697381Y-57789439D01*
X118607479Y-57755907D01*
X118547879Y-57749500D01*
X116452120Y-57749500D01*
X116392521Y-57755907D01*
X116257666Y-57806205D01*
X116142454Y-57892454D01*
X116056205Y-58007666D01*
X116005907Y-58142520D01*
X115999500Y-58202120D01*
X111050499Y-58202120D01*
X111044092Y-58142521D01*
X111044091Y-58142517D01*
X110993796Y-58007669D01*
X110907546Y-57892454D01*
X110838314Y-57840627D01*
X110792333Y-57806205D01*
X110792331Y-57806204D01*
X110747381Y-57789439D01*
X110657479Y-57755907D01*
X110597879Y-57749500D01*
X108502120Y-57749500D01*
X108442521Y-57755907D01*
X108307666Y-57806205D01*
X108192454Y-57892454D01*
X108106205Y-58007666D01*
X108055907Y-58142520D01*
X108049500Y-58202120D01*
X104115740Y-58202120D01*
X104115740Y-52200000D01*
X108694435Y-52200000D01*
X108714631Y-52379249D01*
X108714633Y-52379258D01*
X108774212Y-52549526D01*
X108870182Y-52702259D01*
X108870185Y-52702263D01*
X108983273Y-52815352D01*
X108997625Y-52850000D01*
X108983273Y-52884648D01*
X108870185Y-52997736D01*
X108870182Y-52997740D01*
X108774212Y-53150473D01*
X108714633Y-53320741D01*
X108714631Y-53320750D01*
X108694435Y-53500000D01*
X108714631Y-53679249D01*
X108714633Y-53679258D01*
X108774212Y-53849526D01*
X108870182Y-54002259D01*
X108870185Y-54002263D01*
X108983273Y-54115352D01*
X108997625Y-54150000D01*
X108983273Y-54184648D01*
X108870185Y-54297736D01*
X108870182Y-54297740D01*
X108774212Y-54450473D01*
X108714633Y-54620741D01*
X108714631Y-54620750D01*
X108694435Y-54800000D01*
X108714631Y-54979249D01*
X108714633Y-54979258D01*
X108774212Y-55149526D01*
X108870182Y-55302259D01*
X108870185Y-55302263D01*
X108933274Y-55365352D01*
X108947626Y-55400000D01*
X108933274Y-55434648D01*
X108870185Y-55497736D01*
X108870182Y-55497740D01*
X108774212Y-55650473D01*
X108714633Y-55820741D01*
X108714631Y-55820750D01*
X108694435Y-56000000D01*
X108714631Y-56179249D01*
X108714633Y-56179258D01*
X108774212Y-56349526D01*
X108856524Y-56480522D01*
X108870184Y-56502262D01*
X108997738Y-56629816D01*
X108997740Y-56629817D01*
X109150473Y-56725787D01*
X109150477Y-56725788D01*
X109150478Y-56725789D01*
X109320745Y-56785368D01*
X109500000Y-56805565D01*
X109679255Y-56785368D01*
X109849522Y-56725789D01*
X109849524Y-56725787D01*
X109849526Y-56725787D01*
X109905596Y-56690555D01*
X110002262Y-56629816D01*
X110017226Y-56614852D01*
X110051874Y-56600500D01*
X120217930Y-56600500D01*
X120217946Y-56600501D01*
X120220943Y-56600501D01*
X120379059Y-56600501D01*
X120480875Y-56573218D01*
X120531785Y-56559577D01*
X120531786Y-56559576D01*
X120531790Y-56559575D01*
X120581892Y-56530646D01*
X120581892Y-56530645D01*
X120581904Y-56530639D01*
X120668716Y-56480520D01*
X120780520Y-56368716D01*
X120780520Y-56368714D01*
X120784549Y-56364686D01*
X120784553Y-56364681D01*
X123567892Y-53581341D01*
X123602539Y-53566990D01*
X123637187Y-53581342D01*
X123641759Y-53586618D01*
X123642454Y-53587546D01*
X123757669Y-53673796D01*
X123892517Y-53724091D01*
X123892520Y-53724092D01*
X123936177Y-53728785D01*
X123952127Y-53730500D01*
X124200500Y-53730499D01*
X124235148Y-53744851D01*
X124249500Y-53779499D01*
X124249500Y-54767929D01*
X124249499Y-54767947D01*
X124249499Y-54929059D01*
X124290421Y-55081781D01*
X124290422Y-55081783D01*
X124290423Y-55081785D01*
X124303551Y-55104523D01*
X124369480Y-55218716D01*
X124484074Y-55333310D01*
X124484080Y-55333315D01*
X125767764Y-56616999D01*
X125767769Y-56617005D01*
X125769480Y-56618716D01*
X125881284Y-56730520D01*
X125881287Y-56730521D01*
X125881290Y-56730524D01*
X125968090Y-56780637D01*
X125968093Y-56780638D01*
X125968095Y-56780639D01*
X126018215Y-56809577D01*
X126018217Y-56809577D01*
X126018218Y-56809578D01*
X126170940Y-56850501D01*
X126170943Y-56850501D01*
X126332054Y-56850501D01*
X126332070Y-56850500D01*
X128198126Y-56850500D01*
X128232774Y-56864852D01*
X128247738Y-56879816D01*
X128247740Y-56879817D01*
X128400473Y-56975787D01*
X128400477Y-56975788D01*
X128400478Y-56975789D01*
X128570745Y-57035368D01*
X128750000Y-57055565D01*
X128929255Y-57035368D01*
X129099522Y-56975789D01*
X129099524Y-56975787D01*
X129099526Y-56975787D01*
X129155596Y-56940555D01*
X129252262Y-56879816D01*
X129379816Y-56752262D01*
X129440555Y-56655596D01*
X129475787Y-56599526D01*
X129475787Y-56599524D01*
X129475789Y-56599522D01*
X129535368Y-56429255D01*
X129555565Y-56250000D01*
X129535368Y-56070745D01*
X129475789Y-55900478D01*
X129475788Y-55900477D01*
X129475787Y-55900473D01*
X129379817Y-55747740D01*
X129379816Y-55747738D01*
X129252262Y-55620184D01*
X129252259Y-55620182D01*
X129099526Y-55524212D01*
X128929258Y-55464633D01*
X128929257Y-55464632D01*
X128929255Y-55464632D01*
X128929251Y-55464631D01*
X128929249Y-55464631D01*
X128750000Y-55444435D01*
X128570750Y-55464631D01*
X128570741Y-55464633D01*
X128400473Y-55524212D01*
X128247740Y-55620182D01*
X128247736Y-55620185D01*
X128232774Y-55635148D01*
X128198126Y-55649500D01*
X126519031Y-55649500D01*
X126484383Y-55635148D01*
X125464852Y-54615617D01*
X125450500Y-54580969D01*
X125450500Y-53779499D01*
X125464852Y-53744851D01*
X125499500Y-53730499D01*
X125747878Y-53730499D01*
X125807478Y-53724092D01*
X125807479Y-53724091D01*
X125807483Y-53724091D01*
X125942331Y-53673796D01*
X126057546Y-53587546D01*
X126143796Y-53472331D01*
X126194091Y-53337483D01*
X126194091Y-53337481D01*
X126194092Y-53337479D01*
X126200499Y-53277879D01*
X126200500Y-53277873D01*
X126200499Y-52532128D01*
X126200499Y-52532120D01*
X126194092Y-52472521D01*
X126194091Y-52472517D01*
X126143796Y-52337669D01*
X126125976Y-52313865D01*
X126116701Y-52277527D01*
X126135837Y-52245274D01*
X126165202Y-52235500D01*
X127782930Y-52235500D01*
X127782946Y-52235501D01*
X127785943Y-52235501D01*
X127944059Y-52235501D01*
X128067847Y-52202331D01*
X128096785Y-52194577D01*
X128096786Y-52194576D01*
X128096790Y-52194575D01*
X128146892Y-52165646D01*
X128146892Y-52165645D01*
X128146904Y-52165639D01*
X128233716Y-52115520D01*
X128345520Y-52003716D01*
X128345520Y-52003714D01*
X128349549Y-51999686D01*
X128349552Y-51999681D01*
X130310520Y-50038716D01*
X130371832Y-49932520D01*
X130389576Y-49901786D01*
X130389576Y-49901785D01*
X130389577Y-49901784D01*
X130430501Y-49749057D01*
X130430501Y-49590942D01*
X130430501Y-49587946D01*
X130430500Y-49587928D01*
X130430500Y-48722165D01*
X130800000Y-48722165D01*
X130800000Y-48845000D01*
X131900000Y-48845000D01*
X132400000Y-48845000D01*
X133500000Y-48845000D01*
X133500000Y-48722165D01*
X133493598Y-48662627D01*
X133493598Y-48662626D01*
X133443351Y-48527908D01*
X133357188Y-48412811D01*
X133242091Y-48326648D01*
X133107373Y-48276401D01*
X133047834Y-48270000D01*
X132400000Y-48270000D01*
X132400000Y-48845000D01*
X131900000Y-48845000D01*
X131900000Y-48270000D01*
X131252166Y-48270000D01*
X131192627Y-48276401D01*
X131192626Y-48276401D01*
X131057908Y-48326648D01*
X130942811Y-48412811D01*
X130856648Y-48527908D01*
X130806401Y-48662626D01*
X130806401Y-48662627D01*
X130800000Y-48722165D01*
X130430500Y-48722165D01*
X130430500Y-45297834D01*
X138025000Y-45297834D01*
X138031401Y-45357372D01*
X138031401Y-45357373D01*
X138081648Y-45492091D01*
X138167811Y-45607188D01*
X138282908Y-45693351D01*
X138417626Y-45743598D01*
X138477166Y-45750000D01*
X139275000Y-45750000D01*
X139775000Y-45750000D01*
X140572834Y-45750000D01*
X140632372Y-45743598D01*
X140632373Y-45743598D01*
X140767091Y-45693351D01*
X140882188Y-45607188D01*
X140968351Y-45492091D01*
X141018598Y-45357373D01*
X141018598Y-45357372D01*
X141025000Y-45297834D01*
X145975000Y-45297834D01*
X145981401Y-45357372D01*
X145981401Y-45357373D01*
X146031648Y-45492091D01*
X146117811Y-45607188D01*
X146232908Y-45693351D01*
X146367626Y-45743598D01*
X146427166Y-45750000D01*
X147225000Y-45750000D01*
X147725000Y-45750000D01*
X148522834Y-45750000D01*
X148582372Y-45743598D01*
X148582373Y-45743598D01*
X148717091Y-45693351D01*
X148832188Y-45607188D01*
X148918351Y-45492091D01*
X148968598Y-45357373D01*
X148968598Y-45357372D01*
X148975000Y-45297834D01*
X148975000Y-44500000D01*
X147725000Y-44500000D01*
X147725000Y-45750000D01*
X147225000Y-45750000D01*
X147225000Y-44500000D01*
X145975000Y-44500000D01*
X145975000Y-45297834D01*
X141025000Y-45297834D01*
X141025000Y-44500000D01*
X139775000Y-44500000D01*
X139775000Y-45750000D01*
X139275000Y-45750000D01*
X139275000Y-44500000D01*
X138025000Y-44500000D01*
X138025000Y-45297834D01*
X130430500Y-45297834D01*
X130430500Y-43202165D01*
X138025000Y-43202165D01*
X138025000Y-44000000D01*
X139275000Y-44000000D01*
X139775000Y-44000000D01*
X141025000Y-44000000D01*
X141025000Y-43202165D01*
X145975000Y-43202165D01*
X145975000Y-44000000D01*
X147225000Y-44000000D01*
X147725000Y-44000000D01*
X148975000Y-44000000D01*
X148975000Y-43202165D01*
X148968598Y-43142627D01*
X148968598Y-43142626D01*
X148918351Y-43007908D01*
X148832188Y-42892811D01*
X148717091Y-42806648D01*
X148582373Y-42756401D01*
X148522834Y-42750000D01*
X147725000Y-42750000D01*
X147725000Y-44000000D01*
X147225000Y-44000000D01*
X147225000Y-42750000D01*
X146427166Y-42750000D01*
X146367627Y-42756401D01*
X146367626Y-42756401D01*
X146232908Y-42806648D01*
X146117811Y-42892811D01*
X146031648Y-43007908D01*
X145981401Y-43142626D01*
X145981401Y-43142627D01*
X145975000Y-43202165D01*
X141025000Y-43202165D01*
X141018598Y-43142627D01*
X141018598Y-43142626D01*
X140968351Y-43007908D01*
X140882188Y-42892811D01*
X140767091Y-42806648D01*
X140632373Y-42756401D01*
X140572834Y-42750000D01*
X139775000Y-42750000D01*
X139775000Y-44000000D01*
X139275000Y-44000000D01*
X139275000Y-42750000D01*
X138477166Y-42750000D01*
X138417627Y-42756401D01*
X138417626Y-42756401D01*
X138282908Y-42806648D01*
X138167811Y-42892811D01*
X138081648Y-43007908D01*
X138031401Y-43142626D01*
X138031401Y-43142627D01*
X138025000Y-43202165D01*
X130430500Y-43202165D01*
X130430500Y-38241310D01*
X130444852Y-38206662D01*
X130458790Y-38196902D01*
X130507830Y-38174035D01*
X130507834Y-38174031D01*
X130507840Y-38174029D01*
X130701395Y-38038499D01*
X130701401Y-38038495D01*
X130868495Y-37871401D01*
X130891165Y-37839024D01*
X131004029Y-37677840D01*
X131004031Y-37677834D01*
X131004035Y-37677830D01*
X131055591Y-37567266D01*
X131083241Y-37541930D01*
X131120708Y-37543566D01*
X131144409Y-37567267D01*
X131195964Y-37677828D01*
X131195970Y-37677840D01*
X131331500Y-37871395D01*
X131331506Y-37871402D01*
X131498597Y-38038493D01*
X131498604Y-38038499D01*
X131692159Y-38174029D01*
X131692171Y-38174036D01*
X131906339Y-38273904D01*
X131906344Y-38273905D01*
X132134583Y-38335061D01*
X132134587Y-38335061D01*
X132134592Y-38335063D01*
X132370000Y-38355659D01*
X132605408Y-38335063D01*
X132605414Y-38335061D01*
X132605416Y-38335061D01*
X132761081Y-38293351D01*
X132833657Y-38273904D01*
X132833660Y-38273904D01*
X132833660Y-38273903D01*
X132833663Y-38273903D01*
X133047830Y-38174035D01*
X133047831Y-38174034D01*
X133047840Y-38174029D01*
X133241395Y-38038499D01*
X133241401Y-38038495D01*
X133408495Y-37871401D01*
X133431165Y-37839024D01*
X133544029Y-37677840D01*
X133544036Y-37677828D01*
X133558467Y-37646880D01*
X133643903Y-37463663D01*
X133705063Y-37235408D01*
X133725659Y-37000000D01*
X133705063Y-36764592D01*
X133701153Y-36750000D01*
X133643905Y-36536344D01*
X133643904Y-36536339D01*
X133544036Y-36322172D01*
X133544028Y-36322160D01*
X133408499Y-36128604D01*
X133408493Y-36128597D01*
X133241402Y-35961506D01*
X133241395Y-35961500D01*
X133047840Y-35825970D01*
X133047828Y-35825963D01*
X132833660Y-35726095D01*
X132833655Y-35726094D01*
X132605416Y-35664938D01*
X132605410Y-35664937D01*
X132370000Y-35644341D01*
X132134589Y-35664937D01*
X132134583Y-35664938D01*
X131906344Y-35726094D01*
X131906339Y-35726095D01*
X131692172Y-35825963D01*
X131692160Y-35825971D01*
X131498604Y-35961500D01*
X131498597Y-35961506D01*
X131331506Y-36128597D01*
X131331500Y-36128604D01*
X131195971Y-36322160D01*
X131195963Y-36322172D01*
X131144409Y-36432732D01*
X131116759Y-36458069D01*
X131079292Y-36456433D01*
X131055591Y-36432732D01*
X131004036Y-36322172D01*
X131004028Y-36322160D01*
X130868499Y-36128604D01*
X130868493Y-36128597D01*
X130701402Y-35961506D01*
X130701395Y-35961500D01*
X130507840Y-35825970D01*
X130507828Y-35825963D01*
X130293660Y-35726095D01*
X130293655Y-35726094D01*
X130065416Y-35664938D01*
X130065410Y-35664937D01*
X129830000Y-35644341D01*
X129594589Y-35664937D01*
X129594583Y-35664938D01*
X129366344Y-35726094D01*
X129366339Y-35726095D01*
X129152172Y-35825963D01*
X129152160Y-35825971D01*
X128958604Y-35961500D01*
X128958597Y-35961506D01*
X128791506Y-36128597D01*
X128791500Y-36128604D01*
X128655971Y-36322160D01*
X128655963Y-36322172D01*
X128604409Y-36432732D01*
X128576759Y-36458069D01*
X128539292Y-36456433D01*
X128515591Y-36432732D01*
X128464036Y-36322172D01*
X128464028Y-36322160D01*
X128328499Y-36128604D01*
X128328493Y-36128597D01*
X128161402Y-35961506D01*
X128161395Y-35961500D01*
X127967840Y-35825970D01*
X127967828Y-35825963D01*
X127753660Y-35726095D01*
X127753655Y-35726094D01*
X127525416Y-35664938D01*
X127525410Y-35664937D01*
X127290000Y-35644341D01*
X127054589Y-35664937D01*
X127054583Y-35664938D01*
X126826344Y-35726094D01*
X126826339Y-35726095D01*
X126612172Y-35825963D01*
X126612160Y-35825971D01*
X126418604Y-35961500D01*
X126418597Y-35961506D01*
X126251506Y-36128597D01*
X126251500Y-36128604D01*
X126189138Y-36217667D01*
X126157509Y-36237818D01*
X126120895Y-36229700D01*
X126100744Y-36198071D01*
X126100000Y-36189562D01*
X126100000Y-36102165D01*
X126093598Y-36042627D01*
X126093598Y-36042626D01*
X126043351Y-35907908D01*
X125957188Y-35792811D01*
X125842091Y-35706648D01*
X125707373Y-35656401D01*
X125647834Y-35650000D01*
X125000000Y-35650000D01*
X125000000Y-36566988D01*
X124942993Y-36534075D01*
X124815826Y-36500000D01*
X124684174Y-36500000D01*
X124557007Y-36534075D01*
X124500000Y-36566988D01*
X124500000Y-35650000D01*
X123852166Y-35650000D01*
X123792627Y-35656401D01*
X123792626Y-35656401D01*
X123657908Y-35706648D01*
X123542811Y-35792811D01*
X123456648Y-35907908D01*
X123406401Y-36042626D01*
X123406401Y-36042627D01*
X123400000Y-36102165D01*
X123400000Y-36750000D01*
X124316988Y-36750000D01*
X124284075Y-36807007D01*
X124250000Y-36934174D01*
X124250000Y-37065826D01*
X124284075Y-37192993D01*
X124316988Y-37250000D01*
X123400000Y-37250000D01*
X123400000Y-37897834D01*
X123406401Y-37957372D01*
X123406401Y-37957373D01*
X123456648Y-38092091D01*
X123542811Y-38207188D01*
X123657908Y-38293351D01*
X123792626Y-38343598D01*
X123852166Y-38350000D01*
X124500000Y-38350000D01*
X124500000Y-37433012D01*
X124557007Y-37465925D01*
X124684174Y-37500000D01*
X124815826Y-37500000D01*
X124942993Y-37465925D01*
X125000000Y-37433012D01*
X125000000Y-38350000D01*
X125647834Y-38350000D01*
X125707372Y-38343598D01*
X125707373Y-38343598D01*
X125842091Y-38293351D01*
X125957188Y-38207188D01*
X126043351Y-38092091D01*
X126093598Y-37957373D01*
X126093598Y-37957372D01*
X126100000Y-37897834D01*
X126100000Y-37810437D01*
X126114352Y-37775789D01*
X126149000Y-37761437D01*
X126183648Y-37775789D01*
X126189133Y-37782325D01*
X126208818Y-37810437D01*
X126251506Y-37871402D01*
X126418597Y-38038493D01*
X126418604Y-38038499D01*
X126612159Y-38174029D01*
X126612167Y-38174033D01*
X126612170Y-38174035D01*
X126661208Y-38196901D01*
X126686545Y-38224550D01*
X126689500Y-38241310D01*
X126689500Y-41340968D01*
X126675148Y-41375616D01*
X125919482Y-42131281D01*
X125919477Y-42131287D01*
X125897373Y-42169576D01*
X125897372Y-42169577D01*
X125840423Y-42268212D01*
X125840422Y-42268216D01*
X125799499Y-42420940D01*
X125799499Y-42583000D01*
X125799500Y-42583013D01*
X125799500Y-46148126D01*
X125785148Y-46182774D01*
X125770185Y-46197736D01*
X125770182Y-46197740D01*
X125674212Y-46350473D01*
X125614633Y-46520741D01*
X125614631Y-46520750D01*
X125594435Y-46700000D01*
X125614631Y-46879249D01*
X125614633Y-46879258D01*
X125674212Y-47049526D01*
X125770182Y-47202259D01*
X125770184Y-47202262D01*
X125897738Y-47329816D01*
X125897740Y-47329817D01*
X126050473Y-47425787D01*
X126050477Y-47425788D01*
X126050478Y-47425789D01*
X126220745Y-47485368D01*
X126400000Y-47505565D01*
X126579255Y-47485368D01*
X126749522Y-47425789D01*
X126749524Y-47425787D01*
X126749526Y-47425787D01*
X126805596Y-47390555D01*
X126902262Y-47329816D01*
X127029816Y-47202262D01*
X127094372Y-47099522D01*
X127125787Y-47049526D01*
X127125787Y-47049524D01*
X127125789Y-47049522D01*
X127185368Y-46879255D01*
X127205565Y-46700000D01*
X127185368Y-46520745D01*
X127125789Y-46350478D01*
X127125788Y-46350477D01*
X127125787Y-46350473D01*
X127029817Y-46197740D01*
X127029816Y-46197738D01*
X127014852Y-46182774D01*
X127000500Y-46148126D01*
X127000500Y-42769030D01*
X127014851Y-42734383D01*
X127654681Y-42094552D01*
X127654686Y-42094549D01*
X127658714Y-42090520D01*
X127658716Y-42090520D01*
X127770520Y-41978716D01*
X127829370Y-41876784D01*
X127849577Y-41841785D01*
X127890499Y-41689060D01*
X127890500Y-41689060D01*
X127890500Y-38241310D01*
X127904852Y-38206662D01*
X127918790Y-38196902D01*
X127967830Y-38174035D01*
X127967834Y-38174031D01*
X127967840Y-38174029D01*
X128161395Y-38038499D01*
X128161401Y-38038495D01*
X128328495Y-37871401D01*
X128351165Y-37839024D01*
X128464029Y-37677840D01*
X128464031Y-37677834D01*
X128464035Y-37677830D01*
X128515591Y-37567266D01*
X128543241Y-37541930D01*
X128580708Y-37543566D01*
X128604409Y-37567267D01*
X128655964Y-37677828D01*
X128655970Y-37677840D01*
X128791500Y-37871395D01*
X128791506Y-37871402D01*
X128958597Y-38038493D01*
X128958604Y-38038499D01*
X129152159Y-38174029D01*
X129152167Y-38174033D01*
X129152170Y-38174035D01*
X129201208Y-38196901D01*
X129226545Y-38224550D01*
X129229500Y-38241310D01*
X129229500Y-46017222D01*
X129215148Y-46051870D01*
X129180500Y-46066222D01*
X129154431Y-46058712D01*
X129099525Y-46024213D01*
X129099522Y-46024211D01*
X128929255Y-45964632D01*
X128929251Y-45964631D01*
X128929249Y-45964631D01*
X128750000Y-45944435D01*
X128570750Y-45964631D01*
X128570741Y-45964633D01*
X128400473Y-46024212D01*
X128247740Y-46120182D01*
X128247736Y-46120185D01*
X128120185Y-46247736D01*
X128120182Y-46247740D01*
X128024212Y-46400473D01*
X127964633Y-46570741D01*
X127964631Y-46570750D01*
X127944435Y-46750000D01*
X127964631Y-46929249D01*
X127964633Y-46929258D01*
X128024212Y-47099526D01*
X128120182Y-47252259D01*
X128120185Y-47252263D01*
X128135148Y-47267226D01*
X128149500Y-47301874D01*
X128149500Y-47980969D01*
X128135148Y-48015617D01*
X127670617Y-48480148D01*
X127635969Y-48494500D01*
X126143493Y-48494500D01*
X126108845Y-48480148D01*
X126104267Y-48474865D01*
X126057546Y-48412454D01*
X125988314Y-48360627D01*
X125942333Y-48326205D01*
X125942331Y-48326204D01*
X125897381Y-48309439D01*
X125807479Y-48275907D01*
X125747879Y-48269500D01*
X123952120Y-48269500D01*
X123892521Y-48275907D01*
X123757666Y-48326205D01*
X123642454Y-48412454D01*
X123595733Y-48474865D01*
X123563480Y-48494001D01*
X123556507Y-48494500D01*
X121325939Y-48494500D01*
X121173216Y-48535422D01*
X121173213Y-48535423D01*
X121123095Y-48564360D01*
X121036285Y-48614479D01*
X120977026Y-48673738D01*
X120942378Y-48688089D01*
X120907729Y-48673737D01*
X120893686Y-48644575D01*
X120885368Y-48570745D01*
X120825789Y-48400478D01*
X120825788Y-48400477D01*
X120825787Y-48400473D01*
X120729817Y-48247740D01*
X120729816Y-48247738D01*
X120602262Y-48120184D01*
X120602259Y-48120182D01*
X120449526Y-48024212D01*
X120279258Y-47964633D01*
X120279257Y-47964632D01*
X120279255Y-47964632D01*
X120279251Y-47964631D01*
X120279249Y-47964631D01*
X120100000Y-47944435D01*
X119920750Y-47964631D01*
X119920741Y-47964633D01*
X119750473Y-48024212D01*
X119597740Y-48120182D01*
X119597736Y-48120185D01*
X119582774Y-48135148D01*
X119548126Y-48149500D01*
X119024499Y-48149500D01*
X118989851Y-48135148D01*
X118975499Y-48100500D01*
X118975499Y-47702120D01*
X118969092Y-47642521D01*
X118969091Y-47642517D01*
X118918796Y-47507669D01*
X118832546Y-47392454D01*
X118748870Y-47329814D01*
X118717333Y-47306205D01*
X118717331Y-47306204D01*
X118672381Y-47289439D01*
X118582479Y-47255907D01*
X118522879Y-47249500D01*
X116427120Y-47249500D01*
X116367521Y-47255907D01*
X116232666Y-47306205D01*
X116117454Y-47392454D01*
X116031205Y-47507666D01*
X115980907Y-47642520D01*
X115974500Y-47702120D01*
X115974500Y-49797879D01*
X115980907Y-49857478D01*
X115980909Y-49857483D01*
X116031204Y-49992331D01*
X116117454Y-50107546D01*
X116232669Y-50193796D01*
X116367517Y-50244091D01*
X116367520Y-50244092D01*
X116411177Y-50248785D01*
X116427127Y-50250500D01*
X118522872Y-50250499D01*
X118522878Y-50250499D01*
X118582478Y-50244092D01*
X118582479Y-50244091D01*
X118582483Y-50244091D01*
X118717331Y-50193796D01*
X118832546Y-50107546D01*
X118918796Y-49992331D01*
X118969091Y-49857483D01*
X118969091Y-49857481D01*
X118969092Y-49857479D01*
X118975500Y-49797879D01*
X118975500Y-49399500D01*
X118989852Y-49364852D01*
X119024500Y-49350500D01*
X119548126Y-49350500D01*
X119582774Y-49364852D01*
X119597738Y-49379816D01*
X119597740Y-49379817D01*
X119750473Y-49475787D01*
X119750477Y-49475788D01*
X119750478Y-49475789D01*
X119920745Y-49535368D01*
X120100000Y-49555565D01*
X120149241Y-49550016D01*
X120185277Y-49560398D01*
X120203419Y-49593221D01*
X120202058Y-49611387D01*
X120199499Y-49620939D01*
X120199499Y-49783000D01*
X120199500Y-49783013D01*
X120199500Y-50930968D01*
X120185148Y-50965616D01*
X119565617Y-51585148D01*
X119530969Y-51599500D01*
X110051874Y-51599500D01*
X110017226Y-51585148D01*
X110002263Y-51570185D01*
X110002259Y-51570182D01*
X109849526Y-51474212D01*
X109679258Y-51414633D01*
X109679257Y-51414632D01*
X109679255Y-51414632D01*
X109679251Y-51414631D01*
X109679249Y-51414631D01*
X109500000Y-51394435D01*
X109320750Y-51414631D01*
X109320741Y-51414633D01*
X109150473Y-51474212D01*
X108997740Y-51570182D01*
X108997736Y-51570185D01*
X108870185Y-51697736D01*
X108870182Y-51697740D01*
X108774212Y-51850473D01*
X108714633Y-52020741D01*
X108714631Y-52020750D01*
X108694435Y-52200000D01*
X104115740Y-52200000D01*
X104115740Y-47702120D01*
X108024500Y-47702120D01*
X108024500Y-49797879D01*
X108030907Y-49857478D01*
X108030909Y-49857483D01*
X108081204Y-49992331D01*
X108167454Y-50107546D01*
X108282669Y-50193796D01*
X108417517Y-50244091D01*
X108417520Y-50244092D01*
X108461177Y-50248785D01*
X108477127Y-50250500D01*
X110572872Y-50250499D01*
X110572878Y-50250499D01*
X110632478Y-50244092D01*
X110632479Y-50244091D01*
X110632483Y-50244091D01*
X110767331Y-50193796D01*
X110882546Y-50107546D01*
X110968796Y-49992331D01*
X111019091Y-49857483D01*
X111019091Y-49857481D01*
X111019092Y-49857479D01*
X111025499Y-49797879D01*
X111025500Y-49797873D01*
X111025499Y-47702128D01*
X111025499Y-47702127D01*
X111025499Y-47702120D01*
X111019092Y-47642521D01*
X111019091Y-47642517D01*
X110968796Y-47507669D01*
X110882546Y-47392454D01*
X110798870Y-47329814D01*
X110767333Y-47306205D01*
X110767331Y-47306204D01*
X110722381Y-47289439D01*
X110632479Y-47255907D01*
X110572879Y-47249500D01*
X108477120Y-47249500D01*
X108417521Y-47255907D01*
X108282666Y-47306205D01*
X108167454Y-47392454D01*
X108081205Y-47507666D01*
X108030907Y-47642520D01*
X108024500Y-47702120D01*
X104115740Y-47702120D01*
X104115740Y-46553455D01*
X104115746Y-46552681D01*
X104118941Y-46350478D01*
X104129603Y-45675776D01*
X104129656Y-45674177D01*
X104131202Y-45642612D01*
X104148089Y-45297834D01*
X108025000Y-45297834D01*
X108031401Y-45357372D01*
X108031401Y-45357373D01*
X108081648Y-45492091D01*
X108167811Y-45607188D01*
X108282908Y-45693351D01*
X108417626Y-45743598D01*
X108477166Y-45750000D01*
X109275000Y-45750000D01*
X109775000Y-45750000D01*
X110572834Y-45750000D01*
X110632372Y-45743598D01*
X110632373Y-45743598D01*
X110767091Y-45693351D01*
X110882188Y-45607188D01*
X110968351Y-45492091D01*
X111018598Y-45357373D01*
X111018598Y-45357372D01*
X111025000Y-45297834D01*
X115975000Y-45297834D01*
X115981401Y-45357372D01*
X115981401Y-45357373D01*
X116031648Y-45492091D01*
X116117811Y-45607188D01*
X116232908Y-45693351D01*
X116367626Y-45743598D01*
X116427166Y-45750000D01*
X117225000Y-45750000D01*
X117725000Y-45750000D01*
X118522834Y-45750000D01*
X118582372Y-45743598D01*
X118582373Y-45743598D01*
X118717091Y-45693351D01*
X118832188Y-45607188D01*
X118918351Y-45492091D01*
X118968598Y-45357373D01*
X118968598Y-45357372D01*
X118975000Y-45297834D01*
X118975000Y-44500000D01*
X117725000Y-44500000D01*
X117725000Y-45750000D01*
X117225000Y-45750000D01*
X117225000Y-44500000D01*
X115975000Y-44500000D01*
X115975000Y-45297834D01*
X111025000Y-45297834D01*
X111025000Y-44500000D01*
X109775000Y-44500000D01*
X109775000Y-45750000D01*
X109275000Y-45750000D01*
X109275000Y-44500000D01*
X108025000Y-44500000D01*
X108025000Y-45297834D01*
X104148089Y-45297834D01*
X104170953Y-44831034D01*
X104171063Y-44829386D01*
X104239755Y-44015712D01*
X104239943Y-44013900D01*
X104245810Y-43965957D01*
X104335891Y-43229837D01*
X104336159Y-43227957D01*
X104340366Y-43202165D01*
X108025000Y-43202165D01*
X108025000Y-44000000D01*
X109275000Y-44000000D01*
X109775000Y-44000000D01*
X111025000Y-44000000D01*
X111025000Y-43202165D01*
X115975000Y-43202165D01*
X115975000Y-44000000D01*
X117225000Y-44000000D01*
X117725000Y-44000000D01*
X118975000Y-44000000D01*
X118975000Y-43202165D01*
X118968598Y-43142627D01*
X118968598Y-43142626D01*
X118918351Y-43007908D01*
X118832188Y-42892811D01*
X118717091Y-42806648D01*
X118582373Y-42756401D01*
X118522834Y-42750000D01*
X117725000Y-42750000D01*
X117725000Y-44000000D01*
X117225000Y-44000000D01*
X117225000Y-42750000D01*
X116427166Y-42750000D01*
X116367627Y-42756401D01*
X116367626Y-42756401D01*
X116232908Y-42806648D01*
X116117811Y-42892811D01*
X116031648Y-43007908D01*
X115981401Y-43142626D01*
X115981401Y-43142627D01*
X115975000Y-43202165D01*
X111025000Y-43202165D01*
X111018598Y-43142627D01*
X111018598Y-43142626D01*
X110968351Y-43007908D01*
X110882188Y-42892811D01*
X110767091Y-42806648D01*
X110632373Y-42756401D01*
X110572834Y-42750000D01*
X109775000Y-42750000D01*
X109775000Y-44000000D01*
X109275000Y-44000000D01*
X109275000Y-42750000D01*
X108477166Y-42750000D01*
X108417627Y-42756401D01*
X108417626Y-42756401D01*
X108282908Y-42806648D01*
X108167811Y-42892811D01*
X108081648Y-43007908D01*
X108031401Y-43142626D01*
X108031401Y-43142627D01*
X108025000Y-43202165D01*
X104340366Y-43202165D01*
X104459240Y-42473345D01*
X104459599Y-42471406D01*
X104609630Y-41746377D01*
X104610109Y-41744295D01*
X104786943Y-41048693D01*
X104787548Y-41046528D01*
X104990998Y-40380325D01*
X104991763Y-40378029D01*
X105082830Y-40125721D01*
X105221675Y-39741038D01*
X105222596Y-39738680D01*
X105478834Y-39130680D01*
X105479919Y-39128292D01*
X105762363Y-38549050D01*
X105763628Y-38546634D01*
X106072190Y-37995888D01*
X106073673Y-37993415D01*
X106096754Y-37957373D01*
X106408348Y-37470802D01*
X106409998Y-37468390D01*
X106770822Y-36973577D01*
X106772643Y-36971235D01*
X107159778Y-36503804D01*
X107161761Y-36501556D01*
X107575381Y-36061187D01*
X107577521Y-36059047D01*
X108017881Y-35645434D01*
X108020128Y-35643451D01*
X108487561Y-35256316D01*
X108489892Y-35254503D01*
X108984752Y-34893645D01*
X108987152Y-34892005D01*
X109509739Y-34557343D01*
X109512213Y-34555861D01*
X109600024Y-34506664D01*
X110062954Y-34247302D01*
X110065370Y-34246037D01*
X110644612Y-33963592D01*
X110647000Y-33962507D01*
X111255012Y-33706263D01*
X111257370Y-33705342D01*
X111894376Y-33475425D01*
X111896656Y-33474666D01*
X112562860Y-33271216D01*
X112565031Y-33270610D01*
X113260627Y-33093777D01*
X113262709Y-33093298D01*
X113987739Y-32943267D01*
X113989678Y-32942908D01*
X114744276Y-32819828D01*
X114746156Y-32819560D01*
X115530248Y-32723608D01*
X115532042Y-32723422D01*
X116345717Y-32654731D01*
X116347365Y-32654621D01*
X117190536Y-32613323D01*
X117192110Y-32613271D01*
X118069020Y-32599412D01*
X118069794Y-32599407D01*
X138666874Y-32599407D01*
X138667647Y-32599412D01*
G37*
%TD.AperFunction*%
%TD*%
M02*
