<svg xmlns="http://www.w3.org/2000/svg" viewBox="0 0 81.60767 74.93833"><polygon points="6.214 0.226 3.207 0.226 0.2 0.226 0.2 3.234 3.207 3.234 3.207 6.241 6.214 6.241 6.214 3.234 9.222 3.234 9.222 0.226 6.214 0.226" style="fill:none;stroke:#fff;stroke-linecap:round;stroke-linejoin:round;stroke-width:0.4px"/><polyline points="10.281 3.207 11.348 3.207 11.348 0.2 10.281 0.2" style="fill:none;stroke:#fff;stroke-linecap:round;stroke-linejoin:round;stroke-width:0.4px"/><polyline points="7.095 6.214 8.341 6.214 8.341 4.1" style="fill:none;stroke:#fff;stroke-linecap:round;stroke-linejoin:round;stroke-width:0.4px"/><polyline points="9.222 6.241 9.753 6.241 9.753 4.127" style="fill:none;stroke:#fff;stroke-linecap:round;stroke-linejoin:round;stroke-width:0.4px"/><polyline points="12.104 3.234 12.76 3.234 12.76 0.226 12.104 0.226" style="fill:none;stroke:#fff;stroke-linecap:round;stroke-linejoin:round;stroke-width:0.4px"/><polygon points="77.882 3.207 77.882 0.2 77.882 0.2 74.875 0.2 71.868 0.2 71.868 3.207 74.875 3.207 74.875 6.214 74.875 6.214 77.882 6.214 80.889 6.214 80.889 3.207 77.882 3.207" style="fill:none;stroke:#fff;stroke-linecap:round;stroke-linejoin:round;stroke-width:0.4px"/><polygon points="78.4 68.165 75.393 68.165 72.386 68.165 69.379 68.165 69.379 71.172 72.325 71.172 72.386 71.172 75.332 71.172 75.393 71.172 78.4 71.172 81.408 71.172 81.408 68.165 78.4 68.165" style="fill:none;stroke:#fff;stroke-linecap:round;stroke-linejoin:round;stroke-width:0.4px"/><polyline points="71.074 3.207 70.007 3.207 70.007 0.2 71.074 0.2" style="fill:none;stroke:#fff;stroke-linecap:round;stroke-linejoin:round;stroke-width:0.4px"/><polyline points="74.26 6.214 73.014 6.214 73.014 4.1" style="fill:none;stroke:#fff;stroke-linecap:round;stroke-linejoin:round;stroke-width:0.4px"/><polyline points="72.133 6.241 71.602 6.241 71.602 4.127" style="fill:none;stroke:#fff;stroke-linecap:round;stroke-linejoin:round;stroke-width:0.4px"/><polyline points="69.251 3.234 68.595 3.234 68.595 0.226 69.251 0.226" style="fill:none;stroke:#fff;stroke-linecap:round;stroke-linejoin:round;stroke-width:0.4px"/><polygon points="8.222 71.031 5.214 71.031 5.214 68.024 2.207 68.024 2.207 71.031 2.207 74.039 5.214 74.039 8.222 74.039 11.229 74.039 11.229 71.031 8.222 71.031" style="fill:none;stroke:#fff;stroke-linecap:round;stroke-linejoin:round;stroke-width:0.4px"/><polyline points="5.214 67.32 5.214 66.257 2.207 66.257 2.207 67.304" style="fill:none;stroke:#fff;stroke-linecap:round;stroke-linejoin:round;stroke-width:0.4px"/><polyline points="11.229 70.286 11.229 69.264 8.222 69.264 5.856 69.264" style="fill:none;stroke:#fff;stroke-linecap:round;stroke-linejoin:round;stroke-width:0.4px"/><polyline points="5.214 65.659 5.214 65.017 2.207 65.017 2.207 65.643" style="fill:none;stroke:#fff;stroke-linecap:round;stroke-linejoin:round;stroke-width:0.4px"/><polyline points="11.229 68.624 11.229 68.024 8.222 68.024 5.856 68.024" style="fill:none;stroke:#fff;stroke-linecap:round;stroke-linejoin:round;stroke-width:0.4px"/><polyline points="81.039 67.466 80.713 66.189 76.762 67.196 75.969 67.398" style="fill:none;stroke:#fff;stroke-linecap:round;stroke-linejoin:round;stroke-width:0.4px"/><polyline points="69.752 71.886 70.076 73.16 74.091 72.137 74.175 72.116 75.031 71.898" style="fill:none;stroke:#fff;stroke-linecap:round;stroke-linejoin:round;stroke-width:0.4px"/><polyline points="71.576 73.777 72.453 74.738 74.312 73.043" style="fill:none;stroke:#fff;stroke-linecap:round;stroke-linejoin:round;stroke-width:0.4px"/><polyline points="79.208 65.546 78.376 64.635 76.447 66.394" style="fill:none;stroke:#fff;stroke-linecap:round;stroke-linejoin:round;stroke-width:0.4px"/></svg>