<svg xmlns="http://www.w3.org/2000/svg" viewBox="0 0 83.26506 73.6988"><polygon points="6.214 0.226 3.207 0.226 0.2 0.226 0.2 3.234 3.207 3.234 3.207 6.241 6.214 6.241 6.214 3.234 9.222 3.234 9.222 0.226 6.214 0.226" style="fill:#fff;stroke:#fff;stroke-linecap:round;stroke-linejoin:round;stroke-width:0.4px"/><polyline points="10.281 3.207 11.348 3.207 11.348 0.2 10.281 0.2" style="fill:none;stroke:#fff;stroke-linecap:round;stroke-linejoin:round;stroke-width:0.4px"/><polyline points="7.095 6.214 8.341 6.214 8.341 4.1" style="fill:none;stroke:#fff;stroke-linecap:round;stroke-linejoin:round;stroke-width:0.4px"/><polyline points="9.222 6.241 9.753 6.241 9.753 4.127" style="fill:none;stroke:#fff;stroke-linecap:round;stroke-linejoin:round;stroke-width:0.4px"/><polyline points="12.104 3.234 12.76 3.234 12.76 0.226 12.104 0.226" style="fill:none;stroke:#fff;stroke-linecap:round;stroke-linejoin:round;stroke-width:0.4px"/><polygon points="78.554 3.207 78.554 0.2 78.554 0.2 75.547 0.2 72.54 0.2 72.54 3.207 75.547 3.207 75.547 6.214 75.547 6.214 78.554 6.214 81.561 6.214 81.561 3.207 78.554 3.207" style="fill:#fff;stroke:#fff;stroke-linecap:round;stroke-linejoin:round;stroke-width:0.4px"/><polygon points="80.058 68.068 77.051 68.068 74.043 68.068 71.036 68.068 71.036 71.075 73.982 71.075 74.043 71.075 76.989 71.075 77.051 71.075 80.058 71.075 83.065 71.075 83.065 68.068 80.058 68.068" style="fill:#fff;stroke:#fff;stroke-linecap:round;stroke-linejoin:round;stroke-width:0.4px"/><polyline points="71.746 3.207 70.679 3.207 70.679 0.2 71.746 0.2" style="fill:none;stroke:#fff;stroke-linecap:round;stroke-linejoin:round;stroke-width:0.4px"/><polyline points="74.932 6.214 73.686 6.214 73.686 4.1" style="fill:none;stroke:#fff;stroke-linecap:round;stroke-linejoin:round;stroke-width:0.4px"/><polyline points="72.806 6.241 72.274 6.241 72.274 4.127" style="fill:none;stroke:#fff;stroke-linecap:round;stroke-linejoin:round;stroke-width:0.4px"/><polyline points="69.923 3.234 69.267 3.234 69.267 0.226 69.923 0.226" style="fill:none;stroke:#fff;stroke-linecap:round;stroke-linejoin:round;stroke-width:0.4px"/><polygon points="9.222 70.031 6.214 70.031 6.214 67.024 3.207 67.024 3.207 70.031 3.207 73.039 6.214 73.039 9.222 73.039 12.229 73.039 12.229 70.031 9.222 70.031" style="fill:#fff;stroke:#fff;stroke-linecap:round;stroke-linejoin:round;stroke-width:0.4px"/><polyline points="6.214 66.32 6.214 65.257 3.207 65.257 3.207 66.304" style="fill:none;stroke:#fff;stroke-linecap:round;stroke-linejoin:round;stroke-width:0.4px"/><polyline points="12.229 69.286 12.229 68.264 9.222 68.264 6.856 68.264" style="fill:none;stroke:#fff;stroke-linecap:round;stroke-linejoin:round;stroke-width:0.4px"/><polyline points="6.214 64.659 6.214 64.017 3.207 64.017 3.207 64.643" style="fill:none;stroke:#fff;stroke-linecap:round;stroke-linejoin:round;stroke-width:0.4px"/><polyline points="12.229 67.624 12.229 67.024 9.222 67.024 6.856 67.024" style="fill:none;stroke:#fff;stroke-linecap:round;stroke-linejoin:round;stroke-width:0.4px"/><polyline points="82.696 67.37 82.508 66.63 79.594 67.372 79.008 67.522" style="fill:none;stroke:#fff;stroke-linecap:round;stroke-linejoin:round;stroke-width:0.4px"/><line x1="77.33597" y1="71.04938" x2="77.39585" y2="71.03525" style="fill:none;stroke:#fff;stroke-linecap:round;stroke-linejoin:round;stroke-width:0.4px"/><polyline points="71.409 71.789 71.594 72.514 74.448 71.786 74.508 71.771 75.116 71.616" style="fill:none;stroke:#fff;stroke-linecap:round;stroke-linejoin:round;stroke-width:0.4px"/><line x1="77.54025" y1="70.9948" x2="77.59756" y2="70.97243" style="fill:none;stroke:#fff;stroke-linecap:round;stroke-linejoin:round;stroke-width:0.4px"/><polyline points="72.524 73.087 72.713 73.499 76.368 71.822" style="fill:none;stroke:#fff;stroke-linecap:round;stroke-linejoin:round;stroke-width:0.4px"/><polyline points="81.628 66.107 81.431 65.678 77.847 67.322" style="fill:none;stroke:#fff;stroke-linecap:round;stroke-linejoin:round;stroke-width:0.4px"/></svg>