<svg xmlns="http://www.w3.org/2000/svg" viewBox="0 0 81.60767 75.93833"><polygon points="6.214 0.226 3.207 0.226 0.2 0.226 0.2 3.234 3.207 3.234 3.207 6.241 6.214 6.241 6.214 3.234 9.222 3.234 9.222 0.226 6.214 0.226" style="fill:#fff;stroke:#fff;stroke-linecap:round;stroke-linejoin:round;stroke-width:0.4px"/><polyline points="10.281 3.207 11.348 3.207 11.348 0.2 10.281 0.2" style="fill:none;stroke:#fff;stroke-linecap:round;stroke-linejoin:round;stroke-width:0.4px"/><polyline points="7.095 6.214 8.341 6.214 8.341 4.1" style="fill:none;stroke:#fff;stroke-linecap:round;stroke-linejoin:round;stroke-width:0.4px"/><polyline points="9.222 6.241 9.753 6.241 9.753 4.127" style="fill:none;stroke:#fff;stroke-linecap:round;stroke-linejoin:round;stroke-width:0.4px"/><polyline points="12.104 3.234 12.76 3.234 12.76 0.226 12.104 0.226" style="fill:none;stroke:#fff;stroke-linecap:round;stroke-linejoin:round;stroke-width:0.4px"/><polygon points="77.882 3.207 77.882 0.2 77.882 0.2 74.875 0.2 71.868 0.2 71.868 3.207 74.875 3.207 74.875 6.214 74.875 6.214 77.882 6.214 80.889 6.214 80.889 3.207 77.882 3.207" style="fill:#fff;stroke:#fff;stroke-linecap:round;stroke-linejoin:round;stroke-width:0.4px"/><polygon points="78.4 69.165 75.393 69.165 72.386 69.165 69.379 69.165 69.379 72.172 72.325 72.172 72.386 72.172 75.332 72.172 75.393 72.172 78.4 72.172 81.408 72.172 81.408 69.165 78.4 69.165" style="fill:#fff;stroke:#fff;stroke-linecap:round;stroke-linejoin:round;stroke-width:0.4px"/><polyline points="71.074 3.207 70.007 3.207 70.007 0.2 71.074 0.2" style="fill:none;stroke:#fff;stroke-linecap:round;stroke-linejoin:round;stroke-width:0.4px"/><polyline points="74.26 6.214 73.014 6.214 73.014 4.1" style="fill:none;stroke:#fff;stroke-linecap:round;stroke-linejoin:round;stroke-width:0.4px"/><polyline points="72.133 6.241 71.602 6.241 71.602 4.127" style="fill:none;stroke:#fff;stroke-linecap:round;stroke-linejoin:round;stroke-width:0.4px"/><polyline points="69.251 3.234 68.595 3.234 68.595 0.226 69.251 0.226" style="fill:none;stroke:#fff;stroke-linecap:round;stroke-linejoin:round;stroke-width:0.4px"/><polygon points="8.222 71.031 5.214 71.031 5.214 68.024 2.207 68.024 2.207 71.031 2.207 74.039 5.214 74.039 8.222 74.039 11.229 74.039 11.229 71.031 8.222 71.031" style="fill:#fff;stroke:#fff;stroke-linecap:round;stroke-linejoin:round;stroke-width:0.4px"/><polyline points="5.214 67.32 5.214 66.257 2.207 66.257 2.207 67.304" style="fill:none;stroke:#fff;stroke-linecap:round;stroke-linejoin:round;stroke-width:0.4px"/><polyline points="11.229 70.286 11.229 69.264 8.222 69.264 5.856 69.264" style="fill:none;stroke:#fff;stroke-linecap:round;stroke-linejoin:round;stroke-width:0.4px"/><polyline points="5.214 65.659 5.214 65.017 2.207 65.017 2.207 65.643" style="fill:none;stroke:#fff;stroke-linecap:round;stroke-linejoin:round;stroke-width:0.4px"/><polyline points="11.229 68.624 11.229 68.024 8.222 68.024 5.856 68.024" style="fill:none;stroke:#fff;stroke-linecap:round;stroke-linejoin:round;stroke-width:0.4px"/><polyline points="81.039 68.466 80.713 67.189 76.451 68.275 75.595 68.493" style="fill:none;stroke:#fff;stroke-linecap:round;stroke-linejoin:round;stroke-width:0.4px"/><line x1="75.67858" y1="72.14628" x2="75.73846" y2="72.13215" style="fill:none;stroke:#fff;stroke-linecap:round;stroke-linejoin:round;stroke-width:0.4px"/><polyline points="69.752 72.886 70.076 74.16 74.261 73.094 74.348 73.072 75.24 72.844" style="fill:none;stroke:#fff;stroke-linecap:round;stroke-linejoin:round;stroke-width:0.4px"/><line x1="75.88286" y1="72.0917" x2="75.94017" y2="72.06933" style="fill:none;stroke:#fff;stroke-linecap:round;stroke-linejoin:round;stroke-width:0.4px"/><polyline points="71.723 74.938 72.453 75.738 74.349 74.009" style="fill:none;stroke:#fff;stroke-linecap:round;stroke-linejoin:round;stroke-width:0.4px"/><polyline points="79.107 66.436 78.376 65.635 76.375 67.46" style="fill:none;stroke:#fff;stroke-linecap:round;stroke-linejoin:round;stroke-width:0.4px"/></svg>