<svg xmlns="http://www.w3.org/2000/svg" viewBox="0 0 108.17562 93.90847"><path d="M77.54509,93.88534c-.65795-.6725-1.24385-1.27049-1.82879-1.86939q-2.42226-2.4801-4.84741-4.95732a.51149.51149,0,0,1-.161-.49871q.2863-1.76264.54048-3.53042a.48226.48226,0,0,1,.31747-.41434q2.04181-.937,4.07225-1.89868a.42992.42992,0,0,1,.57942.119c.96548,1.00179,1.95052,1.98483,2.90886,2.99331a.3876.3876,0,0,0,.54122.08608c2.76655-1.29436,5.53922-2.57567,8.30317-3.87552a.48979.48979,0,0,1,.66808.12117q1.503,1.57257,3.03661,3.11578a.4799.4799,0,0,1,.15163.4677q-.287,1.78046-.54919,3.56484a.46063.46063,0,0,1-.2973.39222q-6.56288,3.04508-13.12208,6.09808C77.73231,93.8578,77.60626,93.95252,77.54509,93.88534ZM91.45447,83.86368a.61974.61974,0,0,0-.32281.11524q-2.84039,1.31645-5.679,2.63664-3.41631,1.5889-6.83146,3.18025c-.11455.05333-.24437.07857-.26927.24431-.16933,1.12712-.34456,2.25337-.522,3.40651a1.46243,1.46243,0,0,0,.16739-.05064q6.38345-2.96784,12.76811-5.933a.38377.38377,0,0,0,.23-.35109c.14726-.991.30348-1.98069.45563-2.971A.42393.42393,0,0,0,91.45447,83.86368Zm-19.90689-.65c-.17239,1.10547-.32441,2.142-.50162,3.17421a.63771.63771,0,0,0,.20535.62067c1.30719,1.3253,2.60458,2.66025,3.90647,3.99078.76408.7809,1.53072,1.5593,2.32272,2.36584.02676-.11849.04887-.19506.061-.27319.15009-.96637.29-1.93445.45377-2.89847a.59445.59445,0,0,0-.1854-.58893c-.89123-.89133-1.76762-1.79749-2.64921-2.69846C73.97533,85.69474,72.79,84.48338,71.54758,83.21364Z" style="fill:#fff"/><path d="M14.59135,10.544q.2055-1.811.41033-3.62215c.02223-.19794.19314-.21976.32584-.281Q20.14327,4.41762,24.9607,2.198C26.26656,1.59594,27.57506.99943,28.87575.38639a.39971.39971,0,0,1,.56943.10921q3.013,3.50349,6.04765,6.98827a.58533.58533,0,0,1,.1579.50722c-.13865,1.112-.26173,2.2261-.37868,3.34068a.40143.40143,0,0,1-.26274.37086c-1.45843.66513-2.91577,1.33285-4.36588,2.01581-.2345.11045-.33753.01088-.47-.14307-.90853-1.05561-1.82724-2.10252-2.72916-3.16371a.37263.37263,0,0,0-.53086-.12262c-2.896,1.34733-5.79951,2.67832-8.69478,4.0271a.43184.43184,0,0,1-.61609-.14107c-.92962-1.09955-1.87972-2.18179-2.82114-3.27139C14.69115,10.79926,14.56641,10.70992,14.59135,10.544Zm20.653-2.84394a1.58215,1.58215,0,0,0-.09331-.13773Q32.23113,4.18867,29.31383.81278a.31909.31909,0,0,0-.4523-.08231Q22.29578,3.76733,15.72236,6.7876c-.29214.134-.26085.21753-.07715.42524q1.26678,1.43229,2.50306,2.89133a.36468.36468,0,0,0,.52492.10894c2.89827-1.34541,5.803-2.6769,8.70088-4.02312a.42059.42059,0,0,1,.59771.12851c.8993,1.06347,1.82165,2.10742,2.72536,3.16722.14673.17207.26052.21838.46853.1023.27708-.15463.57664-.26879.86565-.40228C33.09868,8.69273,34.16568,8.19892,35.2443,7.70009ZM27.4689,6.5675a.85084.85084,0,0,0-.1274.02473q-4.34078,1.995-8.682,3.989a.3145.3145,0,0,0-.19342.29883c-.05687.55159-.13,1.10148-.19189,1.65259-.053.47177-.09882.94434-.15355,1.47173.91657-.42127,1.77286-.8137,2.62822-1.20818q3.05295-1.408,6.10492-2.818c.11494-.0531.23589-.0888.25429-.25676C27.22231,8.67875,27.34549,7.63708,27.4689,6.5675ZM30.65531,13.294c.06545.00352.09243.01329.11106.00478q2.00918-.91778,4.01777-1.83681a.323.323,0,0,0,.18745-.30647c.0814-.74949.182-1.497.25451-2.2473a3.29243,3.29243,0,0,0,.06029-.85262c-1.38948.63977-2.74666,1.26716-4.10711,1.88742a.32105.32105,0,0,0-.18637.30674c-.05669.50368-.119,1.00672-.17495,1.51047C30.76123,12.27048,30.70946,12.78133,30.65531,13.294Z" style="fill:#fff"/><path d="M20.31041,84.77445c-.17211-.35669-.31738-.67794-.4814-.98931a.5166.5166,0,0,1-.02891-.46928q.62736-1.59693,1.23759-3.20058a.40664.40664,0,0,1,.367-.27193q2.35533-.40482,4.70717-.82973c.22383-.04082.31411.03789.4042.22386.61689,1.27347,1.24974,2.53924,1.86191,3.81494a.34851.34851,0,0,0,.45356.2382c1.47337-.27507,2.95132-.52562,4.42477-.80029a.38.38,0,0,1,.48812.25564q.95824,1.99221,1.94585,3.97024a.55754.55754,0,0,1,.01221.49993q-.61336,1.5456-1.20172,3.101a.48126.48126,0,0,1-.4254.34652q-5.66874.98378-11.33427,1.98608c-1.15072.2022-2.30237.39934-3.45169.6092a.34621.34621,0,0,1-.44189-.2232q-.96575-2.00843-1.95641-4.00482a.52686.52686,0,0,1-.02905-.46865c.41259-1.04157.82288-2.08421,1.21635-3.13309a.50264.50264,0,0,1,.465-.35222C19.11458,84.9928,19.68205,84.8838,20.31041,84.77445Zm-.17023-1.11c.07856.18224.13714.33555.20909.48231q.82515,1.68312,1.65468,3.36408c.24538.49856.23974.52034-.31888.62042-1.39372.24968-2.78774.49814-4.18446.73016-.26809.04453-.294.11172-.17575.3478q.8635,1.72351,1.69365,3.4636a.351.351,0,0,0,.46287.22537c1.65965-.30271,3.32216-.58975,4.98391-.88089q4.63737-.81246,9.27582-1.61859c.22957-.03958.27441-.09376.1688-.3061q-.88206-1.77338-1.74463-3.55642a.29592.29592,0,0,0-.38388-.19c-1.46187.26976-2.9277.51815-4.38882.79179a.46637.46637,0,0,1-.60194-.3063c-.59167-1.24624-1.21214-2.47877-1.811-3.72165-.09678-.20085-.18883-.27136-.42688-.223-.70506.14325-1.41769.249-2.12679.3727C21.67191,83.39121,20.91852,83.52646,20.14018,83.66446Zm13.3874-.6521c-.28026.72021-.48085,1.39024-.79454,2.00231a2.00656,2.00656,0,0,0,.07659,2.12887c.53864.91525.95557,1.90212,1.455,2.91911.39968-1.02716.77423-1.99042,1.14954-2.95339a.39726.39726,0,0,0-.04246-.33753C34.76917,85.54662,34.16881,84.32042,33.52758,83.01236Zm-6.46922,3.58158c.40351-1.03717.77892-2.00216,1.15439-2.96713a.32677.32677,0,0,0-.02305-.27333c-.61138-1.24682-1.22272-2.49367-1.86556-3.80469-.03248.079-.04633.11108-.059.14364q-.5386,1.38546-1.07861,2.77037a.43172.43172,0,0,0,.02634.37262C25.81676,84.06264,26.41882,85.29076,27.05836,86.59394Z" style="fill:#fff"/><path d="M48.6418,64.93393q-.18147.88359-.363,1.76717-.76911,3.74222-1.53294,7.48552a.5439.5439,0,0,1-.34488.437q-1.60515.74133-3.19629,1.51277a.5084.5084,0,0,1-.552-.035c-1.26895-.77311-2.54106-1.54136-3.82353-2.29174a.44789.44789,0,0,1-.23331-.57472c.28669-1.3494.54639-2.70461.84317-4.0517a.409.409,0,0,0-.24573-.52306c-2.62242-1.56592-5.23738-3.14433-7.86089-4.70838a.45108.45108,0,0,1-.26732-.561q.46239-2.14374.88835-4.29524a.5104.5104,0,0,1,.324-.41152q1.62-.75124,3.22886-1.52655a.488.488,0,0,1,.52271.03216q6.18252,3.72354,12.37031,7.43831C48.51538,64.69763,48.67429,64.74143,48.6418,64.93393Zm-.50528-.07618a1.79,1.79,0,0,0-.1589-.12516Q41.95935,61.11485,35.94236,57.495a.38432.38432,0,0,0-.41936-.00284c-.91375.43886-1.83249.86733-2.74833,1.30186-.07879.03739-.18587.04821-.20885.17932q.82953.49881,1.66381,1.00049,5.21571,3.13374,10.43137,6.26758c.11925.07166.2185.15962.38517.07946C46.06514,65.83081,47.0895,65.35191,48.13652,64.85775ZM43.19028,75.73124a.5326.5326,0,0,0,.32141-.09618c.86425-.40484,1.72352-.82056,2.59272-1.21441a.60928.60928,0,0,0,.37919-.49294c.44018-2.18281.89169-4.36332,1.33826-6.54484.14721-.71913.2897-1.43922.4456-2.2149-1.0187.48218-1.97263.94333-2.93653,1.3826a.56944.56944,0,0,0-.36231.45919c-.39235,1.95189-.796,3.90151-1.19508,5.85205Q43.48047,74.29409,43.19028,75.73124Z" style="fill:#fff"/><path d="M69.754,52.8428c-.11533.03816-.22855-.03251-.34584-.12623q-1.63182-1.30395-3.27172-2.59772a.33943.33943,0,0,1-.1275-.45051c.16186-.44255.28446-.89969.45222-1.33975a.3508.3508,0,0,0-.14457-.47263c-.87488-.68189-1.73567-1.38186-2.61168-2.06226a.4291.4291,0,0,1-.17955-.56163q.75345-2.209,1.46444-4.43224a.4517.4517,0,0,1,.44156-.3581c2.342-.28383,4.688-.54225,7.02155-.885a2.09447,2.09447,0,0,1,1.87532.54921c.80868.72176,1.68279,1.37151,2.54466,2.03152a.43091.43091,0,0,1,.16711.59272c-.16422.41606-.27442.85322-.43239,1.272a.33508.33508,0,0,0,.13845.44583c.883.69063,1.75494,1.39551,2.63936,2.08432a.40379.40379,0,0,1,.17251.53011c-.5034,1.47233-.995,2.949-1.46415,4.43248a.4976.4976,0,0,1-.50288.38283q-2.98629.35893-5.97105.73063C71.0111,52.68341,70.40268,52.76124,69.754,52.8428Zm6.73073-10.538c-.04152-.13947-.14838-.18022-.22713-.24319-.87527-.7-1.758-1.39072-2.62734-2.09785a.69851.69851,0,0,0-.58512-.14793c-1.47328.18915-2.94788.36806-4.42185.5518-.9656.12035-1.93087.24318-2.93818.37018a1.22449,1.22449,0,0,0,.11822.13769c.95021.75708,1.90342,1.51042,2.85039,2.27153a.55452.55452,0,0,0,.46776.07716q1.91254-.2403,3.82524-.47959C74.12325,42.59775,75.29992,42.45207,76.48476,42.30484Zm-9.45392,5.73248a1.17436,1.17436,0,0,0,.07725-.14718c.46227-1.39974.91664-2.80217,1.39162-4.19757.07087-.20819-.0326-.27479-.15317-.37031-.94379-.74761-1.89216-1.48959-2.82637-2.249-.21937-.17833-.267-.0967-.33554.11483-.36715,1.13281-.74282,2.26285-1.117,3.39335-.28778.86936-.28961.87008.43244,1.44523C65.33858,46.69465,66.17877,47.36054,67.03084,48.03732Zm3.98189-.01955c-1.27428.15633-2.46692.30033-3.65861.45185a.42264.42264,0,0,1-.39546-.07222c-.13311-.12986-.1865-.06065-.23144.0843-.115.371-.22888.74324-.36723,1.10582a.31077.31077,0,0,0,.12489.41667q1.419,1.11258,2.82295,2.24417c.19247.15538.26737.15208.34755-.1009.338-1.0663.69468-2.12664,1.04493-3.189C70.79853,48.6605,70.898,48.363,71.01273,48.01777Zm8.04218-1.33815-2.6101-2.07639c-.26168.79182-.50284,1.53-.75068,2.266-.07037.209.04321.218.193.19963C76.91287,46.94328,77.93847,46.81691,79.05491,46.67962Z" style="fill:#fff"/><path d="M84.00265,1.95889q.17671,1.11811.3533,2.23623c.11174.71066.23628,1.41976.32573,2.13323.02991.23855.13126.31161.34576.35024,1.4161.25508,2.829.528,4.24628.77632a.4072.4072,0,0,1,.39088.40152q.326,2.18688.6765,4.37008a.48237.48237,0,0,1-.14733.47q-1.26665,1.28386-2.51529,2.5854a.45629.45629,0,0,1-.46785.14707q-4.67707-.87851-9.35746-1.73918c-.25652-.04691-.31765-.18135-.35092-.39917-.21368-1.39885-.441-2.79565-.646-4.19574-.03241-.22139-.12121-.28922-.32479-.32584-1.41615-.25482-2.82888-.52876-4.246-.77794a.42858.42858,0,0,1-.41173-.4224q-.32316-2.18721-.67527-4.37008a.44957.44957,0,0,1,.135-.439Q72.61265,1.463,73.87561.15055a.43126.43126,0,0,1,.43857-.13869Q79.00926.89149,83.70584,1.763C83.83142,1.78634,83.97751,1.78128,84.00265,1.95889ZM80.93382,5.05521c-.00123-.12788-.12964-.1336-.24576-.15517q-4.43577-.82434-8.87087-1.65232c-.24255-.04555-.308-.01079-.26378.2544q.31982,1.91879.59961,3.84411a.36616.36616,0,0,0,.3586.37394c1.382.24409,2.75811.52271,4.142.75513.35313.05931.45777.22067.50472.54181.19956,1.36477.42483,2.72576.62862,4.08994a.30628.30628,0,0,0,.29357.31233q4.42029.81009,8.83648,1.64229c.262.0494.32175.00953.27615-.2649q-.313-1.88414-.58612-3.77476a.43033.43033,0,0,0-.41789-.44143c-1.37144-.23613-2.73567-.5144-4.10777-.74631a.49681.49681,0,0,1-.48934-.51186c-.0555-.50343-.14825-1.00277-.22631-1.50368C81.22413,6.91,81.08176,6.00146,80.93382,5.05521Zm6.61124,9.828c.04976-.01389.077-.0131.09-.0263.76795-.78272,1.532-1.56933,2.30438-2.34759.12733-.12829.08357-.26031.06335-.3938-.11482-.75775-.23562-1.51459-.3545-2.27172-.09228-.58772-.18472-1.17543-.28685-1.82526-.54489.556-1.04081,1.05858-1.53258,1.56518-.31188.32128-.73642.60049-.89275.98669-.15754.38925.0864.87009.14047,1.31264.00143.0117.001.02366.00281.03528Q87.31173,13.39861,87.54506,14.88318ZM81.93168,9.23957c.835-.8579,1.606-1.652,2.38012-2.44307a.33.33,0,0,0,.07811-.32237c-.08655-.52332-.16044-1.04871-.24255-1.57277-.13246-.84542-.26774-1.69039-.41105-2.59364-.82442.847-1.60249,1.65053-2.38707,2.44768-.11391.11576-.08194.23711-.06368.361.06875.46634.1432.93185.21643,1.39753C81.64069,7.39591,81.78,8.27781,81.93168,9.23957Z" style="fill:#fff"/><path d="M34.19046,47.14716c-1.81122.15562-3.62288.30641-5.43314.47242a.555.555,0,0,1-.56516-.24357c-.63808-.849-1.29016-1.68764-1.94486-2.524a.57989.57989,0,0,1-.12693-.51688q.413-2.17227.79341-4.35066c.04734-.271.13612-.39546.43936-.41719,1.47169-.10548,2.94079-.24662,4.41217-.35713.27219-.02045.37686-.10629.42426-.38375.23636-1.38321.50571-2.76078.7469-4.14322.04623-.26495.14584-.37479.42236-.39615,1.577-.12184,3.15293-.259,4.72847-.3992a.392.392,0,0,1,.38813.17645q1.01082,1.32177,2.0356,2.63282a.51259.51259,0,0,1,.10218.45877c-.05931.28875-.11094.57909-.16426.86905-.08164.44386-.0809.44619.35485.41146.48245-.03845.9657-.07142,1.44624-.12711a.48917.48917,0,0,1,.50708.21882c.6534.86707,1.32156,1.723,1.98827,2.58a.46636.46636,0,0,1,.11232.4158q-.42706,2.24158-.82384,4.48883c-.03905.2209-.11012.31986-.35063.33961q-4.747.39-9.49246.79865Zm2.01-.48146c2.39922-.20323,4.798-.41169,7.19826-.602.25684-.02037.33415-.11822.3748-.3477.22829-1.28891.46151-2.5771.71141-3.86195.05264-.27072-.01243-.31275-.269-.28945-1.44577.13125-2.89316.24469-4.33965.36822-.40844.03489-.457-.00853-.38219-.42076.24416-1.34577.48513-2.6922.74373-4.03524.05487-.285.00509-.36538-.29785-.33619-1.38628.13357-2.77421.25093-4.16251.36182-.20708.01655-.27292.09485-.30773.292-.24389,1.38171-.50982,2.75954-.74865,4.14208-.05505.3187-.1697.451-.514.47524-1.48338.10447-2.964.24713-4.4465.3657-.18393.01472-.27093.07143-.3044.25721-.232,1.28812-.45983,2.57726-.71752,3.86033-.07541.37548.06218.39733.36944.37044C31.47168,47.05867,33.83627,46.86419,36.20049,46.6657ZM40.18666,36.785c-.65786-.85264-1.274-1.64275-1.87836-2.4417-.11872-.15693-.25851-.133-.40931-.12078q-2.01153.16365-4.02291.32944a.64045.64045,0,0,0-.383.10514c.63447.82139,1.25515,1.62167,1.87091,2.4257.09033.11794.197.09682.3167.08684.96426-.08046,1.929-.15482,2.89328-.23545C39.08793,36.89118,39.60119,36.83945,40.18666,36.785ZM27.45085,39.90086c.65669.8506,1.27787,1.65112,1.89306,2.45622.09952.13024.2224.10872.35032.098q1.49976-.12581,2.99935-.25372c.47371-.04126.94666-.09118,1.46752-.14179-.65824-.85308-1.28024-1.65432-1.89513-2.461-.09976-.13086-.22067-.11139-.34856-.101-.81192.06588-1.62509.11976-2.4352.20329C28.827,39.76841,28.16449,39.76547,27.45085,39.90086Zm16.97539,1.29858c-.676-.87519-1.30754-1.69123-1.93666-2.50911-.08161-.1061-.18747-.07727-.28991-.069-.54024.04391-1.08.09477-1.6206.13289-.16331.01152-.25952.062-.29.23648-.13789.78844-.27645,1.57692-.43134,2.36212-.04193.2126.03336.2406.21148.22409.55137-.05109,1.1035-.09371,1.65519-.14143C42.59972,41.35982,43.47494,41.28264,44.42624,41.19944Z" style="fill:#fff"/><path d="M73.49282,18.74742c.33971,1.14193.67131,2.27411,1.01683,3.402.06256.20423-.04712.30606-.15867.42864-1.055,1.15945-2.11389,2.31547-3.15792,3.48474a.35566.35566,0,0,1-.5103.094c-1.2461-.622-2.50292-1.22262-3.74645-1.84962a.39244.39244,0,0,0-.56333.10885c-2.14849,2.37931-4.30875,4.748-6.45779,7.12682a.3523.3523,0,0,1-.50482.10418c-1.31893-.66106-2.645-1.30788-3.97295-1.9508a.58493.58493,0,0,1-.34036-.40878q-.45579-1.5996-.94827-3.18865a.45254.45254,0,0,1,.11418-.50326q5.0589-5.55616,10.1049-11.12406a.34478.34478,0,0,1,.48379-.09665q4.19217,2.06686,8.39177,4.11865C73.36046,18.55087,73.49012,18.596,73.49282,18.74742Zm-.45213.02228a.52142.52142,0,0,0-.07653-.06677q-4.0524-1.99032-8.10386-3.98257c-.1774-.08748-.27153-.03329-.38937.09663q-4.88355,5.38479-9.77835,10.75938c-.20789.22795-.11186.2763.09566.37635,1.15894.55872,2.31713,1.11946,3.46428,1.70178a.36442.36442,0,0,0,.52457-.11162c2.13582-2.36075,4.28286-4.71136,6.41439-7.07595a.45679.45679,0,0,1,.65728-.11958c1.23212.62355,2.47635,1.22316,3.71705,1.8297.13021.06365.2419.16366.39684-.00951C70.97661,21.03427,72.00309,19.91219,73.04069,18.7697ZM65.445,20.74783a1.30522,1.30522,0,0,0-.12861.09991q-3.20344,3.52031-6.40756,7.04a.314.314,0,0,0-.06664.34945c.16378.52977.31082,1.06468.46908,1.59619.136.45654.27866.91107.43465,1.41954.67649-.74267,1.31151-1.43811,1.94466-2.13524q2.26038-2.4887,4.51876-4.97921c.08443-.09311.18727-.17162.13844-.33428C66.04619,22.79942,65.75252,21.79229,65.445,20.74783Zm7.81614-1.66309a.6536.6536,0,0,0-.11486.0739q-1.476,1.62021-2.95211,3.24032a.32014.32014,0,0,0-.07082.35092c.14392.47366.27626.95079.41841,1.425.15288.51005.31183,1.01826.47039,1.53462a.54138.54138,0,0,0,.1132-.05515q1.46523-1.60562,2.93084-3.21087a.36211.36211,0,0,0,.08606-.41185c-.0994-.28912-.17018-.588-.25792-.88124C73.67938,20.46542,73.47149,19.78134,73.26113,19.08474Z" style="fill:#fff"/><path d="M13.89609,47.31506q-.73444.88489-1.469,1.76974c-.44467.53522-.8763,1.08223-1.34159,1.5989a.383.383,0,0,0-.02706.549c.73394,1.21039,1.44984,2.43172,2.18557,3.641a.42866.42866,0,0,1-.03427.58883q-1.41947,1.67254-2.81311,3.36692a.51249.51249,0,0,1-.47636.22085c-1.20045-.07092-2.4017-.12913-3.60311-.18191a.42813.42813,0,0,1-.3959-.23185q-2.43988-4.10734-4.895-8.20561c-.13932-.23192-.05388-.36254.08186-.525.89983-1.07706,1.79107-2.16137,2.69987-3.23076a.34778.34778,0,0,0,.03931-.48743c-.74544-1.231-1.47281-2.473-2.221-3.70234a.40731.40731,0,0,1,.03815-.55968q1.4507-1.71541,2.87983-3.449a.39092.39092,0,0,1,.36386-.15527c1.22436.06645,2.44879.13218,3.67373.18615a.43086.43086,0,0,1,.38908.24593q2.44258,4.10576,4.89185,8.20754C13.93153,47.07626,14.00542,47.185,13.89609,47.31506ZM4.2685,46.599c-.06588.08321-.13.16787-.1979.24943q-1.31236,1.57692-2.62847,3.1507a.30989.30989,0,0,0-.052.42826q2.3217,3.869,4.62427,7.74947c.10742.18079.17961.21126.32352.03639.83908-1.01961,1.67972-2.038,2.53289-3.04582a.33117.33117,0,0,0,.02341-.46042c-.73066-1.21254-1.44092-2.43754-2.18461-3.64194a.50642.50642,0,0,1,.06441-.7067c.88035-1.0312,1.73874-2.08112,2.6156-3.11536a.41639.41639,0,0,0,.05076-.58211c-.45237-.71832-.8724-1.457-1.30709-2.18648q-1.62139-2.721-3.24124-5.44293c-.1297-.2191-.19406-.26573-.38119-.03445Q3.3094,40.482,2.06646,41.9331a.43057.43057,0,0,0-.04319.60632c.73857,1.20774,1.45658,2.42806,2.18034,3.64484C4.27956,46.31194,4.39857,46.43722,4.2685,46.599Zm9.22.3991a.86925.86925,0,0,0-.04582-.13732q-2.34378-3.935-4.68518-7.87147a.38363.38363,0,0,0-.37792-.18382c-.98894-.04616-1.97756-.09913-2.96642-.14719a.4267.4267,0,0,0-.33133.04517c.01524.02484.03359.054.05124.08366q2.34453,3.93447,4.68737,7.86995a.30579.30579,0,0,0,.27713.17483C11.21546,46.88214,12.333,46.94043,13.48847,46.99814ZM7.051,50.90314a1.21512,1.21512,0,0,0,.06194.16333c.70444,1.1846,1.41346,2.36649,2.11194,3.55459a.42731.42731,0,0,0,.40857.2105c.82332.03746,1.64616.08565,2.46957.12089a3.41448,3.41448,0,0,0,.825.00688c-.61612-1.03476-1.26655-2.02142-1.803-3.06662a1.41922,1.41922,0,0,0-1.4799-.878C8.79087,51.0377,7.9335,50.94627,7.051,50.90314Zm6.38733-3.56757-.652-.03462-.002.09084C12.99008,47.39246,13.1811,47.78389,13.43836,47.33557Z" style="fill:#fff"/><path d="M17.59156,28.15242a.55485.55485,0,0,1-.1834.29686c-.93792,1.04445-1.88274,2.08281-2.809,3.13748-.17966.20457-.31842.167-.514.06324Q8.256,28.55652,2.42368,25.469c-.70871-.37548-1.41144-.763-2.1296-1.11946a.46112.46112,0,0,1-.28781-.55224q.34217-3.45177.64759-6.90714A.99929.99929,0,0,1,.925,16.265q1.372-1.50293,2.72-3.02773a.368.368,0,0,1,.537-.104q2.17877,1.17259,4.37309,2.31616a.376.376,0,0,1,.23312.44273c-.108,1.03258-.18219,2.06879-.29764,3.10043a.44006.44006,0,0,0,.28021.51758q4.10169,2.15946,8.19524,4.33438c.995.52576.994.5202.88129,1.63C17.75664,26.36665,17.67641,27.25977,17.59156,28.15242ZM1.12911,16.94081c-.28841-.08746-.17831.19556-.1887.3008C.72941,19.37813.536,21.51637.32487,23.65287a.44979.44979,0,0,0,.28028.51767q6.65078,3.50634,13.29241,7.03c.24506.13.3398.12692.3631-.18639q.09974-1.34072.25006-2.6774a.4409.4409,0,0,0-.27134-.526c-2.94451-1.54653-5.881-3.1084-8.82453-4.65676a.51932.51932,0,0,1-.33145-.604c.11767-1.01917.188-2.04375.30036-3.06363a.37123.37123,0,0,0-.24741-.43343c-.45254-.2285-.897-.473-1.34544-.70964C2.91476,17.881,2.03811,17.41969,1.12911,16.94081Zm4.32206,5.40956c.69809-.77662,1.30639-1.50956,1.97646-2.18085a2.52019,2.52019,0,0,0,.829-1.85576c.00443-.67884.11054-1.357.18039-2.131-.91172,1.01654-1.75088,1.95433-2.59368,2.88885a.57148.57148,0,0,0-.12459.35847C5.63174,20.36733,5.54672,21.30471,5.45117,22.35037ZM17.571,24.97911c-.13628.13764-.22.21547-.29612.30016-.63869.71079-1.26081,1.4373-1.92,2.12845a1.78608,1.78608,0,0,0-.54728,1.2109c-.03915.8061-.13883,1.60928-.221,2.50113.90983-1.01275,1.75916-1.9593,2.61057-2.904a.47006.47006,0,0,0,.10554-.29278C17.38948,26.97165,17.47612,26.02029,17.571,24.97911Z" style="fill:#fff"/><path d="M97.69553,17.03618c-.557.0355-.55631.03523-.75929-.49319-.49018-1.276-.97645-2.55355-1.476-3.82589a.705.705,0,0,1,.03384-.6338q.74448-1.466,1.45786-2.94771a.4215.4215,0,0,1,.4-.27024q2.32779-.18618,4.65307-.40291a.438.438,0,0,1,.54505.33466c.49638,1.34912,1.01878,2.68876,1.54271,4.02755a.66665.66665,0,0,1-.02924.60026q-.74574,1.46537-1.46193,2.94568a.462.462,0,0,1-.42736.2982C100.68083,16.78476,99.18834,16.91251,97.69553,17.03618Zm6.07555-3.72332c-1.58856.13523-3.10213.26634-4.61634.38984-.17243.014-.20123.14268-.2562.25224-.25884.51584-.51265,1.0342-.76805,1.55175-.19608.39736-.39184.79488-.60944,1.23637,1.56495-.12975,3.06725-.25445,4.56959-.37856a.277.277,0,0,0,.25013-.16343C102.80318,15.26218,103.26918,14.32506,103.77108,13.31286ZM97.13489,9.54575a.76656.76656,0,0,0-.08209.10916c-.43046.86431-.85609,1.73106-1.29188,2.59267a.45006.45006,0,0,0,.01271.40146c.17785.46141.35323.92378.53139,1.38507.31089.805.62313,1.60938.95635,2.46964.46205-.93529.88782-1.81384,1.33176-2.68312a.6254.6254,0,0,0,.02192-.56572c-.43772-1.11825-.86309-2.24132-1.29626-3.36137A.67491.67491,0,0,0,97.13489,9.54575Z" style="fill:#fff"/><path d="M64.3492,75.22905c-.55361.03534-.55309.03514-.75708-.49644-.4813-1.25416-.95517-2.51127-1.45092-3.7597a.83825.83825,0,0,1,.03975-.76459c.49036-.95382.96174-1.91753,1.429-2.883a.42179.42179,0,0,1,.40191-.26736q2.32773-.18695,4.653-.40355a.43805.43805,0,0,1,.54267.33834c.49718,1.34883,1.02046,2.68811,1.5421,4.02781a.63389.63389,0,0,1-.01431.56835q-.75323,1.48143-1.47815,2.97714a.462.462,0,0,1-.42926.2954C67.33451,74.97771,65.842,75.1054,64.3492,75.22905Zm-.171-.29348c1.56307-.12956,3.06521-.25566,4.56777-.37643.17362-.01395.23479-.12808.29888-.25864.28042-.57126.56456-1.1407.84624-1.71135.16922-.34279.33636-.6866.53046-1.08309-1.58082.13456-3.09435.26574-4.60852.389-.17227.014-.202.14114-.2571.251-.26939.53689-.53462,1.07587-.80049,1.61451C64.56953,74.13737,64.38491,74.51476,64.17824,74.93557Zm-.3973-7.19586c-.05252.0911-.10862.17733-.154.26887-.38714.78062-.7659,1.5655-1.16279,2.34111a.58114.58114,0,0,0-.0201.52913c.42506,1.08541.83664,2.17609,1.25428,3.26441.06411.16705.13585.33115.22419.54545.47516-.96276.91927-1.87183,1.37432-2.77538a.44959.44959,0,0,0-.00545-.40223q-.67916-1.76343-1.35509-3.52811C63.90418,67.89962,63.89409,67.7982,63.78094,67.73971Z" style="fill:#fff"/><path d="M40.55513,13.77213c.05343.03884.12316.08209.18439.13514,1.31095,1.13582,2.61875,2.27527,3.934,3.40606a.319.319,0,0,1,.09323.42747q-.54843,1.34183-1.07836,2.69119a.91143.91143,0,0,1-.27172.36105c-1.10756.95612-2.21672,1.91044-3.31558,2.87649a.31528.31528,0,0,1-.50423.00527q-1.91471-1.68221-3.84948-3.34148a.3762.3762,0,0,1-.13638-.50884c.36638-.86866.708-1.74778,1.057-2.62376a.84614.84614,0,0,1,.22946-.34856q1.70284-1.4669,3.40064-2.93963A.37679.37679,0,0,1,40.55513,13.77213Zm.49929,6.67473c.06375-.04856.121-.08749.173-.13248,1.01642-.87912,2.02919-1.7625,3.05123-2.635.1644-.14034.10693-.20728-.01932-.31633q-1.77974-1.53737-3.55093-3.08458a.23555.23555,0,0,0-.37822.0002q-1.48948,1.3049-2.99636,2.58989c-.15671.13405-.19257.21161-.00957.36818,1.19125,1.01926,2.37151,2.05137,3.556,3.07857C40.93263,20.36072,40.991,20.39924,41.05442,20.44686Zm-.74957,2.56654a.82647.82647,0,0,0,.13858-.06539q1.39136-1.2009,2.7797-2.40531a.54548.54548,0,0,0,.14982-.19106c.28843-.70516.57036-1.413.87176-2.164a.90409.90409,0,0,0-.13139.06882q-1.37686,1.19039-2.75118,2.38373a.639.639,0,0,0-.18318.20965C40.88833,21.55354,40.60721,22.26115,40.30485,23.0134Z" style="fill:#fff"/><path d="M2.72038,78.61178c-.20777.06493-.30769-.05269-.38685-.2628Q1.55389,76.27927.75218,74.21792a.60143.60143,0,0,1,.02183-.536q.74907-1.48519,1.47612-2.98141a.45888.45888,0,0,1,.42682-.29692q2.38329-.18528,4.76432-.39872a.30208.30208,0,0,1,.36309.23665q.80368,2.11728,1.62108,4.22932a.45283.45283,0,0,1-.018.402q-.76658,1.53566-1.52184,3.07691a.37531.37531,0,0,1-.33842.25382C5.94685,78.33168,4.34751,78.47244,2.72038,78.61178Zm4.46755-8.26457c-1.41717.11845-2.814.23973-4.21191.34786-.2492.01928-.22307.12116-.156.29454.47153,1.21883.94247,2.438,1.40018,3.662a.339.339,0,0,0,.41682.255q2.05914-.18759,4.12057-.34986c.25236-.02018.34915-.06358.23349-.35325-.47152-1.18077-.92233-2.37-1.36657-3.56135C7.53722,70.408,7.43239,70.27223,7.18793,70.34721Zm-4.73.63764c-.49908,1.007-.95613,1.93508-1.42038,2.85958-.07169.14276.00075.25157.04494.36764q.52842,1.388,1.06331,2.77355c.131.34064.26389.68054.42042,1.08391.48575-.97969.93483-1.88767,1.38683-2.79418a.38822.38822,0,0,0,.02556-.33736C3.48164,73.6525,2.98839,72.3656,2.45791,70.98485Z" style="fill:#fff"/><path d="M104.36055,49.51595c.13231.34717.23066.65031.36279.938a.6999.6999,0,0,1-.034.66724q-.73749,1.45059-1.444,2.91682a.45485.45485,0,0,1-.42859.29115q-2.36484.18612-4.72721.40244c-.24046.02223-.33039-.06215-.40908-.27078-.49523-1.31292-1.00951-2.61867-1.5008-3.933-.08875-.23745-.18939-.321-.453-.2956-1.49191.14377-2.98627.262-4.4786.40166a.36.36,0,0,1-.44-.27953c-.5218-1.39091-1.05815-2.77638-1.59707-4.16078a.52315.52315,0,0,1,.02716-.46672q.75508-1.50136,1.49075-3.01243a.455.455,0,0,1,.42635-.29276q7.02134-.58545,14.0414-1.1863c.16466-.014.33009-.01877.49476-.0327.74994-.06344.74871-.06362,1.02556.65808.4603,1.2.91489,2.40226,1.38929,3.59665a.80155.80155,0,0,1-.04042.73105c-.4638.90181-.91716,1.80957-1.34693,2.728a.68159.68159,0,0,1-.69213.46424C105.48644,49.38735,104.947,49.4646,104.36055,49.51595Zm3.43986-3.8496a.64871.64871,0,0,0-.01522-.13094c-.49155-1.28895-.98874-2.57579-1.47274-3.86756-.07541-.20129-.20122-.18524-.36075-.17156q-2.97984.25581-5.96017.50595-4.26806.35988-8.53668.7129c-.24307.01972-.23267.10773-.16508.28254q.71424,1.8474,1.41876,3.69853a.29617.29617,0,0,0,.362.22943c1.48-.13906,2.96214-.25605,4.44189-.39771a.46635.46635,0,0,1,.57612.353c.4733,1.28325.97821,2.55478,1.45947,3.83515.08567.22792.16846.33226.4496.29728.70191-.08733,1.41038-.1214,2.11593-.18023.76334-.06366,1.52635-.13116,2.32685-.20021-.0836-.23073-.1519-.42881-.22679-.62435-.45121-1.178-.89915-2.35728-1.35963-3.53165-.10979-.28-.03806-.39117.25607-.40983.44729-.02839.89334-.076,1.34-.11432C105.56472,45.8571,106.67944,45.76212,107.80041,45.66635ZM91.04014,50.0902c.49623-1.002.95343-1.929,1.41536-2.85359a.41862.41862,0,0,0-.03826-.3691q-.32763-.85773-.65765-1.71453c-.26713-.696-.53421-1.392-.826-2.15226-.49165.99209-.95061,1.91853-1.41,2.84477a.3622.3622,0,0,0,.00256.30712C90.021,47.43766,90.51473,48.72311,91.04014,50.0902ZM97.802,47.09879c-.49445.99732-.95438,1.925-1.41436,2.85274a.32673.32673,0,0,0-.00123.2743c.49778,1.29628.99553,2.59258,1.51841,3.95429.03965-.075.05664-.10554.07213-.13678q.66-1.33193,1.32131-2.66318a.43172.43172,0,0,0,.00672-.3735C98.8129,49.73049,98.32273,48.4536,97.802,47.09879Z" style="fill:#fff"/><path d="M101.01454,69.92253c.05343.03885.12316.08209.18439.13515,1.31095,1.13582,2.61875,2.27527,3.934,3.40606a.319.319,0,0,1,.09323.42747q-.54844,1.34183-1.07836,2.69119a.91159.91159,0,0,1-.27172.361c-1.10756.95611-2.21672,1.91044-3.31558,2.87649a.31529.31529,0,0,1-.50424.00527Q98.14158,78.143,96.2068,76.48372a.37619.37619,0,0,1-.13638-.50883c.36638-.86866.708-1.74778,1.057-2.62377a.84617.84617,0,0,1,.22946-.34855q1.70285-1.4669,3.40064-2.93964A.37684.37684,0,0,1,101.01454,69.92253Zm.49929,6.67473c.06374-.04855.121-.08748.173-.13248,1.01643-.87911,2.0292-1.76249,3.05124-2.635.16439-.14033.10693-.20727-.01932-.31632q-1.77974-1.53737-3.55093-3.08458a.23555.23555,0,0,0-.37822.0002Q99.30013,71.734,97.79325,73.019c-.15671.134-.19257.21161-.00958.36818,1.19126,1.01926,2.37152,2.05137,3.556,3.07857C101.392,76.51113,101.45041,76.54965,101.51383,76.59726Zm-.74957,2.56655a.8269.8269,0,0,0,.13858-.06539q1.39136-1.20092,2.7797-2.40531a.54548.54548,0,0,0,.14982-.19106c.28843-.70517.57036-1.413.87176-2.164a.90549.90549,0,0,0-.13139.06881q-1.37687,1.1904-2.75118,2.38374a.639.639,0,0,0-.18318.20965C101.34773,77.704,101.06662,78.41156,100.76426,79.16381Z" style="fill:#fff"/></svg>