<svg xmlns="http://www.w3.org/2000/svg" viewBox="0 0 104.90692 92.17832"><path d="M10.18805,31.17307c-.59467-.72905-1.1243-1.37741-1.6529-2.02658q-2.1889-2.68829-4.381-5.374a.5115.5115,0,0,1-.1154-.51119q.444-1.72967.85642-3.46735a.48225.48225,0,0,1,.35351-.38405c1.412-.49949,2.82217-1.00426,4.22677-1.524a.42993.42993,0,0,1,.56634.17072c.87128,1.08472,1.76374,2.15252,2.6273,3.24325a.38759.38759,0,0,0,.53126.1345c2.87193-1.0398,5.74878-2.06605,8.61862-3.11154a.4898.4898,0,0,1,.65445.18087q1.35516,1.70163,2.74348,3.37674a.47989.47989,0,0,1,.10887.47946q-.44625,1.74735-.86819,3.50085a.46063.46063,0,0,1-.33143.36383Q17.3156,28.66593,10.508,31.11545C10.377,31.16251,10.24292,31.24548,10.18805,31.17307Zm14.75586-8.7275a.61965.61965,0,0,0-.33188.08568q-2.94746,1.05515-5.89353,2.11417Q15.17292,25.92,11.62826,27.19714c-.11889.04279-.25046.05623-.29019.219-.27021,1.10728-.54622,2.21315-.82682,3.34562a1.46418,1.46418,0,0,0,.17127-.03535q6.62492-2.38054,13.2508-4.7583a.38377.38377,0,0,0,.26072-.32893c.23595-.97371.48073-1.94528.72149-2.91784A.42392.42392,0,0,0,24.94391,22.44557ZM5.17658,20.00434c-.2713,1.08544-.5161,2.10405-.78561,3.11609a.63773.63773,0,0,0,.14859.63666c1.18244,1.4377,2.35426,2.88413,3.531,4.32656.69061.84657,1.384,1.69089,2.10008,2.56551.03734-.11559.06625-.18986.08537-.26658.23657-.94891.46316-1.90044.71311-2.84579a.59441.59441,0,0,0-.13158-.60323c-.80728-.968-1.59845-1.94947-2.39527-2.92621C7.37088,22.69412,6.29955,21.38087,5.17658,20.00434Z" style="fill:#fff"/><path d="M14.54494,10.22982q.2055-1.811.41033-3.62215c.02223-.19794.19314-.21976.32584-.281q4.81575-2.22324,9.63318-4.44285c1.30586-.60207,2.61436-1.19858,3.915-1.81162a.3997.3997,0,0,1,.56943.1092q3.013,3.5035,6.04765,6.98828a.58531.58531,0,0,1,.1579.50722c-.13865,1.112-.26173,2.2261-.37868,3.34068a.40143.40143,0,0,1-.26274.37086c-1.45843.66513-2.91577,1.33284-4.36588,2.01581-.2345.11044-.33753.01088-.47-.14308-.90853-1.0556-1.82724-2.10252-2.72916-3.16371a.37264.37264,0,0,0-.53086-.12261c-2.896,1.34733-5.79951,2.67832-8.69478,4.0271a.43185.43185,0,0,1-.61609-.14107c-.92962-1.09956-1.87973-2.18179-2.82114-3.27139C14.64474,10.48505,14.52,10.39571,14.54494,10.22982Zm20.653-2.84394a1.58059,1.58059,0,0,0-.09331-.13773Q32.18473,3.87446,29.26742.49857a.31911.31911,0,0,0-.45231-.08232Q22.24937,3.45312,15.676,6.47339c-.29214.134-.26085.21753-.07715.42524Q16.86558,8.33092,18.10186,9.79a.36468.36468,0,0,0,.52492.10894c2.89827-1.34541,5.803-2.6769,8.70088-4.02313a.42059.42059,0,0,1,.59771.12852c.8993,1.06347,1.82165,2.10742,2.72536,3.16721.14673.17208.26052.21839.46853.10231.27708-.15463.57664-.26879.86565-.40228C33.05227,8.37852,34.11927,7.8847,35.19789,7.38588Zm-7.7754-1.1326a.85372.85372,0,0,0-.1274.02473q-4.34077,1.995-8.682,3.989a.31449.31449,0,0,0-.19342.29883c-.05687.55159-.13,1.10148-.19189,1.65258-.053.47178-.09882.94435-.15355,1.47173.91657-.42126,1.77286-.81369,2.62822-1.20817q3.05295-1.408,6.10492-2.81806c.11494-.0531.23589-.08879.25429-.25676C27.1759,8.36453,27.29908,7.32287,27.42249,6.25328Zm3.18641,6.72647c.06545.00352.09243.0133.11106.00479q2.00917-.91778,4.01777-1.83682a.323.323,0,0,0,.18745-.30646c.0814-.74949.182-1.497.25451-2.2473A3.29246,3.29246,0,0,0,35.24,7.74134c-1.38948.63976-2.74666,1.26716-4.10711,1.88742a.321.321,0,0,0-.18637.30674c-.05669.50367-.119,1.00672-.17495,1.51047C30.71482,11.95627,30.66305,12.46712,30.6089,12.97975Z" style="fill:#fff"/><path d="M18.65809,83.68134c-.17211-.35668-.31739-.67793-.4814-.98931a.51652.51652,0,0,1-.02891-.46927q.62736-1.59694,1.23759-3.20058a.40663.40663,0,0,1,.367-.27194q2.35533-.40482,4.70716-.82973c.22384-.04082.31412.03789.4042.22387.6169,1.27347,1.24975,2.53923,1.86192,3.81494a.34851.34851,0,0,0,.45356.23819c1.47337-.27506,2.95132-.52562,4.42477-.80028a.38.38,0,0,1,.48812.25564q.95824,1.99219,1.94585,3.97023a.55756.55756,0,0,1,.01221.49994q-.61336,1.5456-1.20172,3.101a.48124.48124,0,0,1-.4254.34652q-5.66874.98377-11.33427,1.98609c-1.15072.20219-2.30237.39933-3.45169.60919a.34621.34621,0,0,1-.44189-.22319q-.96575-2.00843-1.95641-4.00482a.52688.52688,0,0,1-.029-.46866c.41259-1.04157.82287-2.08421,1.21635-3.13308a.50264.50264,0,0,1,.465-.35223C17.46225,83.89969,18.02973,83.7907,18.65809,83.68134Zm-.17023-1.11c.07856.18225.13714.33555.20909.48232q.82515,1.68311,1.65467,3.36407c.24539.49857.23974.52035-.31887.62042-1.39372.24968-2.78774.49815-4.18446.73016-.26809.04454-.294.11173-.17575.3478q.86351,1.72352,1.69364,3.4636a.351.351,0,0,0,.46288.22537c1.65965-.30271,3.32216-.58975,4.98391-.88088q4.63737-.81248,9.27582-1.6186c.22957-.03958.27441-.09376.1688-.30609q-.88206-1.77338-1.74463-3.55643a.29593.29593,0,0,0-.38388-.19c-1.46187.26977-2.9277.51815-4.38882.79179a.46636.46636,0,0,1-.60194-.3063c-.59167-1.24624-1.21214-2.47877-1.811-3.72165-.09678-.20085-.18883-.27136-.42688-.223-.70506.14325-1.41769.249-2.12679.3727C20.01959,82.2981,19.2662,82.43336,18.48786,82.57135Zm13.38739-.6521c-.28025.72021-.48084,1.39025-.79453,2.00231a2.00656,2.00656,0,0,0,.07659,2.12888c.53863.91525.95557,1.90212,1.455,2.91911.39969-1.02716.77424-1.99043,1.14955-2.9534a.3973.3973,0,0,0-.04246-.33753C33.11685,84.45351,32.51649,83.22731,31.87525,81.91925ZM25.406,85.50084c.40352-1.03718.77893-2.00217,1.15439-2.96713a.32679.32679,0,0,0-.023-.27334c-.61138-1.24682-1.22273-2.49366-1.86556-3.80469-.03249.079-.04634.11108-.059.14365q-.53861,1.38546-1.07862,2.77036a.43178.43178,0,0,0,.02635.37263C24.16444,82.96954,24.7665,84.19765,25.406,85.50084Z" style="fill:#fff"/><path d="M44.04915,67.67653q-.18147.88357-.36295,1.76716-.76909,3.74222-1.53294,7.48552a.54387.54387,0,0,1-.34488.437q-1.60514.74133-3.19628,1.51277a.5084.5084,0,0,1-.552-.035c-1.269-.77311-2.54107-1.54135-3.82354-2.29174a.44788.44788,0,0,1-.23331-.57471c.28669-1.34941.54639-2.70462.84318-4.05171a.409.409,0,0,0-.24574-.52306c-2.62242-1.56592-5.23737-3.14433-7.86089-4.70838a.45108.45108,0,0,1-.26732-.561q.46241-2.14372.88835-4.29524a.5104.5104,0,0,1,.324-.41152q1.62-.75125,3.22886-1.52654a.488.488,0,0,1,.52271.03215Q37.619,63.65576,43.8068,67.37051C43.92274,67.44022,44.08164,67.484,44.04915,67.67653Zm-.50527-.07619a1.79179,1.79179,0,0,0-.15891-.12516q-6.01827-3.61774-12.03525-7.23757a.3843.3843,0,0,0-.41936-.00283c-.91376.43885-1.83249.86732-2.74833,1.30185-.0788.03739-.18587.04821-.20886.17932q.82953.49882,1.66382,1.00049Q34.8527,65.85018,40.06835,68.984c.11926.07166.2185.15962.38517.07946C41.47249,68.5734,42.49685,68.09451,43.54388,67.60034Zm-4.94625,10.8735a.53263.53263,0,0,0,.32141-.09619c.86425-.40483,1.72352-.82056,2.59273-1.2144a.60932.60932,0,0,0,.37918-.49294c.44018-2.18281.89169-4.36332,1.33827-6.54485.14721-.71912.28969-1.43922.4456-2.2149-1.01871.48219-1.97264.94333-2.93654,1.3826a.56946.56946,0,0,0-.36231.45919c-.39235,1.95189-.796,3.90152-1.19508,5.852Q38.88782,77.03669,38.59763,78.47384Z" style="fill:#fff"/><path d="M95.06559,40.42134c-.11534.03816-.22855-.03251-.34585-.12623q-1.63182-1.304-3.27172-2.59772a.33945.33945,0,0,1-.1275-.45051c.16186-.44255.28446-.89969.45222-1.33976a.35077.35077,0,0,0-.14457-.47262c-.87487-.68189-1.73566-1.38186-2.61168-2.06226a.42909.42909,0,0,1-.17954-.56163q.75345-2.209,1.46443-4.43224a.45171.45171,0,0,1,.44156-.35811c2.342-.28382,4.688-.54224,7.02156-.885a2.09443,2.09443,0,0,1,1.87531.54922c.80868.72176,1.6828,1.37151,2.54466,2.03152a.4309.4309,0,0,1,.16711.59272c-.16421.416-.27441.85321-.43238,1.272a.33507.33507,0,0,0,.13844.44582c.883.69064,1.75494,1.39552,2.63937,2.08433a.40379.40379,0,0,1,.1725.53011c-.5034,1.47232-.995,2.949-1.46415,4.43248a.49761.49761,0,0,1-.50288.38283q-2.98629.35892-5.971.73063C96.32266,40.262,95.71423,40.33978,95.06559,40.42134Zm6.73073-10.538c-.04153-.13946-.14839-.18021-.22714-.24318-.87526-.7-1.758-1.39073-2.62734-2.09786a.6985.6985,0,0,0-.58511-.14792c-1.47328.18914-2.94788.36806-4.42186.5518-.96559.12034-1.93087.24317-2.93818.37017a1.22487,1.22487,0,0,0,.11822.1377c.95022.75708,1.90342,1.51042,2.85039,2.27153a.55448.55448,0,0,0,.46776.07715q1.91256-.24029,3.82524-.47958C99.43481,30.17628,100.61148,30.03061,101.79632,29.88337ZM92.3424,35.61586a1.17333,1.17333,0,0,0,.07724-.14719c.46227-1.39973.91664-2.80216,1.39162-4.19756.07088-.2082-.03259-.2748-.15317-.37032-.94378-.7476-1.89215-1.48959-2.82636-2.249-.21938-.17832-.267-.09669-.33555.11484-.36715,1.1328-.74282,2.26285-1.117,3.39335-.28778.86936-.2896.87007.43245,1.44523C90.65013,34.27319,91.49033,34.93907,92.3424,35.61586Zm3.98188-.01955c-1.27427.15633-2.46692.30033-3.65861.45185a.42265.42265,0,0,1-.39545-.07222c-.13311-.12986-.1865-.06065-.23144.0843-.115.371-.22889.74324-.36724,1.10582a.31078.31078,0,0,0,.1249.41667q1.419,1.11258,2.82295,2.24417c.19247.15538.26736.15208.34755-.1009.33794-1.0663.69468-2.12664,1.04493-3.189C96.11009,36.239,96.20959,35.94153,96.32428,35.59631Zm8.04219-1.33816-2.6101-2.07639c-.26169.79182-.50285,1.53006-.75068,2.266-.07037.209.0432.218.193.19963C102.22443,34.52182,103.25,34.39545,104.36647,34.25815Z" style="fill:#fff"/><path d="M90.38941,3.43293q.17672,1.11812.3533,2.23623c.11174.71065.23628,1.41975.32573,2.13322.02991.23856.13126.31161.34576.35024,1.4161.25508,2.829.528,4.24628.77632a.4072.4072,0,0,1,.39088.40153q.326,2.18688.6765,4.37007a.48241.48241,0,0,1-.14733.47q-1.26664,1.28386-2.51529,2.58539a.45629.45629,0,0,1-.46786.14708q-4.67706-.87851-9.35745-1.73918c-.25653-.04692-.31765-.18135-.35092-.39918-.21368-1.39884-.441-2.79564-.646-4.19574-.03241-.22139-.12121-.28922-.32479-.32584-1.41615-.25481-2.82888-.52876-4.246-.77793a.42859.42859,0,0,1-.41172-.42241q-.32316-2.18721-.67527-4.37007a.44959.44959,0,0,1,.135-.439q1.27916-1.29657,2.54212-2.609a.43126.43126,0,0,1,.43857-.13869Q85.396,2.36551,90.0926,3.237C90.21818,3.26038,90.36427,3.25531,90.38941,3.43293ZM87.32058,6.52924c-.00123-.12787-.12964-.13359-.24576-.15517Q82.63905,5.54973,78.204,4.72176c-.24255-.04556-.308-.01079-.26378.25439q.3198,1.91879.59961,3.84411a.36617.36617,0,0,0,.35859.374c1.382.24409,2.75812.52271,4.142.75512.35313.05932.45776.22068.50472.54182.19956,1.36477.42482,2.72575.62862,4.08994a.30626.30626,0,0,0,.29357.31232q4.42029.81009,8.83648,1.64229c.262.04941.32175.00953.27615-.26489q-.313-1.88415-.58613-3.77476a.4303.4303,0,0,0-.41788-.44143c-1.37144-.23613-2.73567-.5144-4.10777-.74631a.49681.49681,0,0,1-.48934-.51186c-.0555-.50343-.14825-1.00278-.22631-1.50369C87.61089,8.38407,87.46852,7.4755,87.32058,6.52924Zm6.61124,9.828c.04976-.01389.077-.0131.09-.0263.76795-.78272,1.53195-1.56934,2.30438-2.34759.12733-.12829.08357-.26032.06335-.3938-.11482-.75775-.23562-1.5146-.3545-2.27172-.09228-.58773-.18472-1.17543-.28685-1.82527-.54489.556-1.04081,1.05859-1.53258,1.56518-.31188.32129-.73642.6005-.89275.98669-.15755.38926.0864.8701.14047,1.31265.00143.0117.001.02365.0028.03528Q93.6985,14.87265,93.93182,16.35722Zm-5.61338-5.64361c.835-.8579,1.606-1.652,2.38012-2.44308a.33.33,0,0,0,.07811-.32237c-.08655-.52331-.16044-1.0487-.24255-1.57277-.13246-.84542-.26774-1.69039-.41105-2.59363-.82442.847-1.60249,1.65053-2.38707,2.44768-.11391.11576-.082.2371-.06368.361.06875.46634.1432.93185.21642,1.39753C88.02745,8.87,88.16678,9.75185,88.31844,10.71361Z" style="fill:#fff"/><path d="M42.75683,26.39678c-1.81121.15563-3.62288.30641-5.43314.47243a.555.555,0,0,1-.56515-.24358c-.63808-.849-1.29017-1.68763-1.94486-2.524a.57987.57987,0,0,1-.12694-.51688q.413-2.17225.79342-4.35065c.04734-.271.13612-.39546.43935-.41719,1.47169-.10548,2.94079-.24663,4.41217-.35714.2722-.02045.37687-.10629.42427-.38374.23636-1.38322.5057-2.76079.74689-4.14322.04623-.265.14585-.3748.42236-.39616,1.577-.12184,3.15293-.259,4.72848-.3992a.392.392,0,0,1,.38812.17645q1.01084,1.32179,2.0356,2.63282a.51256.51256,0,0,1,.10218.45877c-.05931.28875-.11094.5791-.16426.869-.08164.44386-.0809.4462.35486.41146.48244-.03844.96569-.07141,1.44623-.12711a.48917.48917,0,0,1,.50708.21883c.6534.86707,1.32157,1.723,1.98828,2.58a.46634.46634,0,0,1,.11231.41581q-.42706,2.24157-.82383,4.48882c-.03905.2209-.11013.31986-.35064.33962q-4.747.38994-9.49246.79865Zm2.01-.48146c2.39922-.20322,4.798-.41169,7.19826-.602.25684-.02036.33415-.11822.3748-.3477.22829-1.28891.46152-2.5771.71141-3.86195.05265-.27072-.01243-.31274-.269-.28945-1.44577.13126-2.89315.24469-4.33965.36823-.40844.03488-.457-.00854-.38219-.42076.24416-1.34578.48513-2.69221.74374-4.03524.05486-.285.00508-.36539-.29786-.33619-1.38628.13357-2.7742.25092-4.16251.36182-.20708.01655-.27292.09484-.30773.292-.24389,1.3817-.50982,2.75954-.74865,4.14207-.05505.3187-.16969.451-.514.47524-1.48337.10448-2.964.24713-4.44649.36571-.18393.01471-.27094.07142-.30441.25721-.232,1.28811-.45983,2.57725-.71752,3.86033-.0754.37547.06218.39732.36945.37043C40.03806,26.30829,42.40264,26.11381,44.76686,25.91532ZM48.753,16.03459c-.65786-.85264-1.27395-1.64275-1.87835-2.44169-.11872-.15694-.25852-.13305-.40932-.12078q-2.01153.16363-4.0229.32943a.64043.64043,0,0,0-.383.10515c.63446.82138,1.25514,1.62166,1.8709,2.42569.09033.11794.197.09682.3167.08685.96426-.08046,1.929-.15483,2.89328-.23546C47.65431,16.1408,48.16757,16.08907,48.753,16.03459Zm-12.7358,3.11589c.65669.8506,1.27787,1.65112,1.89305,2.45623.09952.13023.2224.10871.35033.098q1.49976-.1258,2.99934-.25372c.47372-.04127.94666-.09118,1.46753-.1418-.65825-.85308-1.28025-1.65432-1.89514-2.461-.09976-.13086-.22066-.11139-.34855-.101-.81193.06589-1.62509.11976-2.43521.20329C37.39341,19.018,36.73086,19.01509,36.01723,19.15048Zm16.97538,1.29858c-.676-.87519-1.30754-1.69123-1.93665-2.5091-.08162-.1061-.18747-.07728-.28991-.069-.54025.04391-1.08.09477-1.62061.13289-.1633.01153-.25952.062-.29.23648-.13789.78844-.27646,1.57692-.43135,2.36212-.04193.21261.03336.2406.21148.22409.55137-.05109,1.10351-.09371,1.6552-.14143C51.16609,20.60945,52.04131,20.53227,52.99261,20.44906Z" style="fill:#fff"/><path d="M60.68883,5.14918c1.03955-.582,2.07136-1.154,3.096-1.73862.18553-.10585.30894-.02119.453.06074,1.36271.77485,2.72292,1.55423,4.0928,2.31621a.35568.35568,0,0,1,.2037.47723c-.33337,1.35223-.64356,2.71022-.98238,4.061a.39243.39243,0,0,0,.22982.5257c2.7928,1.574,5.57782,3.16177,8.37026,4.7364a.35229.35229,0,0,1,.21242.46965c-.3555,1.43185-.69555,2.86758-1.03138,4.3042a.585.585,0,0,1-.32412.42178q-1.46059.79571-2.90283,1.6249a.45252.45252,0,0,1-.516-.001q-6.53091-3.71628-13.07042-7.4174a.34479.34479,0,0,1-.20046-.45079q1.0965-4.54356,2.17668-9.091C60.52612,5.32145,60.5417,5.185,60.68883,5.14918Zm.121.43622a.52071.52071,0,0,0-.04835.08932q-1.05251,4.39039-2.1071,8.78029c-.04641.19228.02711.27222.17972.35867q6.32523,3.58283,12.643,7.17885c.268.1528.29412.0485.34619-.17592.29078-1.2533.58368-2.50631.90007-3.75328.06654-.2623-.01048-.36667-.224-.48729-2.7719-1.5657-5.53638-3.14456-8.3111-4.70522a.4568.4568,0,0,1-.2609-.615c.338-1.33893.64991-2.68442.96939-4.028.03353-.141.10658-.27191-.09637-.38507C63.47212,7.10221,62.15213,6.347,60.80979,5.5854Zm3.59679,6.97644a1.30241,1.30241,0,0,0,.12569.10355q4.1375,2.35284,8.27452,4.70645a.314.314,0,0,0,.35556-.01168c.48091-.276.97051-.53688,1.45434-.80792.41558-.23282.82771-.4718,1.28955-.73557-.873-.497-1.69086-.964-2.50994-1.42869q-2.92408-1.65912-5.84948-3.31592c-.10937-.06194-.20853-.145-.35652-.06171C66.27622,11.52508,65.35809,12.03261,64.40658,12.56184ZM61.06878,5.3012a.65439.65439,0,0,0,.09729.09585q1.90464,1.08446,3.80918,2.16906a.32016.32016,0,0,0,.35791-.00792c.43053-.24436.867-.47818,1.29844-.72093.46406-.26108.925-.52768,1.394-.79569-.04954-.063-.06006-.08773-.07865-.09834-1.25868-.71811-2.5192-1.433-3.77577-2.15477a.3621.3621,0,0,0-.4207.00642c-.26026.16042-.53628.29506-.80315.445C62.324,4.59015,61.70223,4.9431,61.06878,5.3012Z" style="fill:#fff"/><path d="M10.61049,58.24385q.72246.89472,1.44485,1.78948c.43688.54159.8879,1.07273,1.30252,1.63088.16467.22166.30533.217.53286.13493,1.33147-.4805,2.67011-.94115,4.00085-1.42362a.42865.42865,0,0,1,.57047.14985q1.35935,1.72176,2.74519,3.42253a.5125.5125,0,0,1,.12245.51059q-.45983,1.74422-.88977,3.49626a.42811.42811,0,0,1-.30545.34232q-4.50825,1.58087-9.0106,3.17848c-.25487.09078-.36605-.01876-.49852-.18391-.87817-1.09478-1.76517-2.18257-2.63406-3.28464a.34778.34778,0,0,0-.47007-.13477c-1.354.48769-2.71512.95551-4.068,1.44622a.40733.40733,0,0,1-.54114-.1479Q1.51691,67.40969.09963,65.6664a.39088.39088,0,0,1-.08036-.38735c.30689-1.18713.61309-2.37448.90786-3.56465a.43086.43086,0,0,1,.31792-.33286q4.50722-1.58382,9.01185-3.175C10.38339,58.162,10.50456,58.111,10.61049,58.24385Zm-2.6029,9.29667c.06857.081.1389.16062.20545.24326.85783,1.06526,1.7176,2.129,2.56967,3.19883a.30991.30991,0,0,0,.40957.13556q4.25126-1.51206,8.51-3.0031c.19845-.06961.24257-.13436.09956-.31-.83386-1.02388-1.66626-2.04907-2.48574-3.08443a.33118.33118,0,0,0-.44674-.11386c-1.33293.47686-2.67406.93126-4.00158,1.42251a.50644.50644,0,0,1-.68008-.20269c-.83707-1.06663-1.69682-2.11543-2.53757-3.17924a.4164.4164,0,0,0-.56063-.1647c-.7935.30163-1.60055.56754-2.40152.84964-1.99173.70147-3.982,1.407-5.97576,2.10272-.24039.08388-.29882.13777-.109.36688q1.21848,1.471,2.39556,2.976a.43059.43059,0,0,0,.58586.16206c1.3298-.48556,2.66787-.94849,4.00359-1.41774C7.72833,67.473,7.87464,67.38106,8.00759,67.54052Zm2.21173-8.95965a.86816.86816,0,0,0-.14366.01781q-4.32034,1.52066-8.6416,3.03871c-.17949.06279-.21646.18106-.25481.33419-.24053.96035-.48766,1.919-.73,2.879a.42671.42671,0,0,0-.02114.33373c.02736-.01.05961-.02226.09213-.03372Q4.84016,63.629,9.16076,62.10938a.30579.30579,0,0,0,.22611-.23715C9.6568,60.78623,9.93461,59.70219,10.21932,58.58087Zm2.55705,7.08175a1.215,1.215,0,0,0,.17234-.02847c1.30038-.45667,2.599-.91836,3.90162-1.36851a.42728.42728,0,0,0,.287-.359c.19929-.79971.409-1.59684.60613-2.39708a3.41439,3.41439,0,0,0,.16963-.80735c-1.136.39968-2.23171.84249-3.36224,1.16195a1.41923,1.41923,0,0,0-1.15294,1.2774C13.25182,63.98361,12.9929,64.806,12.77637,65.66262Zm-2.23615-6.966-.16268.6323.08867.01989C10.50747,59.14731,10.92892,59.03733,10.54022,58.69662Z" style="fill:#fff"/><path d="M88.66955,86.71531a.55486.55486,0,0,1-.18341.29686c-.93791,1.04445-1.88274,2.08281-2.809,3.13748-.17966.20458-.31842.167-.514.06324q-5.82915-3.09348-11.66145-6.181c-.70871-.37547-1.41143-.763-2.12959-1.11946a.46112.46112,0,0,1-.28782-.55224q.34218-3.45177.64759-6.90714a.9993.9993,0,0,1,.27117-.62517q1.372-1.50292,2.72-3.02773a.368.368,0,0,1,.537-.104q2.17876,1.17259,4.37309,2.31616a.376.376,0,0,1,.23312.44273c-.108,1.03258-.18218,2.06879-.29763,3.10044a.44.44,0,0,0,.2802.51757q4.1017,2.15946,8.19525,4.33438c.995.52576.994.5202.88128,1.63C88.83462,84.92954,88.75439,85.82266,88.66955,86.71531ZM72.2071,75.5037c-.28841-.08745-.17831.19556-.18871.30081-.211,2.13651-.40441,4.27476-.61553,6.41125a.44978.44978,0,0,0,.28028.51767q6.65078,3.50634,13.2924,7.03c.24506.13.33981.12692.36311-.18639q.09974-1.34072.25005-2.6774a.44088.44088,0,0,0-.27133-.526c-2.94452-1.54653-5.881-3.1084-8.82453-4.65676a.51932.51932,0,0,1-.33145-.604c.11766-1.01918.188-2.04376.30036-3.06364a.37123.37123,0,0,0-.24742-.43343c-.45254-.2285-.897-.473-1.34544-.70964C73.99275,76.44392,73.11609,75.98259,72.2071,75.5037Zm4.32205,5.40957c.6981-.77663,1.30639-1.50957,1.97647-2.18086a2.52018,2.52018,0,0,0,.829-1.85576c.00442-.67884.11053-1.357.18039-2.131-.91173,1.01654-1.75089,1.95433-2.59369,2.88885a.57155.57155,0,0,0-.12458.35848C76.70973,78.93022,76.62471,79.86761,76.52915,80.91327ZM88.649,83.542c-.13628.13764-.22.21548-.29613.30016-.63868.71079-1.26081,1.4373-1.92,2.12845a1.786,1.786,0,0,0-.54728,1.2109c-.03916.8061-.13884,1.60928-.221,2.50113.90984-1.01275,1.75917-1.9593,2.61057-2.904a.47007.47007,0,0,0,.10555-.29278C88.46746,85.53454,88.55411,84.58318,88.649,83.542Z" style="fill:#fff"/><path d="M98.33513,63.99583c.13231.34717.23066.65032.3628.938a.69992.69992,0,0,1-.034.66724q-.73749,1.4506-1.444,2.91683a.45487.45487,0,0,1-.4286.29115q-2.36484.1861-4.72721.40243c-.24045.02224-.33039-.06214-.40908-.27077-.49523-1.31293-1.00951-2.61867-1.50079-3.933-.08875-.23745-.18939-.321-.453-.2956-1.49191.14378-2.98626.262-4.4786.40167a.36.36,0,0,1-.44-.27954c-.52181-1.3909-1.05816-2.77637-1.59707-4.16078a.52309.52309,0,0,1,.02715-.46671q.75509-1.50137,1.49075-3.01243a.455.455,0,0,1,.42635-.29276q7.02134-.58545,14.04141-1.18631c.16465-.014.33009-.01876.49475-.0327.74994-.06343.74871-.06361,1.02556.65809.4603,1.2.91489,2.40226,1.38929,3.59665a.80153.80153,0,0,1-.04042.731c-.46379.90181-.91716,1.80958-1.34693,2.728a.68159.68159,0,0,1-.69213.46425C99.461,63.86723,98.92162,63.94448,98.33513,63.99583Zm3.43986-3.8496a.64785.64785,0,0,0-.01522-.13093c-.49155-1.289-.98874-2.57579-1.47273-3.86756-.07542-.20129-.20122-.18525-.36076-.17156q-2.97984.25581-5.96017.50595-4.26806.35988-8.53668.7129c-.24307.01971-.23266.10773-.16508.28254q.71426,1.8474,1.41877,3.69852a.29617.29617,0,0,0,.362.22944c1.48-.13906,2.96214-.25605,4.4419-.39772a.46635.46635,0,0,1,.57611.353c.4733,1.28324.97822,2.55478,1.45947,3.83515.08567.22792.16846.33225.4496.29728.70191-.08733,1.41038-.1214,2.11594-.18024.76333-.06366,1.52635-.13116,2.32685-.20021-.08361-.23073-.1519-.4288-.2268-.62434-.45121-1.178-.89915-2.35729-1.35962-3.53166-.1098-.28-.03806-.39116.25606-.40982.44729-.02839.89334-.076,1.34-.11433C99.5393,60.337,100.654,60.242,101.775,60.14623ZM85.01472,64.57009c.49624-1.002.95344-1.929,1.41536-2.85359a.41868.41868,0,0,0-.03825-.36911q-.32764-.85771-.65766-1.71453c-.26713-.696-.53421-1.392-.826-2.15226-.49164.9921-.9506,1.91854-1.41,2.84477a.36226.36226,0,0,0,.00255.30713C83.99559,61.91754,84.48931,63.203,85.01472,64.57009Zm6.76186-2.99141c-.49445.99731-.95437,1.925-1.41436,2.85274a.32676.32676,0,0,0-.00123.2743c.49779,1.29628.99554,2.59258,1.51841,3.95429.03966-.07505.05664-.10554.07213-.13679q.66-1.33191,1.32131-2.66317a.43175.43175,0,0,0,.00673-.3735C92.78749,64.21038,92.29731,62.93348,91.77658,61.57868Z" style="fill:#fff"/></svg>